<svg width="27" height="27" viewBox="0 0 27 27" fill="none" xmlns="http://www.w3.org/2000/svg">
<g clip-path="url(#clip0_15_1172)">
<path d="M10.4575 8.90969C9.97373 7.72095 9.19342 6.6907 9.02175 5.37516C8.83967 5.37516 8.66801 5.35931 8.50154 5.38572C8.42871 5.39629 8.35068 5.48611 8.30906 5.56007C7.8929 6.2469 7.48713 6.9443 7.07617 7.63641C7.03455 7.71038 6.98773 7.77906 6.92531 7.87945C6.84728 7.75793 6.77965 7.65755 6.72243 7.55716C6.35828 6.93902 5.98894 6.32615 5.62999 5.70272C5.52075 5.51252 5.3959 5.33289 5.1462 5.39629C4.87049 5.46497 4.84448 5.69216 4.84448 5.93519C4.84968 6.78052 4.84448 7.62056 4.84448 8.46589C4.84448 8.55043 4.84448 8.63496 4.84448 8.73534C4.56357 8.73534 4.30866 8.73534 4.02775 8.73534C4.02255 8.66138 4.01215 8.58741 4.01215 8.51344C4.01215 7.59943 4.01215 6.68542 4.01215 5.77141C4.01215 5.20609 4.34508 4.74644 4.86529 4.58266C5.38029 4.41888 5.91611 4.60908 6.23343 5.07401C6.35308 5.25364 6.45712 5.44912 6.57157 5.63404C6.68081 5.81367 6.78485 5.9933 6.91491 6.2152C6.97733 6.1201 7.02415 6.0567 7.06577 5.98802C7.29986 5.59177 7.55476 5.20081 7.76805 4.78871C7.87729 4.57209 8.01775 4.51398 8.23623 4.52983C8.48593 4.54568 8.73563 4.53511 8.98013 4.53511C9.62519 1.59231 11.1286 0.287331 13.8441 0.313747C15.8053 0.334881 17.9017 1.89346 18.1566 4.52983C18.4479 4.52983 18.7392 4.54039 19.0305 4.52454C19.171 4.51926 19.249 4.57209 19.3167 4.69361C19.6028 5.19024 19.8993 5.68687 20.2218 6.22577C20.4455 5.85066 20.6432 5.50196 20.8513 5.16383C21.1842 4.61436 21.7668 4.3819 22.3235 4.59323C22.7812 4.76758 23.0986 5.11099 23.1194 5.60234C23.1558 6.63787 23.1298 7.6734 23.1298 8.72478C22.8541 8.72478 22.594 8.72478 22.3027 8.72478C22.3027 8.41306 22.3027 8.10663 22.3027 7.80548C22.3027 7.15563 22.3027 6.50579 22.3027 5.85594C22.3027 5.63404 22.235 5.44912 22.0061 5.39101C21.7824 5.33289 21.6524 5.47026 21.5483 5.64989C21.1166 6.37899 20.6848 7.10808 20.2322 7.87945C20.1698 7.77906 20.1178 7.7051 20.071 7.63113C19.7068 7.01298 19.3427 6.39484 18.9785 5.78197C18.6976 5.31176 18.6976 5.31176 18.2138 5.38572C17.9745 6.00387 17.7716 6.5956 17.5219 7.17148C17.2722 7.74736 16.9705 8.30211 16.6844 8.88856C16.7468 8.94668 16.8145 8.99951 16.8769 9.05234C17.2306 9.36406 17.3607 9.7603 17.3087 10.2305C17.2983 10.3203 17.3451 10.4419 17.4023 10.5158C17.5532 10.7113 17.8341 10.8804 17.8601 11.0864C17.8861 11.2819 17.6572 11.5144 17.5427 11.7257C17.5115 11.7785 17.4855 11.8314 17.4543 11.8842C17.3191 12.1325 17.3919 12.3069 17.6728 12.3861C17.9121 12.4548 18.1566 12.5129 18.3907 12.5974C18.4635 12.6239 18.552 12.7295 18.552 12.7982C18.5624 13.4745 18.5624 14.1507 18.552 14.827C18.552 14.8904 18.4687 14.9908 18.4063 15.0119C18.1514 15.0964 17.8913 15.1598 17.6364 15.2338C17.3971 15.3025 17.3243 15.4927 17.4491 15.7146C17.5792 15.9523 17.7196 16.1848 17.8393 16.4278C17.8705 16.4912 17.8549 16.618 17.8081 16.6709C17.3451 17.1569 16.8717 17.6377 16.3931 18.1079C16.3463 18.1555 16.2162 18.1661 16.1538 18.1344C15.9145 18.0128 15.6856 17.8702 15.4515 17.7381C15.233 17.6166 15.0458 17.6958 14.9781 17.9389C14.9053 18.1978 14.8481 18.4672 14.7596 18.7208C14.7388 18.7842 14.64 18.8687 14.5724 18.8687C13.9065 18.8793 13.2406 18.8793 12.5748 18.8687C12.5071 18.8687 12.4083 18.7736 12.3823 18.6997C12.2991 18.4513 12.2418 18.1925 12.169 17.9442C12.1014 17.6958 11.9193 17.6219 11.7008 17.7434C11.4719 17.8702 11.2482 17.997 11.0245 18.1344C10.9101 18.203 10.8321 18.2083 10.7332 18.1027C10.2806 17.6324 9.81766 17.1675 9.35468 16.7026C9.25584 16.6075 9.24023 16.5282 9.31306 16.4067C9.44311 16.2007 9.55756 15.984 9.67721 15.7674C9.83847 15.4768 9.77605 15.3183 9.46392 15.2285C9.22983 15.1598 9.00094 15.0859 8.76684 15.033C8.63159 15.0013 8.58477 14.9485 8.58477 14.8059C8.58997 14.1402 8.58477 13.4692 8.59518 12.8035C8.59518 12.7348 8.68881 12.6291 8.75644 12.6027C8.98013 12.5182 9.21942 12.4601 9.45352 12.3967C9.77605 12.3069 9.84367 12.1431 9.67201 11.8419C9.55236 11.6306 9.42231 11.4193 9.31826 11.1974C9.28705 11.1287 9.32347 11.0177 9.35468 10.9332C9.38069 10.8751 9.44311 10.8275 9.49514 10.78C9.73963 10.5634 9.9009 10.352 9.84888 9.96107C9.79165 9.50671 10.0934 9.16857 10.4575 8.90969ZM13.9897 8.75119C14.5724 8.75119 15.1186 8.75648 15.6648 8.74591C15.7428 8.74591 15.8469 8.65609 15.8833 8.58213C16.2422 7.87416 16.6012 7.16092 16.9393 6.44239C17.3555 5.56007 17.4283 4.64078 17.1318 3.70563C16.57 1.96214 14.9157 0.947744 13.0325 1.19606C10.5356 1.52891 9.13099 4.13886 10.213 6.44239C10.5512 7.16092 10.9101 7.87416 11.269 8.58213C11.3055 8.65081 11.3783 8.74063 11.4355 8.74591C12.0025 8.75648 12.5696 8.75119 13.1626 8.75119C13.1626 8.10135 13.1522 7.47791 13.1678 6.85448C13.173 6.65372 13.1054 6.57447 12.9285 6.49522C12.3147 6.22577 11.9609 5.73971 11.9193 5.05288C11.8777 4.32378 12.195 3.76903 12.8297 3.44147C13.4487 3.12447 14.0574 3.19315 14.6088 3.6211C15.618 4.4136 15.3891 5.99859 14.2082 6.51635C14.125 6.55334 14.0053 6.63259 14.0053 6.69599C13.9845 7.37225 13.9897 8.04851 13.9897 8.75119ZM16.8769 16.4543C16.7884 16.2958 16.7364 16.1637 16.648 16.058C16.4191 15.7621 16.3879 15.4768 16.6064 15.1598C16.6844 15.0436 16.7 14.8745 16.7676 14.7478C16.8093 14.6685 16.8925 14.584 16.9705 14.5576C17.2202 14.4677 17.4751 14.4043 17.7144 14.3357C17.7144 13.9711 17.7144 13.6383 17.7144 13.3107C17.5948 13.2737 17.4907 13.2314 17.3815 13.2103C17.0329 13.1416 16.8145 13.0095 16.6428 12.6239C16.4243 12.1325 16.4711 11.7785 16.7624 11.3876C16.8041 11.3294 16.7936 11.2343 16.8093 11.1551C16.7208 11.1657 16.622 11.1498 16.5544 11.1921C16.4919 11.2291 16.4659 11.3294 16.4295 11.4034C16.263 11.7944 16.0966 12.1853 15.9457 12.5816C15.9093 12.682 15.8885 12.8035 15.9041 12.9092C15.9457 13.2209 16.055 13.5273 16.055 13.8337C16.0446 14.864 15.566 15.6353 14.6608 16.0897C13.7608 16.5388 12.8713 16.449 12.0754 15.8308C11.269 15.2074 10.9205 14.3568 11.1442 13.3477C11.243 12.9039 11.269 12.534 10.9725 12.1748C10.9205 12.1114 10.8945 12.0216 10.8685 11.937C10.8113 11.7468 10.78 11.5408 10.702 11.3611C10.6604 11.266 10.5512 11.1921 10.4627 11.1287C10.4419 11.1128 10.3379 11.1604 10.3379 11.1657C10.3535 11.2555 10.3795 11.34 10.4107 11.4245C10.4315 11.4827 10.4627 11.5355 10.4991 11.583C10.7384 11.8736 10.7644 12.1642 10.5408 12.4812C10.4731 12.5763 10.4315 12.7031 10.4107 12.8246C10.3743 13.0201 10.2546 13.0941 10.083 13.1311C9.85928 13.1839 9.64079 13.2526 9.43271 13.3054C9.43271 13.67 9.43271 14.0028 9.43271 14.3357C9.60438 14.3832 9.75524 14.4466 9.9165 14.4677C10.2286 14.5047 10.3327 14.7108 10.4783 14.9696C10.754 15.4663 10.6864 15.8625 10.3743 16.2799C10.3327 16.3327 10.3379 16.4701 10.3743 16.5229C10.5616 16.7501 10.7696 16.9667 10.9673 17.1834C11.139 17.083 11.2742 17.0249 11.3887 16.935C11.6644 16.7184 11.9297 16.6814 12.2314 16.8928C12.3563 16.9773 12.5227 16.9932 12.658 17.0671C12.736 17.1094 12.8193 17.1939 12.8453 17.2732C12.9337 17.5268 12.9961 17.7857 13.0638 18.0287C13.4227 18.0287 13.7504 18.0287 14.0782 18.0287C14.125 17.8543 14.1822 17.6958 14.2082 17.5373C14.2498 17.2256 14.4423 17.1147 14.7024 16.9667C15.1914 16.692 15.5816 16.7501 15.9925 17.0724C16.0446 17.1147 16.1798 17.1094 16.2318 17.0724C16.4555 16.8716 16.6636 16.6603 16.8769 16.4543ZM11.5708 11.2925C11.6956 12.2329 12.6476 13.0095 13.6308 12.9726C14.5984 12.9356 15.5191 12.1378 15.566 11.2925C14.2342 11.2925 12.9025 11.2925 11.5708 11.2925ZM11.9869 13.353C11.7632 14.0134 12.0754 14.8428 12.684 15.2338C13.2666 15.6036 14.0105 15.5772 14.5568 15.1651C15.1134 14.7425 15.3475 14.0345 15.1446 13.3635C14.099 13.9711 13.0482 13.9764 11.9869 13.353ZM13.5684 10.4419C14.3643 10.4419 15.1602 10.4419 15.9561 10.4419C16.2786 10.4419 16.4815 10.2728 16.4763 10.0192C16.4763 9.76559 16.2682 9.60181 15.9509 9.60181C14.3695 9.60181 12.7881 9.60181 11.2014 9.60181C10.8789 9.60181 10.676 9.7603 10.6656 10.0139C10.6604 10.2728 10.8685 10.4471 11.2066 10.4471C11.9973 10.4419 12.7828 10.4419 13.5684 10.4419ZM13.584 4.11245C13.147 4.10188 12.7516 4.49284 12.7412 4.94193C12.7308 5.38572 13.1158 5.78726 13.558 5.79782C13.9949 5.80839 14.3903 5.41742 14.4007 4.96834C14.4111 4.52454 14.0261 4.11773 13.584 4.11245Z" fill="black"/>
<path d="M24.3835 17.4C24.9713 17.6536 25.4551 18.0129 25.8245 18.5201C26.2354 19.0907 26.4539 19.7247 26.4539 20.4326C26.4539 22.3557 26.4539 24.2842 26.4539 26.2073C26.4539 26.2865 26.4539 26.3605 26.4539 26.4556C24.0974 26.4556 21.7564 26.4556 19.3999 26.4556C19.3999 25.9061 19.3999 25.3672 19.3999 24.7861C18.8589 24.7861 18.3335 24.7914 17.8081 24.7861C17.652 24.7861 17.4959 24.7755 17.3503 24.728C16.7572 24.5483 16.3931 23.9302 16.4919 23.3067C16.5856 22.7097 17.111 22.2606 17.7092 22.2554C18.4063 22.2501 19.1086 22.2554 19.8317 22.2554C19.8785 21.7059 19.9357 21.1776 19.9565 20.644C19.9981 19.5767 20.3311 18.6521 21.1582 17.9495C21.2518 17.8702 21.3455 17.7963 21.4599 17.7064C20.742 17.2309 20.2999 16.5864 20.227 15.7305C20.1646 15.0067 20.3727 14.3568 20.8513 13.8126C21.772 12.7665 23.3275 12.6767 24.3679 13.6066C25.3355 14.4678 25.6164 16.1479 24.3835 17.4ZM22.7084 19.7564C22.7084 19.8356 22.7136 19.8779 22.7084 19.9201C22.62 20.9081 22.5472 21.8961 22.4379 22.8841C22.3339 23.8668 21.6836 24.5642 20.7368 24.7597C20.5704 24.7914 20.3987 24.7914 20.2426 24.8072C20.2426 25.0925 20.2426 25.362 20.2426 25.6314C21.153 25.6314 22.0478 25.6314 22.9373 25.6314C23.8269 25.6314 24.7112 25.6314 25.6164 25.6314C25.6216 25.5522 25.6268 25.4993 25.6268 25.4518C25.6268 23.8087 25.6268 22.1655 25.6268 20.5224C25.6268 20.3851 25.606 20.2424 25.5852 20.1051C25.4187 18.9427 24.4407 18.071 23.2754 18.0393C22.1518 18.0076 21.0854 18.8529 20.9033 19.9888C20.7889 20.7074 20.7472 21.4365 20.6952 22.1603C20.6484 22.789 20.3467 23.0954 19.7172 23.0954C19.0774 23.0954 18.4375 23.0901 17.7977 23.0954C17.5167 23.0954 17.3243 23.275 17.3191 23.5075C17.3139 23.7453 17.5063 23.9302 17.7873 23.9355C18.6508 23.9407 19.5195 23.946 20.3831 23.9302C21.0229 23.9196 21.4963 23.4864 21.5848 22.8418C21.6524 22.3399 21.6836 21.8274 21.7304 21.3202C21.7824 20.7708 21.8293 20.2266 21.8813 19.6665C22.1726 19.7035 22.4275 19.7299 22.7084 19.7564ZM21.0542 15.4874C21.0438 16.3962 21.7877 17.1675 22.6876 17.1887C23.5876 17.2098 24.3627 16.4384 24.3731 15.5139C24.3835 14.6051 23.6396 13.8338 22.7396 13.8126C21.8397 13.7968 21.0594 14.5681 21.0542 15.4874Z" fill="black"/>
<path d="M0.693222 26.4556C0.693222 25.8216 0.693222 25.2087 0.693222 24.5959C0.693222 23.2486 0.693222 21.9067 0.693222 20.5594C0.693222 19.1118 1.36429 18.0921 2.62839 17.4581C2.66481 17.437 2.70122 17.4211 2.74284 17.4C1.36949 15.9629 1.95733 14.1825 2.95613 13.4534C4.07457 12.6397 5.61959 12.8722 6.44152 14.0028C7.23744 15.0965 7.10218 16.7818 5.70282 17.6959C5.71323 17.717 5.72363 17.7487 5.73924 17.7593C6.72243 18.4619 7.1386 19.4552 7.18541 20.6492C7.20622 21.1723 7.26345 21.6953 7.31026 22.2554C7.41431 22.2554 7.50794 22.2554 7.59638 22.2554C8.21022 22.2554 8.82407 22.2501 9.43791 22.2554C10.1246 22.2606 10.6604 22.8207 10.6604 23.5234C10.6604 24.2207 10.1194 24.7808 9.43271 24.7861C8.8969 24.7913 8.36108 24.7913 7.82527 24.7913C7.80966 24.7913 7.79406 24.8019 7.76284 24.8178C7.76284 25.3514 7.76284 25.8956 7.76284 26.4556C5.4063 26.4556 3.06537 26.4556 0.693222 26.4556ZM5.25024 19.6771C5.27105 19.7881 5.29186 19.8726 5.29706 19.9624C5.37509 20.8289 5.45832 21.6953 5.51555 22.5618C5.57797 23.4652 6.05656 23.9407 6.94092 23.946C7.20102 23.946 7.46112 23.946 7.72123 23.946C8.26745 23.946 8.81366 23.9513 9.35468 23.946C9.63559 23.9407 9.82807 23.7611 9.82287 23.5234C9.82287 23.2856 9.63039 23.1165 9.34948 23.106C9.28705 23.106 9.22983 23.106 9.16741 23.106C8.55356 23.106 7.93972 23.106 7.32587 23.106C6.84728 23.106 6.50394 22.7943 6.46233 22.3082C6.4051 21.6425 6.34268 20.9768 6.30106 20.3111C6.21263 18.8423 4.77165 17.7593 3.36189 18.1185C2.25385 18.3985 1.52555 19.3548 1.52035 20.5488C1.51515 22.1761 1.52035 23.7981 1.52035 25.4253C1.52035 25.494 1.53076 25.5574 1.53596 25.6155C3.34108 25.6155 5.12539 25.6155 6.9045 25.6155C6.9045 25.3355 6.9045 25.0714 6.9045 24.8019C6.84728 24.7966 6.80566 24.7913 6.76405 24.7913C5.656 24.7596 4.82887 24.0094 4.69882 22.8894C4.6364 22.2871 4.59478 21.6795 4.54276 21.0772C4.50634 20.6439 4.46993 20.2107 4.43352 19.7564C4.71443 19.7299 4.96933 19.7035 5.25024 19.6771ZM2.77405 15.4874C2.76365 16.3909 3.50234 17.1675 4.4023 17.1887C5.30226 17.2098 6.07737 16.4384 6.09298 15.5191C6.10338 14.6157 5.35949 13.839 4.45953 13.8179C3.55957 13.7968 2.78446 14.5681 2.77405 15.4874Z" fill="black"/>
<path d="M4.03816 9.60181C4.30867 9.60181 4.55837 9.60181 4.82888 9.60181C4.82888 9.87126 4.82888 10.1354 4.82888 10.4207C4.57398 10.4207 4.30867 10.4207 4.03816 10.4207C4.03816 10.146 4.03816 9.87654 4.03816 9.60181Z" fill="black"/>
<path d="M22.313 9.60712C22.5784 9.60712 22.8333 9.60712 23.109 9.60712C23.109 9.87128 23.109 10.1354 23.109 10.4207C22.8489 10.4207 22.5888 10.4207 22.313 10.4207C22.313 10.1566 22.313 9.8977 22.313 9.60712Z" fill="black"/>
<path d="M4.02776 12.1061C4.02776 11.8313 4.02776 11.5725 4.02776 11.2977C4.29826 11.2977 4.55837 11.2977 4.83408 11.2977C4.83408 11.5672 4.83408 11.8261 4.83408 12.1061C4.57918 12.1061 4.31387 12.1061 4.02776 12.1061Z" fill="black"/>
<path d="M23.109 12.1167C22.8385 12.1167 22.5784 12.1167 22.313 12.1167C22.313 11.8472 22.313 11.5884 22.313 11.3083C22.568 11.3083 22.8281 11.3083 23.109 11.3083C23.109 11.5619 23.109 11.8261 23.109 12.1167Z" fill="black"/>
</g>
<defs>
<clipPath id="clip0_15_1172">
<rect width="25.7555" height="26.1418" fill="white" transform="translate(0.693222 0.313782)"/>
</clipPath>
</defs>
</svg>
