<svg width="1274" height="619" viewBox="0 0 1274 619" fill="none" xmlns="http://www.w3.org/2000/svg">
<path d="M1.66722e-05 619C1.66722e-05 586.199 -0.207814 553.398 0.207847 520.456C0.415677 497.79 1.66266 475.125 2.07832 452.46C2.07832 448.377 1.247 444.154 0.831338 439.931C1.247 436.411 2.07832 432.751 2.07832 429.091C2.28615 412.479 2.07832 395.867 2.07832 378.833C6.0271 377.144 10.1837 375.454 14.3403 373.484C14.3403 371.09 14.3403 368.838 14.3403 366.163C44.6835 352.789 74.819 339.556 105.37 326.182C105.37 310.697 105.37 295.352 105.37 279.866C120.334 271.983 134.882 264.24 149.43 256.638C163.77 249.177 178.318 241.715 192.659 234.254C206.376 227.215 220.092 220.317 233.601 213.138C250.851 203.987 268.101 194.696 285.351 185.545C300.731 177.38 316.526 169.496 332.113 161.472C346.245 154.152 360.378 146.69 374.302 139.229C386.98 132.613 399.866 125.996 412.751 119.239C425.013 112.763 436.859 106.287 449.121 99.8115C460.76 93.758 472.606 87.7046 484.245 81.6511C498.377 74.3307 512.51 67.0102 526.85 59.6898C543.476 51.1023 560.311 42.6557 576.729 34.0682C589.199 27.5925 601.461 20.6943 614.347 13.7962C618.711 12.67 622.452 14.6409 626.193 16.1894C634.506 19.4273 642.611 22.806 650.925 26.1847C665.681 32.0973 680.644 37.8692 695.4 43.7819C704.337 47.3013 713.066 50.9616 722.418 54.6218C744.448 46.5975 764.816 36.6022 785.807 27.5925C806.59 18.5827 827.373 9.43211 848.987 0C871.017 10.2768 893.463 20.6943 916.116 31.1119C927.963 36.6022 940.225 41.811 952.071 47.3013C972.646 56.8742 993.221 66.7287 1013.8 76.1608C1036.24 86.4376 1058.9 96.4328 1081.34 106.71C1121.24 124.87 1160.94 143.171 1200.64 161.472C1205.21 163.584 1209.16 166.259 1213.94 167.948C1219.13 169.778 1221.83 172.312 1221.42 176.817C1234.93 183.011 1248.44 189.205 1262.57 195.681C1261.95 200.89 1260.91 206.099 1260.91 211.448C1260.91 216.798 1259.66 222.147 1261.74 227.497C1265.89 227.075 1269.43 226.652 1273.17 226.23C1273.17 226.652 1273.17 227.215 1273.17 227.638C1269.22 228.764 1265.48 229.89 1261.53 230.876C1261.74 231.298 1261.74 231.58 1261.95 232.002C1265.69 231.439 1269.43 231.016 1273.17 230.453C1273.17 231.439 1273.17 232.283 1273.17 233.269C1269.01 233.973 1265.06 234.536 1260.7 235.24C1261.53 240.871 1267.14 242.138 1273.17 243.123C1273.17 244.109 1273.17 244.953 1273.17 245.939C1271.51 245.657 1269.84 245.517 1268.39 244.953C1260.7 241.997 1253.01 238.9 1245.32 235.803C1222.87 226.793 1200.43 217.924 1177.98 208.914C1154.91 199.623 1131.84 190.332 1108.98 181.181C1096.31 176.113 1083.63 171.045 1070.95 165.836C1052.04 158.234 1033.33 150.491 1014.42 142.889C993.429 134.443 972.646 125.996 951.655 117.549C945.005 114.875 938.146 112.341 930.457 109.384C930.457 114.593 930.249 118.676 930.457 122.899C930.664 127.263 929.21 131.627 931.703 136.554C939.601 134.302 946.875 132.05 953.734 130.079C957.474 131.627 959.968 132.613 962.67 133.739C982.622 141.482 1002.57 149.224 1022.53 156.826C1038.32 162.88 1054.12 168.933 1070.12 175.128C1081.13 179.351 1092.15 183.574 1103.16 187.938C1115.01 192.584 1126.86 197.23 1138.91 201.875C1149.93 206.239 1160.94 210.322 1171.96 214.686C1187.33 220.74 1202.71 226.934 1218.3 232.987C1230.98 238.055 1243.66 243.123 1256.75 247.91C1262.15 249.881 1266.31 253.4 1273.38 252.978C1273.38 253.963 1273.38 254.808 1273.38 255.793C1269.64 254.949 1265.89 254.104 1260.49 252.837C1264.86 256.216 1269.64 257.06 1273.38 258.609C1273.38 259.594 1273.38 260.439 1273.38 261.424C1263.61 257.905 1253.84 254.526 1244.28 250.725C1227.03 244.109 1209.99 237.211 1192.74 230.594C1174.87 223.696 1156.78 217.079 1138.7 210.181C1120.21 203.142 1101.92 195.822 1083.42 188.642C1064.71 181.463 1045.8 174.283 1027.1 167.103C1006.11 159.079 985.324 150.914 964.541 142.889C962.047 141.904 959.345 141.341 955.812 140.355C955.812 147.254 955.812 153.307 955.812 159.36C985.739 170.341 1015.67 181.181 1045.59 192.162C1057.03 196.385 1068.66 200.468 1080.09 204.55C1098.59 211.308 1116.88 218.206 1135.38 224.822C1146.18 228.764 1157.41 232.424 1168.21 236.366C1186.5 243.123 1204.58 250.162 1223.08 257.06C1237.84 262.551 1252.59 268.041 1267.56 273.391C1269.22 273.954 1271.51 273.954 1273.58 274.094C1273.58 275.08 1273.58 275.925 1273.58 276.91C1262.15 273.25 1250.93 269.73 1238.88 265.929C1238.88 299.012 1238.88 331.954 1238.88 365.6C1250.52 368.416 1261.95 371.231 1273.58 374.047C1273.58 375.032 1273.58 375.877 1273.58 376.862C1262.36 374.047 1251.14 371.372 1239.92 368.556C1224.12 364.615 1208.53 360.673 1192.95 356.59C1171.75 351.241 1150.76 345.75 1129.56 340.401C1113.97 336.459 1098.18 332.376 1082.59 328.435C1070.74 325.478 1058.9 322.381 1047.05 319.425C1027.93 314.498 1008.6 309.57 989.48 304.784C978.673 302.109 967.866 299.434 956.227 296.619C955.604 304.925 955.604 312.245 956.227 319.284C961.839 320.833 965.996 322.381 970.568 323.367C982.83 326.041 995.3 328.435 1007.56 331.25C1026.27 335.614 1044.97 340.26 1063.68 344.624C1084.87 349.551 1106.49 354.197 1127.69 359.265C1155.54 365.741 1183.18 372.357 1210.82 378.974C1231.81 383.901 1252.8 388.969 1273.79 393.896C1273.79 394.882 1273.79 395.726 1273.79 396.712C1269.01 395.586 1264.23 394.319 1259.45 393.192C1236.59 387.702 1213.73 382.212 1190.66 376.862C1173.62 372.92 1156.37 369.119 1139.12 365.037C1113.97 359.124 1088.82 353.071 1063.47 347.158C1047.88 343.498 1032.5 339.978 1016.91 336.318C995.923 331.391 974.932 326.464 954.773 321.818C937.107 325.056 920.689 327.872 904.27 330.969C877.668 336.037 851.065 341.386 824.671 346.595C809.291 349.692 793.912 352.648 778.325 355.605C757.542 359.547 736.759 363.207 716.183 367.149C699.349 370.246 682.723 373.624 665.888 376.862C646.145 380.663 626.401 384.464 606.657 388.265C589.615 391.503 572.365 394.741 555.531 398.12C547.425 399.668 539.528 401.78 531.63 403.61C519.16 404.173 507.937 407.693 495.883 409.523C482.374 411.634 469.073 414.872 455.772 417.547C444.341 419.799 432.703 421.911 421.272 424.023C411.712 425.712 402.152 427.261 392.592 429.091C383.031 430.921 373.679 433.173 364.327 435.285C381.161 439.508 399.034 438.523 415.661 441.761C452.447 435.426 489.025 428.95 525.811 422.615C525.811 416.984 525.811 411.916 525.811 407.129C528.097 405.722 529.967 404.736 531.838 403.751C538.073 404.173 545.139 402.484 550.335 406.285C550.543 410.086 550.75 413.746 551.166 418.11C573.612 414.45 595.018 411.071 616.425 407.411C637.624 403.892 658.822 400.091 679.813 396.43C701.22 392.77 722.834 389.251 744.241 385.027C765.439 380.945 787.054 378.129 808.252 373.624C808.252 366.163 808.252 359.406 808.252 352.789C818.852 348.566 830.49 349.129 838.803 353.915C840.466 358.561 837.764 363.629 840.466 368.275C889.514 359.828 938.146 351.381 986.363 343.076C1008.6 347.862 1030.42 352.508 1052.25 357.153C1064.3 359.828 1076.15 362.784 1088.2 365.318C1104.83 368.838 1121.66 371.935 1138.29 375.595C1159.07 380.1 1179.85 384.746 1200.64 389.391C1207.7 390.94 1214.98 392.348 1222.25 393.896C1239.5 397.557 1256.75 401.358 1274 405.159C1274 406.144 1274 406.989 1274 407.974C1267.14 406.426 1260.49 404.736 1253.63 403.188C1241.99 400.654 1230.36 398.26 1218.72 395.726C1217.05 405.159 1217.47 489.484 1219.13 494.975C1236.38 496.805 1253.63 498.776 1270.26 500.606C1271.92 498.917 1272.96 497.79 1274 496.664C1274 499.057 1274 501.31 1274 503.703C1269.22 503.281 1264.44 502.858 1259.87 502.295C1248.85 501.028 1237.84 499.62 1226.61 498.353C1217.89 497.368 1209.16 496.383 1200.43 495.397C1188.58 494.13 1176.94 492.863 1165.1 491.596C1155.74 490.611 1146.18 489.344 1136.83 488.358C1125.4 487.232 1113.76 486.387 1102.33 484.98C1085.5 483.009 1068.87 480.615 1052.25 478.504C1051.83 478.504 1051.62 478.504 1051.21 478.504C1039.78 477.518 1028.14 476.814 1016.71 475.407C998.209 473.295 979.92 470.902 961.423 468.649C955.812 467.945 950.2 467.805 943.758 467.242C943.966 472.732 942.718 477.518 944.381 481.882C949.369 482.586 953.734 483.29 958.098 483.713C963.086 484.276 968.282 484.839 973.27 485.261C980.751 485.824 988.233 486.106 995.715 486.95C1010.89 488.64 1025.85 490.751 1041.02 492.3C1053.91 493.567 1066.79 494.13 1079.68 495.397C1096.93 497.086 1113.97 499.057 1131.22 500.887C1137.04 501.451 1142.65 501.873 1148.47 502.295C1154.5 502.858 1160.73 503.14 1166.76 504.125C1183.18 506.659 1199.8 507.645 1216.22 509.334C1222.67 510.038 1229.11 510.46 1235.55 511.164C1248.44 512.431 1261.11 513.698 1274 514.965C1274 515.951 1274 516.795 1274 517.781C1269.22 517.358 1264.65 516.936 1259.87 516.373C1248.44 515.106 1237.01 513.135 1225.37 513.276C1225.16 513.276 1224.74 512.994 1224.33 512.994C1213.31 511.727 1202.09 510.179 1190.87 509.475C1179.02 508.63 1167.38 506.378 1155.33 506.096C1145.35 505.955 1135.38 503.421 1125.19 502.436C1109.4 500.747 1093.4 499.48 1077.39 498.072C1073.44 497.65 1069.29 497.086 1065.34 496.664C1057.86 496.101 1050.17 496.101 1042.89 494.975C1025.85 492.3 1008.6 491.315 991.351 489.625C985.324 489.062 979.297 488.358 973.062 487.795C965.372 486.95 957.474 486.247 949.785 485.402C946.459 485.12 943.134 484.557 940.848 484.276C930.457 485.12 920.896 486.106 911.544 486.81C903.646 487.373 895.957 487.795 888.059 488.217C887.02 488.217 885.981 488.217 884.942 488.358C872.472 489.625 860.002 491.315 847.532 492.3C833.192 493.567 818.852 494.271 804.719 495.256C797.653 495.679 790.379 496.242 783.313 496.805C768.349 498.072 753.593 499.48 738.629 500.887C733.849 501.31 729.277 501.873 724.497 502.295C715.976 502.858 707.247 502.577 698.933 503.985C683.554 506.659 667.551 505.955 652.172 507.926C644.69 508.912 637.208 508.912 629.726 509.616C620.997 510.32 612.268 511.446 603.332 512.29C597.928 512.854 592.524 513.276 587.121 513.698C578.6 514.261 570.079 514.684 561.558 515.247C555.738 515.669 549.919 516.091 544.308 516.655C535.163 517.499 526.019 518.485 516.874 519.329C511.886 519.752 506.69 520.315 501.702 520.737C493.181 521.3 484.66 521.582 476.139 522.426C461.591 523.693 447.043 525.101 432.495 526.509C426.052 527.072 419.61 527.494 413.167 527.917C405.061 528.48 396.748 528.902 388.643 529.606C386.149 529.747 383.863 530.732 381.577 531.436C390.305 532.14 399.034 532.281 407.555 532.14C421.688 531.859 435.82 531.718 449.745 530.592C463.046 529.465 476.139 527.776 489.648 527.917C490.687 527.917 491.727 527.917 492.766 527.776C503.157 526.65 513.757 525.664 524.772 524.538C531.007 519.47 531.422 519.329 544.931 519.611C547.633 520.456 550.543 521.441 553.452 522.286C566.13 521.723 578.808 521.3 591.485 520.737C591.901 520.737 592.109 520.737 592.524 520.596C603.955 519.048 615.386 517.922 627.232 517.922C628.687 517.922 629.934 517.922 631.389 517.781C646.352 516.373 661.108 514.402 676.072 513.839C690.205 513.276 703.921 512.15 717.846 510.883C728.445 509.897 739.045 509.756 749.644 509.334C751.099 509.334 752.346 509.053 753.801 508.912C761.906 508.067 770.011 507.082 778.117 506.519C787.885 505.815 797.861 505.392 808.252 504.97C808.668 502.577 809.084 500.606 809.499 498.776C822.385 494.693 833.192 495.819 841.713 502.154C845.246 502.154 849.195 502.577 852.936 502.014C864.366 500.465 875.797 499.339 887.643 499.48C890.137 499.48 892.424 499.48 894.918 499.198C902.607 498.353 910.297 497.227 918.194 496.664C928.794 495.96 939.393 495.679 949.993 495.116C951.032 495.116 952.071 495.116 953.11 494.975C965.58 493.285 978.05 492.159 990.935 492.441C992.598 492.441 994.468 492.441 996.131 492.582C1012.97 494.412 1029.8 496.242 1046.63 498.072C1051 498.494 1055.36 499.057 1059.73 499.48C1073.03 500.465 1086.33 501.31 1099.42 502.436C1117.09 504.125 1134.55 506.096 1152 507.926C1166.14 509.334 1180.27 510.742 1194.61 512.15C1200.01 512.713 1205.42 513.135 1210.82 513.698C1223.29 514.684 1235.97 515.669 1248.44 516.795C1257.17 517.499 1265.89 518.485 1274.83 519.329C1274.83 521.159 1274.83 523.13 1274.83 524.96C1273.17 523.553 1271.3 522.286 1270.05 521.159C1261.95 520.596 1254.46 520.174 1245.74 519.611C1245.74 552.834 1245.74 586.058 1245.74 619.141C1244.28 619.141 1243.03 619.141 1241.58 619.141C1241.58 616.325 1241.58 613.51 1241.58 610.694C1241.58 582.398 1241.58 553.961 1241.58 525.664C1241.58 523.271 1243.03 520.456 1238.05 517.781C1235.97 517.781 1232.43 517.922 1229.11 517.781C1225.99 517.64 1222.67 517.218 1218.72 516.795C1218.72 551.286 1218.72 585.213 1218.72 619.141C1217.26 619.141 1216.02 619.141 1214.56 619.141C1214.56 585.213 1214.56 551.145 1214.56 516.936C1204.79 515.247 1195.86 513.417 1185.46 513.839C1185.46 549.315 1185.46 584.228 1185.46 619.141C1184.01 619.141 1182.76 619.141 1181.31 619.141C1181.31 584.228 1181.31 549.456 1181.31 513.839C1171.12 512.15 1161.36 509.897 1150.13 511.164C1150.13 547.485 1150.13 583.383 1150.13 619.141C1149.51 619.141 1148.68 619.141 1148.06 619.141C1148.06 584.369 1148.06 549.737 1148.06 514.965C1148.06 513.557 1147.85 512.15 1147.85 510.742C1147.85 510.601 1147.64 510.32 1147.43 510.179C1147.22 510.038 1147.02 509.897 1147.02 509.897C1136.42 508.771 1126.23 507.645 1115.01 506.519C1115.01 544.669 1115.01 581.835 1115.01 619.141C1113.56 619.141 1112.31 619.141 1110.85 619.141C1110.85 581.835 1110.85 544.669 1110.85 506.519C1098.18 505.674 1086.75 502.718 1073.44 503.985C1073.44 542.698 1073.44 580.849 1073.44 619C1071.99 619 1070.74 619 1069.29 619C1069.29 580.568 1069.08 541.995 1069.08 503.562C1069.08 503.421 1068.87 503.14 1068.66 502.999C1068.46 502.858 1068.25 502.718 1067.62 502.295C1056.19 502.295 1044.97 497.65 1032.09 500.043C1032.09 539.742 1032.09 579.301 1032.09 619C1030.63 619 1029.38 619 1027.93 619C1027.93 580.709 1027.93 542.558 1027.93 504.266C1027.93 502.577 1027.72 501.028 1027.72 499.339C1027.72 499.198 1027.51 498.917 1027.31 498.776C1027.1 498.635 1026.89 498.494 1026.27 498.072C1014.84 498.072 1003.4 494.975 990.727 495.256C990.727 536.927 990.727 577.893 990.727 618.859C989.273 618.859 988.026 618.859 986.571 618.859C986.571 579.582 986.571 540.164 986.571 500.887C986.571 499.48 986.363 498.072 986.363 496.664C986.363 496.383 986.155 496.242 985.947 496.101C985.739 495.96 985.532 495.819 984.285 494.975C964.333 496.523 943.342 496.946 922.143 500.043C922.143 539.883 922.143 579.442 922.143 619C920.689 619 919.442 619 917.987 619C917.987 579.723 917.779 540.305 917.779 501.028C917.779 500.747 917.571 500.606 917.363 500.465C917.155 500.324 916.948 500.184 915.908 499.48C896.996 501.028 877.668 502.577 857.716 504.266C857.716 542.839 857.716 580.99 857.716 619.141C856.261 619.141 855.014 619.141 853.559 619.141C853.559 581.131 853.351 543.262 853.351 505.252C853.351 505.111 853.144 504.829 852.936 504.688C852.728 504.548 852.52 504.266 852.104 503.985C848.571 504.548 845.038 505.111 841.089 505.815C841.089 543.684 841.089 581.412 841.089 619.141C839.635 619.141 838.388 619.141 836.933 619.141C836.933 579.441 836.933 539.742 836.725 499.761C828.412 499.62 821.346 498.917 814.072 500.324C814.072 540.164 814.072 579.582 814.072 619.141C812.617 619.141 811.37 619.141 809.915 619.141C809.915 582.257 809.915 545.373 809.707 508.489C804.927 508.489 801.394 508.489 797.445 508.489C797.445 545.796 797.445 582.398 797.445 619.141C795.99 619.141 794.743 619.141 793.289 619.141C793.289 584.369 793.289 549.737 793.289 514.965C793.289 513.557 793.081 512.15 793.081 510.742C793.081 510.601 792.873 510.32 792.665 510.179C792.457 510.038 792.249 509.897 791.418 509.334C775.207 508.912 758.789 510.601 741.539 512.572C741.539 548.33 741.539 583.806 741.539 619.141C740.084 619.141 738.837 619.141 737.382 619.141C737.382 583.946 737.174 548.752 737.174 513.557C737.174 513.417 736.966 513.135 736.759 512.994C736.551 512.854 736.343 512.713 735.927 512.29C721.171 514.543 705.376 512.854 689.789 516.373C689.789 550.723 689.789 584.932 689.789 619.141C689.165 619.141 688.334 619.141 687.711 619.141C687.711 586.762 687.711 554.383 687.711 522.004C687.711 520.596 687.503 519.189 687.503 517.781C687.503 517.64 687.295 517.358 687.087 517.218C686.879 517.077 686.671 516.936 685.424 516.232C671.916 517.499 657.16 517.077 642.196 519.611C642.196 553.116 642.196 586.058 642.196 619.141C640.741 619.141 639.494 619.141 638.039 619.141C638.039 588.17 638.039 557.199 638.039 526.227C638.039 524.397 637.831 522.426 637.831 520.596C637.831 520.456 637.624 520.174 637.416 520.033C637.208 519.892 637 519.611 636.792 519.611C631.181 519.892 625.777 520.596 620.374 520.596C613.1 520.596 606.033 521.159 598.551 522.99C598.551 554.946 598.551 587.043 598.551 619.141C597.097 619.141 595.85 619.141 594.395 619.141C594.395 589.155 594.395 559.169 594.395 529.043C594.395 527.213 594.187 525.242 594.187 523.412C594.187 523.271 593.979 522.99 593.771 522.849C593.564 522.708 593.356 522.567 593.356 522.426C581.509 523.412 569.663 524.257 557.193 525.242C557.193 556.776 557.193 587.888 557.193 619C555.115 619 553.037 619 550.958 619C550.958 617.17 550.958 615.199 550.958 613.369C550.958 585.495 550.958 557.621 550.958 529.888C550.958 527.354 552.205 524.679 548.464 522.426C543.476 521.723 538.281 521.582 532.461 522.708C532.461 554.946 532.461 587.044 532.461 619C531.007 619 529.76 619 528.305 619C528.305 588.733 528.305 558.325 528.305 527.494C524.148 527.635 521.446 527.776 517.913 527.917C517.913 558.606 517.913 588.733 517.913 619C517.29 619 516.458 619 515.835 619C515.835 590.141 515.835 561.281 515.835 532.422C515.835 531.295 515.627 530.028 515.627 528.902C515.627 528.761 515.419 528.48 515.211 528.339C515.004 528.198 514.796 528.058 513.964 527.494C503.989 528.48 493.597 529.465 482.79 530.592C482.79 560.436 482.79 589.718 482.79 619C481.335 619 480.088 619 478.633 619C478.633 611.68 478.633 604.5 478.633 597.18C478.633 589.718 478.633 582.116 478.633 574.655C478.633 567.335 478.633 560.155 478.633 552.834C478.633 545.373 478.841 538.053 478.425 529.043C468.242 533.689 457.642 529.747 447.459 533.126C447.459 561.703 447.459 590.281 447.459 618.859C446.004 618.859 444.757 618.859 443.302 618.859C443.302 609.286 443.302 599.713 443.302 590C443.302 580.568 443.302 571.276 443.302 561.844C443.302 552.271 443.718 542.839 442.887 532.562C435.405 533.407 429.17 534.111 422.519 534.956C422.519 563.111 422.519 590.985 422.519 618.859C421.064 618.859 419.817 618.859 418.363 618.859C418.155 590.844 418.57 562.83 418.155 534.252C396.332 535.237 375.549 531.295 353.935 533.548C353.935 562.267 353.935 590.563 353.935 618.859C353.312 618.859 352.48 618.859 351.857 618.859C351.649 590.422 352.065 561.844 351.649 532.703C344.791 533.548 339.387 534.252 333.152 535.096C333.152 563.252 333.152 591.126 333.152 618.859C332.529 618.859 331.697 618.859 331.074 618.859C330.866 590.844 331.282 562.83 330.866 534.111C322.553 534.956 315.694 535.66 308.212 536.363C308.212 564.097 308.212 591.408 308.212 618.859C306.758 618.859 305.511 618.859 304.056 618.859C304.056 594.223 304.056 569.587 304.056 544.951C304.056 542.839 303.848 540.728 303.848 538.616C303.848 538.475 303.64 538.194 303.432 538.053C303.224 537.912 303.017 537.771 302.185 537.067C296.158 537.63 289.092 535.66 283.481 539.883C283.481 566.208 283.481 592.534 283.481 618.718C282.026 618.718 280.779 618.718 279.324 618.718C279.324 593.942 279.324 569.024 279.324 544.247C279.324 542.839 279.116 541.431 279.116 540.024C279.116 539.883 278.908 539.601 278.701 539.461C278.493 539.32 278.285 539.179 277.454 538.475C271.634 539.038 265.399 539.742 258.541 540.446C258.541 566.631 258.541 592.675 258.541 618.578C257.086 618.578 255.839 618.578 254.384 618.578C254.384 593.378 254.177 568.038 254.177 542.839C254.177 542.558 253.969 542.417 253.761 542.135C253.553 541.995 253.345 541.854 252.306 541.15C247.734 541.291 242.538 541.431 237.966 541.572C236.927 542.698 236.303 543.121 236.303 543.543C236.095 568.602 235.887 593.519 235.887 618.578C235.264 618.578 234.433 618.578 233.809 618.578C233.809 594.927 233.809 571.276 233.809 547.626C233.809 546.499 233.601 545.232 233.601 544.106C233.601 543.965 233.394 543.684 233.186 543.543C232.978 543.402 232.77 543.262 231.315 542.417C226.743 542.98 221.132 543.543 215.104 544.247C215.104 569.446 215.104 594.082 215.104 618.578C213.65 618.578 212.403 618.578 210.948 618.578C210.948 596.053 210.948 573.67 210.948 551.145C210.948 549.315 210.74 547.344 210.74 545.514C210.74 545.373 210.532 545.092 210.324 544.951C210.117 544.81 209.909 544.669 208.662 543.825C204.505 544.388 199.725 545.092 194.529 545.936C194.529 570.432 194.529 594.645 194.529 618.718C193.074 618.718 191.827 618.718 190.373 618.718C190.373 596.476 190.373 574.233 190.373 551.99C190.373 550.3 190.373 548.752 190.165 547.063C190.165 546.922 189.957 546.64 189.749 546.499C189.541 546.359 189.333 546.077 189.126 545.936C184.553 546.499 179.981 547.203 174.162 547.907C173.746 571.699 174.162 595.209 173.954 618.718C173.331 618.718 172.499 618.718 171.876 618.718C171.876 595.49 171.876 572.121 171.668 548.189C165.641 548.752 160.445 547.485 155.249 549.315C155.249 572.543 155.249 595.631 155.249 618.718C153.794 618.718 152.547 618.718 151.093 618.718C151.093 610.976 151.093 603.233 151.093 595.631C151.093 588.17 151.301 580.709 151.093 573.247C150.885 565.645 151.716 557.902 150.677 550.441C146.313 550.441 142.779 550.441 138.831 550.441C138.831 573.529 138.831 596.194 138.831 618.859C137.376 618.859 136.129 618.859 134.674 618.859C134.674 596.476 134.674 574.233 134.466 551.567C128.231 551.286 123.243 550.864 118.048 552.131C118.048 574.514 118.048 596.616 118.048 618.859C116.593 618.859 115.346 618.859 113.891 618.859C113.891 607.879 113.891 596.898 113.891 585.917C113.891 575.077 114.099 564.097 113.683 552.694C109.734 552.834 107.033 552.975 103.5 553.116C103.5 575.359 103.5 597.039 103.5 618.718C102.045 618.718 100.798 618.718 99.3429 618.718C99.3429 608.019 99.3429 597.179 99.3429 586.48C99.3429 575.781 99.5508 565.082 99.1351 553.961C95.1863 554.101 92.2767 554.242 88.9514 554.383C88.9514 576.204 88.9514 597.461 88.9514 618.718C87.4966 618.718 86.2496 618.718 84.7948 618.718C84.7948 597.743 84.587 576.907 84.587 555.932C79.8069 555.932 76.2738 555.932 72.325 555.932C72.325 577.189 72.325 598.024 72.325 618.718C71.7015 618.718 70.8702 618.718 70.2467 618.718C70.0388 597.743 70.4545 576.767 70.0389 555.087C65.2588 556.072 61.7256 556.635 57.7769 557.48C57.7769 578.034 57.7769 598.446 57.7769 618.718C56.322 618.718 55.0751 618.718 53.6202 618.718C53.6202 598.306 53.6202 577.893 53.4124 557.058C50.0871 557.902 47.801 558.325 45.307 559.029C45.307 579.019 45.307 598.869 45.307 618.718C43.8522 618.718 42.6052 618.718 41.1504 618.718C41.1504 598.728 41.1504 578.738 40.9426 558.184C36.5782 558.466 33.2529 558.606 29.0963 558.888C28.2649 579.301 28.8884 599.01 28.6806 618.859C27.2258 618.859 25.9788 618.859 24.524 618.859C24.3162 599.432 24.1083 580.145 23.9005 560.718C23.9005 560.577 23.4848 560.436 22.2379 559.733C20.1596 560.014 17.4578 560.436 13.9247 560.859C13.9247 580.568 13.9247 599.713 13.9247 618.859C13.3012 618.859 12.4698 618.859 11.8463 618.859C11.8463 601.262 11.8463 583.665 11.6385 566.068C11.6385 564.519 13.0933 562.267 7.89757 561C7.68974 580.708 7.89757 599.713 7.68974 618.859C2.90964 619 1.45483 619 1.66722e-05 619ZM725.328 68.5588C731.979 67.9957 736.135 64.7578 740.915 62.083C734.68 63.0685 729.277 65.0394 725.328 68.5588C720.34 68.9811 716.391 70.5297 713.689 73.2045C714.105 73.6268 714.521 74.0491 714.936 74.4715C718.47 72.5006 722.003 70.5297 725.328 68.5588ZM1242.83 245.939C1245.74 249.599 1251.35 249.881 1256.13 251.148C1252.8 248.051 1248.02 246.784 1242.83 245.939C1234.3 240.73 1224.54 237.07 1213.73 234.677C1212.69 233.832 1211.86 232.706 1210.4 232.143C1201.26 228.482 1192.32 224.822 1182.97 221.584C1178.81 220.176 1175.7 217.079 1170.08 217.783C1169.25 217.079 1168.63 216.094 1167.59 215.672C1158.03 211.871 1148.68 208.21 1139.12 204.55C1122.08 198.074 1104.83 191.599 1087.99 185.123C1068.04 177.38 1048.3 169.356 1028.55 161.472C1005.9 152.603 983.453 143.734 960.8 135.006C959.553 134.584 958.098 134.443 954.773 133.739C956.851 135.991 957.474 137.118 958.721 137.681C974.724 143.875 990.935 150.069 1007.15 156.263C1020.03 161.191 1032.92 165.977 1045.8 170.904C1062.64 177.521 1079.47 184.137 1096.51 190.754C1115.84 198.215 1135.17 205.817 1154.71 213.138C1159.69 215.108 1165.3 216.376 1170.71 217.924C1171.75 218.769 1172.58 219.895 1174.03 220.458C1184.22 224.541 1194.61 228.482 1205 232.283C1207.91 233.41 1211.24 233.973 1214.35 234.817C1222.46 239.745 1232.02 243.546 1242.83 245.939ZM1240.75 189.628C1245.53 193.429 1251.76 195.822 1258.41 197.37C1253.42 193.851 1248.23 190.472 1240.75 189.628C1238.25 188.079 1235.97 186.39 1233.27 185.123C1212.27 175.55 1191.28 166.118 1170.08 156.826C1167.59 155.7 1164.47 155.278 1161.77 154.433C1160.52 153.307 1159.49 152.04 1157.82 151.336C1150.76 148.098 1143.27 145.283 1136 142.045C1099.01 125.574 1062.22 108.962 1025.23 92.491C1005.28 83.4812 985.324 74.4715 965.164 65.6025C945.42 56.7335 925.676 48.0052 905.933 39.1362C889.722 31.8158 873.511 24.3546 857.3 17.0341C855.845 16.471 854.183 16.1894 851.689 15.6263C854.391 20.8351 860.833 21.3982 865.613 23.5099C893.463 36.1799 921.728 48.5683 949.785 61.0976C974.724 72.219 999.456 83.4812 1024.4 94.6027C1046.22 104.316 1067.83 114.03 1089.65 123.744C1108.77 132.331 1127.9 141.059 1147.22 149.506C1151.8 151.477 1156.78 152.885 1161.77 154.574C1164.27 158.657 1170.71 159.36 1175.49 161.613C1193.99 170.2 1212.9 178.647 1231.6 186.953C1234.51 188.079 1237.84 188.642 1240.75 189.628ZM501.079 154.433C503.157 152.603 505.236 150.773 507.106 148.943C507.106 133.88 507.106 118.816 507.106 103.894C507.106 103.753 506.898 103.472 506.69 103.331C506.483 103.19 506.275 103.19 505.651 103.049C500.04 105.724 494.221 108.54 489.025 111.074C487.57 134.443 488.194 152.603 490.48 156.967C493.805 156.123 497.338 155.278 501.079 154.433C500.248 155.278 499.624 156.123 498.585 156.686C479.465 165.273 460.552 174.001 441.224 182.448C417.531 192.725 393.631 202.861 369.938 213.138C346.245 223.414 322.761 233.832 299.068 244.25C277.661 253.541 256.255 262.832 235.056 272.124C196.4 289.158 157.951 306.192 119.502 323.226C105.37 329.42 91.2375 335.614 77.1051 341.809C58.6082 349.833 40.3191 357.998 21.8222 366.163C19.3282 367.289 17.8734 368.697 19.7439 371.09C25.1475 368.979 30.5511 367.008 35.7468 364.755C54.8672 356.59 73.9876 348.284 92.9002 339.978C118.048 329.139 143.195 318.158 168.343 307.318C193.49 296.337 218.43 285.216 243.577 274.376C275.999 260.298 308.42 246.361 340.634 232.283C356.221 225.526 371.601 218.487 387.188 211.73C416.908 198.919 446.835 186.108 476.763 173.297C493.805 165.977 510.639 158.234 527.473 150.773C537.865 146.268 548.464 141.904 558.856 137.399C577.561 129.234 596.057 120.787 614.97 112.763C631.804 105.443 648.846 98.5445 665.681 91.3648C685.424 82.9181 704.961 74.3307 724.704 65.7432C738.213 59.8306 751.93 54.0587 765.439 48.146C778.117 42.6557 790.587 36.8838 803.264 31.3935C818.228 24.7769 833.192 18.3011 847.74 12.1069C847.74 9.43211 847.74 7.32045 847.74 4.64567C835.894 9.57289 824.463 14.0778 813.448 19.005C775.207 35.7576 736.966 52.7917 698.726 69.5442C676.072 79.5395 653.003 89.2531 630.349 99.2484C601.877 111.778 573.612 124.448 545.139 136.977C533.085 142.326 521.031 147.676 508.769 152.885C506.275 153.448 503.573 153.729 501.079 154.433ZM956.643 293.522C1000.29 304.643 1044.35 315.765 1088.82 327.168C1088.82 288.313 1088.82 250.021 1088.82 210.604C1075.11 204.691 1059.52 200.327 1045.18 194.555C1031.05 188.924 1016.71 183.433 1001.95 178.506C986.986 173.579 973.062 167.103 956.643 162.739C956.643 206.521 956.643 249.599 956.643 293.522ZM793.289 70.952C747.358 89.6755 702.259 108.117 656.744 126.559C656.744 129.093 656.744 131.346 656.744 133.739C656.744 164.147 656.952 194.696 657.16 225.104C657.16 225.244 657.575 225.526 657.783 225.667C657.991 225.808 658.407 225.948 659.446 226.23C703.921 212.011 749.021 197.652 793.289 183.433C793.289 145.705 793.289 108.68 793.289 70.952ZM846.701 20.5536C839.635 23.6507 832.568 26.4662 825.71 29.4226C807.837 37.1653 789.963 45.0489 771.882 52.7917C740.084 66.4471 708.078 80.1026 676.072 93.758C649.678 105.02 623.283 116.282 596.889 127.545C579.431 135.006 562.181 142.608 544.723 150.069C517.913 161.472 491.103 172.734 464.293 184.137C446.004 191.88 427.923 200.045 409.634 207.788C390.721 215.812 371.809 223.837 352.896 231.861C330.45 241.293 308.005 250.725 285.559 260.298C266.439 268.463 247.526 277.051 228.406 285.216C204.713 295.493 180.812 305.629 156.912 315.765C132.18 326.323 107.448 336.741 82.7165 347.299C67.1292 353.915 51.3341 360.673 35.7468 367.43C25.9788 371.653 16.2108 376.158 6.44276 380.522C6.44276 382.775 6.44276 385.027 6.44276 388.265C287.637 273.954 567.793 159.924 847.948 45.7528C847.948 37.8692 847.948 30.408 847.948 22.806C847.948 22.2429 847.117 21.6798 846.701 20.5536ZM4.98795 444.717C9.76804 443.169 13.7168 441.761 17.6656 440.635C40.9426 433.736 64.2196 426.838 87.4966 419.799C103.707 414.872 119.918 409.945 136.337 405.018C151.093 400.513 165.849 396.29 180.605 391.785C196.815 386.857 213.026 381.789 229.237 376.862C251.475 370.105 273.92 363.488 296.158 356.872C303.432 354.76 310.706 352.93 317.98 350.678C331.697 346.454 345.206 341.809 358.923 337.726C380.537 331.109 402.36 324.915 423.974 318.439C440.808 313.371 457.642 308.022 474.477 302.813C491.934 297.464 509.6 292.255 527.266 286.905C540.982 282.682 554.907 278.459 568.624 274.376C584.835 269.449 601.253 264.803 617.464 259.876C628.687 256.497 640.117 253.259 651.34 249.881C672.123 243.546 692.699 237.211 713.482 231.016C723.457 227.919 733.433 224.963 743.409 222.007C758.373 217.502 773.545 212.856 788.508 208.351C804.719 203.424 821.138 198.638 837.349 193.71C851.897 189.346 866.237 184.982 880.577 180.618C897.827 175.409 915.077 170.341 932.327 165.132C938.77 163.161 945.212 161.05 951.863 159.079C951.447 152.744 952.694 146.69 951.032 140.778C949.785 140.637 948.953 140.355 948.538 140.496C914.038 151.477 879.746 162.458 845.246 173.438C843.791 172.734 842.336 171.89 840.674 171.045C816.358 178.788 792.457 186.249 768.557 193.992C748.605 200.327 729.069 207.084 709.117 213.419C682.931 221.725 656.744 229.749 630.557 237.915C612.476 243.686 594.603 249.74 576.521 255.512C561.765 260.298 546.802 265.085 532.046 269.73C512.51 275.925 492.766 282.119 473.022 288.313C455.98 293.803 438.938 299.434 421.896 304.925C392.592 314.216 363.287 323.367 334.191 332.658C326.502 335.051 318.812 337.726 311.122 340.26C290.547 346.736 269.764 352.93 249.189 359.547C233.186 364.615 217.391 370.246 201.388 375.454C175.409 383.76 149.014 391.785 122.828 400.091C104.331 405.862 86.2496 412.057 67.7527 417.969C55.2829 421.911 42.8131 425.431 30.3432 429.372C21.4065 432.188 12.6777 435.426 3.74096 438.382C4.36445 440.353 4.57228 442.183 4.98795 444.717ZM951.447 296.619C940.225 298.731 929.833 300.561 919.857 302.532C897.619 307.177 875.381 311.823 853.351 316.609C817.397 324.211 781.65 331.954 745.695 339.556C730.732 342.794 715.56 345.61 700.596 348.707C683.97 352.085 667.135 355.605 650.717 359.124C637.416 361.94 624.322 365.318 610.813 368.134C591.277 372.217 571.533 375.877 551.997 379.959C529.76 384.605 507.522 389.251 485.492 394.037C449.953 401.639 414.414 409.241 378.875 416.702C363.495 419.94 348.116 423.037 332.736 426.134C316.11 429.654 299.484 433.033 282.857 436.552C269.556 439.368 256.463 442.746 242.954 445.562C223.418 449.644 203.674 453.305 184.138 457.387C161.9 462.033 139.87 466.678 117.632 471.465C83.1322 478.785 48.4245 486.247 13.9247 493.567C11.6385 493.989 9.35238 494.552 7.27408 495.397C4.57228 496.523 3.53313 498.072 5.81927 500.465C7.89757 500.324 10.3915 500.324 12.4698 499.902C29.7198 496.383 47.1775 493.004 64.4274 489.625C92.9002 483.994 121.789 479.067 150.261 473.577C185.177 466.96 219.677 459.921 254.592 453.164C285.767 447.11 317.149 441.479 348.324 435.426C378.251 429.654 407.971 423.741 437.899 417.829C448.29 415.717 458.889 413.887 469.489 411.916C480.296 409.945 491.311 407.974 502.118 405.862C517.913 402.765 533.501 399.527 549.296 396.571C570.079 392.629 590.862 388.969 611.437 385.027C627.44 381.93 643.443 378.552 659.654 375.454C680.437 371.513 701.22 367.712 721.795 363.911C735.927 361.236 749.852 358.42 763.984 355.605C786.014 351.381 808.044 347.299 829.867 342.935C843.583 340.26 857.3 337.304 871.017 334.629C897.619 329.561 924.222 324.774 951.24 319.706C951.447 312.245 951.447 304.925 951.447 296.619ZM951.655 293.522C951.655 249.036 951.655 205.676 951.655 161.894C918.195 172.03 885.149 181.885 852.728 191.599C852.728 232.847 852.728 273.391 852.728 314.357C885.981 307.459 918.61 300.561 951.655 293.522ZM984.7 346.595C983.661 346.454 982.83 346.173 982.414 346.173C952.694 351.241 922.767 356.309 893.255 361.658C888.683 362.503 882.656 361.94 879.538 365.6C877.875 404.314 878.707 464.144 881.201 469.916C884.734 469.353 888.475 468.509 892.008 468.368C905.933 467.664 919.857 466.115 933.574 464.285C938.146 463.722 943.342 463.722 948.122 464.285C957.267 465.271 965.996 466.96 975.14 468.086C978.258 468.509 981.791 468.086 984.908 468.086C984.7 427.12 984.7 386.857 984.7 346.595ZM614.97 18.0196C612.476 18.8642 610.813 19.2866 609.359 19.8497C596.889 26.3255 584.419 32.942 571.949 39.4178C557.609 46.879 543.061 54.3402 528.72 61.9422C512.094 70.6705 495.675 79.3987 479.257 88.1269C468.242 93.8988 457.019 99.6707 445.796 105.443C433.742 111.637 421.688 117.831 409.841 124.025C394.878 131.768 380.122 139.792 365.158 147.535C352.688 154.011 340.01 160.487 327.541 167.103C304.887 179.069 282.234 191.176 259.372 203.142C241.707 212.434 224.041 221.584 206.376 230.735C188.086 240.167 170.005 249.74 151.716 259.172C138.207 266.211 124.283 273.109 110.358 280.148C110.358 284.653 109.527 289.017 111.189 293.944C114.93 292.396 118.048 291.129 121.165 289.721C140.286 280.148 159.198 270.575 178.318 261.143C192.451 254.104 206.791 247.487 220.924 240.449C248.357 226.934 275.583 213.138 303.017 199.482C326.917 187.657 350.818 176.113 374.718 164.428C402.36 150.773 430.001 136.977 457.642 123.181C471.775 116.142 485.907 109.244 499.832 102.205C519.368 92.3502 538.904 82.4958 558.648 72.7821C577.353 63.4908 596.265 54.1995 614.97 45.0489C614.97 36.1799 614.97 27.5925 614.97 18.0196ZM652.379 356.59C654.042 320.833 653.211 258.89 651.132 252.837C649.262 253.259 647.184 253.541 645.521 253.963C637.624 256.356 629.934 258.75 622.036 261.143C599.175 268.041 576.106 274.658 553.244 281.696C549.919 282.682 547.217 284.512 544.931 285.638C543.684 322.24 544.1 372.92 545.97 378.833C581.302 371.513 616.84 364.051 652.379 356.59ZM701.635 237.492C699.973 244.813 700.18 340.542 702.259 346.313C732.81 339.838 763.361 333.362 793.704 327.027C793.704 287.891 793.704 249.036 793.704 209.618C762.737 218.909 732.394 228.06 701.635 237.492ZM989.688 346.313C989.688 387.421 989.688 428.105 989.688 469.353C1015.67 472.169 1041.23 475.125 1067 477.941C1068.66 472.591 1069.08 372.78 1067.42 362.925C1042.06 357.435 1016.08 351.945 989.688 346.313ZM939.185 467.523C937.315 467.242 936.276 466.96 935.237 467.101C925.469 467.945 915.701 468.931 905.933 469.916C899.074 470.479 892.216 470.761 885.565 471.465C867.692 473.295 849.818 475.125 831.945 476.955C824.463 477.659 816.981 478.081 809.499 478.785C792.041 480.475 774.376 482.305 756.918 483.994C749.021 484.698 740.915 484.416 733.433 485.683C716.391 488.781 698.934 488.781 681.891 490.892C674.202 491.878 666.304 491.878 658.407 492.582C641.157 494.271 624.115 496.242 606.865 497.931C599.383 498.635 591.901 498.776 584.419 499.48C566.546 501.169 548.672 503.14 530.799 504.97C523.317 505.674 515.835 506.096 508.353 506.8C500.663 507.504 492.974 508.489 485.076 509.193C478.633 509.756 472.191 510.179 465.748 510.742C452.239 512.009 438.73 513.557 425.221 514.824C417.531 515.528 409.634 515.951 401.736 516.795C394.254 517.499 386.98 518.344 379.498 519.189C370.769 520.033 362.04 521.019 353.312 521.863C342.504 522.849 331.697 523.834 320.89 524.82C308.005 525.946 295.119 526.791 282.234 527.917C281.818 527.917 281.61 528.198 281.194 528.198C270.387 529.465 259.788 530.873 248.981 531.859C235.68 532.985 222.378 533.548 209.285 534.815C192.659 536.363 176.24 538.475 159.822 540.164C154.002 540.728 148.391 541.291 142.572 541.713C135.09 542.276 127.608 542.698 120.126 543.402C106.617 544.669 93.108 546.077 79.599 547.344C72.1172 548.048 64.4274 547.766 57.1534 549.033C43.0209 551.286 28.8884 552.271 14.5481 553.116C10.1837 553.398 5.81927 554.101 4.36445 558.043C6.23493 558.184 7.68974 558.747 8.72889 558.466C23.9005 555.368 39.9034 556.213 55.4907 554.383C63.1804 553.538 71.078 553.398 78.9756 552.694C88.1201 551.99 97.2646 550.864 106.409 550.16C114.515 549.456 122.828 549.456 130.933 548.47C141.325 547.203 151.716 545.796 162.523 545.796C164.186 545.796 165.849 545.655 167.719 545.373C179.565 544.106 191.204 542.135 203.05 541.713C221.132 541.009 239.005 538.757 257.086 537.349C275.375 535.941 293.664 534.393 312.161 533.126C320.267 532.562 328.58 532.14 336.685 531.577C346.453 530.732 356.221 529.747 366.197 528.902C374.302 528.198 382.616 527.917 390.721 527.354C400.281 526.65 409.634 525.524 419.194 524.679C426.676 523.975 434.365 523.975 441.64 522.99C451.823 521.582 461.799 520.456 472.191 520.456C474.685 520.456 477.178 520.456 479.465 520.174C488.194 518.766 496.922 517.781 505.859 517.64C513.341 517.499 521.031 517.218 528.305 516.091C543.684 513.698 559.479 513.698 575.067 512.15C582.133 511.446 589.407 511.305 596.473 510.601C608.943 509.334 621.413 507.082 633.883 506.8C648.431 506.519 662.355 503.985 676.696 503.703C684.178 503.562 691.867 503.14 699.141 502.154C709.948 500.747 720.756 499.48 731.771 499.48C734.057 499.48 736.551 498.917 738.837 498.776C751.307 497.65 763.777 496.383 776.454 495.397C784.56 494.693 792.873 494.412 800.978 493.708C810.746 492.863 820.514 491.878 830.282 491.033C835.27 490.611 840.466 490.048 845.454 489.625C853.975 489.062 862.704 489.203 871.017 487.936C886.396 485.683 902.192 485.543 917.779 483.994C925.053 483.149 932.535 482.586 939.809 481.882C939.185 476.814 939.185 472.45 939.185 467.523ZM852.52 20.8351C852.52 29.8449 852.52 38.2916 852.52 46.5975C866.86 52.6509 880.785 58.4228 894.71 64.3355C914.246 72.6414 933.366 81.088 952.902 89.2531C986.363 103.331 1020.24 117.268 1053.7 131.346C1079.06 142.045 1103.99 153.025 1129.35 163.865C1162.19 177.802 1195.02 191.739 1228.07 205.536C1237.42 209.477 1246.98 213.278 1256.96 217.22C1256.96 211.448 1256.96 206.24 1256.96 200.749C1122.49 141.059 987.818 81.088 852.52 20.8351ZM1147.22 486.81C1147.22 450.911 1147.22 415.717 1147.22 380.663C1122.49 374.047 1081.96 365.459 1072.82 365.037C1072.82 402.484 1072.82 439.79 1072.82 477.378C1074.07 477.941 1075.31 478.645 1076.56 478.785C1099.63 481.46 1122.7 484.135 1147.22 486.81ZM778.948 479.348C778.948 446.406 778.948 414.309 778.948 381.649C752.969 386.013 727.406 390.377 702.051 394.741C701.427 395.445 700.804 395.867 700.804 396.29C700.596 397.134 700.388 398.12 700.388 399.105C700.388 427.965 700.596 456.683 700.596 485.543C700.596 485.683 701.012 485.965 701.22 486.106C701.427 486.247 701.635 486.387 702.051 486.669C727.406 484.135 752.762 481.742 778.948 479.348ZM1203.34 356.449C1203.34 321.114 1203.34 286.764 1203.34 252.274C1180.68 243.968 1158.45 235.803 1135.38 227.356C1135.38 264.944 1135.38 301.828 1135.38 338.993C1157.82 344.765 1179.65 350.396 1203.34 356.449ZM426.468 300.561C441.224 295.915 454.941 291.832 468.45 287.046C481.751 282.4 496.507 279.444 508.769 273.813C510.224 261.143 509.808 192.443 507.937 187.094C494.013 192.866 480.088 198.356 466.579 204.128C452.862 209.759 438.314 214.405 426.676 221.162C426.468 247.91 426.468 273.954 426.468 300.561ZM1213.31 493.989C1213.31 459.921 1213.31 427.261 1213.31 394.178C1192.32 389.673 1171.75 385.309 1151.17 380.804C1150.34 381.649 1149.72 382.071 1149.72 382.493C1149.51 383.62 1149.51 384.887 1149.51 386.013C1149.72 419.236 1149.93 452.46 1149.93 485.824C1149.93 485.965 1150.13 486.247 1150.34 486.387C1150.55 486.528 1150.76 486.669 1151.59 487.373C1171.54 489.484 1191.91 491.737 1213.31 493.989ZM544.931 262.691C568 255.23 590.446 248.051 612.476 241.012C612.476 208.773 612.476 176.958 612.476 144.72C591.277 153.166 570.91 161.331 550.543 169.496C548.256 170.482 546.178 171.749 544.931 172.453C544.931 203.002 544.931 232.565 544.931 262.691ZM694.985 487.232C697.063 479.208 696.647 401.78 694.569 396.29C671.5 400.231 648.223 403.328 625.985 408.537C624.53 431.906 625.154 487.373 627.024 493.708C638.455 492.582 649.678 491.315 661.108 490.188C672.539 489.062 683.97 488.217 694.985 487.232ZM847.324 315.624C848.987 304.502 848.363 199.201 846.493 193.851C829.659 199.06 812.409 203.565 796.822 209.477C795.159 225.526 795.782 320.692 797.653 326.182C814.279 322.522 830.698 319.003 847.324 315.624ZM796.198 70.2481C796.198 75.3161 796.198 79.6802 796.198 84.1851C796.198 113.467 796.198 142.749 796.198 172.03C796.198 175.268 795.575 178.647 800.147 181.181C813.656 176.958 827.373 172.594 840.674 168.511C843.376 166.54 845.454 164.851 847.532 163.302C847.532 125.292 847.532 87.423 847.532 49.1315C829.659 56.0296 812.617 62.7869 796.198 70.2481ZM421.48 405.299C421.48 377.425 421.48 350.114 421.48 321.959C397.787 328.998 374.926 335.896 352.48 342.653C350.61 351.804 351.025 414.168 353.312 419.659C375.549 414.872 397.995 410.227 421.48 405.299ZM622.66 493.567C624.53 481.46 623.907 414.45 621.828 408.96C601.669 412.62 580.886 414.731 561.558 419.659C560.103 449.363 560.726 493.285 562.805 499.62C582.756 497.509 602.916 495.96 622.66 493.567ZM251.89 291.551C251.89 313.09 251.89 333.784 251.89 354.338C251.89 354.479 252.098 354.76 252.306 354.901C252.514 355.042 252.722 355.182 253.345 355.605C277.661 347.862 301.978 340.119 325.67 332.658C325.67 308.585 325.67 285.357 325.67 261.424C300.523 271.701 276.207 281.556 251.89 291.551ZM453.486 312.245C452.031 344.765 452.655 391.785 454.525 397.557C464.917 396.712 500.04 388.969 508.977 385.731C508.977 355.886 508.977 326.041 508.977 295.493C490.064 301.265 471.775 306.755 453.486 312.245ZM414.829 513.276C416.7 502.436 416.076 448.237 414.206 443.591C407.971 443.028 401.944 442.465 395.917 442.042C383.655 440.916 371.601 439.931 359.339 438.945C357.053 438.804 354.766 438.945 352.48 438.945C350.818 446.688 351.025 513.276 352.688 519.329C373.263 517.218 393.839 515.247 414.829 513.276ZM1130.18 337.585C1130.18 299.575 1130.18 262.691 1130.18 225.526C1118.13 221.162 1106.28 216.798 1093.6 212.152C1093.6 251.429 1093.6 289.721 1093.6 328.435C1105.66 331.391 1117.3 334.347 1130.18 337.585ZM202.219 449.644C206.376 450.207 209.701 449.785 213.442 448.94C226.119 445.984 238.797 443.45 251.475 440.916C256.255 439.931 261.035 439.086 265.607 438.101C267.062 416.139 266.439 374.61 264.568 368.838C254.177 372.076 243.993 375.314 233.601 378.552C223.002 381.789 212.403 384.887 202.011 388.124C202.219 408.819 202.219 429.091 202.219 449.644ZM695.816 239.041C682.099 243.123 669.422 247.065 657.16 250.725C655.497 285.497 656.328 349.692 658.407 355.464C670.669 352.789 682.931 350.114 695.816 347.44C695.816 311.401 695.816 275.643 695.816 239.041ZM874.342 470.479C876.213 456.965 875.381 370.95 873.303 365.459C862.08 365.882 851.897 369.401 841.505 370.527C840.674 371.513 840.05 371.794 840.05 372.217C839.843 373.343 839.635 374.469 839.635 375.736C839.635 407.974 839.842 440.353 839.842 472.591C839.842 472.732 840.258 473.013 840.466 473.154C840.674 473.295 840.882 473.436 840.674 473.295C852.104 472.31 862.912 471.465 874.342 470.479ZM899.698 70.952C894.086 66.7287 863.535 53.4956 853.144 50.8208C852.936 51.5247 852.312 52.0878 852.312 52.7917C852.312 88.69 852.52 124.448 852.52 160.346C852.52 160.487 852.936 160.768 853.144 160.909C853.351 161.05 853.559 161.191 853.975 161.331C861.457 160.205 861.457 160.205 867.276 155.7C867.276 146.972 867.276 137.681 867.276 128.671C878.707 124.307 889.514 120.224 899.905 116.282C899.698 100.797 899.698 86.0152 899.698 70.952ZM651.964 228.482C653.627 215.953 653.003 134.302 651.132 128.812C639.91 133.457 628.895 138.103 617.88 142.608C616.009 157.249 616.84 233.55 618.919 238.9C630.142 235.381 641.157 231.861 651.964 228.482ZM351.857 324.352C367.86 318.721 383.447 315.202 396.332 309.43C397.787 294.507 397.372 238.9 395.501 232.846C380.745 238.9 366.197 244.953 351.857 250.866C351.857 275.08 351.857 298.871 351.857 324.352ZM498.377 430.076C482.582 432.892 468.242 435.426 453.901 437.819C452.447 446.406 452.655 503.421 454.525 509.334C461.799 508.771 469.073 508.349 476.555 507.645C483.829 506.941 491.103 506.237 498.377 505.533C498.377 480.475 498.377 455.839 498.377 430.076ZM1236.18 364.333C1236.18 330.406 1236.18 297.464 1236.18 264.24C1227.03 260.861 1218.09 257.483 1208.95 254.104C1207.08 259.735 1206.66 348.144 1208.12 357.576C1217.26 359.828 1226.2 361.94 1236.18 364.333ZM133.635 340.401C132.18 356.449 132.804 388.265 134.674 393.756C135.921 393.333 137.168 393.052 138.415 392.629C150.469 388.828 162.731 385.027 174.785 381.086C178.734 379.819 183.099 378.833 185.177 375.314C185.177 359.265 185.177 342.935 185.177 326.464C185.177 324.211 185.593 321.677 180.189 320.551C164.809 327.308 147.975 332.94 133.635 340.401ZM812.825 353.915C811.162 390.236 811.993 469.353 814.279 475.688C821.138 474.984 827.996 474.28 834.855 473.577C834.855 433.033 834.855 393.333 834.855 353.634C822.8 350.678 821.969 350.678 812.825 353.915ZM325.462 425.431C327.125 415.576 326.501 356.731 324.631 351.241C317.565 353.212 310.706 355.182 304.056 357.294C299.068 358.843 294.08 360.391 289.508 361.94C287.637 378.27 288.469 428.105 290.547 433.033C302.393 430.358 314.032 427.965 325.462 425.431ZM96.6411 420.081C95.1863 431.062 95.602 468.368 97.0568 473.295C112.021 470.198 127.4 467.945 141.325 463.3C141.325 444.717 141.325 426.698 141.325 408.537C141.325 408.115 140.909 407.693 140.286 406.566C125.737 411.071 111.189 415.576 96.6411 420.081ZM539.735 380.241C541.398 364.755 540.775 292.255 538.904 286.624C530.591 289.017 522.486 291.269 514.588 293.522C512.925 299.716 512.925 379.115 514.796 385.45C523.317 383.76 531.422 382.071 539.735 380.241ZM807.005 376.862C799.523 377.988 792.041 379.115 784.56 380.241C782.897 387.843 783.313 472.31 784.975 477.659C792.873 478.785 800.355 477.659 807.837 475.829C809.291 466.538 808.876 382.212 807.005 376.862ZM513.757 184.841C513.757 213.982 513.757 242.842 513.757 272.405C522.901 269.59 531.422 266.915 539.943 264.24C539.943 234.114 539.943 204.409 539.943 174.142C530.799 177.943 522.486 181.322 513.757 184.841ZM990.935 108.117C977.01 101.782 962.047 95.5881 947.083 89.6755C932.327 83.7628 919.026 76.3016 902.815 71.3744C901.36 80.9472 901.568 109.525 903.231 114.734C912.999 113.326 919.649 107.132 931.288 106.287C950.408 113.889 970.36 121.914 990.935 130.219C990.935 122.758 990.935 115.86 990.935 108.117ZM619.75 16.8933C619.75 26.607 619.75 35.8983 619.75 45.3305C643.443 53.3548 665.888 62.6461 688.958 70.1074C699.557 65.3209 709.117 60.9568 719.509 56.3111C685.84 42.9372 653.003 29.9857 619.75 16.8933ZM80.6382 424.727C66.0901 429.091 52.3733 433.173 38.8643 437.115C36.9938 443.309 37.2016 479.348 39.0721 484.98C46.554 485.261 52.7889 482.586 59.4395 481.319C66.2979 479.912 73.1563 478.504 79.8069 477.237C81.4695 471.606 82.093 441.198 80.6382 424.727ZM1037.49 148.521C1047.47 153.729 1059.93 157.671 1071.57 162.458C1083.21 167.385 1095.06 172.171 1106.9 176.817C1118.54 181.463 1129.56 186.812 1142.86 190.472C1142.86 183.997 1142.86 177.943 1142.86 171.89C1107.94 157.249 1073.24 142.608 1037.7 127.545C1037.49 134.865 1037.49 141.2 1037.49 148.521ZM80.846 361.095C65.6744 367.289 51.9576 372.78 38.033 378.411C38.033 393.756 38.033 408.96 38.033 424.304C52.5811 419.377 67.3371 415.576 80.846 410.367C80.846 394.037 80.846 378.129 80.846 361.095ZM448.082 510.038C449.537 501.169 449.121 444.295 447.459 438.664C438.314 440.353 429.378 442.042 420.441 443.732C418.778 456.12 419.402 508.208 421.272 512.994C430.001 512.009 438.73 511.023 448.082 510.038ZM1216.22 174.142C1216.64 173.72 1217.05 173.297 1217.47 172.875C1214.77 171.467 1212.48 169.778 1209.57 168.511C1200.01 164.006 1190.24 159.642 1180.68 155.278C1158.86 145.142 1137.04 135.006 1115.22 125.011C1098.38 117.268 1081.55 109.807 1064.92 102.064C1043.93 92.3502 1023.15 82.4958 1002.16 72.9229C975.971 60.9568 949.785 49.1315 923.598 37.1653C917.155 34.209 910.92 30.8303 904.27 27.874C894.71 23.3691 884.942 19.005 875.174 14.6409C868.107 11.403 861.041 8.30589 852.728 4.78645C852.728 7.74278 852.728 9.99522 852.728 12.2477C860.833 15.7671 868.939 19.2866 877.044 22.9468C903.854 35.0537 930.664 47.1606 957.682 59.1267C983.453 70.6705 1009.43 81.9327 1035.2 93.4765C1082.8 114.734 1130.18 136.132 1177.57 157.39C1190.45 163.021 1203.34 168.511 1216.22 174.142ZM426.884 320.129C425.221 336.037 425.844 398.12 427.715 403.61C434.573 402.202 441.224 400.935 448.498 399.387C448.498 370.809 448.498 342.512 448.498 313.653C441.016 316.046 433.95 318.158 426.884 320.129ZM230.068 363.066C231.523 348.988 231.107 306.473 229.237 300.42C219.677 304.502 209.701 307.881 201.803 312.668C201.803 332.236 201.803 350.959 201.803 369.542C201.803 369.964 202.427 370.386 203.466 371.372C212.403 368.697 221.339 365.882 230.068 363.066ZM548.672 499.62C548.672 497.931 548.672 496.101 548.672 494.271C548.464 465.693 548.257 437.115 548.049 408.537C548.049 408.396 547.841 408.115 547.633 407.974C547.425 407.833 547.217 407.693 546.178 406.989C541.606 406.144 536.41 405.581 531.422 407.411C529.552 413.324 529.552 495.538 531.214 501.451C539.112 502.154 539.112 502.154 548.672 499.62ZM524.979 502.999C526.642 492.722 526.226 431.343 524.356 426.275C516.458 425.29 510.016 428.246 503.365 429.654C501.91 453.023 502.534 498.353 504.404 504.688C511.055 504.266 517.705 503.703 524.979 502.999ZM614.762 102.345C614.762 83.9036 614.762 66.7287 614.762 48.8499C604.163 54.0587 594.187 58.9859 584.627 63.6316C584.627 81.2288 584.627 98.4037 584.627 116.142C595.226 111.355 604.994 106.85 614.762 102.345ZM421.688 222.288C414.414 225.244 407.971 228.06 401.32 230.876C401.32 256.638 401.32 282.119 401.32 308.585C409.218 305.91 415.661 303.799 421.688 301.687C421.688 275.08 421.688 248.895 421.688 222.288ZM184.346 454.853C184.346 434.159 184.346 414.168 184.346 393.474C175.201 396.29 166.68 398.683 158.782 401.076C157.12 412.479 157.743 454.431 159.614 460.062C167.927 459.076 175.617 456.824 184.346 454.853ZM325.878 443.309C317.773 442.746 312.161 445.421 306.134 446.547C306.134 472.169 306.134 497.368 306.134 522.426C313.408 524.397 319.227 521.723 325.878 521.159C325.878 495.397 325.878 469.635 325.878 443.309ZM869.147 156.826C888.475 150.773 907.179 144.86 926.508 138.807C926.508 129.234 926.508 119.802 926.508 109.807C907.387 117.268 887.228 122.899 869.147 130.783C869.147 139.652 869.147 147.957 869.147 156.826ZM300.731 524.257C302.393 512.854 301.77 452.601 300.107 447.673C293.872 448.8 287.637 449.785 281.61 450.911C280.155 459.076 280.363 520.596 282.026 525.524C287.845 525.101 294.08 524.679 300.731 524.257ZM275.375 526.931C277.246 518.203 276.83 458.091 274.96 452.882C268.309 453.586 261.658 453.727 256.255 456.542C256.255 480.334 256.255 503.562 256.255 526.931C262.905 526.931 268.932 526.931 275.375 526.931ZM349.155 520.315C348.947 492.863 349.363 465.975 348.947 438.382C342.504 439.368 337.309 440.212 332.736 440.916C331.905 441.761 331.282 442.183 331.074 442.605C330.866 443.45 330.658 444.436 330.658 445.421C330.658 470.057 330.866 494.693 331.074 519.189C331.074 519.329 331.489 519.611 331.697 519.752C331.905 519.892 332.113 520.033 332.529 520.315C337.309 520.315 342.504 520.315 349.155 520.315ZM348.116 420.926C349.778 412.761 349.571 349.692 347.492 344.061C341.881 345.75 336.27 347.44 330.866 349.27C330.866 374.469 330.866 399.105 330.866 424.164C336.685 423.037 342.297 422.052 348.116 420.926ZM348.324 325.338C349.986 315.342 349.363 258.187 347.492 252.696C341.673 254.949 336.27 257.201 330.866 259.172C330.866 282.823 330.866 306.051 330.866 329.279C330.866 329.42 331.282 329.702 331.489 329.842C331.697 329.983 332.113 329.983 332.736 330.124C337.932 328.575 343.128 327.027 348.324 325.338ZM250.643 528.48C252.306 518.766 251.89 462.455 250.02 456.965C244.201 458.232 238.589 459.499 233.186 460.625C231.731 483.009 232.354 523.834 234.225 530.31C239.421 529.747 244.824 529.184 250.643 528.48ZM212.403 532.281C219.261 531.436 224.872 530.732 230.068 530.028C231.939 511.446 231.107 466.256 228.613 461.188C223.21 462.877 216.351 462.033 212.403 465.13C212.403 487.373 212.403 509.193 212.403 532.281ZM557.401 77.287C557.401 94.1804 557.401 110.511 557.401 127.967C565.506 124.588 572.573 121.632 579.431 118.676C579.431 101.078 579.431 83.7628 579.431 66.0248C571.741 69.9666 564.467 73.7676 557.401 77.287ZM286.182 432.892C287.845 418.11 287.222 368.275 285.351 362.925C280.571 364.192 275.999 365.6 270.387 367.149C270.595 389.955 270.179 412.761 270.595 435.426C277.038 436.693 281.61 435.426 286.182 432.892ZM483.829 113.326C475.308 117.549 467.618 121.35 459.929 125.151C459.929 140.355 459.929 155.559 459.929 170.904C468.242 167.244 475.932 163.865 483.829 160.487C483.829 145.142 483.829 129.656 483.829 113.326ZM191.204 534.956C195.361 534.111 197.439 533.689 199.725 533.266C202.219 532.844 204.921 532.703 207.415 532.562C209.077 510.32 208.454 470.62 205.96 465.552C203.674 465.975 201.595 466.538 199.309 466.96C197.023 467.382 194.737 467.664 191.62 468.086C190.996 490.048 191.412 512.009 191.204 534.956ZM620.789 48.7091C618.711 55.8888 618.919 94.4619 621.413 99.8115C629.102 95.025 639.702 93.3357 646.56 87.2822C646.56 82.7774 646.56 78.1317 646.56 73.3452C646.56 68.6996 646.56 64.0539 646.56 59.6898C645.313 58.7044 644.898 58.0005 644.066 57.7189C636.584 54.7626 629.103 51.947 620.789 48.7091ZM115.762 399.387C117.424 385.027 116.801 352.648 114.722 347.299C108.28 349.974 101.837 352.648 95.8098 355.182C95.8098 371.653 95.8098 387.561 95.8098 403.469C95.8098 403.892 96.4333 404.314 97.2646 405.159C103.915 404.032 109.734 401.639 115.762 399.387ZM172.291 471.887C170.005 477.378 170.005 529.606 172.291 536.082C177.071 535.378 181.852 534.674 186.632 533.97C188.294 521.3 187.671 475.125 185.8 469.776C181.02 470.479 176.448 471.183 172.291 471.887ZM152.34 537.63C158.159 537.208 162.731 536.927 167.927 536.645C167.927 514.965 167.927 494.13 167.927 472.591C162.108 473.858 157.12 474.984 152.34 476.111C152.34 496.523 152.34 516.655 152.34 537.63ZM432.495 182.589C437.275 180.618 441.224 179.069 444.965 177.38C448.498 175.691 452.031 173.72 454.733 172.312C454.733 157.108 454.733 142.608 454.733 127.685C446.835 131.909 439.353 135.569 432.495 139.229C432.495 153.87 432.495 167.666 432.495 182.589ZM130.517 539.601C130.517 519.47 130.517 500.043 130.517 480.052C124.906 481.038 119.918 482.023 114.93 482.868C113.268 495.679 113.891 536.223 115.969 541.713C120.542 541.009 125.114 540.446 130.517 539.601ZM1178.81 205.958C1196.48 212.997 1213.94 220.036 1232.02 227.215C1232.02 221.021 1232.02 215.531 1232.02 210.181C1207.49 198.497 1185.46 189.768 1178.81 189.065C1178.81 194.414 1178.81 199.764 1178.81 205.958ZM552.413 130.219C553.868 114.312 553.452 85.3114 551.374 79.9618C545.555 83.0589 539.943 86.0152 534.747 88.8308C533.293 107.695 533.916 132.19 535.994 137.54C541.398 135.147 546.802 132.753 552.413 130.219ZM235.472 361.517C240.46 359.828 244.616 358.561 248.981 357.013C248.981 335.614 248.981 314.357 248.981 292.818C244.201 294.789 239.628 296.478 235.472 298.167C235.472 319.425 235.472 340.119 235.472 361.517ZM529.552 140.496C529.552 123.321 529.552 107.554 529.552 91.224C523.109 94.4619 517.29 97.2775 512.094 99.9522C512.094 116.001 512.094 131.486 512.094 147.817C518.537 145.001 524.356 142.608 529.552 140.496ZM1034.37 126.418C1021.07 121.491 1010.06 115.015 995.923 110.651C995.923 118.394 995.923 125.433 995.923 132.472C1008.39 137.399 1020.86 142.467 1034.37 147.817C1034.37 140.215 1034.37 133.598 1034.37 126.418ZM427.507 185.404C428.962 171.89 428.546 147.254 426.468 141.904C420.649 145.001 415.037 147.817 409.841 150.491C409.841 164.71 409.841 178.225 409.841 192.443C416.284 189.909 421.896 187.657 427.507 185.404ZM198.478 451.897C200.141 443.591 199.933 394.741 198.27 389.814C192.659 390.518 192.659 390.518 187.671 393.052C186.216 406.426 186.84 448.518 188.502 454.008C191.827 453.445 194.945 452.741 198.478 451.897ZM135.921 478.785C134.258 488.64 134.674 533.407 136.752 538.616C138.623 538.616 140.701 538.616 142.779 538.616C144.026 538.616 145.481 538.334 147.144 538.194C147.144 517.64 147.144 497.509 147.144 476.955C142.987 477.659 139.454 478.222 135.921 478.785ZM188.086 317.876C186.216 328.012 186.84 370.527 188.918 375.314C189.957 375.314 190.996 375.595 191.827 375.314C194.321 374.469 196.608 373.624 198.686 372.78C200.348 364.192 199.933 318.721 198.062 313.512C194.529 315.061 191.204 316.469 188.086 317.876ZM391.345 200.608C397.579 198.215 403.607 196.667 406.932 193.147C406.932 179.069 406.932 165.695 406.932 151.758C401.113 154.433 396.125 156.826 391.345 158.938C391.345 173.157 391.345 186.671 391.345 200.608ZM69.831 491.878C68.1684 500.465 68.584 540.446 70.2467 545.936C73.7798 545.232 77.1051 544.529 80.4304 543.825C81.8852 531.718 81.4695 494.834 79.599 489.625C76.4816 490.329 73.3641 491.033 69.831 491.878ZM55.2829 494.693C53.6202 502.436 53.8281 541.713 55.6986 547.344C59.2317 546.64 62.557 545.936 65.8822 545.373C67.3371 535.096 66.9214 497.79 65.2587 492.582C61.9335 493.145 58.816 493.849 55.2829 494.693ZM25.5632 499.902C25.5632 516.795 25.5632 533.126 25.5632 549.737C29.5119 549.174 32.6294 548.752 35.9547 548.189C36.1625 548.189 36.3703 547.907 36.5782 547.626C38.2408 537.208 37.6173 502.999 35.7468 498.213C32.6294 498.776 29.3041 499.339 25.5632 499.902ZM146.313 404.877C144.858 418.673 145.273 457.106 147.144 463.018C150.261 462.174 153.171 461.329 155.249 460.766C155.249 440.775 155.249 421.77 155.249 402.061C151.716 403.188 149.014 404.032 146.313 404.877ZM386.564 202.439C386.564 195.259 386.772 188.502 386.564 181.744C386.357 175.268 387.396 168.652 385.733 161.613C380.537 164.569 375.965 166.962 372.016 169.074C372.016 176.254 371.809 182.87 372.016 189.346C372.224 195.681 371.185 202.157 372.64 208.633C375.342 207.506 377.42 206.803 379.29 205.817C381.784 205.113 383.863 203.846 386.564 202.439ZM100.59 485.824C98.7194 497.086 99.3429 541.291 101.421 542.839C104.123 542.135 106.825 541.572 109.527 540.868C109.527 521.863 109.527 503.281 109.527 484.557C106.409 484.98 103.5 485.402 100.59 485.824ZM367.86 211.026C367.86 203.987 368.068 197.511 367.86 191.035C367.652 184.7 368.691 178.225 367.028 171.327C362.04 173.579 357.884 175.409 353.935 177.098C353.935 190.754 353.935 203.846 353.935 217.361C358.923 215.249 363.08 213.278 367.86 211.026ZM95.3942 542.417C95.3942 523.693 95.3942 505.955 95.3942 488.217C95.3942 488.077 95.1863 487.795 94.9785 487.654C94.7707 487.514 94.5628 487.232 94.1472 486.95C91.4454 487.654 88.5358 488.217 86.0418 488.921C84.3791 501.451 85.0026 539.32 87.0809 544.81C89.7827 543.825 92.4845 543.121 95.3942 542.417ZM22.4457 488.921C24.1083 473.999 23.4848 447.955 21.1987 442.605C17.8734 443.591 14.5481 444.717 11.6385 445.562C9.76804 454.572 10.3915 485.965 12.262 490.892C15.3795 490.329 18.4969 489.625 22.4457 488.921ZM120.957 344.483C120.957 362.503 120.957 379.819 120.957 397.697C124.698 396.43 128.024 395.304 130.725 394.319C130.725 376.862 130.725 359.969 130.725 343.076C130.725 342.653 130.102 342.372 129.271 341.668C126.777 342.653 124.075 343.498 120.957 344.483ZM1145.77 192.443C1155.12 196.385 1163.85 200.045 1173.83 204.128C1173.83 197.511 1173.83 191.739 1173.83 185.545C1165.1 181.603 1156.37 177.521 1145.77 173.72C1145.77 180.336 1145.77 186.108 1145.77 192.443ZM11.015 389.673C11.015 403.892 11.015 417.547 11.015 431.343C17.0421 431.062 17.0421 431.062 22.2379 428.387C24.1083 415.717 23.4848 389.955 20.9909 385.45C17.6656 386.717 14.5481 388.124 11.015 389.673ZM11.6385 503.14C9.97587 511.023 10.1837 546.077 12.0542 551.849C15.1716 551.004 18.0813 550.16 20.1596 549.597C20.1596 532.985 20.1596 517.218 20.1596 501.451C17.0421 501.873 14.5481 502.436 11.6385 503.14ZM551.374 500.887C557.193 499.761 556.985 497.509 556.985 495.116C556.985 487.654 556.985 480.193 556.985 472.591C556.985 456.261 556.985 439.79 556.985 423.46C556.985 422.615 556.57 421.77 556.154 420.503C554.284 420.785 552.621 421.066 551.374 421.207C551.374 447.814 551.374 473.858 551.374 500.887ZM336.893 185.686C336.893 198.497 336.893 210.885 336.893 223.274C336.893 223.555 337.724 223.837 338.14 224.118C341.881 222.57 345.622 221.021 349.155 219.473C349.155 206.662 349.155 194.133 349.155 180.618C344.375 182.589 340.842 183.997 336.893 185.686ZM332.529 226.652C332.529 219.895 332.736 213.56 332.529 207.225C332.321 201.171 333.36 194.977 331.905 188.642C327.541 190.754 324.215 192.584 320.89 194.273C319.435 205.113 319.851 226.371 321.721 231.439C325.047 229.89 328.58 228.482 332.529 226.652ZM303.64 202.72C303.64 214.264 303.64 225.526 303.64 236.648C303.64 237.211 304.264 237.914 304.679 238.478C305.303 238.478 305.718 238.618 305.926 238.618C309.252 236.929 312.369 235.381 315.486 233.691C315.486 221.444 315.486 209.337 315.486 196.667C311.122 198.919 307.381 200.89 303.64 202.72ZM651.132 86.5784C662.147 81.6511 672.747 77.0055 684.178 71.7967C672.539 67.5734 662.355 63.9131 651.132 59.8306C651.132 68.9811 651.132 77.5686 651.132 86.5784ZM287.014 211.026C287.014 222.288 287.014 232.987 287.014 243.827C287.014 244.39 287.637 245.094 288.469 246.08C292.417 244.25 295.95 242.701 299.484 241.012C299.484 229.609 299.484 218.628 299.484 207.647C299.484 206.943 299.068 206.38 298.444 204.973C294.288 207.225 290.547 209.196 287.014 211.026ZM92.6924 473.858C94.7707 462.174 94.1472 423.319 91.2375 421.77C89.5749 422.333 87.4966 422.897 85.834 423.46C84.1713 436.974 84.7948 473.577 86.6653 474.984C87.4966 474.984 88.5357 475.266 89.5749 475.125C90.8219 474.844 91.861 474.28 92.6924 473.858ZM284.104 247.347C284.104 235.662 284.104 224.259 284.104 212.152C279.532 214.545 275.791 216.375 272.881 218.065C272.881 230.031 272.881 241.152 272.881 252.696C277.038 250.866 280.571 249.036 284.104 247.347ZM257.917 225.245C257.917 235.944 257.917 246.22 257.917 256.497C257.917 257.06 258.541 257.764 259.164 258.75C262.698 257.201 266.023 255.653 269.556 254.104C269.556 242.56 269.556 231.298 269.556 219.332C265.399 221.444 261.658 223.414 257.917 225.245ZM49.6715 495.538C46.7618 496.101 44.4757 496.664 42.1896 497.227C42.1896 514.402 42.1896 531.155 42.1896 548.33C43.8522 548.33 45.307 548.611 46.554 548.33C47.801 548.048 48.6323 547.203 49.6715 546.64C49.6715 529.606 49.6715 512.854 49.6715 495.538ZM93.3159 355.886C89.9906 357.576 87.7044 358.561 85.834 359.547C85.834 376.158 85.834 392.348 85.834 409.241C88.9514 407.974 91.0297 406.989 93.3159 406.003C93.3159 389.251 93.3159 372.92 93.3159 355.886ZM846.285 168.793C846.701 169.215 847.117 169.496 847.532 169.919C882.24 158.797 917.155 147.676 951.863 136.554C951.655 135.428 951.655 134.724 951.24 133.317C916.116 144.72 881.616 155.841 847.324 167.103C846.701 167.244 846.701 168.229 846.285 168.793ZM255.631 260.439C255.631 249.318 255.631 238.478 255.631 227.779C255.631 227.638 255.424 227.356 255.216 227.215C255.008 227.075 254.8 227.075 254.384 227.075C251.683 228.342 248.773 229.609 246.279 230.876C244.409 243.123 245.032 260.017 247.734 264.381C250.02 262.973 252.514 261.847 255.631 260.439ZM1237.01 212.152C1237.01 218.065 1237.01 223.133 1237.01 228.482C1242.41 232.424 1249.68 234.254 1257.17 237.07C1257.17 231.157 1257.17 226.23 1257.17 220.458C1250.72 217.924 1244.28 215.249 1237.01 212.152ZM218.638 244.953C218.638 256.075 218.638 266.07 218.638 276.628C222.171 274.939 225.288 273.672 228.613 272.124C228.613 262.128 228.613 252.274 228.613 242.56C228.613 241.997 227.99 241.293 227.159 239.885C224.041 241.715 221.132 243.405 218.638 244.953ZM27.6415 487.936C33.2529 487.232 33.2529 485.12 33.2529 482.868C33.2529 469.353 33.2529 455.839 33.045 442.183C33.045 441.62 32.4216 440.916 31.7981 440.212C30.3432 440.353 29.0963 440.494 27.4336 440.494C27.6415 456.402 27.6415 472.028 27.6415 487.936ZM28.0571 427.261C34.0842 426.557 33.2529 423.741 33.4607 421.207C33.4607 409.1 33.4607 396.993 33.4607 384.746C33.4607 383.479 32.6294 382.353 32.2137 380.945C26.6023 382.212 27.2258 385.027 27.2258 387.421C27.2258 399.105 27.2258 410.79 27.2258 422.474C27.2258 424.164 27.6415 425.712 28.0571 427.261ZM241.083 266.774C241.083 255.793 241.083 245.235 241.083 234.817C241.083 234.677 240.875 234.395 240.668 234.254C240.46 234.113 240.252 234.114 239.421 233.973C237.342 235.521 234.848 237.211 233.601 238.196C233.601 249.036 233.601 259.031 233.601 269.026C233.601 269.167 234.017 269.308 234.64 269.449C236.303 268.604 238.381 267.759 241.083 266.774ZM205.96 250.444C205.96 260.298 205.96 269.59 205.96 278.881C205.96 279.444 206.583 280.148 207.207 281.133C209.701 280.148 211.987 279.303 213.65 278.74C213.65 268.182 213.65 258.187 213.65 248.191C213.65 248.051 213.234 247.91 212.818 247.769C210.74 248.614 208.662 249.458 205.96 250.444ZM194.114 256.638C194.114 267.056 194.114 276.769 194.114 287.609C197.439 285.779 199.725 284.512 201.388 283.667C201.388 273.25 201.388 263.536 201.388 253.4C198.478 254.526 196.192 255.512 194.114 256.638ZM183.099 261.565C183.099 271.701 183.099 281.274 183.099 290.847C183.099 291.129 183.93 291.269 184.553 291.692C186.84 290.284 189.126 288.876 190.58 288.172C190.58 277.755 190.58 268.463 190.58 258.75C188.086 259.876 186.008 260.58 183.099 261.565ZM178.734 294.507C178.734 284.512 178.734 275.08 178.734 265.789C178.734 265.507 177.903 265.225 177.487 264.944C175.201 266.07 173.123 267.056 171.252 268.041C171.252 277.614 171.252 286.905 171.252 296.76C173.954 295.915 176.032 295.352 178.734 294.507ZM136.96 311.541C136.96 302.672 136.96 294.648 136.96 286.764C136.96 286.342 136.337 286.061 135.298 285.216C133.011 286.483 130.725 287.75 129.478 288.595C129.478 298.167 129.478 306.896 129.478 316.891C132.804 314.498 134.882 313.09 136.96 311.541ZM6.65059 503.844C5.81927 504.125 4.78011 504.407 4.78011 504.688C4.57228 519.611 4.36445 534.674 4.36445 549.597C4.36445 550.16 5.40361 550.582 5.81927 551.145C6.65059 550.864 7.68974 550.582 7.68974 550.3C7.89757 535.378 8.1054 520.315 8.1054 505.392C8.1054 504.829 7.06625 504.407 6.65059 503.844ZM847.74 14.6409C823.216 25.0585 799.731 35.0537 776.454 44.9081C775.623 45.3305 774.792 45.7528 773.96 46.1751C773.545 46.4567 772.921 46.879 772.505 47.1606C772.298 47.3013 772.09 47.5829 772.09 47.7237C772.09 47.8645 772.298 48.0052 772.921 48.8499C792.873 40.4032 812.617 31.9566 832.568 23.5099C837.556 21.3982 842.336 19.1458 847.117 17.0341C847.324 17.0341 847.324 16.3302 847.74 14.6409ZM165.849 270.575C163.147 271.842 161.276 272.405 161.276 272.827C160.653 282.4 160.237 291.832 159.614 302.532C163.355 300.701 165.225 299.716 165.849 299.434C165.849 289.158 165.849 280.57 165.849 270.575ZM155.457 304.502C155.457 294.507 155.457 285.497 155.457 276.488C155.457 276.347 155.041 276.347 154.21 276.065C152.755 277.192 151.301 278.318 150.469 279.022C150.469 288.454 150.469 297.182 150.469 306.192C152.548 305.488 154.002 304.925 155.457 304.502ZM145.481 281.556C144.65 281.415 143.819 281.415 142.987 281.274C141.948 282.682 140.493 283.949 139.87 285.357C138.831 287.891 139.87 307.177 141.117 310.415C145.273 310.134 145.897 308.163 145.897 305.91C145.897 300.561 145.897 295.211 145.897 289.721C145.481 287.046 145.481 284.371 145.481 281.556ZM110.358 298.449C110.358 306.896 110.358 314.498 110.358 321.959C110.358 322.381 111.189 322.663 111.605 323.085C116.593 322.804 116.385 320.27 116.385 317.876C116.385 310.837 116.385 303.799 116.177 296.76C116.177 296.478 115.346 296.197 114.307 295.493C113.06 296.478 111.605 297.464 110.358 298.449ZM123.867 290.565C122.204 292.255 120.957 292.959 120.749 293.803C119.71 297.323 120.749 315.202 121.996 318.439C125.322 314.638 125.945 306.473 123.867 290.565ZM6.65059 491.315C9.14455 479.348 8.72889 452.882 6.65059 447.533C6.65059 462.596 6.65059 476.955 6.65059 491.315ZM6.65059 432.329C9.14455 419.94 8.72889 396.571 6.65059 391.503C6.65059 405.44 6.65059 418.814 6.65059 432.329Z" fill="#F48034"/>
</svg>
