<svg id="Layer_1" data-name="Layer 1" xmlns="http://www.w3.org/2000/svg" viewBox="0 0 423.7 414.74"><path d="M20.21,25C22.85,18.4,27.7,15.82,34.85,16c15,.3,29.93.08,44.9.09,9.27,0,13.76,4.48,13.76,13.75V263.9c35.55,5.84,56,26.41,62.21,62.15H389.06c10.34,0,14.49,4.16,14.5,14.5,0,14.71-.22,29.43.09,44.14.14,7.14-2.42,12-9.08,14.62H34.44a21.71,21.71,0,0,1-14.23-14.22V105.14c2-2.33,4.23-4.36,7.65-3s3.74,4.33,3.59,7.47c0,.87,0,1.75,0,2.62V263.67H82V250.44c-6.34,0-12.43.07-18.51,0-4.21-.06-6.76-3-5.85-6.78.8-3.34,3.32-4.42,6.5-4.41H82v-13.3c-4.61-.95-11.48,1.87-11.64-5.63-.18-8,7.17-5,11.69-6.11V200.92c-6.22,0-12.2.05-18.16,0-3.93-.05-6.22-2.09-6.33-5.4-.12-3.5,2.22-5.74,6.27-5.79,6.06-.06,12.13,0,18.16,0V176.15H78.7a27,27,0,0,1-3.37-.08,5.54,5.54,0,0,1-5.2-5.77c.09-3.09,2.19-5.17,5.56-5.34,2.08-.1,4.16,0,6.31,0V151.36H76.13c-4.24,0-8.49.11-12.72-.06-3.82-.16-6-2.5-5.87-5.87s2.25-5.13,6-5.28c1.74-.07,3.49,0,5.24,0H82.06V126.5c-2.07,0-3.92.08-5.76,0-3.94-.2-6.15-2.25-6.17-5.57s2.18-5.42,6.11-5.59c1.94-.09,3.89,0,5.83,0V101.64c-1.55,0-2.88,0-4.22,0-5,0-10,.07-15-.09-3.18-.1-5.08-1.91-5.32-5.15s1.7-5.39,5-5.85a33.58,33.58,0,0,1,4.49-.13H82V77.13C77.46,76,70.51,79,70.34,71.51c-.18-8,7.13-5.15,11.68-6.18V52.05H77.7c-4.87,0-9.73.07-14.6,0a5.32,5.32,0,0,1-5.56-5.33,5.49,5.49,0,0,1,5.17-5.78,37.5,37.5,0,0,1,4.11-.07H82V27.55H31.44v4.33q0,25.83,0,51.64c0,5.2-3.78,8.29-7.83,6.39a17.79,17.79,0,0,1-3.39-2.74Zm309,312.45v5.14c0,4.62.12,9.24-.1,13.85-.17,3.59-2.55,5.63-5.79,5.51s-5.07-2.12-5.29-5.61c-.12-2-.05-4-.05-6V337.5H304.64c-1.2,4.49,1.84,11.7-5.93,11.71s-4.76-7.2-6-11.68H279.62c-.06,1.45-.15,2.67-.16,3.89,0,4.87.06,9.74,0,14.6-.08,3.74-2.07,5.86-5.31,6s-5.63-2.08-5.84-5.89c-.15-2.62,0-5.24,0-7.86V337.48H254.65c0,2,0,3.87,0,5.7-.11,3.91-2.12,6.18-5.46,6.23s-5.55-2.27-5.73-6c-.1-1.94,0-3.89,0-5.77H229.88v15.65c0,1,0,2,0,3-.21,3.55-2.36,5.76-5.57,5.76s-5.52-2.21-5.59-5.74c-.13-6.2,0-12.4,0-18.73H205.1c0,2.22.1,4.21,0,6.18-.2,3.49-2.5,5.74-5.66,5.71s-5.35-2.27-5.5-5.83c-.09-2,0-4.1,0-6.07H180.34v3.91c0,4.74.07,9.48,0,14.22-.09,4.09-2.3,6.41-5.79,6.34s-5.29-2.3-5.41-6.26c0-1.5,0-3,0-4.49V337.48H155.85v50.33H392.06V337.59H378.79c0,5.91,0,11.52,0,17.13,0,4.74-2,7.25-5.61,7.28s-5.59-2.41-5.61-7.21c0-5.7,0-11.4,0-17.26H354.28c-1,4.56,1.7,11.42-5.66,11.67-8.14.27-5-7.16-6.16-11.71Zm-184.87,50.6v-3.87c0-17.07.06-34.15,0-51.23-.13-33-24.8-57.64-57.77-57.74-17.08-.05-34.16,0-51.25,0H31.44v103.7c0,7,2.16,9.14,9.16,9.14H144.31Z"/><path d="M342.54,276.5V151.56H267.4V276.49h22.53c1.25,0,2.5-.06,3.75,0,3.4.26,5.75,2.71,5.61,5.78s-2.53,5.33-6.05,5.38c-7.24.09-14.48,0-21.71,0h-4v13.54c1.84,0,3.78-.06,5.72,0,3.84.13,6.16,2.25,6.2,5.55s-2.27,5.6-6.06,5.64q-11.79.1-23.58,0c-3.77,0-6.24-2.28-6.3-5.49s2.41-5.53,6.13-5.69c2-.09,3.94,0,6.12,0V287.72c-3,0-6.08,0-9.14,0-4.35-.05-6.94-2.16-7-5.6s2.57-5.56,6.92-5.62c3,0,5.94,0,9.15,0V151.34c-2.38,0-4.59.1-6.8,0-3.75-.19-6.2-2.51-6.19-5.67s2.48-5.38,6.26-5.5c2.1-.07,4.22,0,6.65,0V59.83c-.54.15-1.22.29-1.86.53A5.16,5.16,0,0,1,247,58.1c-1.57-2.54-1.38-5.6,1.12-7,9.68-5.54,8.21-14.46,7.58-23.79-2,0-4.07.07-6.13,0-3.68-.15-6.16-2.55-6.06-5.75s2.48-5.39,6-5.43q12-.13,24,0c3.76,0,6.06,2.37,6,5.72-.07,3.17-2.31,5.3-5.88,5.45-2,.09-3.94,0-6.33,0,0,5.39-.11,10.46.09,15.53a5.15,5.15,0,0,0,1.9,2.95q51,45.4,102.1,90.75c1.77,1.58,3.93,2.91,5.17,4.83,1.14,1.76,2.24,4.54,1.6,6.2s-3.36,3.46-5.31,3.63c-5.57.5-11.21.19-16.83.21-.48,0-1,.13-1.91.26V156q0,61.38,0,122.75c0,7.51-1.43,8.93-9,8.93-9.11,0-18.22,0-27.33,0-4.66,0-7.17-2.11-7.08-5.79s2.48-5.4,7.05-5.42C325.88,276.48,334.09,276.5,342.54,276.5ZM267.39,139.79h90.67L267.39,59.22Z"/><path d="M180.34,276.51c3.7,0,6.91-.08,10.11,0,3.75.11,6.11,2.39,6.06,5.66,0,3.1-2.37,5.42-5.87,5.5-5.22.12-10.45.13-15.67,0-3.7-.09-5.74-2.18-5.82-5.87-.11-5.22-.1-10.45,0-15.67.06-3.5,2.33-5.86,5.4-5.94s5.46,2.25,5.74,5.68c.15,1.73.05,3.48.05,5.22S180.34,274.32,180.34,276.51Z"/><path d="M169.12,223.78c0-4.1-.07-8.21,0-12.32.08-3.5,2.3-5.87,5.37-6a5.55,5.55,0,0,1,5.76,5.64q.22,12.5,0,25a5.44,5.44,0,0,1-5.79,5.54c-3.17-.12-5.25-2.34-5.33-6C169.06,231.75,169.12,227.77,169.12,223.78Z"/><path d="M205.54,140.14c3.86,0,7.73-.08,11.59,0,3.6.1,5.87,2.23,6,5.35a5.45,5.45,0,0,1-5.62,5.76q-12.15.25-24.3,0a5.64,5.64,0,0,1-5.83-5.61c0-3.18,2.45-5.43,6.22-5.51C197.56,140.07,201.55,140.14,205.54,140.14Z"/><path d="M164.72,139.59c1.28,1.47,2.77,2.58,3.45,4.07,1.67,3.67-1,7.43-5.51,7.64a69.17,69.17,0,0,1-12.3-.12,8.68,8.68,0,0,1-5.52-3.51c-1.42-2.23-.36-4.78,1.76-6.62,2.73-2.37,5.44-4.76,8.1-7.19,2.26-2.06,4.67-3.56,7.69-1.76S166,136.66,164.72,139.59Z"/><path d="M238.37,72.37c-1.24,2-1.86,3.71-3.05,4.81-4.92,4.57-10,9-15,13.39-2.93,2.53-6.07,2.48-8.3.1s-2.09-5.75.92-8.49C218,77.58,223,72.9,228.33,68.67a7.42,7.42,0,0,1,6.06-.86C236,68.35,237,70.66,238.37,72.37Z"/><path d="M203.45,103.35c-1.17,1.92-1.78,3.63-3,4.74-5,4.66-10.13,9.19-15.3,13.66-2.83,2.45-6.14,2.28-8.28-.16s-1.92-5.63.93-8.23c5-4.61,10-9.31,15.4-13.52,1.53-1.19,4.48-1.42,6.44-.89C201.16,99.35,202.11,101.69,203.45,103.35Z"/><path d="M169.13,172.11c0-2.62-.1-5.23,0-7.83.16-3.35,2.28-5.43,5.37-5.5a5.33,5.33,0,0,1,5.7,5.2q.33,8.39,0,16.78a5.37,5.37,0,0,1-6,5.3c-3-.2-5-2.32-5.12-5.75C169.05,177.58,169.13,174.84,169.13,172.11Z"/><path d="M218.77,276.52c2.49,0,5-.1,7.47,0,3.42.17,5.79,2.59,5.73,5.65a5.61,5.61,0,0,1-5.57,5.47q-8,.24-16.06,0a5.42,5.42,0,0,1-5.47-5.49c-.05-3.19,2.17-5.4,5.67-5.65.25,0,.5,0,.75,0h7.48Z"/><path d="M87.68,288.91c23.68-.19,42.89,19.07,43,43.09.09,23-19.26,42.36-42.45,42.55a42.82,42.82,0,1,1-.52-85.64Zm.06,11.22a31.59,31.59,0,1,0,31.68,31.56A31.71,31.71,0,0,0,87.74,300.13Z"/><path d="M87.87,313.76a17.79,17.79,0,0,1,17.91,18.06A18,18,0,0,1,88,349.75a18.28,18.28,0,0,1-18.2-18A18,18,0,0,1,87.87,313.76Zm-.18,24.72A6.74,6.74,0,0,0,94.5,332,6.5,6.5,0,0,0,88,325a6.77,6.77,0,0,0-6.92,6.35A7,7,0,0,0,87.69,338.48Z"/></svg>