<svg id="Layer_1" data-name="Layer 1" xmlns="http://www.w3.org/2000/svg" viewBox="0 0 417.76 401.76"><path d="M74.36,65.35h20.3c-2.73-4.81-5.35-9.24-7.78-13.77A42.18,42.18,0,0,1,83,43.13c-1.54-5.58.1-10.61,4-14.82a44,44,0,0,1,21.81-13.07c9.08-2.3,15.88.41,20.61,8.5q11.3,19.38,22.42,38.83c1.16,2,2.36,3,4.9,3q92.81-.14,185.61-.08c1.09,0,2.19-.1,3.75-.18,0-4.87,0-9.58,0-14.29.05-5.78,1.92-7.64,7.62-7.7,24.54-.24,42.19,17,42.21,41.58q.09,86.63,0,173.26c0,6.69.78,13.6-.56,20.05-3.87,18.7-20.07,31-40,31.13-17.34.12-34.67,0-52,0H66.94c-17.91,0-31.4-7.52-38.82-24A43.75,43.75,0,0,1,24.58,268c-.22-61.24-.12-122.49,0-183.73C24.55,64,36.74,48.54,56,44.37a58.27,58.27,0,0,1,11.89-1c4.28,0,6.31,2.18,6.41,6.57C74.45,55.05,74.36,60.13,74.36,65.35Zm86.28,11.83c.63,1.27,1,2.06,1.38,2.79q36.78,63.59,73.55,127.17a10.63,10.63,0,0,1,1.55,4.12c1.32,14.52,2.51,29.06,3.76,43.59.27,3.09.33,6.11-2.89,7.84s-5.67,0-8.2-1.76c-11.59-8.23-23.23-16.38-34.8-24.63a10.71,10.71,0,0,1-3-3.21q-43.6-75.18-87-150.47c-2.4-4.18-4.79-6.12-9.79-5.73-6.77.52-13.61.13-20.8.13,0,8.12,0,15.7,0,23.28l.21,134c0,4.07-2.33,6.32-6.45,6.57-3.84.24-7.81.23-11.46,1.25a28,28,0,0,0-20.36,30.53c2.06,15,13.64,25.07,29.16,25.07q145,.07,290,0c19.23,0,31.8-14.92,28.86-33.88-2-13.06-14-22.82-28.27-23-9.12-.12-9.91-.93-9.91-10.17V77.18Zm-53.79-14.3L199.6,223l23.66-13.9-92.51-160ZM62.62,55.23C47.19,56,36,68.28,36,84.32Q36,160.85,36,237.39c0,.92.14,1.85.27,3.42A41.92,41.92,0,0,1,62.62,229.2ZM384.15,240.17a12.31,12.31,0,0,0,.37-1.67q0-77.62,0-155.25A28.42,28.42,0,0,0,358,55.17v174A41.24,41.24,0,0,1,384.15,240.17ZM124.93,39c-2.16-3.69-3.93-7.42-6.4-10.61a6.7,6.7,0,0,0-5.36-2.16,28.94,28.94,0,0,0-17.42,10c-1,1.19-1.74,3.71-1.17,5,1.76,4,4.2,7.75,6.41,11.65Zm83.28,192.39c6.77,4.77,13.17,9.29,20.18,14.25-.79-8.7-1.49-16.45-2.24-24.73Z"/><path d="M209.71,384.48H51.79c-6.75,0-8.42-1.66-8.43-8.33q0-23.94,0-47.9c0-5.69,1.88-7.57,7.65-7.57,18.07,0,36.13,0,54.2,0,13.31,0,26.63-.38,39.94-.36,19.18,0,38.35.33,57.53.35,13.32,0,26.63-.37,39.94-.35,19.18,0,38.36.33,57.54.35,13.31,0,26.62-.34,39.94-.35,10.09,0,20.18.21,30.28.41,4.13.08,6.19,2.14,6.2,6.3q.09,25.44,0,50.89c0,4.66-2.16,6.58-7.1,6.58q-38,0-76,0ZM55.24,372.57H364.82V332.38H346.16c0,4.26.07,8.33,0,12.41-.09,4.41-2.14,6.8-5.72,6.84s-5.85-2.47-5.89-7c0-4.06,0-8.12,0-12.18H313.61c0,2.19,0,4.15,0,6.12-.07,4.19-2.34,6.84-5.8,6.82s-5.62-2.62-5.73-6.89c-.05-2,0-3.92,0-6.07H281.17c0,4.41.05,8.62,0,12.82,0,3.18-1.34,5.61-4.68,6.32-3.85.81-6.87-1.86-7-6.23s0-8.61,0-12.86H248.53c0,2.48.08,4.71,0,6.93-.16,3.61-2.61,6.06-5.84,6s-5.4-2.41-5.58-5.85c-.11-2.33,0-4.66,0-7.11H216.14c0,4.42.05,8.63,0,12.84-.06,3.36-1.49,5.81-5.07,6.34-3.76.56-6.49-2-6.61-6.28s0-8.6,0-12.82H183.48c0,2.52.09,4.75,0,7-.19,3.61-2.67,6-5.9,5.91s-5.37-2.48-5.52-5.92c-.1-2.32,0-4.65,0-7h-21c0,4.55.38,8.93-.16,13.19a8.17,8.17,0,0,1-3.58,5.44c-1.39.78-4.39.21-5.71-.9s-2-3.64-2.15-5.61c-.32-4-.1-8.09-.1-12.17h-20.9c0,2.38.08,4.59,0,6.79-.17,3.72-2.44,6.15-5.64,6.21s-5.74-2.52-5.86-6.38c-.06-2.19,0-4.38,0-6.56H86c0,4.19,0,8.15,0,12.12,0,4.59-2.13,7.11-5.83,7.1s-5.72-2.46-5.79-7.16c0-4,0-7.91,0-12.06H55.24Z"/><path d="M221.3,16.15c6.74,0,13.48-.06,20.21,0,7.12.07,11.48,4.24,11.63,11.34s.17,14,0,21-4.58,11.12-11.45,11.16q-20.38.14-40.79,0c-6.95-.05-11.41-4.57-11.52-11.54s-.12-13.72,0-20.58S194,16.27,200.72,16.17,214.44,16.15,221.3,16.15Zm.36,11.74V47.73h19.8V27.89ZM209.47,28h-8.26V47.79h8.26Z"/><path d="M292.68,136.59c11.49,3.06,22.8,6,34.07,9.12,3.36.93,7.47.9,8.65,5.36s-2.36,6.51-4.82,9q-19.77,19.9-39.67,39.69C285.38,205.25,281,204,279,196.4c-2.77-10.34-5.64-20.66-8.21-31.05-.76-3-1.92-4.19-5.22-4.12-11,.24-21.94.11-32.92.09-5.9,0-7.87-1.94-7.88-7.85q0-26.19,0-52.38c0-5.92,1.93-7.76,7.92-7.76q26.19,0,52.38,0c5.75,0,7.62,1.86,7.63,7.58C292.69,112.74,292.68,124.58,292.68,136.59Zm-11.51-3.33c0-8.63-.11-16.7.06-24.78.07-2.82-.82-3.62-3.6-3.59-12.71.13-25.43,0-38.14.08a23.85,23.85,0,0,0-2.75.3v44.06h29.5c-.87-3.28-1.66-6.27-2.47-9.26-2-7.43,1.38-10.91,8.76-9C275.25,131.79,278,132.45,281.17,133.26Zm6.7,51.68,30.05-29.59L277.3,144.62C281,158.77,284.49,172.07,287.87,184.94Z"/><path d="M147.82,269.9c-15.95,0-31.91.09-47.86-.11a9.85,9.85,0,0,1-6.24-2.4c-2.74-2.7-1.12-7.54,2.64-8.71a16.65,16.65,0,0,1,4.79-.5q46.74,0,93.48,0c.63,0,1.25,0,1.87,0,4.17.19,6.83,2.51,6.8,5.92s-2.71,5.78-6.87,5.79C180.23,269.92,164,269.89,147.82,269.9Z"/><path d="M134.3,241.45c-11.47,0-22.93,0-34.4,0-4.81,0-7.46-2.18-7.41-5.94s2.62-5.76,7.23-5.76q34.59,0,69.18,0c4.6,0,7.08,2.22,7,5.95s-2.58,5.74-7.21,5.75C157.24,241.47,145.77,241.45,134.3,241.45Z"/><path d="M290.74,229.73c9.6,0,19.19-.06,28.78,0,4.45,0,7,2.47,6.81,6.17a5.63,5.63,0,0,1-5.95,5.48q-29.72.12-59.43,0a5.58,5.58,0,0,1-5.86-5.93c.07-3.43,2.42-5.66,6.5-5.7C271.3,229.67,281,229.73,290.74,229.73Z"/><path d="M293.39,269.9c-8.6,0-17.2,0-25.79,0-4.67,0-7.19-2-7.28-5.67-.1-3.84,2.45-6,7.31-6q25.8-.06,51.59,0c4.94,0,7.9,3,7,7-.78,3.47-3.3,4.73-6.67,4.72Q306.48,269.87,293.39,269.9Z"/><path d="M124.79,213c-8.34,0-16.68,0-25,0-4.59,0-7.19-2.11-7.28-5.7-.1-3.77,2.55-6,7.33-6q25,0,50.05,0c4.89,0,7.47,2.1,7.45,5.88S154.7,213,149.81,213C141.47,213,133.13,213,124.79,213Z"/><path d="M118,184.53c-6.24,0-12.47,0-18.7,0-4.27,0-6.79-2.23-6.82-5.77s2.45-5.86,6.71-5.88q18.7-.11,37.4,0c4.19,0,6.87,2.39,6.9,5.79s-2.73,5.85-7.16,5.88C130.23,184.56,124.12,184.53,118,184.53Z"/></svg>