<svg width="37" height="57" viewBox="0 0 37 57" fill="none" xmlns="http://www.w3.org/2000/svg">
<path d="M34.9598 42.5366C23.9315 42.5366 12.9583 42.5366 1.92996 42.5366C1.92996 41.7842 1.92996 41.0319 1.92996 40.2795C12.9583 40.2795 23.9315 40.2795 34.9598 40.2795C34.9598 41.0319 34.9598 41.7842 34.9598 42.5366Z" fill="white"/>
<path d="M12.5171 26.2164C12.6274 26.2164 12.6826 26.2164 12.7377 26.2164C14.6677 26.2164 16.6528 26.2164 18.5827 26.2743C19.6304 26.2743 20.5678 26.7373 21.2846 27.6054C21.6155 28.0105 21.7258 28.4735 21.7809 28.9943C21.8912 29.8624 21.9463 30.7884 21.7258 31.6565C21.5052 32.6403 20.8435 33.1612 20.0164 33.5663C19.851 33.6241 19.6855 33.682 19.5201 33.7978C20.4575 35.1867 21.3398 36.5757 22.2772 38.0225C22.1118 38.0225 21.9463 38.0225 21.7809 38.0225C21.2295 38.0225 20.6781 38.0225 20.1267 38.0225C19.6304 38.0225 19.2444 37.791 18.9687 37.3859C18.3621 36.402 17.7004 35.4182 17.0939 34.4344C16.9836 34.2607 16.8733 34.2029 16.7079 34.2029C16.1565 34.2029 15.6051 34.2029 14.9985 34.2029C14.9985 35.4761 14.9985 36.7493 14.9985 37.9646C14.3919 37.9646 13.7854 38.0225 13.1788 37.9646C12.7928 37.9067 12.5723 37.6174 12.5723 37.1544C12.5723 33.5663 12.5723 30.036 12.5723 26.4479C12.5171 26.39 12.5171 26.3322 12.5171 26.2164ZM14.9985 28.5313C14.9985 28.5892 14.9985 28.6471 14.9985 28.6471C14.9985 29.6888 14.9985 30.7884 14.9985 31.8301C14.9985 32.0037 15.1088 32.0037 15.2191 32.0037C16.0462 32.0037 16.8733 32.0037 17.7004 32.0037C18.0864 32.0037 18.4724 31.888 18.8033 31.6565C19.079 31.4828 19.2995 31.1935 19.3547 30.8462C19.4098 30.5569 19.4098 30.2675 19.4098 29.9781C19.4098 29.573 19.3547 29.2258 19.0238 28.9364C18.693 28.7049 18.3621 28.5892 17.9762 28.5892C17.0939 28.5892 16.2668 28.5892 15.3845 28.5313C15.2191 28.4735 15.1088 28.5313 14.9985 28.5313Z" fill="white"/>
<path d="M4.35619 28.5313C4.35619 28.8207 4.35619 29.0522 4.35619 29.2837C4.35619 29.7467 4.35619 30.1518 4.35619 30.6148C4.35619 30.8462 4.41133 30.962 4.6319 30.962C6.17586 30.962 7.77497 30.962 9.31893 30.962C9.42921 30.962 9.48435 30.962 9.59464 30.962C9.59464 31.7143 9.59464 32.4667 9.59464 33.2769C7.83011 33.2769 6.06558 33.2769 4.30105 33.2769C4.30105 34.145 4.30105 34.9552 4.30105 35.8233C6.28614 35.8233 8.32638 35.8233 10.3666 35.8233C10.3666 36.5757 10.3666 37.328 10.3666 38.0804C7.5544 38.0804 4.74218 38.0804 1.87482 38.0804C1.87482 34.145 1.87482 30.2675 1.87482 26.2743C4.68704 26.2743 7.49926 26.2743 10.3666 26.2743C10.3666 27.0266 10.3666 27.779 10.3666 28.5313C8.38152 28.5313 6.39643 28.5313 4.35619 28.5313Z" fill="white"/>
<path d="M34.9598 38.0225C34.1326 38.0225 33.3607 38.0225 32.5887 38.0225C32.5335 38.0225 32.4232 37.9067 32.4232 37.8489C32.0924 37.0965 31.8167 36.3442 31.541 35.5918C31.4858 35.4182 31.4307 35.3603 31.2653 35.3603C29.8316 35.3603 28.3428 35.3603 26.9091 35.3603C26.7437 35.3603 26.6885 35.4182 26.6334 35.5339C26.468 36.0548 26.2474 36.5178 26.0268 37.0386C25.7511 37.6752 25.3651 38.0225 24.6483 38.0225C24.152 38.0225 23.7109 38.0225 23.2146 38.0225C23.38 37.6752 23.4903 37.328 23.6006 37.0386C25.0343 33.5084 26.468 29.9782 27.8465 26.4479C27.9016 26.2743 28.0119 26.2164 28.1773 26.2164C28.7839 26.2164 29.3905 26.2164 29.997 26.2164C30.1073 26.2164 30.2176 26.2743 30.2727 26.39C31.8167 30.2096 33.3607 34.0292 34.9046 37.8489C34.9598 37.9067 34.9598 37.9646 34.9598 38.0225ZM29.1147 29.2258H29.0596C28.5633 30.499 28.0671 31.7722 27.5156 33.1033C28.5633 33.1033 29.5559 33.1033 30.5484 33.1033C30.0522 31.8301 29.611 30.5569 29.1147 29.2258Z" fill="white"/>
<path d="M13.2891 54.4584C12.9583 54.4584 12.6826 54.4584 12.3517 54.4584C12.3517 54.2269 12.3517 53.9954 12.3517 53.7639C12.9583 53.7639 13.5097 53.7639 14.1162 53.7639C14.1162 54.2847 14.1162 54.8635 14.1162 55.3843C14.1162 55.4422 14.0611 55.5001 14.006 55.5579C13.1788 56.2524 11.8003 56.3682 11.0283 55.7316C10.4218 55.2107 10.2012 54.5162 10.2563 53.706C10.3115 53.0694 10.532 52.4907 11.0283 52.0277C11.6349 51.5068 12.848 51.5647 13.3443 51.9119C13.6751 52.1434 13.8957 52.4328 14.006 52.8958C13.7303 52.9537 13.5097 53.0115 13.234 53.0694C12.9031 52.4907 12.5723 52.3171 12.076 52.3749C11.4143 52.4907 11.0835 52.8958 11.0283 53.5903C11.0283 53.8796 11.0283 54.169 11.0835 54.4584C11.2489 55.2107 11.9106 55.5579 12.6274 55.3264C12.6826 55.3264 12.6826 55.3264 12.7377 55.2686C13.2891 55.1528 13.3443 55.0371 13.2891 54.4584Z" fill="white"/>
<path d="M8.27124 51.8541C8.27124 52.0856 8.27124 52.3171 8.27124 52.5485C7.5544 52.5485 6.83756 52.5485 6.06558 52.5485C6.06558 52.8958 6.06558 53.1851 6.06558 53.4745C6.06558 53.5324 6.17586 53.5903 6.28615 53.5903C6.83756 53.5903 7.33384 53.5903 7.88525 53.5903C7.99554 53.5903 8.05068 53.5903 8.16096 53.5903C8.16096 53.8217 8.16096 54.0532 8.16096 54.2847C7.49926 54.2847 6.78242 54.2847 6.12072 54.2847C6.12072 54.6898 6.12072 55.0949 6.12072 55.5001C6.8927 55.5001 7.66469 55.5001 8.43667 55.5001C8.43667 55.7315 8.43667 55.963 8.43667 56.1945C7.38898 56.1945 6.39643 56.1945 5.34874 56.1945C5.34874 54.7477 5.34874 53.3588 5.34874 51.9119C6.231 51.8541 7.2787 51.8541 8.27124 51.8541Z" fill="white"/>
<path d="M23.9314 54.4005C23.9314 54.9792 23.9314 55.5001 23.9314 56.0209C23.6557 56.0209 23.38 56.0209 23.1043 56.0209C23.1043 54.5741 23.1043 53.1273 23.1043 51.6805C23.8763 51.6805 24.6483 51.6804 25.4203 51.7962C25.9165 51.8541 26.1371 52.2592 26.2474 52.7222C26.4128 53.706 25.8614 54.2847 25.1997 54.3426C24.8689 54.3426 24.5931 54.3426 24.2623 54.4005C24.152 54.4005 24.0417 54.4005 23.9314 54.4005ZM23.9314 53.706C24.3174 53.706 24.6483 53.706 24.9791 53.6481C25.2548 53.5903 25.4203 53.3588 25.4203 53.1273C25.4203 52.78 25.31 52.5485 25.0343 52.4907C24.6483 52.4328 24.3174 52.4328 23.9314 52.3749C23.9314 52.8379 23.9314 53.243 23.9314 53.706Z" fill="white"/>
<path d="M18.8033 56.0209C18.5276 56.0209 18.307 56.0209 17.9762 56.0209C17.9762 55.7315 17.9762 55.5001 17.9762 55.2107C18.0864 54.4583 17.8659 53.8796 17.4799 53.3009C17.149 52.78 16.8182 52.2592 16.4873 51.6805C16.8182 51.6805 17.0939 51.6805 17.3696 51.6805C17.4247 51.6805 17.4799 51.7962 17.535 51.8541C17.8107 52.2592 18.0313 52.7222 18.2519 53.1851C18.307 53.243 18.3622 53.3588 18.4173 53.4745C18.6379 53.1273 18.8033 52.78 19.0238 52.4328C19.1341 52.2013 19.2444 51.9119 19.4098 51.7962C19.6304 51.6804 19.9061 51.7383 20.1818 51.7383C20.237 51.7383 20.2921 51.7383 20.3472 51.7383C20.1267 52.0856 19.9061 52.4328 19.7407 52.78C19.465 53.243 19.079 53.706 18.9136 54.2269C18.7481 54.7477 18.8584 55.3264 18.8584 55.8473C18.8584 55.9052 18.8584 55.963 18.8033 56.0209Z" fill="white"/>
<path d="M31.8718 52.4328C31.4858 52.4328 31.0999 52.4328 30.6587 52.4328C30.6587 53.6481 30.6587 54.8634 30.6587 56.0788C30.383 56.0788 30.1073 56.0788 29.8316 56.0788C29.8316 55.963 29.8316 55.9052 29.8316 55.7894C29.8316 54.7477 29.8316 53.7639 29.8316 52.7221C29.8316 52.4907 29.7765 52.4328 29.5559 52.4328C29.225 52.4328 28.9493 52.4328 28.6185 52.4328C28.6185 52.2013 28.6185 51.9698 28.6185 51.7383C29.7213 51.7383 30.769 51.7383 31.8718 51.7383C31.8718 51.9698 31.8718 52.1434 31.8718 52.4328Z" fill="white"/>
<path d="M2.04024 47.5715C2.04024 46.6455 2.04024 45.7774 2.04024 44.8515C2.59165 44.8515 3.08793 44.8515 3.63934 44.8515C3.97019 44.8515 4.19076 45.1408 4.19076 45.4881C4.2459 45.8932 4.08048 46.1247 3.74963 46.2983C3.69448 46.2983 3.63934 46.3561 3.5842 46.3561C3.85991 46.7613 4.13562 47.1664 4.41133 47.5715C4.19076 47.5715 4.08048 47.5715 3.97019 47.5715C3.85991 47.5715 3.74963 47.5136 3.69448 47.4557C3.52906 47.2242 3.41878 47.0506 3.25335 46.8191C3.08793 46.5298 2.86736 46.414 2.53651 46.4719C2.53651 46.8191 2.53651 47.2242 2.53651 47.5715C2.37109 47.5715 2.20566 47.5715 2.04024 47.5715ZM2.59165 46.0089C2.86736 46.0089 3.08793 46.0089 3.36364 46.0089C3.5842 46.0089 3.69448 45.8353 3.69448 45.6617C3.69448 45.4302 3.5842 45.3144 3.36364 45.3144C3.08793 45.3144 2.86736 45.3144 2.59165 45.3144C2.59165 45.5459 2.59165 45.7774 2.59165 46.0089Z" fill="white"/>
<path d="M17.4247 45.951C17.8659 45.951 18.307 45.951 18.7481 45.951C18.7481 46.1247 18.7481 46.2404 18.7481 46.3561C18.4724 46.3561 18.1967 46.3561 17.921 46.3561C17.4247 46.3561 17.4247 46.3561 17.4247 46.877C17.4247 46.9928 17.4247 47.0506 17.4247 47.1664C17.921 47.1664 18.4173 47.1664 18.9136 47.1664C18.9136 47.34 18.9136 47.4557 18.9136 47.5715C18.2519 47.5715 17.6453 47.5715 16.9836 47.5715C16.9836 46.7034 16.9836 45.7774 16.9836 44.8515C17.5902 44.8515 18.2519 44.8515 18.9136 44.8515C18.9136 44.9672 18.9136 45.0829 18.9136 45.2566C18.4724 45.2566 17.9762 45.2566 17.535 45.2566C17.4247 45.4881 17.4247 45.6617 17.4247 45.951Z" fill="white"/>
<path d="M5.78986 47.1664C6.28614 47.1664 6.72727 47.1664 7.22355 47.1664C7.22355 47.34 7.22355 47.4557 7.22355 47.5715C6.56185 47.5715 5.90015 47.5715 5.23845 47.5715C5.23845 46.6455 5.23845 45.7774 5.23845 44.8515C5.84501 44.8515 6.50671 44.8515 7.1684 44.8515C7.1684 44.9672 7.1684 45.0829 7.1684 45.2566C6.72727 45.2566 6.231 45.2566 5.78986 45.2566C5.78986 45.4881 5.78986 45.6617 5.78986 45.8932C6.12071 45.8932 6.45156 45.8932 6.78241 45.8932C7.1684 45.8932 7.1684 45.8932 7.05812 46.2983C6.61699 46.2983 6.231 46.2983 5.78986 46.2983C5.78986 46.6455 5.78986 46.877 5.78986 47.1664Z" fill="white"/>
<path d="M21.9463 45.6038C21.7809 45.6038 21.6155 45.6038 21.4501 45.6617C21.3949 45.2566 21.1192 45.1987 20.7884 45.2566C20.6781 45.2566 20.5678 45.4302 20.4575 45.4881C20.5127 45.6038 20.6229 45.7196 20.7332 45.7774C20.8987 45.8932 21.1192 45.8932 21.3398 45.951C21.8361 46.1247 22.0566 46.3562 22.0015 46.8191C22.0015 47.2242 21.7258 47.5136 21.2295 47.5715C20.5678 47.6872 20.0715 47.4557 19.9061 46.877C19.9061 46.8191 19.9061 46.7613 19.851 46.7034C20.0164 46.7034 20.1818 46.6455 20.2921 46.6455C20.5127 47.1085 20.7884 47.2821 21.1744 47.1085C21.2846 47.0506 21.3949 46.877 21.4501 46.7613C21.4501 46.7034 21.2846 46.5298 21.1744 46.4719C20.9538 46.3562 20.7332 46.3562 20.5127 46.2404C20.0715 46.0668 19.9061 45.7774 19.9613 45.3723C20.0164 45.0251 20.3472 44.7936 20.7332 44.7357C20.8435 44.7357 20.9538 44.7357 21.0641 44.7357C21.6155 44.8515 21.8912 45.083 21.9463 45.6038Z" fill="white"/>
<path d="M32.9747 44.8515C33.5812 44.8515 34.2429 44.8515 34.8495 44.8515C34.8495 44.9672 34.8495 45.1408 34.8495 45.2566C34.3532 45.2566 33.9121 45.2566 33.4158 45.2566C33.4158 45.4302 33.4158 45.6038 33.4158 45.7774C33.4158 45.8353 33.5261 45.8932 33.6364 45.8932C34.0224 45.8932 34.3532 45.8932 34.7392 45.8932C34.7392 46.0668 34.7392 46.1825 34.7392 46.3561C34.2981 46.3561 33.8569 46.3561 33.4158 46.3561C33.4158 46.6455 33.4158 46.877 33.4158 47.1085C33.9121 47.1085 34.3532 47.1085 34.8495 47.1085C34.8495 47.2821 34.8495 47.3979 34.8495 47.5136C34.1878 47.5136 33.5261 47.5136 32.8644 47.5136C32.9747 46.7034 32.9747 45.7774 32.9747 44.8515Z" fill="white"/>
<path d="M28.7288 47.5715C28.6736 47.5715 28.6185 47.5715 28.6185 47.5715C28.1774 47.5715 28.1774 47.5715 28.0119 47.1664C27.9568 46.9928 27.8465 46.877 27.6811 46.9349C27.4605 46.9349 27.2951 46.9349 27.0745 46.9349C26.9091 46.9349 26.854 46.9928 26.7988 47.1085C26.7437 47.2821 26.6885 47.3979 26.6334 47.5715C26.468 47.5715 26.3025 47.5715 26.082 47.5715C26.2474 47.1085 26.4128 46.7034 26.5782 46.2404C26.7437 45.8353 26.854 45.4302 27.0194 44.9672C27.0745 44.9093 27.1848 44.7936 27.2399 44.7936C27.4054 44.7936 27.5708 44.6779 27.6811 44.9093C28.0671 45.8353 28.3979 46.7034 28.7288 47.5715ZM27.7914 46.4719C27.6811 46.1247 27.5708 45.7774 27.4054 45.4302C27.2951 45.8353 27.1848 46.1247 27.0194 46.4719C27.2951 46.4719 27.5157 46.4719 27.7914 46.4719Z" fill="white"/>
<path d="M8.43666 47.5715C8.65723 46.9928 8.87779 46.414 9.09836 45.8353C9.20864 45.5459 9.31893 45.2566 9.42921 44.9093C9.48435 44.8515 9.59463 44.7936 9.64978 44.7936C9.8152 44.7936 9.98062 44.6779 10.0909 44.9093C10.4218 45.7774 10.7526 46.6455 11.0835 47.5715C10.918 47.5715 10.8077 47.5715 10.6975 47.5715C10.5872 47.5715 10.532 47.5136 10.4769 47.3979C10.3115 46.9349 10.3115 46.9349 9.8152 46.9349C9.76006 46.9349 9.76006 46.9349 9.70492 46.9349C9.26378 46.9349 9.26378 46.9349 9.09836 47.3979C9.04322 47.5136 8.98808 47.6294 8.82265 47.5715C8.71237 47.5715 8.60209 47.5715 8.43666 47.5715ZM9.76006 45.4881H9.70492C9.59463 45.8353 9.48435 46.1247 9.37407 46.4719C9.64978 46.4719 9.87034 46.4719 10.0909 46.4719C9.98062 46.1826 9.87034 45.8353 9.76006 45.4881Z" fill="white"/>
<path d="M24.2623 45.2566C24.2623 46.0668 24.2623 46.8191 24.2623 47.5715C24.0969 47.5715 23.9315 47.5715 23.766 47.5715C23.766 46.8191 23.766 46.0668 23.766 45.3144C23.4903 45.3144 23.2698 45.3144 22.994 45.3144C22.994 45.1408 22.994 45.0251 22.994 44.8515C23.6557 44.8515 24.3726 44.8515 25.0343 44.8515C25.0343 44.9672 25.0343 45.0829 25.0343 45.2566C24.8137 45.2566 24.538 45.2566 24.2623 45.2566Z" fill="white"/>
<path d="M31.0999 47.5715C30.9344 47.5715 30.769 47.5715 30.6036 47.5715C30.6036 46.8191 30.6036 46.0668 30.6036 45.2566C30.3279 45.2566 30.1073 45.2566 29.8316 45.2566C29.8316 45.0829 29.8316 44.9672 29.8316 44.8515C30.4933 44.8515 31.2101 44.8515 31.8718 44.8515C31.8718 44.9672 31.8718 45.1408 31.8718 45.2566C31.5961 45.2566 31.3756 45.2566 31.0999 45.2566C31.0999 46.0668 31.0999 46.8191 31.0999 47.5715Z" fill="white"/>
<path d="M12.1863 47.5715C12.1863 46.6455 12.1863 45.7774 12.1863 44.8515C12.3517 44.8515 12.5171 44.8515 12.6826 44.8515C12.6826 45.6038 12.6826 46.3562 12.6826 47.1085C13.1237 47.1085 13.5648 47.1085 14.006 47.1085C14.006 47.2821 14.006 47.3979 14.006 47.5136C13.3994 47.5715 12.7929 47.5715 12.1863 47.5715Z" fill="white"/>
<path d="M0 13.7158L18.3621 0.173508L18.5276 16.2043L0 25.1167V13.7158Z" fill="#878484"/>
<path d="M37 13.7159L18.307 0L18.4724 16.2044L37 25.1168V13.7159Z" fill="#C1C1C1"/>
</svg>
