<svg width="10" height="11" viewBox="0 0 10 11" fill="none" xmlns="http://www.w3.org/2000/svg">
<path d="M0 9.51908C0 6.99118 0 4.46327 0 1.93536C0.011827 1.89992 0.011827 1.8763 0.0236541 1.84086C0.141924 1.34473 0.449428 1.0376 0.934336 0.907661C0.981644 0.895848 1.01713 0.884036 1.06443 0.872223C3.59542 0.872223 6.12641 0.872223 8.65739 0.872223C8.7047 0.884036 8.75201 0.895848 8.79932 0.907661C9.33153 1.0376 9.71 1.51011 9.71 2.0653C9.71 2.43149 9.71 2.8095 9.71 3.17569C9.71 5.21928 9.71 7.26287 9.71 9.29464C9.71 9.41277 9.69817 9.51908 9.67452 9.63721C9.55625 10.1924 9.07134 10.5822 8.50364 10.5822C7.93594 10.5822 7.36825 10.5822 6.80055 10.5822C6.68228 10.5822 6.67045 10.5822 6.67045 10.4523C6.67045 9.42458 6.67045 8.39688 6.67045 7.36918C6.67045 7.34556 6.67045 7.32193 6.67045 7.29831C6.67045 7.26287 6.6941 7.25106 6.71776 7.23924C6.74141 7.23924 6.76507 7.23924 6.78872 7.23924C7.01344 7.23924 7.23815 7.23924 7.46286 7.23924C7.56931 7.23924 7.56931 7.23924 7.61661 7.13293C7.79402 6.69586 7.9596 6.2706 8.137 5.83354C8.18431 5.72722 8.18431 5.72722 8.06604 5.72722C7.66392 5.72722 7.24998 5.72722 6.84786 5.72722C6.8242 5.72722 6.80055 5.72722 6.77689 5.72722C6.68228 5.72722 6.68228 5.72722 6.68228 5.63272C6.68228 5.62091 6.68228 5.6091 6.68228 5.6091C6.68228 5.26653 6.68228 4.91215 6.68228 4.56958C6.68228 4.53414 6.68228 4.51052 6.68228 4.47508C6.6941 4.33333 6.76507 4.26245 6.89516 4.23883C6.9543 4.22702 7.02526 4.2152 7.09622 4.2152C7.33277 4.2152 7.56931 4.2152 7.79402 4.2152C7.88864 4.2152 7.88864 4.2152 7.88864 4.1207C7.88864 3.67182 7.88864 3.23475 7.88864 2.78587C7.88864 2.70318 7.87681 2.70318 7.80585 2.70318C7.40373 2.70318 7.00161 2.69137 6.58766 2.70318C6.16189 2.715 5.78342 2.88037 5.46409 3.16388C5.06197 3.53007 4.86091 3.99076 4.86091 4.53415C4.86091 4.88852 4.86091 5.23109 4.86091 5.58547C4.86091 5.6091 4.86091 5.64453 4.86091 5.66816C4.86091 5.7036 4.84909 5.71541 4.81361 5.72722C4.78995 5.72722 4.75447 5.72722 4.73082 5.72722C4.42331 5.72722 4.10398 5.72722 3.79648 5.72722C3.77283 5.72722 3.73734 5.72722 3.71369 5.72722C3.69004 5.73904 3.67821 5.75085 3.66638 5.77447C3.65456 5.7981 3.66638 5.82172 3.66638 5.84535C3.66638 6.27061 3.66638 6.69586 3.66638 7.12112C3.66638 7.14474 3.66638 7.15655 3.66638 7.18018C3.66638 7.22743 3.69004 7.23924 3.73734 7.23924C3.761 7.23924 3.78465 7.23924 3.80831 7.23924C4.11581 7.23924 4.42331 7.23924 4.74264 7.23924C4.89639 7.23924 4.88457 7.22743 4.88457 7.38099C4.88457 8.25513 4.88457 9.12927 4.88457 9.99159C4.88457 10.157 4.88457 10.3105 4.88457 10.4759C4.88457 10.5586 4.87274 10.5704 4.78995 10.5704C4.67168 10.5704 4.55341 10.5704 4.43514 10.5704C3.37071 10.5704 2.30627 10.5704 1.24184 10.5704C0.662314 10.5704 0.177406 10.1806 0.0473082 9.61359C0.0236541 9.58996 0.011827 9.55452 0 9.51908Z" fill="#DA5A06"/>
</svg>
