<svg width="96" height="53" viewBox="0 0 96 53" fill="none" xmlns="http://www.w3.org/2000/svg">
<g clip-path="url(#clip0_13_357)" filter="url(#filter0_d_13_357)">
<path d="M54.975 11.4912C54.9324 11.5488 54.8757 11.6064 54.8331 11.664C54.4783 12.1104 54.1235 12.5712 53.7546 13.0176C53.3856 13.4784 53.0024 13.9248 52.6334 14.3712C52.378 14.6736 52.1509 14.9904 51.8955 15.2928C51.6259 15.624 51.3562 15.9408 51.1008 16.2576C51.0015 16.3728 50.9021 16.5024 50.8028 16.632C50.448 17.0784 50.0932 17.5392 49.7242 17.9856C49.4546 18.3168 49.185 18.6192 48.9295 18.9504C48.5889 19.368 48.2625 19.8 47.922 20.232C47.6665 20.5632 47.3827 20.88 47.1272 21.1968C46.8434 21.5424 46.5738 21.888 46.3041 22.2336C45.9919 22.6224 45.6655 23.0256 45.3533 23.4144C45.254 23.544 45.1547 23.6592 45.0695 23.7888C44.9844 23.7888 44.8992 23.8032 44.8283 23.8032C44.6438 23.8176 44.4451 23.8032 44.2606 23.8464C44.0903 23.8896 43.9058 23.8464 43.7355 23.9184C43.6646 23.9472 43.5794 23.9328 43.5085 23.9328C43.2672 23.9328 43.0402 23.9328 42.7989 23.9328C42.5577 23.9328 42.3306 23.9184 42.0893 23.9328C41.8623 23.9472 41.621 23.9472 41.394 24.0048C40.9682 24.1056 40.5425 24.0624 40.1168 24.0624C39.8329 24.0624 39.5633 24.12 39.2795 24.1632C39.2369 24.1632 39.1943 24.192 39.1518 24.192C38.7402 24.1776 38.3429 24.264 37.9455 24.2784C37.8887 24.2784 37.832 24.264 37.7752 24.2784C37.5198 24.3504 37.2643 24.3504 37.0089 24.336C36.7534 24.336 36.5264 24.408 36.2567 24.4368C36.2425 24.4224 36.1858 24.3792 36.1574 24.336C36.0013 24.1344 35.8594 23.9472 35.7033 23.7456C35.3343 23.2416 34.9795 22.7376 34.6247 22.2336C34.497 22.0464 34.3693 21.8736 34.2416 21.6864C33.8584 21.1248 33.4611 20.5776 33.0637 20.0304C32.7941 19.6704 32.5528 19.2816 32.2974 18.9216C32.1129 18.6624 31.9284 18.4032 31.7439 18.1584C31.5878 17.9424 31.4317 17.712 31.2756 17.496C31.006 17.1216 30.7363 16.7472 30.4667 16.3728C30.268 16.0848 30.0693 15.7968 29.8565 15.5232C29.2888 14.7312 28.7212 13.9392 28.1677 13.1616C27.8129 12.672 27.4582 12.168 27.1176 11.664C26.7202 11.1168 26.337 10.5552 25.9397 10.008C25.741 9.73441 25.5423 9.46081 25.3578 9.17281C25.2869 9.08641 25.2159 9.00001 25.1592 8.91361C25.0315 8.94241 25.0173 9.04321 24.9747 9.11521C24.6341 9.57601 24.2935 10.0512 23.9671 10.512C23.513 11.1456 23.0589 11.7792 22.6047 12.4128C22.3209 12.816 22.0371 13.2336 21.7391 13.6368C21.3985 14.112 21.0579 14.5872 20.7173 15.0768C20.4619 15.4224 20.2206 15.7824 19.9794 16.128C19.4117 16.9344 18.8441 17.7264 18.2764 18.5328C17.9784 18.9504 17.6804 19.3824 17.3824 19.8144C17.0702 20.2464 16.7721 20.6784 16.4599 21.1104C16.3038 21.3264 16.1619 21.528 16.0058 21.744C15.4949 22.4496 14.9982 23.1552 14.5015 23.8752C14.317 24.1344 14.1468 24.3936 13.9623 24.6528C13.6501 25.0992 13.3237 25.56 12.9973 26.0064C12.6567 26.496 12.3019 26.9856 11.9613 27.4608C11.8194 27.648 11.6917 27.8496 11.5498 28.0368C11.0956 28.6992 10.6273 29.3472 10.1732 30.0096C10.0739 30.1536 9.93195 30.2688 9.74746 30.3264C9.35011 30.456 8.96694 30.6 8.58378 30.744C8.5554 30.7584 8.52702 30.7584 8.47025 30.7728C8.47025 30.7296 8.45606 30.7008 8.47025 30.672C9.02371 29.8944 9.59136 29.1024 10.1448 28.3248C10.4145 27.936 10.6841 27.5472 10.9679 27.1584C11.3227 26.6544 11.6775 26.1648 12.0323 25.6608C12.387 25.1568 12.7418 24.6672 13.0966 24.1632C13.4372 23.688 13.7778 23.2128 14.1184 22.7232C14.3738 22.3632 14.6293 22.0032 14.8705 21.6432C15.2537 21.1104 15.6368 20.5776 16.02 20.0448C16.3464 19.584 16.6728 19.1232 16.9992 18.6624C17.4817 17.9856 17.9784 17.3088 18.4609 16.6176C18.7163 16.272 18.9576 15.912 19.1988 15.5664C19.582 15.0336 19.9652 14.5008 20.3483 13.968C20.7031 13.464 21.0579 12.9744 21.4127 12.4704C21.7533 11.9952 22.0939 11.52 22.4344 11.0304C22.7183 10.6272 23.0021 10.224 23.3001 9.80641C23.6407 9.33121 23.9813 8.84161 24.3219 8.36641C24.407 8.25121 24.4922 8.12161 24.5773 7.99201C24.7476 7.96321 24.9179 7.97761 25.1024 8.00641C25.2017 8.02081 25.3011 8.03521 25.4004 8.04961C25.5281 8.06401 25.6701 8.04961 25.7978 8.10721C25.812 8.12161 25.8404 8.12161 25.8687 8.12161C26.1668 8.15041 26.4648 8.16481 26.777 8.19361C26.9189 8.20801 27.0608 8.23681 27.2027 8.25121C27.3446 8.26561 27.5007 8.23681 27.6285 8.30881C27.6426 8.32321 27.671 8.32321 27.6994 8.32321C27.9974 8.29441 28.2812 8.40961 28.5651 8.40961C28.7212 8.40961 28.8631 8.48161 29.0334 8.48161C29.1895 8.46721 29.3456 8.48161 29.5017 8.53921C29.5301 8.55361 29.5727 8.53921 29.601 8.55361C29.7571 8.56801 29.9132 8.58241 30.0977 8.61121C30.2964 8.36641 30.5093 8.12161 30.7221 7.84801C30.8783 7.66081 31.0344 7.45921 31.1905 7.25761C31.4885 6.88321 31.7865 6.52321 32.0845 6.14881C32.3541 5.83201 32.6238 5.50081 32.8792 5.18401C33.1347 4.88161 33.3617 4.56481 33.6172 4.26241C33.8726 3.94561 34.128 3.62881 34.3977 3.32641C34.6389 3.02401 34.8802 2.73601 35.1214 2.43361C35.2917 2.23201 35.4478 2.03041 35.6039 1.82881C35.8736 1.48321 36.1432 1.13761 36.4412 0.806409C36.6683 0.547209 36.867 0.244809 37.1508 0.0288086C37.3211 0.0576086 37.4772 0.0720086 37.6475 0.115209C37.9881 0.201609 38.3287 0.230409 38.6693 0.316809C38.9673 0.388809 39.2795 0.432009 39.5917 0.489609C39.9039 0.547209 40.2161 0.633609 40.5425 0.662409C40.6702 0.676809 40.8121 0.705609 40.9398 0.734409C41.3656 0.849609 41.8197 0.864009 42.2454 0.993609C42.5718 0.993609 42.8699 1.13761 43.1963 1.13761C43.6078 1.25281 44.0335 1.26721 44.4309 1.39681C44.7573 1.39681 45.0695 1.52641 45.3817 1.55521C45.5094 1.56961 45.623 1.58401 45.7365 1.62721C46.0345 1.71361 46.3609 1.71361 46.6447 1.81441C46.9711 1.81441 47.2833 1.92961 47.5956 1.97281C47.8652 2.00161 48.149 2.04481 48.4186 2.11681C48.6031 2.16001 48.7876 2.16001 48.9721 2.21761C49.1424 2.27521 49.3269 2.26081 49.4972 2.30401C49.8945 2.39041 50.2919 2.44801 50.6751 2.50561C50.7886 2.52001 50.8737 2.59201 50.9589 2.67841C51.1576 2.88001 51.3562 3.08161 51.5549 3.28321C51.5975 3.32641 51.6543 3.38401 51.6968 3.42721C52.2219 3.93121 52.7044 4.46401 53.1869 5.01121C53.7971 5.70241 54.4783 6.35041 55.1169 7.01281C55.2588 7.17121 55.4291 7.31521 55.5427 7.48801C55.6136 7.58881 55.713 7.67521 55.7981 7.76161C55.8691 7.83361 55.9684 7.87681 56.0677 7.89121C56.1671 7.89121 56.2664 7.93441 56.3657 7.94881C56.5786 7.99201 56.8057 7.99201 57.0327 8.03521C57.274 8.07841 57.5152 8.07841 57.7565 8.15041C57.9268 8.19361 58.1113 8.17921 58.2816 8.22241C58.5086 8.28001 58.7499 8.28001 58.9769 8.30881C59.1047 8.32321 59.2466 8.35201 59.3743 8.36641C59.502 8.38081 59.6155 8.39521 59.7433 8.42401C59.9561 8.46721 60.1832 8.49601 60.4103 8.49601C60.8218 8.51041 61.1624 8.66881 61.4746 8.92801C61.503 8.95681 61.5456 8.98561 61.5739 9.02881C61.9287 9.37441 62.2835 9.72001 62.6667 10.0512C63.0924 10.4256 63.5181 10.7856 63.9155 11.1888C64.1426 11.4048 64.3838 11.6208 64.6251 11.8368C64.6534 11.8368 64.696 11.8512 64.7386 11.8512C64.8947 11.8656 65.0508 11.8368 65.2069 11.9088C65.4765 11.8944 65.732 11.9952 66.0016 11.9952C66.101 11.9952 66.2003 12.024 66.2996 12.0384C66.3706 12.0528 66.4557 12.0528 66.5267 12.0672C66.697 12.0816 66.8673 12.0672 67.0234 12.1248C67.0943 12.1536 67.1795 12.1392 67.2646 12.1392C67.3782 12.1392 67.4917 12.1248 67.591 12.1824C67.6052 12.1968 67.6336 12.1968 67.662 12.1968C67.96 12.168 68.258 12.2832 68.556 12.2832C68.627 12.2832 68.6838 12.2976 68.7547 12.312C68.8399 12.3264 68.925 12.3408 69.0244 12.3552C69.1663 12.3696 69.3082 12.3552 69.4501 12.4128C69.5352 12.4416 69.6346 12.4272 69.7197 12.4272C69.8191 12.4272 69.9184 12.4272 70.0177 12.4704C70.0603 12.4992 70.1313 12.4848 70.188 12.4992C70.3583 12.5136 70.5286 12.4992 70.6847 12.5568C70.7415 12.5856 70.8125 12.5712 70.8834 12.5712C71.0111 12.5712 71.1247 12.5712 71.2524 12.6144C71.3233 12.6432 71.4085 12.6288 71.4794 12.6288C71.6639 12.6288 71.8626 12.6288 72.0471 12.6432C72.2316 12.8304 72.4303 13.0032 72.5722 13.2192C72.6999 13.4064 72.8702 13.5792 73.0263 13.7664C73.1966 13.968 73.3527 14.1696 73.5088 14.3712C73.6507 14.544 73.7926 14.7168 73.9345 14.8896C74.1048 15.1056 74.2751 15.3072 74.4454 15.5232C74.6015 15.7104 74.7576 15.912 74.9279 16.0992C75.0556 16.2432 75.1692 16.3872 75.2969 16.5456C75.5381 16.848 75.7794 17.1648 76.0348 17.4816C76.1626 17.6544 76.3045 17.8128 76.4464 17.9712C76.716 18.3024 76.9856 18.648 77.2411 18.9792C77.3688 19.1376 77.4965 19.296 77.6243 19.4544C77.9365 19.8144 78.2487 20.1888 78.5467 20.5776C78.7028 20.7792 78.8873 20.9664 79.0434 21.168C79.1569 21.2976 79.2562 21.4272 79.3698 21.5568C79.6394 21.888 79.8949 22.2336 80.1645 22.5648C80.4341 22.8816 80.7038 23.1984 80.9592 23.5296C81.2146 23.832 81.4417 24.1488 81.6972 24.4656C81.8391 24.6384 81.981 24.8112 82.1371 24.984C82.3925 25.3008 82.6621 25.6032 82.9176 25.92C83.0737 26.1072 83.2156 26.3088 83.3717 26.5104C83.6413 26.856 83.9252 27.2016 84.1948 27.5472C84.3509 27.7344 84.5212 27.9216 84.6773 28.1232C84.876 28.368 85.0747 28.6128 85.2733 28.8576C85.3869 29.0016 85.5146 29.1168 85.6423 29.2608C85.6707 29.2896 85.6991 29.3328 85.6849 29.376C85.6707 29.3904 85.6707 29.4048 85.6565 29.3904C85.543 29.3616 85.4153 29.3328 85.3017 29.304C84.5212 29.0736 83.7407 28.8288 82.9602 28.6128C82.1513 28.3824 81.3566 28.152 80.5477 27.936C79.98 27.7776 79.3982 27.648 78.8305 27.504C78.5183 27.432 78.2061 27.3312 77.8939 27.2736C77.4256 27.1728 76.9715 27.0432 76.5031 26.9424C76.1909 26.8848 75.8787 26.7984 75.5523 26.7264C75.155 26.64 74.7718 26.5392 74.3745 26.4672C74.1332 26.424 73.892 26.3664 73.6507 26.3088C73.3669 26.2512 73.0831 26.1792 72.7992 26.136C72.3593 26.0496 71.9194 25.9776 71.4936 25.8768C71.3375 25.8336 71.1672 25.8192 70.9969 25.7904C70.7699 25.7616 70.557 25.704 70.3441 25.6608C70.188 25.632 70.0177 25.6032 69.8474 25.5888C69.6204 25.56 69.4075 25.5024 69.1946 25.4592C68.9818 25.416 68.7689 25.4016 68.5702 25.3728C68.3857 25.344 68.1871 25.344 68.0168 25.2864C67.8749 25.2432 67.7188 25.272 67.591 25.2144C67.4633 25.1568 67.3214 25.1856 67.1937 25.1712C66.8957 25.1136 66.5976 25.0992 66.2996 25.0272C66.1435 24.984 65.9732 24.912 65.8739 24.7824C65.6326 24.48 65.4056 24.1776 65.1643 23.8752C65.0224 23.688 64.8521 23.5152 64.7102 23.328C64.6393 23.256 64.5825 23.1696 64.5257 23.0832C64.2845 22.7808 64.0432 22.4928 63.802 22.1904C63.6459 21.9888 63.4756 21.7872 63.3195 21.5856C63.2911 21.5424 63.2485 21.4992 63.2059 21.456C62.9931 21.24 62.8086 20.9952 62.6241 20.7504C62.4964 20.5776 62.3545 20.4192 62.2126 20.2464C61.9145 19.872 61.6165 19.512 61.3185 19.1376C61.1908 18.9792 61.0631 18.8208 60.9353 18.6624C60.6373 18.288 60.3393 17.928 60.0413 17.5536C59.7717 17.2368 59.502 16.92 59.2466 16.5888C58.9911 16.2864 58.7641 15.9696 58.5086 15.6672C58.3809 15.5088 58.2532 15.3504 58.1255 15.192C57.8133 14.8176 57.501 14.4432 57.203 14.0688C57.0469 13.8672 56.8624 13.6656 56.7063 13.4784C56.5928 13.3488 56.4935 13.2192 56.3799 13.0896C56.0677 12.7008 55.7555 12.3264 55.4433 11.9376C55.2163 11.736 55.1453 11.592 54.975 11.4912ZM48.9295 7.40161C48.887 7.43041 48.8444 7.47361 48.816 7.51681C48.5038 7.92001 48.1916 8.32321 47.8794 8.72641C47.7375 8.89921 47.5956 9.07201 47.4536 9.24481C47.2975 9.43201 47.1414 9.60481 46.9995 9.79201C46.7299 10.1232 46.4603 10.4688 46.1906 10.8C46.0345 11.0016 45.8642 11.2032 45.7081 11.4048C45.4952 11.664 45.2824 11.9376 45.0695 12.1968C44.8992 12.3984 44.7289 12.5856 44.5728 12.7872C44.218 13.2336 43.8491 13.68 43.4943 14.1408C43.3949 14.2704 43.2956 14.3856 43.1963 14.5008C43.1537 14.544 43.0969 14.5872 43.0544 14.6304C43.0118 14.616 42.9834 14.616 42.9692 14.6016C42.7847 14.3856 42.6286 14.1552 42.5009 13.896C42.4725 13.8528 42.4867 13.7808 42.4867 13.7232C42.5718 13.6368 42.6428 13.5504 42.7138 13.464C42.9124 13.2336 43.1253 13.0032 43.3098 12.7728C43.5652 12.4704 43.8065 12.1536 44.0477 11.8368C44.3458 11.4624 44.658 11.0736 44.956 10.6992C45.0837 10.5552 45.1972 10.3968 45.325 10.2528C45.4811 10.0656 45.6513 9.87841 45.8075 9.67681C45.8642 9.60481 45.921 9.51841 45.9636 9.43201C45.623 9.05761 45.254 8.74081 44.9702 8.35201C44.2606 7.60321 43.5794 6.84001 42.8415 6.12001C42.4157 5.70241 42.0184 5.28481 41.6068 4.86721C41.3514 4.59361 41.096 4.33441 40.8405 4.04641C40.4715 3.62881 40.1168 3.21121 39.7194 2.82241C39.0808 2.18881 38.4564 1.55521 37.832 0.907209C37.7752 0.849609 37.7184 0.792009 37.6475 0.734409C37.4772 0.907209 37.3069 1.08001 37.165 1.26721C37.0231 1.44001 36.8812 1.62721 36.7392 1.80001C36.4838 2.11681 36.2142 2.43361 35.9587 2.75041C35.7175 3.05281 35.4762 3.36961 35.2208 3.67201C34.9511 4.00321 34.6815 4.32001 34.4261 4.63681C34.128 4.99681 33.8442 5.35681 33.5604 5.71681C33.4043 5.91841 33.234 6.12001 33.0779 6.32161C32.8792 6.58081 32.6663 6.84001 32.4677 7.08481C32.1838 7.43041 31.9 7.76161 31.6162 8.09281C31.4601 8.28001 31.3182 8.48161 31.1621 8.68321C31.1905 8.69761 31.2188 8.71201 31.233 8.71201C31.5452 8.69761 31.8574 8.82721 32.1697 8.79841C32.198 8.79841 32.2406 8.79841 32.269 8.81281C32.3683 8.87041 32.4677 8.85601 32.567 8.85601C32.638 8.85601 32.7089 8.84161 32.7657 8.87041C32.9218 8.94241 33.0779 8.92801 33.234 8.92801C33.2908 8.92801 33.3475 8.92801 33.4043 8.94241C33.5178 9.00001 33.6455 8.98561 33.7733 8.98561C33.83 8.98561 33.8868 8.97121 33.9436 9.00001C34.0855 9.07201 34.2274 9.04321 34.3693 9.05761C34.4403 9.05761 34.5112 9.05761 34.568 9.08641C34.6815 9.12961 34.7808 9.12961 34.8944 9.12961C34.9795 9.12961 35.0647 9.11521 35.1214 9.14401C35.2492 9.20161 35.3911 9.20161 35.5188 9.20161C35.6749 9.18721 35.8026 9.25921 35.9445 9.27361C36.1716 9.28801 36.3845 9.28801 36.6115 9.33121C36.8102 9.37441 37.0089 9.34561 37.2076 9.40321C37.3211 9.43201 37.4488 9.40321 37.5765 9.41761C37.7042 9.43201 37.8178 9.46081 37.9313 9.47521C38.0448 9.48961 38.1584 9.47521 38.2719 9.48961C38.5415 9.51841 38.7686 9.63361 38.9389 9.83521C39.095 10.0368 39.2369 10.2528 39.393 10.4688C39.5207 10.656 39.6484 10.8432 39.7904 11.016C40.131 11.4768 40.4573 11.952 40.7979 12.4128C41.1527 12.9168 41.5075 13.4352 41.8765 13.9392C42.3164 14.5584 42.7705 15.192 43.2246 15.8112C43.693 16.4736 44.1613 17.1504 44.6296 17.8128C45.2114 18.6336 45.7933 19.4544 46.3751 20.2752C46.4035 20.304 46.4319 20.3328 46.4744 20.3616C46.5454 20.2896 46.6022 20.2464 46.6447 20.1888C46.8576 19.9296 47.0847 19.6704 47.2833 19.3968C47.6665 18.8784 48.1064 18.4032 48.5038 17.8992C48.6457 17.7264 48.7876 17.5536 48.9295 17.3808C49.185 17.064 49.4404 16.7472 49.6959 16.4304C49.852 16.2288 50.0223 16.0272 50.1784 15.8256C50.4196 15.5232 50.6609 15.2352 50.9021 14.9328C51.1576 14.616 51.4272 14.3136 51.6826 13.9968C52.0516 13.536 52.4206 13.0752 52.7896 12.6288C53.0308 12.3408 53.2579 12.0528 53.4991 11.7648C53.5417 11.7072 53.5701 11.6496 53.6126 11.5632C53.5559 11.52 53.4991 11.4768 53.4565 11.4336C53.116 11.16 52.7754 10.872 52.4632 10.5696C52.4348 10.5408 52.4206 10.5264 52.3922 10.4976C52.1368 10.2816 51.8813 10.0656 51.6259 9.83521C51.3704 9.60481 51.1292 9.37441 50.8737 9.15841C50.5899 8.91361 50.3061 8.66881 50.0364 8.42401C49.6817 8.09281 49.3269 7.76161 48.9721 7.43041C48.9579 7.41601 48.9437 7.41601 48.9295 7.40161ZM55.6562 11.376C55.7697 11.52 55.8691 11.6496 55.9684 11.7792C56.1387 11.9952 56.3232 12.2256 56.4935 12.4416C56.607 12.5856 56.7205 12.7296 56.8341 12.8592C57.1037 13.176 57.3733 13.4928 57.6288 13.824C57.8842 14.1264 58.1113 14.4432 58.3667 14.7456C58.6505 15.0912 58.9344 15.4224 59.2182 15.7536C59.3459 15.912 59.4736 16.0704 59.6014 16.2288C59.8568 16.56 60.1264 16.8768 60.3819 17.208C60.5238 17.3952 60.6799 17.568 60.836 17.7552C60.9921 17.9568 61.1624 18.1584 61.3185 18.36C61.4746 18.5472 61.6591 18.72 61.801 18.9216C61.9145 19.08 62.0564 19.2096 62.17 19.368C62.3828 19.656 62.6099 19.9296 62.837 20.232C62.8653 20.2032 62.9079 20.1888 62.9221 20.16C63.0215 19.9872 63.1208 19.8144 63.2201 19.6272C63.4472 19.1952 63.7026 18.792 63.9439 18.36C64.3129 17.6976 64.7528 17.0928 65.1218 16.4304C65.2779 16.1424 65.4482 15.8688 65.6185 15.5808C65.732 15.3792 65.8313 15.1776 65.9449 14.9904C66.1861 14.5872 66.4274 14.1984 66.6544 13.8096C66.8531 13.4784 67.0518 13.1472 67.2363 12.816C67.2646 12.7728 67.3072 12.7296 67.2788 12.6576C67.1653 12.6576 67.0234 12.672 66.924 12.6288C66.7679 12.5712 66.6118 12.5856 66.4557 12.5712C66.3848 12.5712 66.3138 12.5856 66.2571 12.5568C66.1151 12.4992 65.9732 12.4848 65.8313 12.4992C65.6752 12.5136 65.5475 12.4128 65.4056 12.4272C65.3204 12.4272 65.2211 12.4416 65.1359 12.4128C64.9373 12.3408 64.7386 12.3552 64.5399 12.3552C64.4973 12.3552 64.4406 12.3552 64.4122 12.3408C64.2987 12.2832 64.1709 12.2976 64.0432 12.2976C63.9581 12.2976 63.8729 12.312 63.8162 12.2832C63.6884 12.2256 63.5465 12.24 63.4188 12.2256C63.3479 12.2256 63.2769 12.24 63.2201 12.2112C63.0782 12.1392 62.9363 12.168 62.7944 12.1536C62.7092 12.1536 62.6241 12.168 62.5673 12.1392C62.4254 12.0816 62.2835 12.096 62.1416 12.0816C62.0564 12.0816 61.9713 12.0528 61.872 12.0384C61.801 12.024 61.7159 12.024 61.6449 12.0096C61.5598 12.0096 61.4604 12.024 61.3753 11.9952C61.1056 11.8944 60.8218 11.952 60.5522 11.88C60.3109 11.8224 60.0413 11.8368 59.7858 11.808C59.502 11.7792 59.2182 11.6928 58.9202 11.7216C58.8918 11.7216 58.8776 11.7216 58.8492 11.7216C58.7073 11.6496 58.5654 11.6784 58.4235 11.664C58.2816 11.6496 58.1397 11.6064 57.9977 11.6064C57.6713 11.6064 57.3591 11.5056 57.0327 11.52C57.0044 11.52 56.9902 11.52 56.9618 11.5056C56.8199 11.4336 56.678 11.4624 56.536 11.448C56.3941 11.4336 56.2522 11.4048 56.1103 11.3904C55.94 11.4048 55.8123 11.3904 55.6562 11.376ZM29.0192 9.07201C28.9482 9.05761 28.8915 9.04321 28.8489 9.04321C28.7212 9.02881 28.5935 9.05761 28.4799 9.02881C28.338 8.98561 28.1961 8.98561 28.0542 8.97121C28.0116 8.97121 27.9549 8.97121 27.9265 8.95681C27.8129 8.88481 27.6852 8.91361 27.5717 8.89921C27.4865 8.89921 27.4014 8.91361 27.3446 8.88481C27.2169 8.82721 27.0892 8.84161 26.9473 8.82721C26.9047 8.82721 26.8479 8.82721 26.8195 8.81281C26.6634 8.74081 26.5073 8.76961 26.3512 8.75521C26.2519 8.75521 26.1526 8.75521 26.0532 8.75521C25.9539 8.74081 25.8687 8.72641 25.7694 8.69761C25.7978 8.85601 25.8971 8.97121 25.9823 9.08641C26.5357 9.86401 27.075 10.656 27.671 11.4048C27.671 11.4048 27.6852 11.4048 27.6994 11.4048C27.7136 11.4048 27.7278 11.4048 27.7278 11.3904C27.7562 11.3472 27.7846 11.304 27.8129 11.2464C28.0684 10.6848 28.3948 10.152 28.7354 9.63361C28.8063 9.46081 28.9199 9.28801 29.0192 9.07201ZM40.3012 2.73601C40.3722 2.53441 40.4148 2.37601 40.4006 2.20321C40.4006 2.16001 40.3864 2.10241 40.4006 2.07361C40.4999 1.84321 40.4432 1.59841 40.4573 1.36801C40.4573 1.29601 40.429 1.23841 40.358 1.19521C40.2729 1.18081 40.1735 1.16641 40.0742 1.15201C39.9748 1.13761 39.8755 1.12321 39.7762 1.09441C39.6768 1.06561 39.5775 1.05121 39.4782 1.03681C39.3646 1.02241 39.2653 0.964809 39.1518 0.964809C39.0524 0.964809 38.9531 0.907209 38.8537 0.907209C38.7544 0.921609 38.6834 0.806409 38.5699 0.864009C38.6834 1.00801 38.7828 1.13761 38.8963 1.26721C39.0098 1.39681 39.1518 1.52641 39.2653 1.65601C39.4214 1.81441 39.5775 1.97281 39.7336 2.14561C39.7904 2.20321 39.8471 2.26081 39.8897 2.31841C40.0174 2.46241 40.1593 2.57761 40.3012 2.73601ZM49.2417 7.28641C49.6817 7.64641 50.0932 7.99201 50.5331 8.36641C50.6609 8.10721 50.7886 7.87681 50.9163 7.64641C50.9305 7.63201 50.9163 7.60321 50.9021 7.57441C50.8737 7.56001 50.8312 7.53121 50.7886 7.51681C50.746 7.50241 50.7034 7.48801 50.6609 7.48801C50.5189 7.47361 50.3628 7.50241 50.2351 7.41601C49.9371 7.40161 49.6391 7.32961 49.3553 7.27201C49.3269 7.24321 49.2985 7.27201 49.2417 7.28641Z" fill="white"/>
<path d="M4 33.7536C4.02838 33.7248 4.05677 33.6816 4.08515 33.6672C4.1703 33.624 4.26963 33.5952 4.36897 33.5664C4.92243 33.3504 5.47589 33.1344 6.02935 32.9184C6.31318 32.8032 6.597 32.7024 6.88083 32.6016C7.56201 32.328 8.28576 32.1264 8.95275 31.824C9.00952 31.7952 9.05209 31.7952 9.10885 31.7664C9.76165 31.5648 10.4003 31.3344 11.0531 31.1184C11.9329 30.8304 12.8128 30.528 13.7068 30.2544C14.459 30.024 15.2395 29.8224 15.9916 29.592C16.8289 29.3328 17.6946 29.1168 18.546 28.9008C19.1137 28.7568 19.6672 28.584 20.2348 28.4688C20.7031 28.368 21.1714 28.2384 21.6397 28.1376C22.108 28.0224 22.5764 27.9504 23.0447 27.8352C23.5697 27.7056 24.109 27.6192 24.6483 27.4896C24.9605 27.4176 25.2869 27.36 25.5991 27.288C25.8545 27.2448 26.0958 27.1872 26.3512 27.1296C26.5215 27.1008 26.6918 27.0432 26.8763 27.0288C27.1743 27 27.4723 26.928 27.7704 26.8848C28.2245 26.7984 28.6928 26.7408 29.1469 26.6256C29.3598 26.5824 29.5727 26.568 29.7713 26.5392C29.9416 26.5104 30.1261 26.5104 30.2964 26.4528C30.637 26.352 31.006 26.352 31.3466 26.28C31.5736 26.2224 31.8149 26.2512 32.0419 26.1936C32.2974 26.1216 32.5528 26.1504 32.8083 26.0784C33.0495 26.0208 33.3191 26.0352 33.5746 25.9776C33.83 25.92 34.0855 25.9488 34.3409 25.8624C34.3693 25.848 34.4119 25.848 34.4403 25.848C34.7808 25.8336 35.1214 25.776 35.4762 25.7184C35.6039 25.704 35.7317 25.7328 35.8452 25.6896C36.1148 25.6032 36.4128 25.6752 36.6683 25.5744C36.7109 25.56 36.7534 25.56 36.796 25.56C37.165 25.5888 37.5339 25.5312 37.9029 25.4736C38.2435 25.4304 38.5699 25.416 38.9105 25.4016C39.0808 25.3872 39.2653 25.3728 39.4356 25.3152C39.5633 25.2864 39.6768 25.272 39.8046 25.272C40.0458 25.272 40.2729 25.2576 40.5141 25.272C40.8405 25.272 41.1669 25.2288 41.4791 25.1568C41.5785 25.1424 41.6778 25.1424 41.7771 25.128C42.2454 25.128 42.728 25.128 43.1963 25.128C43.4943 25.128 43.7923 25.0704 44.0903 25.0272C44.1613 25.0128 44.2464 24.9984 44.3174 24.9984C44.5302 24.9984 44.7431 24.9984 44.956 24.9984C47.7375 24.9984 50.5331 24.9984 53.3146 24.9984C53.4991 24.9984 53.6978 24.9984 53.8823 24.9984C53.9816 24.9984 54.081 25.0272 54.1803 25.0416C54.2087 25.0416 54.2229 25.056 54.2513 25.056C54.5777 25.056 54.8899 25.1568 55.2163 25.1424C55.5285 25.128 55.8407 25.1424 56.1671 25.1424C56.5219 25.128 56.8766 25.1856 57.2314 25.2576C57.3166 25.272 57.4159 25.272 57.5011 25.272C57.7565 25.272 58.0119 25.272 58.2816 25.272C58.4377 25.272 58.5938 25.2576 58.7499 25.3296C58.7783 25.344 58.8208 25.344 58.8492 25.344C59.0337 25.3584 59.2324 25.344 59.4169 25.4016C59.7717 25.3728 60.1264 25.4736 60.4812 25.488C60.5947 25.488 60.7083 25.5168 60.8076 25.5312C60.8644 25.5456 60.9211 25.5456 60.9779 25.5456C61.1624 25.56 61.3611 25.5456 61.5456 25.6032C61.6023 25.6176 61.6733 25.6176 61.7442 25.6176C61.872 25.6176 61.9855 25.6176 62.1132 25.6608C62.17 25.6896 62.2409 25.6752 62.3119 25.6752C62.4822 25.6896 62.6525 25.6608 62.8086 25.7328C62.8228 25.7472 62.8512 25.7328 62.8795 25.7328C63.1634 25.7616 63.4614 25.7616 63.7452 25.8192C64.0007 25.8768 64.2561 25.8624 64.5115 25.92C64.7102 25.9632 64.9089 25.9632 65.1076 25.992C65.4198 26.0496 65.7462 26.064 66.0726 26.1216C66.2996 26.1648 66.5409 26.1792 66.7679 26.208C66.9099 26.2224 67.0518 26.2368 67.1937 26.28C67.5485 26.3664 67.9174 26.3808 68.2864 26.4672C68.6128 26.5392 68.9534 26.568 69.2798 26.6256C69.5636 26.6688 69.8475 26.7264 70.1313 26.784C70.4719 26.856 70.8125 26.9136 71.153 26.9712C71.6072 27.0432 72.0613 27.1152 72.5012 27.216C72.8844 27.3168 73.2959 27.3744 73.6791 27.4464C73.892 27.4896 74.119 27.5328 74.3319 27.576C74.3603 27.576 74.3745 27.576 74.4028 27.5904C74.7576 27.7632 75.1692 27.7632 75.5381 27.8496C75.7368 27.9072 75.9497 27.936 76.1626 27.9936C76.716 28.1232 77.2695 28.2528 77.8229 28.3968C78.5041 28.5696 79.1853 28.728 79.8665 28.9152C80.5193 29.088 81.1579 29.2608 81.8107 29.4336C82.2364 29.5488 82.648 29.6928 83.0595 29.808C83.4853 29.9376 83.9252 30.0528 84.3509 30.1824C84.6347 30.2688 84.9186 30.3696 85.2166 30.456C85.6707 30.6 86.1248 30.7584 86.5931 30.888C86.9905 31.0032 87.3737 31.1616 87.771 31.2912C88.0548 31.392 88.3387 31.5072 88.6225 31.5936C89.5023 31.8384 90.3396 32.2272 91.2195 32.5152C91.3614 32.5584 91.4891 32.6304 91.6169 32.688C91.6452 32.7024 91.6594 32.7312 91.6878 32.7744C91.6169 32.7744 91.5601 32.7888 91.5033 32.7888C91.2053 32.7312 90.9073 32.688 90.6235 32.616C90.0984 32.5008 89.5875 32.3712 89.0624 32.256C88.7786 32.1984 88.4948 32.1552 88.2109 32.112C88.1542 32.0976 88.0974 32.0832 88.0548 32.0688C87.8136 31.9824 87.5581 31.9392 87.3027 31.896C87.0047 31.8528 86.7067 31.7952 86.4087 31.7376C86.21 31.7088 86.0113 31.6656 85.8126 31.6224C85.3727 31.536 84.9328 31.464 84.4928 31.392C84.3083 31.3632 84.1239 31.32 83.9394 31.2912C83.7265 31.248 83.5278 31.2192 83.315 31.176C83.1447 31.1472 82.9886 31.1184 82.8183 31.0896C82.3074 31.0176 81.8107 30.9312 81.2998 30.8304C81.0869 30.7872 80.8741 30.7728 80.6754 30.744C80.5193 30.7296 80.3632 30.6864 80.2071 30.672C79.7813 30.6 79.3414 30.5424 78.9157 30.4704C78.6177 30.4128 78.3196 30.3984 78.0216 30.3408C77.8797 30.312 77.7378 30.2976 77.5959 30.2544C77.4682 30.2112 77.3262 30.2112 77.1985 30.2112C76.9147 30.2112 76.6451 30.1392 76.3754 30.096C76.1768 30.0672 75.9781 30.0528 75.7794 30.0096C75.5665 29.9664 75.3253 29.9808 75.1124 29.9232C74.8428 29.8368 74.559 29.88 74.2751 29.808C74.0055 29.736 73.7217 29.7504 73.4378 29.7216C73.1682 29.6928 72.9128 29.6496 72.6431 29.6064C72.6147 29.6064 72.6006 29.592 72.5722 29.592C72.2884 29.5632 72.0187 29.5488 71.7349 29.5056C71.4511 29.4624 71.153 29.4624 70.8692 29.4048C70.7983 29.3904 70.7131 29.3904 70.6422 29.3904C70.4861 29.376 70.3299 29.3904 70.1739 29.3328C70.1171 29.304 70.0461 29.3184 69.9752 29.3184C69.8475 29.3184 69.7055 29.3184 69.5778 29.2608C69.5352 29.2464 69.4927 29.2464 69.4501 29.2464C69.2514 29.2464 69.0527 29.2176 68.8541 29.1888C68.5135 29.1312 68.1587 29.1312 67.8181 29.1024C67.7188 29.088 67.6194 29.0736 67.5201 29.0592C67.4917 29.0592 67.4775 29.0448 67.4491 29.0448C67.1085 29.0592 66.7821 28.9728 66.4415 28.9728C66.2571 28.9728 66.0868 28.9728 65.9023 28.9152C65.8455 28.9008 65.7746 28.9008 65.7036 28.9008C65.4623 28.8864 65.2353 28.9152 65.0082 28.8432C64.9373 28.8144 64.8521 28.8288 64.767 28.8288C64.4406 28.8432 64.1284 28.7712 63.802 28.7136C63.7168 28.6992 63.6175 28.6848 63.5323 28.6848C63.2343 28.6848 62.9221 28.6704 62.6241 28.6848C62.3119 28.6992 61.9997 28.6272 61.6875 28.584C61.5598 28.5696 61.4462 28.5552 61.3185 28.5552C60.907 28.5552 60.5096 28.5552 60.0981 28.5552C59.9703 28.5552 59.8568 28.5552 59.7291 28.512C59.6723 28.4832 59.6014 28.4976 59.5304 28.4832C59.3885 28.4688 59.2466 28.4832 59.0905 28.44C58.9911 28.4112 58.8918 28.4256 58.7925 28.4256C58.168 28.4256 57.5578 28.4256 56.9334 28.4256C56.8057 28.4256 56.6638 28.44 56.536 28.3824C56.5219 28.368 56.4935 28.368 56.4651 28.368C56.0819 28.3392 55.6988 28.296 55.3298 28.296C51.7394 28.296 48.1348 28.296 44.5444 28.296C44.4025 28.296 44.2606 28.296 44.1045 28.3392C44.0052 28.368 43.9058 28.3536 43.8065 28.3536C43.4801 28.368 43.1537 28.3248 42.8415 28.4256C42.7563 28.4544 42.657 28.44 42.5718 28.44C42.0184 28.44 41.4649 28.44 40.9257 28.44C40.7412 28.44 40.5709 28.4256 40.3864 28.4832C40.3296 28.4976 40.2587 28.4976 40.1877 28.4976C40.1026 28.4976 40.0316 28.4832 39.9465 28.512C39.7194 28.584 39.4782 28.5696 39.2511 28.5696C38.9815 28.5696 38.7118 28.5696 38.4422 28.5696C38.1016 28.5696 37.7752 28.5984 37.4488 28.6848C37.3778 28.6992 37.2927 28.6992 37.2076 28.6992C36.9947 28.6992 36.7818 28.7136 36.5689 28.6992C36.1574 28.6848 35.7459 28.7136 35.3343 28.8144C35.2633 28.8288 35.2066 28.8288 35.1356 28.8288C34.9937 28.8288 34.8376 28.8432 34.6957 28.8288C34.4119 28.8144 34.1422 28.8576 33.8584 28.9152C33.6739 28.944 33.4894 28.9728 33.2908 28.9728C33.1914 28.9728 33.0921 28.9728 32.9927 28.9728C32.6805 28.9728 32.3683 29.016 32.0561 29.088C32.0277 29.088 32.0135 29.1024 31.9852 29.1024C31.673 29.088 31.3608 29.1744 31.0485 29.1888C30.9208 29.1888 30.8073 29.1888 30.6796 29.232C30.6086 29.2608 30.5235 29.2464 30.4525 29.2464C30.268 29.2608 30.0977 29.232 29.9132 29.304C29.8565 29.3184 29.7997 29.3184 29.7429 29.3184C29.601 29.3184 29.4449 29.3184 29.3172 29.376C29.2604 29.3904 29.2037 29.3904 29.1469 29.3904C29.005 29.4048 28.8489 29.376 28.7212 29.448C28.707 29.4624 28.6786 29.4624 28.6502 29.4624C28.338 29.4336 28.0258 29.52 27.7136 29.5488C27.444 29.5776 27.1743 29.592 26.9189 29.6496C26.8905 29.6496 26.8763 29.664 26.8479 29.664C26.5641 29.6928 26.2945 29.7072 26.0106 29.7504C25.741 29.7936 25.4714 29.7936 25.2159 29.8656C25.1734 29.88 25.1308 29.88 25.0882 29.88C24.7902 29.8944 24.4922 29.952 24.1942 30.0096C24.1658 30.0096 24.1516 30.0096 24.1232 30.024C23.7684 30.0384 23.4136 30.1104 23.0589 30.1536C22.6615 30.2112 22.2642 30.24 21.8668 30.312C21.4127 30.384 20.9586 30.4416 20.5044 30.5136C20.0787 30.5856 19.6388 30.6432 19.213 30.7152C18.7873 30.7872 18.3474 30.8448 17.9216 30.9168C17.5101 30.9888 17.1127 31.0608 16.7012 31.1184C16.2896 31.1904 15.8781 31.3056 15.4523 31.3632C15.0266 31.4208 14.6009 31.5216 14.1609 31.5936C13.7494 31.6656 13.3378 31.7664 12.9121 31.8384C12.6283 31.8816 12.3445 31.9392 12.0606 31.9968C11.6491 32.0688 11.2517 32.1552 10.8544 32.2416C10.5989 32.2992 10.3293 32.3424 10.0739 32.4C9.80423 32.4576 9.53459 32.5152 9.25077 32.5728C8.8676 32.6592 8.48444 32.7312 8.10127 32.8176C7.81745 32.8752 7.53362 32.9472 7.2498 33.0192C6.83825 33.12 6.42671 33.2064 6.01516 33.2928C5.80229 33.336 5.60361 33.3936 5.39074 33.4368C4.93662 33.5376 4.4825 33.6672 4.02838 33.7536C4.05677 33.7824 4.04257 33.768 4 33.7536Z" fill="white"/>
<path d="M68.8257 32.7312C69.0953 32.688 70.0887 32.6736 70.5002 32.7168C70.5144 32.7456 70.5428 32.7744 70.5428 32.8032C70.5428 33.3792 70.5854 33.9408 70.5286 34.5168C70.4719 35.136 70.5002 35.7408 70.486 36.36C70.486 36.504 70.4719 36.648 70.5286 36.792C70.557 36.8496 70.5428 36.9216 70.5428 36.9936C70.5428 37.2672 70.5428 37.5408 70.557 37.8144C70.557 38.0016 70.5428 38.2032 70.6138 38.3904C70.628 38.448 70.628 38.5056 70.628 38.5632C70.628 38.6064 70.6138 38.6496 70.6138 38.6928C70.3725 38.736 69.7481 38.7504 69.3933 38.7072C69.3224 38.6208 69.3507 38.52 69.3649 38.4192C69.3791 38.3328 69.4075 38.2464 69.4075 38.1456C69.4075 37.0224 69.4217 35.9136 69.4217 34.7904C69.4217 34.7472 69.4217 34.704 69.4075 34.6176C69.2798 34.848 69.2656 35.0784 69.1805 35.2944C69.0953 35.5104 69.0385 35.7552 68.9676 35.9712C68.8966 36.2016 68.8115 36.4464 68.7263 36.6768C68.6412 36.9072 68.5418 37.1232 68.4709 37.3392C68.3999 37.5696 68.3006 37.7856 68.2013 38.0016C68.1019 38.2176 68.0168 38.4336 67.9316 38.664C67.8039 38.7072 67.6904 38.7648 67.5485 38.7648C67.364 38.7648 67.1653 38.7648 66.9808 38.8224C66.9099 38.8512 66.8247 38.8224 66.7396 38.8224C66.5125 38.3904 66.3422 37.944 66.1577 37.4832C65.9874 37.0368 65.8171 36.6048 65.6752 36.144C65.5333 35.6832 65.3914 35.2224 65.2353 34.704C65.2069 34.992 65.1643 35.2224 65.1643 35.4528C65.1501 35.8128 65.1643 36.1872 65.1643 36.5472C65.1643 36.6624 65.1643 36.7776 65.2069 36.8784C65.2211 36.9216 65.2211 36.9936 65.2211 37.0512C65.2211 37.5408 65.2211 38.0304 65.2353 38.52C65.2353 38.5632 65.2211 38.6064 65.2211 38.6496C65.1927 38.664 65.1785 38.6928 65.1501 38.6928C64.7812 38.7072 64.4122 38.7072 64.0574 38.6928C64.0148 38.4624 64.0148 38.1456 64.0432 37.9728C64.0574 37.872 64.0716 37.7712 64.0716 37.6704C64.0716 36.2304 64.0716 34.776 64.0716 33.336C64.0716 33.2208 64.0432 33.12 64.029 32.976C64.0716 32.9472 64.1142 32.904 64.1567 32.904C64.4973 32.8608 64.8379 32.7744 65.1785 32.7456C65.3346 32.7312 65.4765 32.6592 65.661 32.7024C65.6894 32.76 65.732 32.832 65.7462 32.904C65.959 33.8112 66.2429 34.6896 66.5409 35.568C66.7679 36.2448 67.0234 36.9072 67.2504 37.5696C67.3214 37.584 67.3498 37.5408 67.364 37.4976C67.6194 36.7632 67.9032 36.0288 68.1303 35.2944C68.3574 34.5744 68.556 33.84 68.7263 33.1056C68.7547 32.976 68.7973 32.8608 68.8257 32.7312Z" fill="white"/>
<path d="M36.2993 38.7504C36.3845 38.2608 36.3419 37.7856 36.3561 37.3104C36.3703 36.8208 36.3561 36.3312 36.3561 35.8416C36.3561 35.3664 36.3561 34.8912 36.3561 34.4016C36.3561 33.9264 36.3561 33.4512 36.3561 32.9616C36.3561 32.8896 36.3703 32.8032 36.3703 32.7312C36.3987 32.7168 36.427 32.688 36.4412 32.688C36.7534 32.688 37.0656 32.5872 37.3779 32.6016C37.6333 32.5296 37.8887 32.544 38.1442 32.544C38.6693 32.544 39.1659 32.6448 39.6485 32.8176C40.1451 32.9904 40.4148 33.3648 40.5567 33.8688C40.6418 34.1568 40.5709 34.4016 40.4715 34.6608C40.3154 35.064 40.0458 35.352 39.6626 35.5248C39.6059 35.5536 39.5633 35.5824 39.5207 35.6112C39.5065 35.6112 39.5065 35.6256 39.4923 35.6544C39.5207 35.6688 39.5349 35.6832 39.5633 35.6832C39.9181 35.712 40.2303 35.8704 40.4999 36.1008C40.7128 36.288 40.8405 36.5328 40.8689 36.8064C40.8973 37.0656 40.9115 37.3248 40.8121 37.584C40.6986 37.9152 40.4999 38.1456 40.2019 38.3184C39.8471 38.5344 39.4498 38.6784 39.0382 38.736C38.7686 38.7792 38.4848 38.8368 38.2009 38.8224C37.7468 38.808 37.2785 38.8224 36.8244 38.8224C36.6541 38.8512 36.4838 38.7936 36.2993 38.7504ZM37.7043 38.0736C37.8604 38.1024 38.0165 38.1456 38.1868 38.16C38.5415 38.1888 38.8821 38.088 39.1801 37.9008C39.2795 37.8432 39.3646 37.7712 39.4356 37.6704C39.6485 37.3536 39.7194 37.008 39.5917 36.6336C39.5207 36.4176 39.3788 36.2304 39.166 36.1296C38.9673 36.0432 38.7544 35.9712 38.5273 35.9568C38.2719 35.9568 38.0165 35.9856 37.761 36.0288C37.7042 36.0288 37.6617 36.0576 37.6049 36.072C37.6049 36.6192 37.6049 37.152 37.6049 37.6992C37.5765 37.8288 37.6049 37.944 37.7043 38.0736ZM37.6049 33.4224C37.5907 33.4512 37.5907 33.4656 37.5907 33.48C37.5907 34.0992 37.5907 34.704 37.5907 35.3232C37.5907 35.352 37.6191 35.3808 37.6333 35.424C37.8462 35.424 38.059 35.424 38.2719 35.424C38.4422 35.424 38.6125 35.3952 38.7544 35.3232C39.0382 35.208 39.2511 34.992 39.3362 34.6752C39.3788 34.488 39.3788 34.3008 39.393 34.0992C39.4072 33.8976 39.3221 33.7536 39.1943 33.6096C38.9957 33.408 38.7686 33.2784 38.4848 33.2928C38.357 33.2928 38.2151 33.2928 38.0874 33.2928C37.9029 33.2928 37.7468 33.336 37.6049 33.4224Z" fill="white"/>
<path d="M17.2688 38.5488C16.9424 38.592 16.3038 38.5776 16.0342 38.5488C15.9774 38.5056 15.9916 38.448 15.9916 38.3904C15.9916 37.7712 16.0058 37.1376 16.0058 36.5184C16.0058 36.4464 16.0342 36.36 16.0342 36.288C16.0342 36.2016 16.0342 36.1152 16.0342 36.0288C16.02 36.0144 16.0058 36 16.0058 36C15.9916 36 15.9916 35.9856 15.9774 35.9856C15.9207 35.9856 15.8639 35.9712 15.8071 35.9712C14.984 35.9712 14.1751 35.9712 13.3379 35.9712C13.3237 36.0432 13.3095 36.0864 13.3095 36.144C13.3095 36.8064 13.3095 37.4688 13.3095 38.1312C13.3095 38.2608 13.3379 38.3904 13.352 38.52C13.3237 38.5344 13.3095 38.5632 13.2953 38.5632C12.9405 38.592 12.2735 38.5776 12.0606 38.5344C12.0039 38.4624 12.0323 38.376 12.0323 38.304C12.0323 38.2032 12.0181 38.088 12.0464 38.0016C12.089 37.872 12.089 37.728 12.089 37.5984C12.089 36.0864 12.089 34.5744 12.089 33.048C12.089 32.9328 12.0748 32.8176 12.1032 32.7168C12.3587 32.6736 12.8128 32.6592 13.3379 32.688C13.352 32.7312 13.3662 32.7888 13.3662 32.832C13.352 33.0768 13.3946 33.336 13.3095 33.5808C13.3095 33.5952 13.3095 33.624 13.3095 33.6528C13.3095 34.128 13.3095 34.6032 13.3095 35.064C13.3662 35.136 13.423 35.136 13.4798 35.136C14.2745 35.136 15.0692 35.136 15.8781 35.136C15.9349 35.136 15.9916 35.1216 16.02 35.1216C16.0768 35.0352 16.0626 34.9776 16.0484 34.9056C16.0342 34.8192 16.0058 34.7328 16.0058 34.632C16.0058 34.0416 15.9916 33.4512 15.9916 32.8608C15.9916 32.8176 15.9916 32.7744 16.0058 32.7024C16.0626 32.688 16.1051 32.6736 16.1619 32.6736C16.5167 32.6736 16.8573 32.6736 17.2121 32.6736C17.2404 32.6736 17.283 32.688 17.2972 32.688C17.354 32.7312 17.354 32.8032 17.3398 32.8464C17.283 33.0192 17.283 33.2064 17.283 33.3792C17.283 34.9632 17.283 36.5472 17.283 38.1312C17.2688 38.2896 17.2688 38.4048 17.2688 38.5488Z" fill="white"/>
<path d="M60.6515 32.832C60.7509 32.832 60.836 32.832 60.907 32.832C61.0631 32.8176 61.2192 32.8464 61.3753 32.7744C61.432 32.7456 61.503 32.76 61.5739 32.76C61.7017 32.7456 61.8436 32.76 61.9713 32.7168C62.099 32.6736 62.2693 32.7024 62.4396 32.7456C62.3828 32.9328 62.397 33.12 62.3828 33.3072C62.3828 34.2288 62.3828 35.1504 62.3687 36.072C62.3687 36.1584 62.3687 36.2448 62.3828 36.36C62.5957 36.4176 62.8086 36.36 63.0073 36.4032C63.0782 36.4896 63.0498 36.5472 63.0215 36.6048C63.0073 36.6624 63.0073 36.7344 62.9931 36.8064C62.9789 36.8784 62.9647 36.936 62.9363 37.008C62.9221 37.0656 62.9363 37.152 62.8653 37.2096C62.7376 37.2096 62.5815 37.224 62.4396 37.224C62.3687 37.2816 62.3828 37.3392 62.3828 37.3968C62.3828 37.7712 62.3828 38.1456 62.3828 38.52C62.3828 38.592 62.397 38.6784 62.3545 38.7504C62.1132 38.7936 61.7301 38.808 61.205 38.7792C61.1908 38.736 61.1766 38.6784 61.1766 38.6352C61.1766 38.304 61.1766 37.9728 61.1908 37.6416C61.1908 37.512 61.2192 37.3968 61.2334 37.2816C61.1766 37.2096 61.1056 37.224 61.0489 37.224C60.3677 37.224 59.6723 37.224 58.9911 37.224C58.8776 37.224 58.7641 37.224 58.6505 37.2096C58.5938 37.08 58.6364 36.9504 58.608 36.8352C58.5512 36.6192 58.608 36.4176 58.7357 36.2304C58.9911 35.8416 59.2182 35.4384 59.4594 35.0352C59.6014 34.8048 59.7291 34.56 59.8568 34.3152C60.0839 33.8976 60.2967 33.4656 60.5238 33.048C60.538 32.976 60.5806 32.9184 60.6515 32.832ZM61.2192 36.36C61.2475 36.1728 61.2334 36 61.2334 35.8272C61.2334 35.64 61.2334 35.4672 61.2334 35.28C61.2334 35.1072 61.2334 34.9344 61.2334 34.7616C61.2334 34.5744 61.2334 34.4016 61.2334 34.2144C61.2334 34.056 61.205 33.8832 61.2192 33.7104C61.1624 33.7104 61.1198 33.7104 61.0631 33.7104C61.0489 33.7824 61.0489 33.8544 61.0347 33.912C61.0063 33.984 60.9353 34.0416 60.8928 34.0992C60.6941 34.416 60.4812 34.7184 60.2967 35.0496C60.1122 35.424 59.8994 35.784 59.7007 36.144C59.6723 36.2016 59.6014 36.2448 59.6439 36.3312C59.8994 36.3888 60.7792 36.3888 61.2192 36.36Z" fill="white"/>
<path d="M41.6352 34.632C41.7629 34.5456 41.8623 34.5168 42.8273 34.3728C42.8415 34.4016 42.8841 34.416 42.8841 34.4448C42.9124 34.7328 42.9834 35.0208 42.9692 35.3232C42.955 35.4384 42.9692 35.5536 42.9266 35.6544C42.9124 35.712 42.9124 35.7696 42.9124 35.8272C42.8841 36.1728 42.9408 36.504 42.8557 36.8496C42.9124 37.0224 42.8841 37.2096 42.9124 37.3824C42.955 37.6416 43.1963 37.8432 43.4943 37.872C43.551 37.872 43.6078 37.8864 43.6646 37.872C43.9058 37.8144 44.1613 37.7568 44.3883 37.584C44.3883 37.3104 44.4167 37.0368 44.3741 36.7776C44.3599 36.72 44.3599 36.6624 44.3741 36.6048C44.4451 36.216 44.3883 35.8128 44.4025 35.4096C44.3174 35.1216 44.3599 34.8192 44.3599 34.5312C44.3599 34.5168 44.3741 34.5168 44.3741 34.5024C44.3883 34.488 44.4025 34.4736 44.4309 34.4592C44.8283 34.4448 45.2114 34.4448 45.5946 34.4592C45.6372 34.704 45.6372 35.0064 45.6088 35.1792C45.5946 35.28 45.5804 35.3808 45.5804 35.4816C45.5804 36 45.5804 36.504 45.5662 37.0224C45.5662 37.3248 45.6372 37.5984 45.8216 37.8432C45.8784 37.9296 45.9352 38.016 46.0061 38.1024C46.0061 38.1888 45.921 38.2176 45.8642 38.2608C45.5662 38.448 45.2682 38.6208 44.956 38.808C44.8424 38.7216 44.7857 38.5776 44.7147 38.4624C44.6296 38.3472 44.5586 38.2176 44.4735 38.0736C44.3599 38.16 44.2606 38.2464 44.1613 38.3328C44.0619 38.4048 43.9626 38.4768 43.8491 38.5344C43.551 38.7072 43.2388 38.8224 42.8982 38.808C42.5151 38.7936 42.2171 38.6064 42.0042 38.2752C41.8623 38.0592 41.7771 37.8 41.7913 37.5408C41.7913 36.8496 41.7913 36.144 41.7913 35.4528C41.7488 35.208 41.6636 34.9344 41.6352 34.632Z" fill="white"/>
<path d="M25.8971 37.584C25.8829 37.296 25.9255 37.0224 25.8545 36.7632C25.8404 36.72 25.8404 36.6624 25.8545 36.6336C25.9113 36.504 25.8971 36.36 25.8829 36.2304C25.8687 35.8992 25.8971 35.568 25.8404 35.2512C25.7978 35.0208 25.8262 34.776 25.8262 34.5168C25.8829 34.5024 25.9255 34.488 25.9823 34.488C26.3229 34.488 26.6493 34.488 26.9898 34.488C27.004 34.488 27.0324 34.5024 27.0466 34.5024C27.1034 34.5456 27.0892 34.6032 27.0892 34.6608C27.075 34.8768 27.1176 35.0928 27.0466 35.3088C27.0324 35.3664 27.0324 35.424 27.0324 35.4816C27.0324 36.0432 27.0324 36.6048 27.0324 37.152C27.0324 37.3824 27.1034 37.5984 27.2311 37.7856C27.3162 37.9008 27.4014 38.0304 27.4865 38.1456C27.4723 38.1744 27.444 38.2032 27.4298 38.2176C27.1034 38.4336 26.7628 38.6352 26.4364 38.8368C26.2519 38.6064 26.11 38.3616 25.9681 38.1312C25.8829 38.1024 25.8545 38.1744 25.8262 38.2032C25.514 38.4768 25.1876 38.6928 24.7902 38.7936C24.2225 38.9376 23.6833 38.7216 23.4278 38.2032C23.3285 38.0016 23.2717 37.7856 23.2717 37.5552C23.2717 36.9792 23.2717 36.3888 23.2717 35.8128C23.2717 35.4096 23.2434 35.0208 23.144 34.6464C23.2575 34.5456 23.2575 34.5456 24.3503 34.3584C24.3645 34.3872 24.407 34.4016 24.407 34.4304C24.4496 34.7616 24.5206 35.0784 24.4922 35.4096C24.478 35.5824 24.4496 35.7408 24.4354 35.9136C24.4212 36.1008 24.4354 36.2736 24.4212 36.4608C24.4212 36.576 24.3928 36.6912 24.3928 36.792C24.3928 36.8352 24.3928 36.8784 24.3928 36.9216C24.3928 36.9936 24.407 37.08 24.4212 37.152C24.4354 37.4976 24.4496 37.5264 24.7192 37.7712C24.776 37.7856 24.847 37.8288 24.9037 37.8288C25.0031 37.8432 25.1024 37.8576 25.2017 37.8576C25.3437 37.872 25.6842 37.7136 25.8971 37.584Z" fill="white"/>
<path d="M48.1065 40.5216C47.7517 40.6656 47.4111 40.608 47.0847 40.6224C47.0279 40.6224 46.957 40.608 46.886 40.5936C46.9002 40.5504 46.9002 40.5072 46.9286 40.4784C47.1273 40.1472 47.3543 39.8304 47.5388 39.4992C47.6949 39.24 47.8084 38.9808 47.9504 38.7216C47.9645 38.6784 47.9645 38.6352 47.9787 38.5632C47.2692 37.2816 46.7157 35.928 46.3467 34.5168C46.4177 34.4304 46.5028 34.4016 46.6022 34.3872C46.8292 34.3728 47.0421 34.3728 47.2692 34.3152C47.3543 34.3008 47.4395 34.3152 47.5388 34.3152C47.6381 34.7616 47.7517 35.1792 47.851 35.6112C47.9929 36.1872 48.1632 36.7632 48.447 37.296C48.4754 37.3392 48.4896 37.368 48.518 37.4112C48.518 37.4256 48.5322 37.4256 48.5606 37.44C48.589 37.4112 48.6173 37.3824 48.6315 37.3392C48.8018 36.8064 48.9863 36.2736 49.1282 35.7264C49.2276 35.3088 49.3553 34.9056 49.4688 34.488C49.554 34.416 49.6533 34.3872 49.7526 34.3728C49.9655 34.3584 50.1784 34.3728 50.3913 34.3152C50.4764 34.2864 50.5615 34.2864 50.6467 34.3296C50.6609 34.344 50.6609 34.3584 50.6751 34.3584C50.6751 34.3728 50.6893 34.3872 50.6751 34.3872C50.5615 34.7472 50.4622 35.1072 50.3345 35.4528C50.0932 36.1152 49.8378 36.7632 49.5824 37.4112C49.2418 38.2464 48.8444 39.0672 48.447 39.8736C48.3193 40.1184 48.2058 40.32 48.1065 40.5216Z" fill="white"/>
<path d="M73.6649 34.3296C73.9061 34.3008 74.1474 34.344 74.3744 34.4304C74.9563 34.6176 75.3536 35.0064 75.5381 35.6112C75.6658 36 75.7084 36.4176 75.6517 36.8208C75.5949 37.2528 75.453 37.6848 75.1833 38.0448C75.0982 38.1456 75.013 38.2608 74.8995 38.3472C74.417 38.7216 73.8777 38.9088 73.2675 38.8512C72.5863 38.7936 72.0329 38.4768 71.6923 37.8432C71.593 37.656 71.522 37.44 71.4794 37.2384C71.4085 36.8928 71.3801 36.5472 71.4652 36.2016C71.5504 35.856 71.6497 35.5248 71.8484 35.2224C72.1322 34.7904 72.5296 34.5456 73.0121 34.4016C73.2249 34.344 73.4378 34.3152 73.6649 34.3296ZM74.4596 36.4464C74.4454 36.3312 74.4028 36.1008 74.4028 35.8848C74.3886 35.6112 74.2751 35.3952 74.0764 35.208C73.7216 34.8768 73.154 35.0496 72.9695 35.3808C72.8134 35.6688 72.6999 35.9712 72.6999 36.3168C72.6999 36.5328 72.7141 36.7488 72.6999 36.9648C72.6857 37.2384 72.7708 37.4976 72.8702 37.7568C72.9695 38.0304 73.2108 38.1456 73.4804 38.1744C73.7926 38.2032 74.1048 37.9872 74.2325 37.656C74.3886 37.296 74.4454 36.9216 74.4596 36.4464Z" fill="white"/>
<path d="M22.3919 36.432C22.4344 36.864 22.3351 37.2528 22.1648 37.6272C21.9519 38.1456 21.5546 38.4912 21.0437 38.6928C20.7031 38.8224 20.3341 38.88 19.951 38.8368C19.5394 38.7792 19.1705 38.6352 18.8582 38.3616C18.7589 38.2896 18.688 38.1888 18.617 38.088C18.3474 37.6992 18.1913 37.2672 18.2055 36.7776C18.2055 36.6768 18.2055 36.576 18.2055 36.4752C18.2055 35.8848 18.4467 35.3952 18.7873 34.9488C19.0853 34.6896 19.3975 34.4592 19.7949 34.3872C20.0219 34.344 20.2632 34.3296 20.4902 34.3296C20.9727 34.3152 21.3843 34.5024 21.7675 34.776C22.0087 34.9632 22.1506 35.2224 22.25 35.5104C22.3635 35.8128 22.4344 36.1152 22.3919 36.432ZM20.6038 38.0736C20.7883 37.944 20.9018 37.7712 20.9869 37.584C21.1005 37.3392 21.143 37.0944 21.1714 36.8352C21.1856 36.6192 21.1714 36.4032 21.1714 36.1872C21.1856 36 21.143 35.8272 21.1005 35.6544C21.0295 35.3664 20.8592 35.1504 20.5754 35.0496C20.3767 34.992 20.178 34.992 19.9935 35.1072C19.8091 35.2368 19.6388 35.3952 19.5678 35.6256C19.4827 35.8848 19.4117 36.144 19.4259 36.4176C19.4259 36.6048 19.4259 36.7776 19.4259 36.9648C19.4401 37.2672 19.5252 37.5408 19.653 37.8144C19.6813 37.8576 19.7097 37.9152 19.7523 37.944C19.9794 38.1168 20.2064 38.232 20.4902 38.1024C20.5328 38.088 20.5896 38.0736 20.6038 38.0736Z" fill="white"/>
<path d="M83.2866 36.7776C83.0595 36.8064 82.8608 36.792 82.6621 36.792C82.4777 36.792 82.279 36.792 82.0945 36.792C81.8958 36.792 81.6829 36.792 81.4843 36.792C81.2998 36.792 81.1011 36.792 80.945 36.8064C80.874 36.864 80.8882 36.9216 80.8882 36.9792C80.8882 37.1952 80.9592 37.4112 81.0585 37.5984C81.2004 37.872 81.4701 37.9872 81.7539 38.016C81.8958 38.0304 82.0377 38.016 82.1938 37.9872C82.4918 37.9296 82.7757 37.8576 83.0737 37.7568C83.0879 37.7568 83.1163 37.7568 83.1588 37.7712C83.244 37.9872 83.1872 38.2176 83.1021 38.4192C83.0737 38.5056 82.9885 38.5632 82.9034 38.592C82.7047 38.6496 82.506 38.7216 82.2932 38.7792C81.9952 38.8512 81.6971 38.8656 81.3991 38.8512C80.9734 38.8224 80.5902 38.7072 80.2496 38.448C80.1929 38.4048 80.1503 38.3616 80.1077 38.304C79.8381 37.944 79.682 37.5408 79.6962 37.0656C79.6962 36.8784 79.6962 36.7056 79.6962 36.5184C79.7104 36.1008 79.8665 35.5968 80.0935 35.2368C80.3348 34.8624 80.6754 34.6176 81.0869 34.4592C81.4275 34.3296 81.7681 34.3008 82.1087 34.3296C82.648 34.3872 83.0879 34.6464 83.3007 35.1936C83.3717 35.3664 83.4143 35.5392 83.4143 35.7264C83.4143 35.9568 83.4285 36.1728 83.3575 36.4032C83.2724 36.504 83.2866 36.6336 83.2866 36.7776ZM80.8598 36.072C80.9166 36.0864 80.945 36.1008 80.9592 36.1008C81.4133 36.1008 81.8532 36.1008 82.3074 36.1008C82.3357 36.1008 82.3641 36.072 82.3925 36.072C82.4067 35.6688 82.3074 35.4096 82.0661 35.1792C81.8532 34.9776 81.4133 34.9776 81.2004 35.1792C80.9592 35.424 80.8598 35.712 80.8598 36.072Z" fill="white"/>
<path d="M54.5351 36.792C53.7546 36.8064 52.9882 36.7776 52.2219 36.8064C52.1793 36.936 52.1935 37.0512 52.2219 37.152C52.2503 37.2816 52.2929 37.4112 52.3496 37.5408C52.4064 37.6992 52.5199 37.8144 52.6618 37.8864C52.9031 38.016 53.1727 38.0592 53.4424 38.016C53.712 37.9584 53.9816 37.9008 54.2513 37.7856C54.308 37.7568 54.3506 37.7424 54.4074 37.7856C54.4216 37.8144 54.4358 37.8288 54.4358 37.8432C54.4358 38.0448 54.4358 38.2464 54.4358 38.4624C54.1661 38.6208 53.8823 38.7072 53.5843 38.7792C53.4566 38.808 53.3288 38.8368 53.1869 38.8512C53.0166 38.8656 52.8463 38.8656 52.676 38.8512C52.3638 38.8368 52.0516 38.7648 51.782 38.6064C51.4556 38.4336 51.2427 38.1456 51.1008 37.8C51.0157 37.584 50.9731 37.368 50.9731 37.1376C50.9731 36.9216 50.9731 36.7056 50.9731 36.4896C50.9873 36.1152 51.1434 35.5968 51.3562 35.28C51.5975 34.8912 51.9381 34.632 52.3638 34.4736C52.7044 34.344 53.045 34.3152 53.3856 34.344C53.9249 34.4016 54.3364 34.6752 54.5635 35.1792C54.6344 35.3376 54.6628 35.496 54.6912 35.6688C54.7338 35.9856 54.677 36.3024 54.6202 36.6192C54.606 36.6624 54.5777 36.72 54.5351 36.792ZM52.2219 36.0864C52.2787 36.1008 52.3071 36.1008 52.3496 36.1008C52.7754 36.1008 53.2011 36.1008 53.6269 36.1008C53.6694 36.1008 53.712 36.0864 53.7546 36.072C53.7546 36 53.7546 35.9424 53.7404 35.8848C53.7262 35.8128 53.6978 35.7552 53.6978 35.6832C53.6978 35.4528 53.5701 35.3088 53.414 35.1648C53.1869 34.9488 52.7754 34.9632 52.5483 35.1648C52.3071 35.3952 52.2077 35.6688 52.2219 36.0864Z" fill="white"/>
<path d="M35.2491 36.792C34.4544 36.8064 33.7023 36.8064 32.9644 36.8208C32.9502 36.8208 32.9502 36.8352 32.936 36.8496C32.865 37.0368 32.9502 37.2096 32.9927 37.3824C33.0921 37.7856 33.3901 37.9728 33.7591 38.0304C33.901 38.0592 34.0429 38.0448 34.199 38.016C34.4686 37.9584 34.7241 37.8864 34.9653 37.8C35.0079 37.7856 35.0505 37.7856 35.093 37.7856C35.1072 37.8144 35.1356 37.8288 35.1356 37.8576C35.1356 38.0592 35.1356 38.2608 35.1356 38.4768C34.9653 38.6208 34.7666 38.6784 34.568 38.736C34.1564 38.8656 33.7307 38.9232 33.3049 38.88C32.9927 38.8512 32.6805 38.7792 32.4251 38.6064C32.1413 38.4192 31.9142 38.16 31.8149 37.8144C31.7581 37.6128 31.6871 37.3968 31.7013 37.1808C31.7013 36.9648 31.6871 36.7488 31.7013 36.5328C31.7297 36.0864 31.8432 35.6688 32.0845 35.28C32.3257 34.92 32.638 34.6608 33.0353 34.5024C33.3901 34.3584 33.7591 34.3152 34.128 34.3728C34.6673 34.4448 35.0789 34.704 35.2917 35.2224C35.3485 35.3664 35.3911 35.5248 35.4052 35.6832C35.4478 36.0144 35.3911 36.3456 35.3201 36.6624C35.3201 36.6768 35.2775 36.7344 35.2491 36.792ZM32.936 36.0864C32.9927 36.1008 33.0211 36.1008 33.0637 36.1008C33.4894 36.1008 33.9152 36.1008 34.3409 36.1008C34.3835 36.1008 34.4261 36.0864 34.4544 36.072C34.5112 35.928 34.4119 35.8128 34.4119 35.6832C34.4119 35.4528 34.2841 35.3088 34.128 35.1648C33.901 34.9488 33.4894 34.9632 33.2624 35.1648C33.0211 35.3952 32.9218 35.6688 32.936 36.0864Z" fill="white"/>
<path d="M28.1251 38.4624C28.1535 38.1312 28.0116 37.8432 28.0826 37.5264C28.2387 37.5264 28.3806 37.5984 28.5225 37.656C28.8205 37.7712 29.1185 37.8144 29.4307 37.8864C29.5301 37.9008 29.6294 37.9008 29.7288 37.8864C29.8139 37.872 29.8991 37.8288 29.9842 37.7856C30.0126 37.6848 30.0552 37.584 30.0835 37.4976C30.0552 37.3392 29.97 37.2528 29.8423 37.1808C29.6578 37.08 29.4591 37.008 29.2463 36.936C29.0476 36.8784 28.8773 36.792 28.6928 36.7056C28.2103 36.4752 28.0116 35.856 28.0826 35.4096C28.1535 35.064 28.2245 34.9344 28.4799 34.6896C28.636 34.5456 28.8205 34.4736 29.0192 34.4304C29.4591 34.3296 29.8991 34.2864 30.3532 34.4016C30.4383 34.4304 30.5377 34.416 30.6228 34.4448C30.6938 34.4592 30.7505 34.488 30.8073 34.5024C30.8641 34.7472 30.8641 35.064 30.8073 35.352C30.566 35.3088 30.3248 35.28 30.0977 35.2224C29.8281 35.1504 29.5727 35.1504 29.303 35.2368C29.2888 35.2368 29.2604 35.2368 29.2321 35.2512C29.2179 35.2512 29.1895 35.2656 29.1469 35.28C29.1043 35.352 29.0618 35.4384 29.005 35.5248C29.0476 35.64 29.076 35.7408 29.1043 35.856C29.2746 35.9712 29.4591 36.0576 29.6436 36.1296C29.8281 36.2016 30.0268 36.2592 30.2113 36.3456C30.3674 36.4176 30.5093 36.504 30.637 36.6048C30.8782 36.792 31.006 37.0512 31.0202 37.368C31.0344 37.5264 31.0202 37.6848 31.0202 37.8432C31.0202 37.944 30.9918 38.016 30.9634 38.1024C30.8357 38.5056 30.5235 38.6928 30.1545 38.7936C29.8139 38.8944 29.4733 38.88 29.1327 38.808C28.8347 38.7504 28.5509 38.6352 28.2671 38.5488C28.2245 38.52 28.1819 38.4912 28.1251 38.4624Z" fill="white"/>
<path d="M55.6562 38.6784C55.6136 38.5632 55.642 38.448 55.642 38.3472C55.642 37.6272 55.642 36.9072 55.642 36.2016C55.642 35.8848 55.5568 35.5968 55.4007 35.3376C55.3298 35.2224 55.2446 35.1072 55.2304 34.9488C55.5568 34.704 55.9258 34.5024 56.2806 34.2864C56.4935 34.5456 56.5928 34.848 56.7631 35.136C57.0469 34.848 57.3307 34.5744 57.6997 34.416C57.8274 34.3584 57.9694 34.3008 58.1255 34.272C58.168 34.6752 58.2674 35.064 58.1964 35.4672C58.0545 35.496 57.9126 35.5104 57.7707 35.5392C57.6146 35.568 57.4585 35.5824 57.3024 35.6112C57.1605 35.64 57.0185 35.6832 56.905 35.712C56.834 35.784 56.8482 35.856 56.8482 35.928C56.8482 36.648 56.8482 37.368 56.8624 38.0736C56.8624 38.1888 56.8624 38.304 56.905 38.4048C56.9334 38.4912 56.9476 38.5776 56.905 38.664C56.8766 38.6784 56.8624 38.6928 56.8482 38.6928C56.4935 38.6928 56.1245 38.6928 55.7697 38.6928C55.7271 38.7072 55.6987 38.6928 55.6562 38.6784Z" fill="white"/>
<path d="M77.7804 35.7984C77.7804 35.8848 77.7662 35.9712 77.7804 36.0432C77.8229 36.1872 77.8229 36.3312 77.8229 36.4752C77.8229 36.9504 77.8229 37.4256 77.8371 37.9152C77.8371 38.1024 77.8371 38.2752 77.8939 38.448C77.9081 38.5056 77.8939 38.5776 77.8939 38.6496C77.8655 38.664 77.8371 38.6928 77.8087 38.6928C77.4256 38.6928 77.0424 38.6928 76.6593 38.6928C76.6451 38.6928 76.6167 38.6784 76.5741 38.664C76.5741 38.6352 76.5457 38.5776 76.5599 38.5488C76.6025 38.448 76.6025 38.3472 76.6025 38.2464C76.6025 37.584 76.6025 36.9216 76.6167 36.2592C76.6167 35.8992 76.5457 35.568 76.3471 35.2656C76.2903 35.1648 76.2335 35.064 76.1768 34.9776C76.3471 34.8048 76.9289 34.4592 77.2695 34.3152C77.2979 34.344 77.3404 34.3872 77.3688 34.4304C77.454 34.6032 77.5391 34.776 77.6385 34.9488C77.6668 34.992 77.7094 35.0352 77.752 35.0928C77.9223 34.992 78.0216 34.8336 78.1635 34.7328C78.3054 34.632 78.4474 34.5456 78.5893 34.4592C78.7454 34.3728 78.8873 34.272 79.0718 34.272C79.086 34.3008 79.1143 34.3152 79.1143 34.344C79.1427 34.6176 79.1711 34.8912 79.1853 35.1504C79.1995 35.2512 79.1853 35.352 79.1853 35.4384C79.1285 35.5104 79.0718 35.496 79.015 35.5104C78.7454 35.5536 78.4615 35.5536 78.1919 35.64C78.121 35.6544 78.0642 35.6832 78.0074 35.6976C77.9223 35.7264 77.8513 35.7552 77.7804 35.7984Z" fill="white"/>
<path d="M27.9123 22.9536C27.6284 22.9824 26.1384 22.9968 25.7978 22.9536C25.7836 22.9104 25.7694 22.8528 25.7694 22.7952C25.7694 22.1184 25.7694 21.4272 25.7694 20.7504C25.7694 20.7072 25.7836 20.664 25.7836 20.6064C25.8404 20.592 25.8971 20.5776 25.9397 20.5776C26.5499 20.5776 27.1459 20.5776 27.7562 20.5776C27.7987 20.5776 27.8413 20.592 27.8981 20.592C27.9123 20.6352 27.9265 20.6784 27.9265 20.7216C27.9265 21.4416 27.9265 22.1616 27.9265 22.8816C27.9407 22.896 27.9265 22.9248 27.9123 22.9536Z" fill="white"/>
<path d="M22.8176 22.9536C22.8034 22.9104 22.7892 22.8816 22.7892 22.8672C22.7892 22.1904 22.7892 21.4992 22.7892 20.8224C22.7892 20.736 22.7892 20.664 22.8744 20.6064C23.144 20.5776 24.6341 20.5632 24.9321 20.6064C24.9463 20.6352 24.9605 20.6784 24.9605 20.7216C24.9605 21.4272 24.9605 22.1328 24.9605 22.8384C24.9605 22.8672 24.9463 22.896 24.9463 22.9248C24.9179 22.9392 24.9037 22.968 24.8895 22.968C24.5064 22.9968 23.0731 22.9824 22.8176 22.9536Z" fill="white"/>
<path d="M24.9463 17.6688C24.9463 17.712 24.9605 17.7552 24.9605 17.7984C24.9889 18.5184 24.9747 19.6704 24.9321 19.944C24.9179 19.9584 24.8895 19.9728 24.8753 19.9728C24.5631 19.9872 23.0447 19.9872 22.8176 19.9584C22.8034 19.9296 22.7892 19.8864 22.7892 19.8432C22.7892 19.152 22.7892 18.4608 22.7892 17.7696C22.7892 17.7408 22.8034 17.7264 22.8034 17.6832C22.8318 17.6688 22.8744 17.6544 22.917 17.6544C23.5556 17.6544 24.1942 17.6544 24.8328 17.6544C24.8753 17.64 24.9037 17.6544 24.9463 17.6688Z" fill="white"/>
<path d="M27.9123 19.944C27.6284 19.9728 26.2519 19.9872 25.7978 19.9584C25.7836 19.9296 25.7552 19.8864 25.7552 19.8432C25.7552 19.152 25.7552 18.4608 25.7552 17.7696C25.7552 17.7408 25.7694 17.712 25.7836 17.6688C25.812 17.6544 25.8545 17.64 25.8829 17.64C26.6209 17.6112 27.6284 17.6256 27.8981 17.6688C27.9123 17.6832 27.9265 17.6976 27.9265 17.7264C27.9548 18.0432 27.9407 19.6992 27.9123 19.944Z" fill="white"/>
<path d="M65.7462 44.856C65.5191 44.856 65.3346 44.856 65.136 44.856C65.0508 44.712 65.0792 44.568 65.1076 44.424C65.1502 44.2944 65.1501 44.1504 65.1501 44.0208C65.1501 43.4016 65.1501 42.768 65.1501 42.1488C65.1501 41.9328 65.1643 41.7168 65.0792 41.5008C65.1218 41.4576 65.1643 41.3856 65.2069 41.3856C65.5049 41.3856 65.8029 41.2992 66.101 41.2992C66.3706 41.2992 66.626 41.3568 66.8815 41.4432C67.0092 41.4864 67.1227 41.5584 67.2221 41.6592C67.3498 41.7888 67.4208 41.9472 67.4349 42.1056C67.4775 42.4512 67.3924 42.7536 67.1369 43.0128C67.0944 43.056 67.066 43.0992 67.0376 43.128C67.0376 43.2144 67.0944 43.2432 67.1227 43.2864C67.3214 43.5168 67.4208 43.7904 67.4349 44.0928C67.4349 44.2944 67.4349 44.496 67.4349 44.712C67.4349 44.7552 67.4208 44.7984 67.4208 44.8416C67.2363 44.8704 67.066 44.8848 66.8673 44.9136C66.8531 44.8848 66.8389 44.8416 66.8389 44.7984C66.8389 44.6688 66.8247 44.5248 66.8389 44.3952C66.8531 44.0928 66.7821 43.8048 66.626 43.5456C66.3848 43.3296 66.101 43.344 65.8171 43.3728C65.7462 43.416 65.7604 43.488 65.7604 43.5312C65.7604 43.8768 65.7604 44.2368 65.7604 44.5824C65.7604 44.6688 65.7462 44.7408 65.7462 44.856ZM66.8389 42.0768C66.7112 41.832 66.4983 41.7888 66.3138 41.7456C66.1293 41.7024 65.9449 41.688 65.7462 41.7744C65.7462 42.12 65.7462 42.4512 65.7462 42.7968C65.7462 42.8544 65.7746 42.8976 65.7746 42.9552C66.1152 42.984 66.4416 43.0128 66.7112 42.7536C66.8957 42.5376 66.8247 42.2928 66.8389 42.0768Z" fill="white"/>
<path d="M51.2569 43.3728C51.2569 43.8768 51.2569 44.352 51.2569 44.8272C51.2001 44.8416 51.1434 44.856 51.1008 44.856C50.9731 44.856 50.8312 44.856 50.7176 44.856C50.6467 44.7984 50.6467 44.7408 50.6467 44.6832C50.6467 43.6464 50.6467 42.6096 50.6467 41.5728C50.6467 41.5152 50.6609 41.4576 50.6609 41.4288C50.7318 41.3568 50.8028 41.3712 50.8737 41.3712C51.0014 41.3568 51.115 41.3856 51.2427 41.3136C51.5123 41.2992 51.7678 41.2848 52.0374 41.3424C52.2929 41.3856 52.5341 41.4864 52.7612 41.6304C52.8463 41.7744 52.9598 41.8896 52.974 42.0768C52.9882 42.1776 53.0308 42.264 53.0024 42.3792C52.9456 42.552 52.9315 42.7392 52.8037 42.8688C52.7186 42.9552 52.6334 43.056 52.5483 43.1424C52.5909 43.1856 52.6051 43.2288 52.6334 43.2576C52.8605 43.4736 52.9598 43.7472 52.9598 44.0496C52.9598 44.2944 52.9598 44.5536 52.9598 44.8128C52.9031 44.8272 52.8463 44.8416 52.8037 44.856C52.7328 44.8704 52.6618 44.856 52.6051 44.8704C52.5341 44.8848 52.4773 44.8992 52.3922 44.9136C52.378 44.8704 52.3638 44.8272 52.3638 44.784C52.3638 44.5968 52.3638 44.3952 52.3638 44.208C52.3638 44.064 52.3354 43.9344 52.307 43.8048C52.2361 43.5168 52.0374 43.3872 51.782 43.3584C51.6117 43.344 51.4414 43.3584 51.2569 43.3728ZM51.2853 42.9408C51.6684 42.9696 52.0232 42.9696 52.3354 42.7104C52.3496 42.48 52.3638 42.2496 52.3354 42.048C52.08 41.7312 52.0232 41.7168 51.6684 41.7168C51.6401 41.7168 51.5975 41.7168 51.5691 41.7168C51.4272 41.7168 51.3278 41.7744 51.2569 41.9328C51.2569 42.2064 51.2569 42.5232 51.2569 42.8256C51.2569 42.8544 51.2711 42.8832 51.2853 42.9408Z" fill="white"/>
<path d="M48.0213 41.3424C47.922 41.6448 47.9503 41.9184 47.9503 42.2064C47.9503 42.6816 47.9503 43.1568 47.9503 43.6464C47.9503 43.8048 47.9929 43.9632 48.0497 44.1072C48.149 44.3376 48.3193 44.4672 48.5748 44.4672C48.6883 44.4672 48.8018 44.4816 48.9012 44.424C49.1566 44.3088 49.2417 44.0784 49.2985 43.8336C49.3269 43.7184 49.2985 43.6032 49.3127 43.488C49.3127 43.3008 49.3127 43.128 49.3553 42.9408C49.3837 42.8112 49.3695 42.6672 49.3553 42.5376C49.3553 42.4656 49.3127 42.408 49.3127 42.336C49.3127 42.048 49.3127 41.76 49.3127 41.4864C49.3127 41.4432 49.3269 41.4 49.3269 41.3568C49.4262 41.2848 49.5256 41.3136 49.6249 41.3136C49.7243 41.3136 49.8236 41.3136 49.9371 41.3136C49.9513 41.3712 49.9797 41.4288 49.9797 41.472C49.9797 42.0768 49.9797 42.6816 49.9797 43.2864C49.9797 43.344 49.9939 43.4016 49.9655 43.4592C49.8804 43.6464 49.9513 43.8624 49.8662 44.064C49.7384 44.3376 49.5681 44.568 49.2985 44.712C48.9437 44.8992 48.5748 44.9424 48.1916 44.8128C47.851 44.6976 47.482 44.3808 47.3969 43.92C47.3827 43.8048 47.3401 43.704 47.3401 43.5888C47.3401 42.8832 47.3401 42.1776 47.3401 41.472C47.3401 41.4432 47.3543 41.4 47.3543 41.3712C47.5672 41.2992 47.6665 41.2992 48.0213 41.3424Z" fill="white"/>
<path d="M31.6304 44.8992C31.5878 44.9136 31.5594 44.928 31.531 44.9424C31.4033 44.9424 31.2898 44.9568 31.1621 45C31.0627 45.0288 30.9918 44.9712 30.9634 44.8704C30.9208 44.6688 30.864 44.4528 30.8215 44.2512C30.7931 44.1504 30.7647 44.064 30.7363 43.9632C30.4809 43.92 29.899 43.9056 29.5159 43.9488C29.4307 44.2656 29.3456 44.5968 29.2462 44.928C29.1611 44.9424 29.0618 44.9424 28.9624 44.9712C28.8773 45 28.7921 45.0288 28.707 44.9856C28.6502 44.9136 28.6786 44.8416 28.6928 44.7696C28.8489 44.1792 29.0334 43.6032 29.2179 43.0272C29.374 42.5664 29.5443 42.12 29.7429 41.6736C29.7713 41.616 29.7997 41.5584 29.8423 41.4864C30.041 41.472 30.2254 41.4576 30.4241 41.4432C30.9634 42.5232 31.3182 43.704 31.6304 44.8992ZM30.1687 42.0912C29.9274 42.48 29.7429 43.0272 29.6578 43.5024C29.9416 43.5024 30.2113 43.5024 30.4951 43.5024C30.5235 43.5024 30.5518 43.488 30.5944 43.4736C30.4951 43.0128 30.339 42.5808 30.1687 42.0912Z" fill="white"/>
<path d="M61.5456 41.4576C61.7443 41.4432 61.9287 41.4288 62.1274 41.4144C62.6667 42.5232 63.0215 43.704 63.3337 44.8992C63.2769 44.9136 63.2343 44.928 63.1918 44.928C63.0924 44.9424 62.9931 44.928 62.8937 44.9712C62.7802 45.0144 62.6951 44.9568 62.6667 44.8128C62.6099 44.5104 62.5532 44.2224 62.4396 43.9344C62.17 43.8912 61.5881 43.8912 61.205 43.92C61.0915 44.2224 61.0347 44.568 60.9495 44.8992C60.8502 44.9136 60.7509 44.928 60.6657 44.9568C60.5806 44.9856 60.4954 45.0144 60.4103 44.9712C60.3535 44.8992 60.3819 44.8272 60.3961 44.7408C60.5664 44.1216 60.7509 43.5024 60.9637 42.8976C61.1056 42.4656 61.2759 42.048 61.4604 41.6304C61.4746 41.5728 61.5172 41.5152 61.5456 41.4576ZM61.8578 42.0768C61.7301 42.264 61.6733 42.408 61.6165 42.552C61.574 42.7104 61.4746 42.8688 61.4462 43.0272C61.4178 43.1712 61.3185 43.3152 61.3469 43.488C61.6591 43.488 61.9713 43.5168 62.2835 43.4736C62.1984 43.0128 62.0281 42.5808 61.8578 42.0768Z" fill="white"/>
<path d="M41.9474 41.3136C42.586 41.3136 43.2246 41.3136 43.8774 41.3136C43.8916 41.3712 43.9058 41.4144 43.9058 41.472C43.9058 41.5872 43.9058 41.7024 43.9058 41.7888C43.849 41.8608 43.7923 41.8464 43.7355 41.8464C43.4091 41.8464 43.0827 41.8464 42.7563 41.8464C42.6854 41.8464 42.6002 41.8464 42.5435 41.8608C42.5293 41.904 42.5009 41.9184 42.5009 41.9328C42.5009 42.2064 42.5009 42.48 42.5009 42.768C42.5576 42.7824 42.6144 42.7968 42.657 42.7968C42.9408 42.7968 43.2246 42.7968 43.4943 42.7968C43.5652 42.7968 43.6504 42.7968 43.7213 42.8112C43.7639 42.984 43.7639 42.984 43.7355 43.2C43.6078 43.2288 43.4801 43.2144 43.3382 43.2144C43.2104 43.2144 43.0685 43.2144 42.9408 43.2144C42.8131 43.2144 42.6712 43.2144 42.5718 43.2144C42.4867 43.272 42.5009 43.3296 42.5009 43.3872C42.5009 43.6608 42.5009 43.9344 42.5009 44.208C42.5009 44.2224 42.5151 44.2512 42.5293 44.2944C42.6712 44.3376 42.8273 44.3088 42.9834 44.3232C43.1537 44.3232 43.324 44.3232 43.4943 44.3232C43.6504 44.3232 43.8065 44.3232 43.9768 44.3232C44.0052 44.3808 44.0477 44.424 44.0477 44.4816C44.0619 44.5968 44.0477 44.712 44.0477 44.8272C43.991 44.8416 43.9626 44.856 43.92 44.856C43.2956 44.856 42.657 44.856 42.0326 44.856C42.0042 44.856 41.9758 44.8416 41.9474 44.8416C41.9332 44.8128 41.9048 44.7984 41.9048 44.784C41.9048 43.6608 41.9048 42.5376 41.9048 41.4C41.9048 41.3856 41.919 41.3568 41.9332 41.3424C41.919 41.328 41.9332 41.328 41.9474 41.3136Z" fill="white"/>
<path d="M55.6988 44.3232C55.6988 44.5104 55.6988 44.6544 55.6988 44.8128C55.6562 44.8272 55.6136 44.8416 55.571 44.8416C54.9466 44.8416 54.3364 44.8416 53.712 44.8416C53.6978 44.8416 53.6694 44.8272 53.6268 44.8128C53.6126 44.784 53.5984 44.7408 53.5984 44.6976C53.5984 43.6032 53.5984 42.5088 53.5984 41.4144C53.5984 41.3856 53.6126 41.3568 53.6126 41.328C53.8539 41.2848 54.904 41.2704 55.5852 41.2992C55.5994 41.3424 55.6136 41.4 55.6136 41.4576C55.6136 41.5728 55.6136 41.688 55.6136 41.7744C55.5568 41.8464 55.5001 41.832 55.4433 41.832C55.1169 41.832 54.7905 41.832 54.4641 41.832C54.3932 41.832 54.308 41.832 54.2512 41.8464C54.2371 41.8896 54.2087 41.904 54.2087 41.9184C54.2087 42.192 54.2087 42.4656 54.2087 42.7536C54.2654 42.768 54.3222 42.7824 54.3648 42.7824C54.6344 42.7824 54.904 42.7824 55.1737 42.7824C55.2446 42.7824 55.3298 42.7968 55.4007 42.7968C55.5285 42.912 55.4859 43.0272 55.4717 43.1568C55.3582 43.2144 55.2588 43.1856 55.1595 43.1856C55.0601 43.1856 54.9608 43.1856 54.8615 43.1856C54.7621 43.1856 54.6628 43.1856 54.5635 43.1856C54.4641 43.1856 54.3648 43.1856 54.2512 43.1856C54.2371 43.2432 54.2229 43.3008 54.2229 43.3584C54.2229 43.6464 54.2229 43.9488 54.2229 44.2512C54.2938 44.2656 54.3364 44.28 54.3932 44.28C54.7479 44.28 55.0885 44.28 55.4433 44.28C55.5143 44.3232 55.5994 44.3232 55.6988 44.3232Z" fill="white"/>
<path d="M39.8613 41.9472C39.7762 42.0336 39.6768 42.1344 39.5775 42.2352C39.6059 42.3072 39.6201 42.3792 39.6627 42.4224C39.8188 42.624 40.06 42.7104 40.2871 42.7968C40.3722 42.8256 40.4574 42.8544 40.5425 42.8832C40.8405 42.9552 41.0676 43.1136 41.2521 43.3728C41.3088 43.5312 41.3514 43.6896 41.3514 43.8624C41.3514 44.2656 41.1669 44.5536 40.8121 44.7264C40.6277 44.8128 40.4432 44.8704 40.2303 44.8704C39.9323 44.8704 39.6343 44.8416 39.3363 44.7408C39.2795 44.7264 39.2227 44.7264 39.166 44.712C39.0099 44.5536 39.0666 44.352 39.0524 44.1504C39.2511 44.136 39.4356 44.208 39.6059 44.2512C39.8613 44.3088 40.1168 44.3088 40.3722 44.3088C40.4006 44.3088 40.4432 44.3088 40.4716 44.2944C40.6419 44.208 40.7412 44.064 40.798 43.8624C40.7696 43.6752 40.656 43.5312 40.4716 43.4448C40.3722 43.4016 40.2871 43.3584 40.1877 43.3296C39.9465 43.2432 39.7052 43.1424 39.4782 43.0128C39.3788 42.9552 39.2937 42.8832 39.2227 42.7968C39.1518 42.696 39.095 42.5808 39.1092 42.4512C39.1092 42.3648 39.1092 42.264 39.1092 42.1776C39.1376 41.8464 39.2937 41.5872 39.5917 41.4576C39.9607 41.2992 40.358 41.2128 40.7696 41.3424C40.8263 41.3568 40.8973 41.3568 40.9682 41.3568C41.025 41.3712 41.0818 41.3712 41.1244 41.4C41.1669 41.4144 41.1953 41.4432 41.2379 41.472C41.2521 41.6304 41.2521 41.7888 41.2379 41.9328C41.1953 41.9472 41.1811 41.976 41.1669 41.9616C41.0392 41.9472 40.8973 41.9328 40.7696 41.8896C40.4857 41.8032 40.1735 41.832 39.8613 41.9472Z" fill="white"/>
<path d="M33.5746 43.7472C33.4469 43.5312 33.2482 43.4448 33.0495 43.3584C32.8224 43.2576 32.5954 43.1712 32.3683 43.0848C31.971 42.9264 31.8291 42.4368 31.9426 42.0624C31.9568 42.0048 31.9852 41.9328 31.9993 41.8752C32.1555 41.6736 32.3116 41.5152 32.5528 41.4288C32.8508 41.3136 33.163 41.2848 33.4752 41.328C33.5888 41.3424 33.6881 41.3712 33.8016 41.3712C33.901 41.3712 33.9719 41.4144 34.0429 41.4864C34.0571 41.6448 34.0571 41.7888 34.0429 41.9472C33.9294 42.0048 33.8584 41.9184 33.7733 41.9184C33.7023 41.9184 33.6172 41.9184 33.5462 41.8896C33.3191 41.8176 33.1063 41.8608 32.8792 41.8608C32.8224 41.8608 32.7515 41.904 32.6947 41.9328C32.6521 41.9616 32.5954 41.9904 32.567 42.048C32.5244 42.1056 32.4819 42.1632 32.4677 42.2208C32.4535 42.2784 32.4535 42.3504 32.4393 42.408C32.496 42.5376 32.5954 42.5952 32.6947 42.6528C32.865 42.7536 33.0637 42.8256 33.2482 42.8832C33.3759 42.9264 33.5036 42.9696 33.6313 43.0272C33.7449 43.0848 33.8442 43.1568 33.9577 43.2432C34.0145 43.3584 34.0713 43.5024 34.128 43.632C34.1848 43.776 34.2132 43.92 34.1422 44.0496C34.1422 44.28 34.0003 44.4528 33.8442 44.5968C33.7733 44.6688 33.6881 44.712 33.5888 44.7552C33.2198 44.9136 32.8508 44.9136 32.4677 44.8272C32.2974 44.784 32.1129 44.7552 31.9284 44.7264C31.8716 44.5392 31.9 44.3664 31.9 44.1936C31.9852 44.1504 32.0561 44.1936 32.1271 44.2224C32.4677 44.3232 32.8082 44.3664 33.1488 44.352C33.2624 44.352 33.3617 44.2944 33.461 44.2368C33.5746 44.0784 33.6172 43.92 33.5746 43.7472Z" fill="white"/>
<path d="M46.0061 41.7168C45.9352 41.7168 45.8642 41.7312 45.7791 41.7168C45.4669 41.6736 45.1121 42.0192 45.0695 42.2784C45.0411 42.4368 44.9702 42.6096 44.9844 42.7824C44.9844 42.8256 44.9986 42.8832 44.9844 42.912C44.9134 43.0848 44.9418 43.2432 44.9844 43.416C45.0128 43.5456 45.0128 43.6896 45.0695 43.8192C45.183 44.136 45.4243 44.3232 45.7507 44.3232C46.0061 44.3376 46.2616 44.3232 46.5028 44.208C46.5738 44.1792 46.6447 44.1648 46.7441 44.2224C46.7583 44.3376 46.7583 44.4672 46.7441 44.5968C46.6589 44.6832 46.5596 44.6976 46.4745 44.7408C46.1481 44.8704 45.8217 44.8848 45.4811 44.856C45.0411 44.8128 44.7005 44.5968 44.5161 44.1648C44.4451 43.992 44.3883 43.8336 44.3883 43.6464C44.3883 43.488 44.3458 43.3296 44.3316 43.1712C44.3316 43.0128 44.3741 42.8544 44.4025 42.696C44.4451 42.264 44.6012 41.8896 44.9418 41.6016C45.0837 41.472 45.254 41.3856 45.4527 41.3568C45.623 41.328 45.7791 41.2848 45.9494 41.2848C46.219 41.2992 46.4886 41.2704 46.7725 41.3136C46.7867 41.3856 46.8292 41.4432 46.8292 41.5008C46.8292 41.8176 46.8292 42.1344 46.8292 42.4512C46.6447 42.5808 46.6447 42.5808 46.4035 42.552C46.3467 42.48 46.3609 42.3936 46.3609 42.3216C46.3609 42.0912 46.2616 41.8896 46.0061 41.7168Z" fill="white"/>
<path d="M57.3024 17.1216C57.3308 17.568 57.3308 18.72 57.2882 18.9792C57.2598 18.9936 57.2314 19.008 57.203 19.008C56.607 19.0368 55.7697 19.0224 55.5285 18.9792C55.5143 18.9648 55.5143 18.9648 55.5001 18.9504C55.5001 18.936 55.4859 18.936 55.4859 18.9216C55.4859 18.3456 55.4859 17.7696 55.4859 17.1792C55.4859 17.1648 55.5001 17.136 55.5143 17.1072C55.5427 17.0928 55.5711 17.0784 55.5994 17.0784C56.238 17.064 57.0469 17.0784 57.3024 17.1216Z" fill="white"/>
<path d="M55.5285 21.4704C55.5001 21.168 55.5001 19.9296 55.5285 19.584C55.5711 19.5696 55.6278 19.5552 55.6846 19.5552C56.1813 19.5552 56.6638 19.5552 57.1605 19.5552C57.2031 19.5552 57.2456 19.5696 57.3024 19.5696C57.3166 19.6272 57.3308 19.6848 57.3308 19.728C57.3308 20.2464 57.3308 20.7792 57.3308 21.2976C57.3308 21.3408 57.3166 21.384 57.3166 21.4128C57.274 21.4848 57.2172 21.4848 57.1605 21.4848C56.6638 21.4848 56.1813 21.4848 55.6846 21.4848C55.6278 21.4848 55.5853 21.4704 55.5285 21.4704Z" fill="white"/>
<path d="M58.9486 42.9552C59.1047 42.9552 59.2324 42.9552 59.3601 42.9552C59.4878 42.9552 59.6297 42.9552 59.7575 42.9552C59.871 42.9552 59.9987 42.9408 60.1264 42.9696C60.1548 43.0848 60.1406 43.2 60.1406 43.2864C60.0839 43.3584 60.0271 43.344 59.9703 43.344C59.7007 43.344 59.4311 43.344 59.1614 43.344C59.0905 43.344 59.0337 43.344 58.9911 43.3584C58.9627 43.3872 58.9486 43.3872 58.9486 43.4016C58.9486 43.416 58.9344 43.4304 58.9344 43.4304C58.9344 43.8912 58.9344 44.3376 58.9344 44.8128C58.8776 44.8272 58.8208 44.8416 58.7641 44.856C58.608 44.856 58.4519 44.856 58.2958 44.856C58.239 44.712 58.239 44.568 58.2816 44.4384C58.3241 44.28 58.3241 44.1216 58.3241 43.9632C58.3241 43.1856 58.3241 42.4224 58.3241 41.6448C58.3241 41.544 58.3241 41.4432 58.3383 41.3568C58.3667 41.3424 58.3809 41.3136 58.4093 41.3136C58.8492 41.2848 60.0839 41.2992 60.3393 41.3424C60.3677 41.4864 60.3535 41.6448 60.3535 41.8176C60.2967 41.832 60.24 41.8464 60.1974 41.8464C59.8852 41.8464 59.573 41.8464 59.2608 41.8464C59.1756 41.8464 59.0905 41.8464 58.9911 41.8608C58.9202 41.976 58.9486 42.0912 58.9486 42.2064C58.9486 42.336 58.9486 42.4512 58.9486 42.5808C58.9486 42.696 58.9486 42.7968 58.9486 42.9552Z" fill="white"/>
<path d="M27.1885 43.3728C27.1885 43.8768 27.1885 44.352 27.1885 44.8272C27.1318 44.8416 27.075 44.856 27.0324 44.8704C26.9047 44.8704 26.7628 44.8704 26.6634 44.8704C26.5783 44.8128 26.5925 44.7552 26.5925 44.6976C26.5925 43.632 26.5925 42.552 26.5925 41.4864C26.5925 41.4432 26.6067 41.4 26.6067 41.3568C26.6351 41.3424 26.6493 41.3136 26.6634 41.3136C27.075 41.2848 28.338 41.2992 28.5935 41.3424C28.6218 41.4864 28.6076 41.6448 28.6076 41.8176C28.5509 41.832 28.5083 41.8464 28.4515 41.8464C28.1393 41.8464 27.8271 41.8464 27.5149 41.8464C27.4298 41.8464 27.3446 41.8464 27.2453 41.8608C27.1743 41.976 27.2027 42.0912 27.2027 42.2064C27.2027 42.336 27.2027 42.4512 27.2027 42.5808C27.2027 42.696 27.2027 42.7968 27.2169 42.9264C27.3446 42.9696 27.4723 42.9552 27.6001 42.9552C27.7278 42.9552 27.8697 42.9552 27.9974 42.9552C28.1251 42.9552 28.2387 42.9552 28.3664 42.9552C28.4515 43.0704 28.409 43.2 28.409 43.3008C28.3522 43.3728 28.2954 43.3584 28.2387 43.3584C27.969 43.3584 27.6994 43.3584 27.4298 43.3584C27.3446 43.3584 27.2879 43.3728 27.1885 43.3728Z" fill="white"/>
<path d="M53.1727 17.1216C53.414 17.0928 54.4499 17.0784 54.8047 17.0928C54.8331 17.0928 54.8615 17.1072 54.904 17.1216C54.9182 17.1504 54.9324 17.1936 54.9324 17.2224C54.9324 17.784 54.9324 18.36 54.9324 18.9216C54.9324 18.936 54.9182 18.9648 54.904 18.9792C54.8899 18.9936 54.8615 19.008 54.8473 19.008C54.3364 19.008 53.8397 19.008 53.3288 19.008C53.2862 19.008 53.2437 18.9936 53.2153 18.9936C53.2011 18.9648 53.1727 18.9504 53.1727 18.9216C53.1301 18.5904 53.1443 17.3808 53.1727 17.1216Z" fill="white"/>
<path d="M54.9041 21.456C54.5777 21.4992 53.4991 21.4992 53.1727 21.456C53.1585 21.4128 53.1443 21.3552 53.1443 21.2976C53.1443 20.7792 53.1443 20.2464 53.1443 19.728C53.1443 19.6848 53.1585 19.6416 53.1585 19.5984C53.1869 19.584 53.2153 19.5552 53.2579 19.5552C53.7688 19.5552 54.2938 19.5552 54.8047 19.5552C54.8189 19.5552 54.8473 19.5696 54.8615 19.5696C54.9183 19.6128 54.9183 19.6704 54.9183 19.728C54.9183 20.2464 54.9183 20.7792 54.9183 21.2976C54.9183 21.3408 54.9041 21.384 54.9041 21.456Z" fill="white"/>
<path d="M35.3911 41.8752C35.2208 41.8464 35.0647 41.8608 34.9086 41.8608C34.7525 41.8608 34.5964 41.8752 34.4261 41.8464C34.3835 41.688 34.4119 41.5296 34.4119 41.3568C34.4544 41.3424 34.497 41.3136 34.5396 41.3136C35.3201 41.3136 36.0864 41.3136 36.867 41.3136C36.8812 41.3136 36.9095 41.328 36.9521 41.328C36.9947 41.4864 36.9805 41.6448 36.9663 41.8176C36.8528 41.8752 36.7534 41.8464 36.6541 41.8464C36.5689 41.8464 36.4696 41.8464 36.3845 41.8464C36.2851 41.8464 36.1858 41.8464 36.0722 41.8464C36.0297 42.0192 35.9729 42.1632 35.9729 42.336C35.9729 42.8544 35.9729 43.3584 35.9729 43.8768C35.9729 43.9488 35.9871 44.0064 35.9871 44.0784C36.0013 44.1504 36.0155 44.2368 36.0155 44.3088C36.0155 44.4816 36.0297 44.64 36.0155 44.8128C35.902 44.8704 35.8026 44.8416 35.7033 44.856C35.6039 44.856 35.5046 44.856 35.3911 44.856C35.3769 44.7984 35.3627 44.7408 35.3627 44.6832C35.3627 44.496 35.3627 44.2944 35.3627 44.1072C35.3627 44.0352 35.3769 43.9776 35.3911 43.9056C35.4053 43.8336 35.4194 43.776 35.4194 43.704C35.4194 43.128 35.4194 42.5376 35.4194 41.9616C35.4053 41.9472 35.3911 41.9328 35.3911 41.8752Z" fill="white"/>
<path d="M64.3838 44.856C64.1709 44.856 63.9865 44.856 63.7736 44.856C63.7594 44.7984 63.7452 44.7552 63.7452 44.6976C63.7452 44.5248 63.7168 44.352 63.7878 44.1936C63.8162 44.1216 63.802 44.0352 63.802 43.9632C63.802 43.2576 63.802 42.552 63.802 41.8464C63.802 41.7168 63.802 41.5728 63.7594 41.4432C63.7452 41.4144 63.7736 41.3856 63.7736 41.3568C63.802 41.3424 63.8162 41.328 63.8445 41.328C64.029 41.328 64.1993 41.328 64.398 41.328C64.4122 41.3712 64.4264 41.4144 64.4264 41.4576C64.4264 42.552 64.4264 43.6464 64.4264 44.7408C64.4122 44.7552 64.398 44.784 64.3838 44.856Z" fill="white"/>
<path d="M37.0372 43.7328C37.0372 43.6176 37.0372 43.5168 37.0372 43.416C37.0656 43.4016 37.1082 43.3728 37.1366 43.3728C37.5907 43.3728 38.0306 43.3728 38.4848 43.3728C38.4989 43.3728 38.5273 43.3872 38.5557 43.4016C38.5841 43.5024 38.5699 43.6176 38.5557 43.7328C38.5273 43.7472 38.4989 43.776 38.4706 43.776C38.0164 43.776 37.5765 43.776 37.1224 43.776C37.1082 43.7616 37.094 43.7472 37.0372 43.7328Z" fill="white"/>
<path d="M57.572 43.7472C57.2598 43.7904 56.3799 43.7904 56.0677 43.7472C56.0677 43.704 56.0535 43.6752 56.0535 43.632C56.0535 43.5888 56.0677 43.5456 56.0819 43.5024C56.0961 43.4592 56.1245 43.4304 56.1529 43.3728C56.6212 43.3728 57.0895 43.3584 57.572 43.3872C57.6004 43.5024 57.6004 43.6032 57.572 43.7472Z" fill="white"/>
<path d="M91.8864 33.0192C91.8581 32.976 91.8297 32.9472 91.7871 32.8896C91.8439 32.8464 91.8723 32.8032 91.9148 32.76C91.9432 32.7888 91.9858 32.8032 91.9858 32.8176C92.0142 32.9184 91.9716 32.976 91.8864 33.0192Z" fill="white"/>
<path d="M48.8728 10.8288C48.9012 11.2608 48.9012 12.0096 48.8586 12.2832C48.8302 12.2976 48.8018 12.312 48.7734 12.312C48.2342 12.3408 47.6807 12.3264 47.4395 12.2832C47.4253 12.2544 47.4111 12.2256 47.4111 12.1968C47.4111 11.7504 47.3969 11.2896 47.4253 10.8432C47.4678 10.8288 47.4962 10.8 47.5246 10.8C48.0213 10.7712 48.6315 10.7856 48.8728 10.8288Z" fill="white"/>
<path d="M47.4111 12.744C47.7375 12.7008 48.5889 12.7008 48.8586 12.744C48.9153 12.888 48.8728 13.0464 48.887 13.2048C48.887 13.3776 48.887 13.5504 48.887 13.7088C48.887 13.8672 48.9012 14.0256 48.8728 14.184C48.8302 14.1984 48.8018 14.2272 48.7734 14.2272C48.3477 14.2272 47.922 14.2272 47.4962 14.2272C47.482 14.2272 47.4536 14.2128 47.4111 14.1984C47.3685 14.0544 47.3969 13.896 47.3827 13.7376C47.3827 13.5648 47.3827 13.392 47.3827 13.2336C47.4111 13.0752 47.4111 12.9168 47.4111 12.744Z" fill="white"/>
<path d="M37.5623 6.45121C37.5623 6.94081 37.5623 7.40161 37.5623 7.87681C37.5339 7.93441 37.4914 7.99201 37.4204 7.99201C37.0231 7.99201 36.6115 7.99201 36.2 7.99201C36.1858 7.94881 36.1574 7.90561 36.1574 7.86241C36.1574 7.41601 36.1574 6.96961 36.1574 6.53761C36.1574 6.52321 36.1716 6.49441 36.1858 6.45121C36.2142 6.43681 36.2567 6.42241 36.2993 6.42241C36.6825 6.42241 37.0656 6.42241 37.4488 6.42241C37.463 6.42241 37.4914 6.43681 37.5623 6.45121Z" fill="white"/>
<path d="M39.4498 4.536C39.4498 5.02561 39.4498 5.48641 39.4498 5.96161C39.4214 6.03361 39.3788 6.07681 39.2937 6.07681C38.9389 6.07681 38.5699 6.07681 38.2151 6.07681C38.1584 6.07681 38.1158 6.04801 38.0732 6.03361C38.0306 5.77441 38.0306 4.91041 38.059 4.55041C38.0874 4.53601 38.1158 4.5216 38.1442 4.5216C38.5415 4.5216 38.9247 4.5216 39.322 4.5216C39.3504 4.5072 39.3788 4.5216 39.4498 4.536Z" fill="white"/>
<path d="M36.1716 6.0192C36.1574 5.976 36.1432 5.9328 36.1432 5.904C36.1432 5.4864 36.1432 5.0544 36.1432 4.6368C36.1432 4.608 36.1574 4.5792 36.1574 4.5504C36.1858 4.536 36.2 4.5072 36.2142 4.5072C36.6115 4.5072 37.0231 4.5072 37.4204 4.5072C37.4488 4.5072 37.4772 4.5216 37.5056 4.536C37.5481 4.8096 37.5481 5.4288 37.5198 5.976C37.4914 6.048 37.4346 6.0768 37.3637 6.0768C37.0089 6.0768 36.6399 6.0768 36.2851 6.0768C36.2709 6.0768 36.2142 6.0336 36.1716 6.0192Z" fill="white"/>
<path d="M38.0448 6.45122C38.3712 6.40802 39.1659 6.42242 39.4214 6.45122C39.4356 6.49442 39.4498 6.52321 39.4498 6.56641C39.4498 6.96961 39.4498 7.35842 39.4498 7.76162C39.4498 7.84802 39.4498 7.92002 39.3362 7.97762C38.9531 7.99202 38.5415 8.02082 38.1158 7.90562C38.1016 7.86242 38.0448 7.80481 38.0448 7.74721C38.0306 7.32961 38.0306 6.89761 38.0448 6.45122Z" fill="white"/>
<path d="M49.3269 10.8288C49.6391 10.7856 50.4054 10.8 50.7034 10.8288C50.7602 10.9728 50.7176 11.1312 50.7318 11.2896C50.7318 11.4624 50.7318 11.6352 50.7318 11.7936C50.7318 11.952 50.7318 12.1104 50.7318 12.2688C50.6892 12.2832 50.6609 12.312 50.6325 12.312C50.2351 12.312 49.8236 12.312 49.4262 12.312C49.412 12.312 49.3836 12.2976 49.3553 12.2832C49.2843 12.1392 49.3269 11.9808 49.3269 11.8224C49.3127 11.6496 49.3269 11.4768 49.3269 11.3184C49.3127 11.16 49.2985 11.0016 49.3269 10.8288Z" fill="white"/>
<path d="M50.7318 14.1984C50.4338 14.2416 49.6675 14.2416 49.3553 14.2128C49.3411 14.1696 49.3269 14.1408 49.3269 14.0976C49.3269 13.68 49.3269 13.2624 49.3269 12.8304C49.3269 12.816 49.3411 12.7872 49.3553 12.744C49.3836 12.7296 49.4262 12.7152 49.4688 12.7152C49.8661 12.7152 50.2493 12.7152 50.6467 12.7152C50.6609 12.7152 50.6892 12.7296 50.7034 12.7296C50.7176 12.744 50.746 12.7584 50.746 12.7872C50.7318 13.248 50.7318 13.7232 50.7318 14.1984Z" fill="white"/>
</g>
<defs>
<filter id="filter0_d_13_357" x="0" y="1.52588e-05" width="96" height="53" filterUnits="userSpaceOnUse" color-interpolation-filters="sRGB">
<feFlood flood-opacity="0" result="BackgroundImageFix"/>
<feColorMatrix in="SourceAlpha" type="matrix" values="0 0 0 0 0 0 0 0 0 0 0 0 0 0 0 0 0 0 127 0" result="hardAlpha"/>
<feOffset dy="4"/>
<feGaussianBlur stdDeviation="2"/>
<feComposite in2="hardAlpha" operator="out"/>
<feColorMatrix type="matrix" values="0 0 0 0 0 0 0 0 0 0 0 0 0 0 0 0 0 0 0.25 0"/>
<feBlend mode="normal" in2="BackgroundImageFix" result="effect1_dropShadow_13_357"/>
<feBlend mode="normal" in="SourceGraphic" in2="effect1_dropShadow_13_357" result="shape"/>
</filter>
<clipPath id="clip0_13_357">
<rect width="88" height="45" fill="white" transform="translate(4 1.52588e-05)"/>
</clipPath>
</defs>
</svg>
