<svg width="18" height="16" viewBox="0 0 18 16" fill="none" xmlns="http://www.w3.org/2000/svg">
<g clip-path="url(#clip0_62_8858)">
<path d="M0.876432 1.87384C0.876432 1.97032 0.876432 2.04453 0.876432 2.11503C0.876432 5.84416 0.876432 9.57328 0.876432 13.3024C0.876432 14.1707 1.35147 14.8275 2.13216 15.0464C2.27946 15.0872 2.43412 15.1095 2.58511 15.1095C3.88502 15.1132 5.18126 15.1132 6.48118 15.1132C7.44967 15.1095 8.19354 14.3636 8.19354 13.3878C8.19722 9.59555 8.19354 5.80705 8.19354 2.01484C8.19354 1.93692 8.19354 1.85529 8.19354 1.7551C8.27087 1.75139 8.33715 1.74768 8.39975 1.74768C11.0953 1.74768 13.7909 1.74768 16.4865 1.74768C17.374 1.74768 17.9963 2.36364 17.9963 3.25417C18 6.99443 18 10.7384 17.9963 14.4787C17.9963 15.3729 17.3777 15.9926 16.4939 15.9926C11.5004 15.9926 6.50696 15.9926 1.5135 15.9926C0.618658 16 0 15.3803 0 14.475C0 10.7347 0 6.99072 0.00368249 3.25046C0.00368249 2.69017 0.231997 2.24861 0.714403 1.95547C0.75491 1.92579 0.806465 1.90724 0.876432 1.87384ZM16.2655 6.09647C16.2655 5.22078 16.2655 4.35621 16.2655 3.49536C13.8977 3.49536 11.5446 3.49536 9.19517 3.49536C9.19517 4.37106 9.19517 5.23191 9.19517 6.09647C11.5593 6.09647 13.9088 6.09647 16.2655 6.09647ZM10.6571 10.6419C10.6608 10.2301 10.3404 9.8961 9.93535 9.88868C9.53396 9.88126 9.19517 10.2152 9.18781 10.6197C9.18044 11.0241 9.51187 11.3692 9.91326 11.3729C10.3183 11.3766 10.6498 11.0501 10.6571 10.6419ZM10.6571 7.99258C10.6571 7.58441 10.3294 7.25788 9.92062 7.25788C9.51555 7.25788 9.18412 7.59184 9.18781 8C9.19149 8.40445 9.53396 8.74583 9.92799 8.74211C10.3257 8.7384 10.6571 8.40074 10.6571 7.99258ZM15.5401 7.25788C15.1313 7.25788 14.8073 7.58441 14.8073 7.99629C14.8073 8.40445 15.1424 8.74211 15.5401 8.74211C15.9378 8.74211 16.2766 8.39703 16.2766 7.99629C16.2803 7.58813 15.9452 7.25788 15.5401 7.25788ZM9.91326 14.0037C10.3257 14.0074 10.6534 13.6846 10.6571 13.2764C10.6608 12.8683 10.3367 12.5306 9.93167 12.5232C9.53396 12.5158 9.19149 12.8534 9.18412 13.2579C9.17676 13.666 9.50818 14.0037 9.91326 14.0037ZM14.8073 10.6271C14.8073 11.039 15.1313 11.3729 15.5364 11.3729C15.9378 11.3729 16.2766 11.0427 16.2803 10.6382C16.284 10.2375 15.9489 9.89239 15.5475 9.89239C15.1387 9.88497 14.8073 10.2152 14.8073 10.6271ZM15.5364 14.0037C15.9452 14.0037 16.2766 13.6772 16.2803 13.269C16.284 12.8683 15.9452 12.5232 15.5475 12.5195C15.1461 12.5158 14.811 12.8497 14.811 13.2579C14.8036 13.6772 15.1277 14.0037 15.5364 14.0037ZM13.4632 10.6345C13.4632 10.2263 13.1391 9.89239 12.734 9.88868C12.329 9.88868 12.0049 10.2152 12.0012 10.6308C12.0012 11.0464 12.3216 11.3729 12.7304 11.3729C13.1354 11.3729 13.4595 11.0427 13.4632 10.6345ZM13.4632 8C13.4669 7.58813 13.1428 7.25788 12.7377 7.25788C12.3253 7.25417 12.0049 7.57699 12.0049 7.99258C12.0012 8.40445 12.329 8.7384 12.7304 8.74211C13.1281 8.74211 13.4595 8.40816 13.4632 8ZM12.723 14.0037C13.1354 14.0037 13.4558 13.6846 13.4595 13.2727C13.4632 12.8646 13.1391 12.5269 12.734 12.5232C12.3327 12.5195 12.0012 12.8497 11.9975 13.2616C11.9975 13.6809 12.3142 14.0037 12.723 14.0037Z" fill="#DA5A06"/>
<path d="M7.63751 7.27644C7.63751 9.29499 7.63751 11.3135 7.63751 13.3321C7.63751 14.0779 7.16247 14.5566 6.4186 14.5566C5.16288 14.5566 3.90715 14.5566 2.65142 14.5566C1.91492 14.5566 1.42883 14.0705 1.42883 13.3321C1.42883 9.30241 1.42883 5.26902 1.42883 1.23933C1.42883 0.489796 1.9186 0 2.66247 0C3.91083 0 5.16288 0 6.41124 0C7.15878 0 7.63751 0.482375 7.63751 1.23933C7.63751 3.25046 7.63751 5.26531 7.63751 7.27644Z" fill="#DA5A06"/>
</g>
<defs>
<clipPath id="clip0_62_8858">
<rect width="18" height="16" fill="white"/>
</clipPath>
</defs>
</svg>
