<svg width="13" height="21" viewBox="0 0 13 21" fill="none" xmlns="http://www.w3.org/2000/svg">
<path d="M11.6094 20.2341C12.0041 20.1233 12.372 19.9807 12.6367 19.6759C12.852 19.4265 12.9731 19.1533 12.9955 18.8405C13 18.7732 13 18.7098 13 18.6425C13 12.9532 13 7.26379 13 1.57441C13 0.929062 12.7084 0.43812 12.049 0.153058C11.8337 0.0619961 11.578 0.00656797 11.3402 0.00656797C8.11495 -0.00135043 4.89414 -0.00135067 1.66884 0.00260853C0.717842 0.00260853 0.0135697 0.655877 0.00908391 1.51502C0.00908391 4.25479 0.00908391 6.99456 0.00908391 9.73433C0.00908391 12.676 0.0270272 15.6217 0.000112278 18.5633C-0.00885935 19.4027 0.520467 20.056 1.35931 20.2143C1.37277 20.2183 1.38623 20.2262 1.3952 20.2341C4.79993 20.2341 8.20467 20.2341 11.6094 20.2341ZM1.27857 17.7359C1.27857 13.0917 1.27857 8.47134 1.27857 3.85095C4.76853 3.85095 8.24504 3.85095 11.726 3.85095C11.726 8.48718 11.726 13.1115 11.726 17.7359C8.23607 17.7359 4.76405 17.7359 1.27857 17.7359ZM8.51867 2.65923C7.15947 2.65923 5.83167 2.65923 4.4949 2.65923C4.4949 2.29499 4.4949 1.94262 4.4949 1.59025C5.84513 1.59025 7.1819 1.59025 8.51867 1.59025C8.51867 1.9545 8.51867 2.30291 8.51867 2.65923ZM8.73399 19.1533C7.23573 19.1533 5.75541 19.1533 4.27958 19.1533C4.27958 19.0107 4.27958 18.884 4.27958 18.7534C5.77335 18.7534 7.24919 18.7534 8.73399 18.7534C8.73399 18.892 8.73399 19.0147 8.73399 19.1533ZM10.2367 19.2958C10.0035 19.2998 9.81956 19.1493 9.81507 18.9474C9.81059 18.7336 9.99002 18.5713 10.2323 18.5713C10.4655 18.5713 10.636 18.7257 10.6405 18.9316C10.636 19.1414 10.47 19.2918 10.2367 19.2958Z" fill="#FD5D00"/>
</svg>
