<svg id="Layer_1" data-name="Layer 1" xmlns="http://www.w3.org/2000/svg" viewBox="0 0 390.24 387.36"><path d="M86.71,336.25c1,3.69,1.85,7.17,2.73,10.65,2.41,9.62-2,17.21-11.53,19.74-6.14,1.63-12.28,3.27-18.46,4.74-8.27,2-16.08-2.54-18.25-10.8Q28.1,310.51,15.25,260.35c-2.2-8.6,2.56-16.36,11.2-18.7,6.13-1.67,12.29-3.22,18.46-4.73,8.82-2.16,16.27,2.16,18.83,10.83.49,1.67.94,3.36,1.43,5,.06.22.29.39.59.75Q90,247,114.33,240.43c10.17-2.76,20.49-5.27,31-2.81A53.32,53.32,0,0,1,161,244.25c15.56,9.65,30.81,19.81,46.22,29.71a64.75,64.75,0,0,0,6,3.09c14.13,7.21,18.16,23.14,9.12,36.05-.34.48-.67,1-1.7,2.46,4-.74,7-1.11,9.9-1.88,24.91-6.64,49.77-13.48,74.72-20A50.64,50.64,0,0,1,330,293.2c11.46,2.76,19.14,11.48,19.54,22.15.46,12.49-6.44,22.65-18.08,26.15q-62.09,18.62-124.22,37.11c-13.8,4.13-26.83,2.35-39.24-4.84-21.57-12.48-43.25-24.79-64.7-37.49-4.17-2.47-7.84-3.16-12.18-1.36A43.5,43.5,0,0,1,86.71,336.25Zm-3.07-11.78c3.58-1,6.86-1.63,10-2.72,4-1.38,7.35-.65,11,1.47,22.91,13.39,46,26.56,68.9,39.92,9.55,5.56,19.51,7.25,30.17,4.06q62.46-18.65,124.88-37.44a13.16,13.16,0,0,0,6.61-5c5.9-8.94,1.35-19-9.48-20.07a57.23,57.23,0,0,0-19.23,1.15c-22.11,5.49-44.08,11.6-66,17.69-10.19,2.83-20.45,5.55-30.85,2.25a129,129,0,0,1-21.23-9.1c-10.78-5.72-21.23-12.07-31.75-18.25-3.32-1.95-4.23-5.37-2.56-8.31s5-3.81,8.45-2.05c1.21.62,2.35,1.4,3.55,2.08,10.83,6.14,21.58,12.46,32.55,18.36,6.15,3.31,12.44,1.18,15.37-4.52A11.53,11.53,0,0,0,209,288.5c-18.77-9.26-35.82-21.2-52.78-33.27a33.5,33.5,0,0,0-28-5.62c-12.14,2.75-24.14,6.09-36.19,9.24-7.78,2-15.53,4.23-23.68,6.45C73.48,285.16,78.51,304.64,83.64,324.47ZM78.41,352.2c-1-3.95-1.88-7.2-2.71-10.46l-22.77-88.3c-1.41-5.45-2-5.78-7.58-4.34-4.7,1.22-9.39,2.49-14.1,3.68-4.51,1.15-5.05,2-3.88,6.58l15,57.9q5,19.35,10,38.72c.62,2.42,1.58,4.45,4.5,3.74,6.29-1.52,12.56-3.16,18.77-5C76.75,354.4,77.59,353,78.41,352.2Z"/><path d="M372.94,110.44c0,12.6-.06,25.2,0,37.81.31,61.56-40.45,109.69-96.33,126.55-13.77,4.16-26.33,2.89-39.3-1.75-45.45-16.29-75.92-46.63-87.81-94.08a117.12,117.12,0,0,1-3.39-26.63c-.42-29.82-.15-59.65-.24-89.47,0-3.77,1.52-6,4.95-7.44,35-15,70-30.06,105.12-44.93a10,10,0,0,1,7.06,0c35.08,14.86,70.06,29.94,105.09,44.91,3.43,1.46,4.92,3.73,4.89,7.49C372.88,78.74,372.94,94.59,372.94,110.44Zm-12,2.61c0-14.72,0-29.44.05-44.16,0-2.41-.54-3.79-2.94-4.81-32-13.61-63.87-27.35-95.84-40.94A7.45,7.45,0,0,0,257,23C225,36.67,192.93,50.46,160.87,64.11c-2.32,1-3.05,2.19-3,4.7.1,26.57-.07,53.15.15,79.72a113.48,113.48,0,0,0,2,21.56c9.14,45,36.31,74.55,78.71,90.8,12,4.59,23.68,5.93,36.62,1.87,51.51-16.19,85.33-60.91,85.69-114.9C361,136.26,361,124.66,361,113.05Z"/><path d="M42,257.19a6.1,6.1,0,1,1-6.18,6A5.95,5.95,0,0,1,42,257.19Z"/><path d="M350.48,117.18c0,10-.11,20,0,29.95.67,51-32.43,92.68-81.75,106.45a31.89,31.89,0,0,1-18.61,0c-41-12.5-68.44-38.23-78.91-80.47a97.29,97.29,0,0,1-2.71-21.83c-.33-24.33-.07-48.67-.21-73,0-4.23,1.58-6.63,5.45-8.27C201,58.41,228.23,46.62,255.55,35.13a11.08,11.08,0,0,1,7.78,0c27.54,11.59,55,23.45,82.46,35.19a7,7,0,0,1,4.72,7.22C350.42,90.72,350.48,104,350.48,117.18Zm-12.66,2.59h.68c0-11.85-.14-23.71.09-35.56.07-3.21-1.17-4.54-3.87-5.69Q298.78,63.25,263,47.74a8,8,0,0,0-7,.06q-36,15.6-72.1,30.94c-2.55,1.08-3.55,2.21-3.54,5.09.14,21.46,0,42.93.13,64.39a96.15,96.15,0,0,0,1.2,15.64c6.16,35.5,26.45,60,59.36,73.66,19.75,8.17,17.22,8.21,37,0,34.32-14.29,55.22-40,59.66-77.38C339.15,146.86,337.82,133.24,337.82,119.77Z"/><path d="M327.33,136.1a67.9,67.9,0,1,1-135.79,0c0-37.57,30.66-68.17,68.1-68A68,68,0,0,1,327.33,136.1Zm-12-.22a55.92,55.92,0,1,0-55.62,56.22A56,56,0,0,0,315.35,135.88Z"/><path d="M250.7,132.77c9.08-8.87,17.72-17.34,26.4-25.77,4.39-4.27,9.63-5.74,15.48-3.83a14.49,14.49,0,0,1,10.18,11.44,13.91,13.91,0,0,1-3.68,13.15c-12.37,12.69-24.77,25.36-37.38,37.8-6,5.9-14.87,5.7-20.92-.15q-10.49-10.14-20.63-20.65a15,15,0,0,1,0-21.23c5.93-6,15.23-6,21.51,0C244.85,126.55,247.8,129.78,250.7,132.77ZM291.13,118c-.18-2.9-2.68-4.31-4.69-3.13a13.77,13.77,0,0,0-2.5,2.22Q270.64,130.53,257.35,144c-4.79,4.82-7.29,4.8-12.19-.08q-5.57-5.55-11.11-11.12c-1.55-1.56-3.29-2.58-5.19-.81s-1.11,3.58.48,5.18q9.53,9.52,19,19.05c1.94,1.95,3.79,2.08,5.8.06q17.61-17.84,35.24-35.65A13.3,13.3,0,0,0,291.13,118Z"/></svg>