<svg width="10" height="10" viewBox="0 0 10 10" fill="none" xmlns="http://www.w3.org/2000/svg">
<g clip-path="url(#clip0_59_7957)">
<path d="M10 1.66335C10 3.88999 10 6.11663 10 8.34327C9.99337 8.38966 9.98012 8.43605 9.97349 8.48244C9.79457 9.37044 9.03247 10 8.12459 10C6.04374 10 3.95626 10 1.87541 10C1.75613 10 1.64347 9.99337 1.52419 9.97349C0.649437 9.80782 0 9.03247 0 8.14447C0 6.05036 0 3.94964 0 1.85553C0 1.06693 0.510272 0.357853 1.25911 0.0994036C1.39165 0.0530152 1.53082 0.0331345 1.66335 0C3.88999 0 6.11663 0 8.34327 0C8.35653 0.00662691 8.36978 0.0132538 8.38966 0.0198807C9.15176 0.139165 9.64877 0.576541 9.91385 1.28562C9.95361 1.4049 9.97349 1.53744 10 1.66335ZM8.13784 2.611C8.09808 2.63088 8.06494 2.64414 8.03844 2.65739C7.81312 2.74354 7.58118 2.82306 7.35587 2.90921C7.2896 2.93572 7.25646 2.90921 7.21007 2.86945C6.86547 2.54473 6.45461 2.4387 6.00398 2.53148C5.34129 2.66402 4.91054 3.22068 4.91716 3.89662C4.91716 3.9894 4.93042 4.08217 4.93704 4.18158C3.79722 4.10205 2.86282 3.62492 2.12061 2.75679C1.94831 3.06826 1.90192 3.39298 1.96156 3.73095C2.02783 4.08217 2.21339 4.34725 2.49834 4.55931C2.49172 4.57256 2.48509 4.58582 2.47846 4.59245C2.27966 4.53943 2.07422 4.48642 1.86879 4.42677C1.9218 5.1226 2.29954 5.55335 2.96223 5.75878C2.96223 5.77203 2.9556 5.77866 2.9556 5.79192C2.7833 5.79192 2.60437 5.79192 2.41219 5.79192C2.65076 6.37508 3.055 6.68655 3.68456 6.73956C3.09476 7.19682 2.4387 7.36912 1.70974 7.3161C1.71637 7.32936 1.71637 7.33598 1.71637 7.33598C1.72962 7.34261 1.74288 7.35587 1.75613 7.36249C2.5381 7.82638 3.37972 7.99205 4.28098 7.87939C5.06296 7.77999 5.75878 7.4884 6.34195 6.945C7.22333 6.12326 7.66733 5.11597 7.65408 3.90987C7.65408 3.87011 7.68058 3.82372 7.70709 3.79722C7.79987 3.71107 7.9059 3.63817 7.99205 3.54539C8.10471 3.43274 8.20411 3.3002 8.32339 3.16766C8.05832 3.24056 7.81975 3.30683 7.58781 3.36647C7.58118 3.35984 7.58118 3.35321 7.57455 3.33996C7.83963 3.16766 8.03844 2.93572 8.13784 2.611Z" fill="#DA5A06"/>
</g>
<defs>
<clipPath id="clip0_59_7957">
<rect width="10" height="10" fill="white"/>
</clipPath>
</defs>
</svg>
