<svg width="89" height="33" viewBox="0 0 89 33" fill="none" xmlns="http://www.w3.org/2000/svg">
<g clip-path="url(#clip0_12_265)">
<path d="M7.21728 25.2072C6.93816 25.4856 6.65904 25.7241 6.37992 26.0024C6.22042 26.1615 6.02104 26.2807 5.7818 26.3603C5.26343 26.4795 4.74506 26.5988 4.26656 26.7578C3.98744 26.8374 3.78807 26.7578 3.62857 26.559C2.07346 24.4916 0.996851 22.1856 0.518356 19.6012C0.279109 18.2892 0.159485 16.9374 0.239235 15.6253C0.358858 13.7566 0.757604 11.9277 1.51522 10.1783C2.11334 8.78676 2.87095 7.47471 3.82794 6.3217C5.1438 4.65182 6.73879 3.30001 8.57302 2.22652C10.1281 1.35182 11.763 0.715678 13.4776 0.397606C14.1555 0.278328 14.8333 0.19881 15.5112 0.119292C16.0296 0.0397743 16.5878 1.52588e-05 17.146 1.52588e-05C19.2993 0.0795333 21.4126 0.516883 23.4063 1.39158C25.3602 2.26628 27.1147 3.45905 28.59 4.96989C30.7433 7.1964 32.1788 9.8205 32.8965 12.8422C33.2554 14.3928 33.375 15.9831 33.2952 17.5735C33.1357 19.7603 32.5775 21.8675 31.5806 23.8554C31.1021 24.8097 30.504 25.7241 29.866 26.5988C29.6268 26.9169 29.5869 26.9566 29.1483 26.7976C28.8293 26.6783 28.5103 26.5988 28.1514 26.4795C28.3109 26.241 28.4305 26.0422 28.59 25.8434C26.5963 23.6964 24.483 21.6687 22.4095 19.5615C21.2531 20.7542 20.0968 21.947 18.9404 23.1398C18.6613 22.8615 18.422 22.6229 18.1429 22.3446C19.5784 20.8735 20.974 19.4024 22.4095 17.9313C23.2867 18.6072 23.9247 19.4819 24.6823 20.2374C25.4798 20.9928 26.2374 21.788 26.9951 22.5434C27.7527 23.2988 28.5502 24.0542 29.3078 24.8097C32.5775 20.5157 33.2554 12.6434 28.3907 6.87833C22.8082 0.318087 13.2383 -0.19878 7.09766 5.00965C0.677854 10.3374 0.358858 19.0446 4.06719 24.5711C4.06719 24.3325 4.10707 24.1735 4.10707 23.9747C4.10707 20.794 4.10707 17.5735 4.10707 14.3928C4.10707 14.2735 4.10707 14.1542 4.10707 14.035C4.06719 13.7964 4.18682 13.6374 4.42606 13.5181C5.1438 13.1603 5.90142 12.8024 6.61916 12.4446C7.69578 11.9277 8.73251 11.4109 9.80913 10.894C9.96863 10.8145 10.0882 10.7747 10.3275 10.6554C10.3275 10.8542 10.3674 11.0133 10.3674 11.1723C10.3674 13.6374 10.3674 16.0627 10.3674 18.5277C10.3674 18.8458 10.3275 19.0843 10.0882 19.3229C9.33063 20.0783 8.61289 20.8337 7.89515 21.5494C6.93816 22.5434 6.02104 23.4976 5.06405 24.4916C5.02418 24.5313 4.94443 24.6109 4.90456 24.6904C4.50581 25.2072 4.50581 25.2072 5.02418 25.7241C7.53628 23.1 10.0882 20.5157 12.6402 17.8121C15.0327 20.1976 17.3853 22.5036 19.698 24.9687C19.0999 25.0482 18.6214 25.0084 18.103 24.8892C17.9435 24.8494 17.784 24.6506 17.6644 24.5313C16.1093 22.9807 14.5941 21.4301 13.0788 19.8398C12.9592 19.7205 12.8795 19.5615 12.7997 19.4819C12.6801 19.5217 12.6003 19.5217 12.6003 19.5217C11.8427 20.3169 11.0452 21.1121 10.2876 21.9072C9.56988 22.6627 8.81226 23.3783 8.09452 24.1337C7.9749 24.253 7.85527 24.4518 7.73565 24.6109C7.53628 24.8892 7.37678 25.0482 7.21728 25.2072Z" fill="white"/>
<path d="M0 29.1434C0.717742 28.8651 1.39561 28.547 2.11335 28.2687C4.42608 27.394 6.81855 26.7976 9.2509 26.3602C10.7263 26.1217 12.2016 25.9229 13.677 25.8831C15.3916 25.8434 17.1461 25.7639 18.8607 25.8036C20.8943 25.8831 22.9279 26.1615 24.9216 26.5193C27.8324 27.0759 30.7034 27.9108 33.4548 29.0241C33.5744 29.0639 33.6541 29.1036 33.7339 29.2229C33.6142 29.2229 33.5345 29.1831 33.4149 29.1831C31.9395 28.8253 30.504 28.5072 29.0287 28.1096C28.7097 28.0301 28.5502 28.1096 28.3109 28.3084C26.8755 29.7 25.2406 30.7735 23.4064 31.5687C21.9709 32.2048 20.4556 32.6422 18.8607 32.8012C18.1828 32.8807 17.4651 32.9602 16.7872 32.9602C15.9498 32.9602 15.1125 32.8807 14.315 32.7615C12.401 32.4831 10.5668 31.8868 8.89202 30.9325C7.57616 30.2169 6.34005 29.3422 5.30332 28.3084C4.98432 27.9904 4.7052 27.9109 4.26658 28.0301C2.95072 28.4277 1.63486 28.7458 0.358871 29.1036C0.279122 29.1434 0.159498 29.1434 0.0797491 29.1831C0.0398746 29.2229 0 29.1831 0 29.1434Z" fill="white"/>
<path d="M62.8423 13.5976C62.4436 14.5916 62.0847 15.506 61.7258 16.3807C61.1277 17.9313 60.4897 19.4422 59.8916 20.9928C59.8118 21.1518 59.772 21.3109 59.6523 21.3904C59.4131 21.5494 59.0941 21.3904 59.0143 21.0723C58.7352 20.1181 58.4561 19.1241 58.177 18.1699C57.4194 15.5458 56.6617 12.8819 55.944 10.2578C55.9041 10.1386 55.9041 10.0193 55.8643 9.86025C56.3826 9.78073 56.8611 9.78073 57.3396 9.86025C57.4194 9.86025 57.539 10.059 57.5789 10.1783C57.7782 10.8145 57.9377 11.4506 58.1371 12.0868C58.5757 13.6771 59.0143 15.2277 59.453 16.8181C59.4928 16.9374 59.5327 17.0169 59.6125 17.2157C59.8118 16.7386 59.9713 16.3807 60.091 15.9831C60.8486 14.035 61.6461 12.1265 62.4037 10.1783C62.4834 9.97953 62.5632 9.82049 62.8024 9.82049C63.0815 9.82049 63.1613 9.97953 63.2411 10.1783C63.6398 11.2121 64.0385 12.206 64.4373 13.2398C64.8759 14.3928 65.3145 15.506 65.793 16.659C65.8728 16.8181 65.9126 16.9374 66.0323 17.2157C66.1918 16.6193 66.3513 16.1422 66.5108 15.6253C67.0291 13.8362 67.5475 12.047 68.0659 10.2578C68.1855 9.86025 68.1855 9.86025 68.6241 9.82049C68.983 9.82049 69.3817 9.82049 69.8204 9.82049C69.8204 9.97953 69.8203 10.0988 69.7805 10.2181C69.0627 12.7229 68.345 15.188 67.6273 17.6928C67.3481 18.7265 67.0291 19.7603 66.75 20.794C66.7101 20.9133 66.6703 21.0325 66.6304 21.1916C66.5905 21.3506 66.4709 21.4699 66.2715 21.4699C66.0721 21.4699 65.9126 21.4301 65.8329 21.2313C65.5538 20.5157 65.2746 19.8 64.9955 19.1241C64.3177 17.4145 63.6398 15.7048 62.9619 13.9952C62.9619 13.8362 62.9221 13.7566 62.8423 13.5976Z" fill="white"/>
<path d="M16.9866 4.49278C17.1062 5.12893 17.0663 20.7145 16.9467 21.1121C16.8271 20.9928 16.7074 20.9133 16.6277 20.8337C15.91 20.1181 15.1922 19.4024 14.4745 18.6868C14.2352 18.488 14.1555 18.2494 14.1555 17.9313C14.1555 16.3807 14.1555 14.8301 14.1555 13.2795C14.1555 12.9217 14.0757 12.6434 13.7567 12.4048C12.9592 11.8482 12.2415 11.2518 11.444 10.6952C11.1649 10.4964 11.0453 10.2578 11.0453 9.90001C11.0851 9.18435 11.0453 8.42893 11.0453 7.71326C11.0453 7.47471 11.125 7.31567 11.3643 7.1964C13.1586 6.3217 14.953 5.40724 16.7473 4.53254C16.8271 4.53254 16.9068 4.53254 16.9866 4.49278Z" fill="white"/>
<path d="M43.1443 15.7048C43.1044 12.4048 45.6564 9.58194 49.1653 9.58194C52.8338 9.58194 55.3857 12.3253 55.3857 15.7048C55.3857 19.0446 52.6743 21.9072 49.0457 21.788C45.9355 21.6687 43.0645 19.0446 43.1443 15.7048ZM44.8589 15.7048C44.6994 17.9313 46.733 20.1578 49.2451 20.1181C51.7572 20.0783 53.711 18.1699 53.7509 15.6253C53.7509 12.9217 51.478 11.1723 49.2451 11.1723C46.9323 11.1723 44.7392 13.1603 44.8589 15.7048Z" fill="white"/>
<path d="M81.3042 13.6374C81.3042 16.2217 81.3042 18.7663 81.3042 21.3904C80.746 21.3904 80.2675 21.3904 79.789 21.3904C79.6694 21.0325 79.6295 10.4964 79.7491 9.90001C80.0681 9.74098 80.3073 9.86025 80.5067 10.0988C81.4238 11.1723 82.3808 12.2856 83.3378 13.359C84.0556 14.194 84.8132 15.0687 85.5708 15.9036C85.9297 16.3012 86.2885 16.7386 86.6474 17.1362C86.8069 17.335 87.0063 17.5337 87.2854 17.6928C87.2854 17.5337 87.2854 17.335 87.2854 17.1759C87.2854 15.0289 87.2854 12.8422 87.2854 10.6952C87.2854 10.5759 87.2854 10.4566 87.2854 10.3374C87.2854 9.86025 87.3253 9.8205 87.8038 9.8205C88.0829 9.8205 88.3221 9.8205 88.6013 9.8205C88.8405 9.8205 88.9601 9.93977 88.9601 10.1783C88.9601 10.2976 88.9601 10.4169 88.9601 10.5362C88.9601 13.9554 88.9601 17.3747 88.9601 20.794C88.9601 20.9928 88.9601 21.1916 88.9601 21.3506C88.5614 21.5097 88.2823 21.4301 88.0031 21.1121C87.2455 20.2374 86.4879 19.3627 85.7303 18.488C84.9727 17.6133 84.2151 16.7386 83.4574 15.8639C82.8194 15.1482 82.1815 14.4325 81.5435 13.7169C81.5036 13.6771 81.4637 13.6374 81.384 13.5976C81.384 13.6374 81.3441 13.6374 81.3042 13.6374Z" fill="white"/>
<path d="M35.1295 21.3904C35.1295 17.5338 35.1295 13.7169 35.1295 9.86026C35.289 9.86026 35.4485 9.8205 35.5681 9.8205C36.2858 9.8205 37.0435 9.78074 37.7612 9.8205C38.1998 9.8205 38.6384 9.90001 39.0771 9.97953C41.31 10.4566 42.1474 13.1603 40.5524 14.8301C40.4727 14.9097 40.4328 14.9892 40.3531 15.0687C40.672 15.2675 40.991 15.4663 41.2702 15.7048C42.905 17.2157 42.5462 19.8398 40.5923 20.953C40.0341 21.2711 39.4359 21.4301 38.7979 21.4301C37.7213 21.4301 36.6846 21.4301 35.608 21.4301C35.4086 21.4301 35.289 21.4301 35.1295 21.3904ZM36.7245 19.8398C37.6017 19.8398 38.4789 19.9591 39.2764 19.7205C40.5126 19.4024 40.991 17.8518 40.1537 16.8976C39.8746 16.5795 39.4758 16.341 39.0372 16.3012C38.3992 16.2217 37.7213 16.2217 37.0435 16.1819C36.9238 16.1819 36.8441 16.2217 36.6846 16.2217C36.7245 17.4145 36.7245 18.5675 36.7245 19.8398ZM36.7245 14.4325C37.1631 14.5121 37.6416 14.4723 38.0802 14.4325C38.4789 14.3928 38.8378 14.2735 39.1169 13.9952C39.5954 13.5976 39.7549 13.0807 39.6353 12.4844C39.5157 11.9675 39.1568 11.6494 38.6384 11.5301C38.0005 11.4109 37.3625 11.4904 36.6846 11.4904C36.7245 12.5241 36.7245 13.4386 36.7245 14.4325Z" fill="white"/>
<path d="M73.0502 16.0627C73.0502 17.3747 73.0502 18.5675 73.0502 19.8398C73.6483 19.8398 74.2065 19.8398 74.7648 19.8398C75.323 19.8398 75.8813 19.8398 76.4395 19.8398C76.9978 19.8398 77.556 19.8398 78.1541 19.8398C78.2339 20.3566 78.194 20.8735 78.194 21.3506C77.8351 21.4699 72.1331 21.5097 71.3754 21.3904C71.3754 21.2711 71.3356 21.1121 71.3356 20.9928C71.3356 17.4542 71.3356 13.9157 71.3356 10.3771C71.3356 9.86026 71.3754 9.86026 71.8938 9.86026C73.8477 9.86026 75.8015 9.86026 77.7554 9.86026C78.2737 9.86026 78.2737 9.90002 78.2737 10.3771C78.2737 10.6554 78.2737 10.894 78.2737 11.1723C78.2737 11.4109 78.1541 11.4904 77.9547 11.4904C77.8351 11.4904 77.7155 11.4904 77.5959 11.4904C76.28 11.4904 74.9243 11.4904 73.6084 11.4904C73.4489 11.4904 73.2496 11.4904 73.0502 11.5301C73.0502 12.4844 73.0502 13.3988 73.0502 14.3928C73.6084 14.3928 74.1667 14.3928 74.7249 14.3928C75.2832 14.3928 75.8414 14.3928 76.3996 14.3928C76.9579 14.3928 77.5161 14.3928 78.1541 14.3928C78.2339 14.9494 78.194 15.4663 78.194 16.0627C76.4794 16.0627 74.8047 16.0627 73.0502 16.0627Z" fill="white"/>
<path d="M25.5995 8.07111C25.5995 12.047 25.5995 15.9434 25.5995 19.9591C24.483 18.9253 23.4861 17.8518 22.4095 16.7783C22.0506 17.1362 21.6918 17.4542 21.293 17.8916C21.2531 17.6928 21.2531 17.5735 21.2531 17.4145C21.2531 15.1482 21.2531 12.8819 21.2531 10.6157C21.2531 10.2976 21.3329 10.0988 21.6519 9.97954C22.8083 9.42291 23.9646 8.82653 25.121 8.2699C25.2406 8.19038 25.4001 8.11086 25.5995 8.07111Z" fill="white"/>
<path d="M60.5694 27.9506C60.2903 27.9506 60.1308 27.9506 59.9315 27.9506C59.6922 26.8374 59.453 25.8036 59.2536 24.7301H59.2137C59.2137 25.8036 59.2137 26.8374 59.2137 27.9506C59.0143 27.9506 58.8548 27.9506 58.6953 27.9904C58.5757 27.553 58.5757 23.2988 58.6953 22.7819C58.815 22.7819 58.9745 22.7422 59.0941 22.7422C59.3732 22.7024 59.4928 22.8217 59.5726 23.1398C59.7321 24.0145 59.9315 24.9289 60.1308 25.8036C60.1707 26.0024 60.2106 26.241 60.3302 26.4398C60.4099 26.0024 60.5296 25.6048 60.6093 25.1675C60.7688 24.4916 60.8884 23.7759 61.0081 23.1C61.0878 22.8217 61.1676 22.7422 61.6062 22.7819C61.9252 22.8217 61.9651 22.8615 61.9651 23.1795C61.9651 24.7301 61.9651 26.241 61.9651 27.7916C61.9651 27.8711 61.9252 27.9109 61.9252 28.0301C61.7258 28.0301 61.5663 28.0301 61.3271 28.0301C61.3271 26.9566 61.3271 25.8831 61.3271 24.8097C61.2872 24.8097 61.2872 24.8097 61.2473 24.8097C61.0081 25.8036 60.8087 26.8771 60.5694 27.9506Z" fill="white"/>
<path d="M80.427 22.7819C80.427 24.4916 80.427 26.2012 80.427 27.9506C80.2276 27.9506 80.0681 27.9506 79.8687 27.9506C79.8687 26.8771 79.8687 25.8036 79.8687 24.7301C79.8289 24.7301 79.8289 24.7301 79.789 24.7301C79.5896 25.8036 79.3504 26.8771 79.1111 27.9506C78.9117 27.9506 78.7124 27.9506 78.4731 27.9506C78.2339 26.9169 78.0345 25.8831 77.7953 24.8097C77.7155 25.8434 77.7554 26.8771 77.7155 27.9506C77.5161 27.9506 77.3566 27.9506 77.237 27.9506C77.1174 27.5928 77.0775 23.5771 77.1971 22.7422C77.3168 22.7422 77.4763 22.7024 77.5959 22.7024C77.9548 22.7024 77.9946 22.7422 78.0744 23.1C78.3136 24.2133 78.5529 25.3265 78.7921 26.5591C78.9117 26.0422 78.9915 25.6048 79.1111 25.1675C79.2307 24.4916 79.3902 23.8157 79.5099 23.1398C79.5896 22.7024 79.6295 22.7024 80.0681 22.7024C80.1479 22.7422 80.2675 22.7422 80.427 22.7819Z" fill="white"/>
<path d="M83.6568 22.7819C83.7764 22.7819 83.8562 22.7422 83.9758 22.7422C84.3745 22.7422 84.4144 22.7422 84.534 23.1398C84.8132 23.935 85.0524 24.7301 85.3315 25.5253C85.3714 25.6446 85.4113 25.7639 85.5309 25.8832C85.5309 25.247 85.5309 24.5711 85.5309 23.935C85.5309 23.6964 85.5309 23.4578 85.5309 23.1795C85.5309 22.7422 85.6107 22.7024 86.129 22.8217C86.129 24.4916 86.129 26.2012 86.129 27.9506C85.9297 27.9506 85.7303 27.9506 85.491 27.9904C85.0923 26.7579 84.6935 25.5651 84.3347 24.3325C84.2948 24.3325 84.2948 24.3325 84.2549 24.3325C84.2549 25.5253 84.2549 26.7181 84.2549 27.9506C84.0556 27.9506 83.8961 27.9904 83.7366 27.9904C83.5771 27.6325 83.5372 23.6169 83.6568 22.7819Z" fill="white"/>
<path d="M66.1519 24.4121C66.1519 25.5651 66.1519 26.7181 66.1519 27.9506C65.9525 27.9506 65.793 27.9904 65.6335 27.9904C65.5139 27.5928 65.474 23.5374 65.5937 22.8217C66.1519 22.6229 66.3114 22.7024 66.5108 23.2591C66.7899 24.1735 67.1089 25.088 67.4678 25.9627C67.4678 24.9289 67.4678 23.8554 67.4678 22.8217C67.9861 22.7024 68.0659 22.7422 68.0659 23.1C68.0659 24.6506 68.0659 26.1615 68.0659 27.7121C68.0659 27.7916 68.026 27.8313 68.026 27.9109C67.4678 28.0699 67.388 28.0699 67.2285 27.5133C66.9095 26.4795 66.5506 25.4458 66.2316 24.4121C66.1918 24.4121 66.1918 24.4121 66.1519 24.4121Z" fill="white"/>
<path d="M49.604 25.8434C49.604 26.559 49.604 27.235 49.604 27.9506C49.3647 27.9506 49.1653 27.9506 49.0058 27.9506C48.8862 27.5928 48.8463 23.6169 48.966 22.7819C49.3248 22.6229 49.7236 22.7024 50.0825 22.7422C51.0394 22.8615 51.3186 23.1795 51.3584 24.1735C51.3584 24.6506 51.3186 25.088 50.8799 25.4458C51.6774 26.1615 51.1989 27.1157 51.3983 27.9109C50.8002 28.0699 50.6806 27.9904 50.6407 27.4337C50.6407 27.1554 50.6407 26.9169 50.6407 26.6386C50.6407 25.9229 50.4413 25.7639 49.604 25.8434ZM49.6438 25.1675C49.8033 25.1675 49.8831 25.2072 50.0027 25.2072C50.4413 25.1675 50.6008 25.0084 50.6407 24.5711C50.6407 24.3723 50.6407 24.1735 50.6407 23.9747C50.6008 23.5771 50.5211 23.4578 50.1223 23.4578C49.9628 23.4578 49.8432 23.4578 49.6837 23.4976C49.6438 24.0145 49.6438 24.5711 49.6438 25.1675Z" fill="white"/>
<path d="M37.841 22.8217C38.16 22.6627 38.5587 22.7024 38.9176 22.7422C39.9144 22.8217 40.1936 23.1398 40.1936 24.1735C40.1936 24.6506 40.1537 25.1277 39.7151 25.4856C40.1537 25.8036 40.2334 26.2012 40.1936 26.6783C40.1936 27.0759 40.1936 27.5133 40.1936 27.9506C40.0341 27.9506 39.8746 27.9506 39.5954 27.9506C39.5556 27.7518 39.5157 27.5133 39.4758 27.2747C39.4359 27.0362 39.4758 26.7976 39.4758 26.5193C39.4758 25.9627 39.2764 25.8036 38.7581 25.8036C38.6783 25.8036 38.6385 25.8036 38.479 25.8434C38.479 26.2012 38.479 26.5193 38.479 26.8771C38.479 27.235 38.479 27.553 38.479 27.9506C38.2397 27.9506 38.0403 27.9904 37.8808 27.9904C37.7612 27.5928 37.7213 23.3783 37.841 22.8217ZM38.5188 25.1675C38.6783 25.1675 38.7581 25.2072 38.8777 25.2072C39.3562 25.2072 39.4758 25.0482 39.5157 24.5711C39.5157 24.3325 39.5157 24.094 39.5157 23.8952C39.4758 23.5771 39.3961 23.4976 39.0771 23.4578C38.9176 23.4578 38.7182 23.4578 38.5587 23.4578C38.5188 24.0145 38.5188 24.5711 38.5188 25.1675Z" fill="white"/>
<path d="M73.9673 24.4916C73.8875 24.4916 73.7679 24.5313 73.6882 24.5313C73.6084 24.5313 73.5287 24.4916 73.409 24.4916C73.409 24.2928 73.3692 24.094 73.3692 23.8952C73.3293 23.5374 73.1299 23.3386 72.8508 23.3386C72.5717 23.3386 72.3324 23.5374 72.2926 23.8952C72.2527 24.2928 72.2926 24.6506 72.2926 25.0482C72.2926 25.6446 72.2926 26.241 72.2926 26.8374C72.2926 27.3145 72.5318 27.4735 72.9704 27.4337C73.2097 27.394 73.3293 27.2747 73.3692 27.0362C73.3692 26.6783 73.3692 26.2807 73.3692 25.8831C73.2097 25.8434 73.09 25.8036 72.8907 25.7639C72.8907 25.5651 72.8907 25.406 72.8907 25.1675C73.2097 25.1675 73.4888 25.1675 73.7679 25.1675C73.9673 25.1675 74.047 25.2868 74.047 25.4458C74.047 26.0422 74.047 26.5988 73.9673 27.1554C73.8875 27.7518 73.409 28.1097 72.8109 28.0699C72.0932 28.0301 71.7742 27.7121 71.6944 27.1157C71.6546 26.7976 71.6147 26.4398 71.6147 26.1217C71.6147 25.3265 71.6147 24.4916 71.6944 23.6964C71.7343 23.1 72.1729 22.7819 72.771 22.7024C73.3692 22.6627 73.8078 22.941 74.0072 23.4976C74.047 23.8554 74.047 24.094 73.9673 24.4916Z" fill="white"/>
<path d="M63.2809 22.7422C63.4803 22.7422 63.5601 22.7024 63.6398 22.7024C64.1582 22.7024 64.1981 22.7024 64.2778 23.2193C64.5569 24.6904 64.836 26.1217 65.1152 27.5928C65.1152 27.6723 65.1152 27.7916 65.155 27.9109C64.9557 27.9109 64.7563 27.9109 64.517 27.9109C64.4373 27.6325 64.3575 27.3145 64.2778 26.9964C63.9189 26.9964 63.5202 26.9964 63.0816 26.9964C63.0417 27.1554 63.0018 27.3145 62.9619 27.5133C62.8423 28.0301 62.8423 28.0301 62.2442 27.9109C62.6031 26.2012 62.9619 24.4916 63.2809 22.7422ZM63.2012 26.3603C63.5202 26.3603 63.8392 26.3603 64.1981 26.3603C64.0386 25.5253 63.8791 24.7301 63.7594 23.935C63.7196 23.935 63.7196 23.935 63.6797 23.935C63.5202 24.7301 63.3607 25.5253 63.2012 26.3603Z" fill="white"/>
<path d="M40.672 25.3265C40.672 24.8494 40.672 24.4121 40.672 23.935C40.672 22.8615 41.5493 22.5036 42.3468 22.7422C42.8253 22.9012 43.1044 23.259 43.1044 23.7759C43.1044 24.8096 43.1443 25.8434 43.1044 26.9169C43.1044 27.5928 42.586 28.0301 41.948 28.0301C41.2303 28.0301 40.7518 27.6325 40.7119 26.9566C40.6322 26.4398 40.672 25.8831 40.672 25.3265ZM41.31 25.3265C41.31 25.7241 41.31 26.1217 41.31 26.5193C41.31 26.6783 41.3499 26.8374 41.3898 26.9964C41.4297 27.2747 41.629 27.3542 41.9082 27.3542C42.1873 27.3542 42.3069 27.2747 42.4265 26.9566C42.4664 26.8374 42.5063 26.6783 42.5063 26.5193C42.5063 25.7241 42.5063 24.8892 42.5063 24.094C42.5063 23.9349 42.4664 23.7362 42.3867 23.5771C42.3069 23.3783 42.1075 23.2988 41.9082 23.2988C41.7088 23.2988 41.5094 23.3783 41.4297 23.5771C41.3898 23.7362 41.3499 23.9349 41.31 24.094C41.2702 24.5711 41.31 24.9289 41.31 25.3265Z" fill="white"/>
<path d="M71.2558 27.9506C71.0166 27.9506 70.8571 27.9506 70.6976 27.9506C70.6178 27.6325 70.5381 27.3542 70.4583 26.9964C70.0596 26.9964 69.6608 26.9964 69.2621 26.9964C69.1823 27.3145 69.1425 27.5928 69.0627 27.9109C68.9032 27.9109 68.7038 27.9506 68.4646 27.9506C68.5045 27.6325 68.5443 27.3542 68.5842 27.0759C68.8235 25.7639 69.0627 24.4916 69.3418 23.1795C69.4216 22.7024 69.4615 22.6627 69.9001 22.7024C70.2988 22.7024 70.3387 22.7024 70.4185 23.1795C70.6976 24.6506 70.9767 26.0819 71.2558 27.553C71.2558 27.6723 71.2558 27.7916 71.2558 27.9506ZM70.3387 26.3603C70.1792 25.5253 70.0197 24.7301 69.8602 23.935C69.7007 24.7301 69.4615 25.5253 69.3817 26.3603C69.5811 26.3603 69.7007 26.4 69.8602 26.4C70.0197 26.3603 70.1393 26.3603 70.3387 26.3603Z" fill="white"/>
<path d="M44.2209 27.9506C43.9816 27.9506 43.8221 27.9506 43.6228 27.9506C43.5031 27.5928 43.4633 23.3386 43.5829 22.7422C44.1411 22.6229 44.6994 22.6627 45.2177 22.8217C45.5367 22.9012 45.6962 23.1398 45.8159 23.4578C45.9754 24.0542 45.9754 24.6506 45.8159 25.2072C45.7361 25.5253 45.4969 25.8036 45.138 25.8434C44.8589 25.8831 44.5797 25.9229 44.2607 26.0024C44.2607 26.6783 44.2607 27.3145 44.2209 27.9506ZM44.3006 25.3663C44.5 25.3663 44.6196 25.3663 44.7392 25.3663C45.0582 25.3265 45.2177 25.1675 45.2576 24.8096C45.2576 24.4916 45.2576 24.1735 45.2576 23.8554C45.2177 23.5374 45.0981 23.4181 44.7791 23.4181C44.6196 23.4181 44.4601 23.4181 44.3006 23.4578C44.3006 24.094 44.3006 24.6904 44.3006 25.3663Z" fill="white"/>
<path d="M35.6877 26.0422C35.6877 26.6783 35.6877 27.2747 35.6877 27.9506C35.4485 27.9506 35.289 27.9506 35.0497 27.9904C35.0099 27.8313 35.0099 27.7121 35.0099 27.5928C35.0099 26.1217 35.0099 24.6904 35.0099 23.2193C35.0099 22.7819 35.0497 22.7422 35.4884 22.7422C35.8073 22.7422 36.1662 22.7819 36.4852 22.8217C37.0435 22.9012 37.3625 23.2193 37.4023 23.7362C37.4422 24.1735 37.4422 24.6109 37.4023 25.088C37.3625 25.5253 37.0833 25.8036 36.6846 25.9229C36.3656 25.9627 36.0865 26.0024 35.6877 26.0422ZM35.7276 25.3265C36.5251 25.4458 36.7643 25.2868 36.7643 24.5313C36.7643 24.4121 36.7643 24.253 36.7643 24.1338C36.7643 23.4976 36.565 23.3386 35.927 23.3783C35.8472 23.3783 35.8073 23.4181 35.7276 23.4181C35.7276 24.094 35.7276 24.6904 35.7276 25.3265Z" fill="white"/>
<path d="M81.6631 23.4181C81.6631 23.9747 81.6631 24.4518 81.6631 25.0084C81.9821 25.0084 82.2612 25.0084 82.5802 25.0084C82.7796 25.0084 82.8992 25.0482 82.9391 25.2868C82.9789 25.5253 82.8992 25.6844 82.6201 25.6844C82.341 25.6844 82.022 25.6844 81.6631 25.6844C81.6232 26.241 81.6232 26.7578 81.6631 27.3542C82.1815 27.3542 82.66 27.3542 83.1783 27.3542C83.1783 27.5928 83.1783 27.7518 83.1783 27.9506C82.4207 27.9506 81.7428 27.9506 80.9852 27.9506C80.9852 27.7518 80.9453 27.5928 80.9453 27.4337C80.9453 26.0422 80.9453 24.6506 80.9453 23.2591C80.9453 22.7422 80.9852 22.7024 81.5036 22.7024C81.9023 22.7024 82.3011 22.7024 82.6998 22.7024C83.1384 22.7024 83.2182 22.7819 83.2182 23.0603C83.2182 23.3386 83.1384 23.3783 82.66 23.3783C82.341 23.4181 82.022 23.4181 81.6631 23.4181Z" fill="white"/>
<path d="M46.9722 25.0085C47.2912 25.0085 47.5703 25.0085 47.8495 25.0085C48.1286 25.0085 48.2083 25.088 48.2083 25.3663C48.2083 25.6048 48.1286 25.6844 47.8096 25.6844C47.5305 25.6844 47.2912 25.6844 46.9722 25.6844C46.8925 26.241 46.9323 26.7579 46.9323 27.3542C47.4507 27.3542 47.9292 27.3542 48.4476 27.3542C48.4476 27.5928 48.4476 27.7518 48.4476 27.9506C47.7298 27.9506 47.0121 27.9506 46.2545 27.9506C46.2545 27.8313 46.2146 27.7121 46.2146 27.5928C46.2146 26.1217 46.2146 24.6904 46.2146 23.2193C46.2146 22.7819 46.2545 22.7422 46.6931 22.7422C47.1716 22.7422 47.6501 22.7422 48.1286 22.7422C48.3279 22.7422 48.4874 22.8217 48.4874 23.0603C48.4874 23.2988 48.4077 23.4181 48.1286 23.4181C47.7697 23.4181 47.371 23.4181 46.9323 23.4181C46.9323 23.935 46.9722 24.4121 46.9722 25.0085Z" fill="white"/>
<path d="M75.1635 25.0084C75.4825 25.0084 75.7617 25.0084 76.0408 25.0084C76.3199 25.0084 76.4395 25.088 76.4395 25.3265C76.4395 25.5651 76.3598 25.6446 76.0408 25.6446C75.7617 25.6446 75.4825 25.6446 75.1635 25.6446C75.1635 26.241 75.1635 26.7578 75.1635 27.3145C75.642 27.3145 76.0807 27.3145 76.599 27.3145C76.599 27.553 76.599 27.7121 76.599 27.9109C75.8813 27.9109 75.2034 27.9109 74.4857 27.9109C74.4857 27.7916 74.4458 27.6325 74.4458 27.5133C74.4458 26.0422 74.4458 24.6109 74.4458 23.1398C74.4458 22.7024 74.4857 22.6627 74.9243 22.6627C75.3629 22.6627 75.8015 22.6627 76.28 22.6627C76.3997 22.6627 76.5193 22.7024 76.6389 22.7024C76.6389 22.9012 76.6389 23.0602 76.6389 23.2988C76.1604 23.2988 75.7218 23.2988 75.2034 23.2988C75.1237 23.9349 75.1635 24.4121 75.1635 25.0084Z" fill="white"/>
<path d="M56.0238 27.9506C55.7845 27.9506 55.625 27.9506 55.4256 27.9904C55.4256 27.7916 55.3858 27.5928 55.3858 27.4338C55.4655 26.5591 55.2661 25.7241 54.987 24.9289C54.7478 24.253 54.5484 23.5374 54.3091 22.8615C54.7876 22.6229 54.9471 22.6627 55.0668 23.1C55.2661 23.7362 55.4655 24.3723 55.7845 25.0482C55.9041 24.7301 55.9839 24.4121 56.1035 24.094C56.2231 23.7759 56.3029 23.4579 56.4225 23.1398C56.582 22.7024 56.6219 22.6627 57.1402 22.8217C57.1004 22.941 57.1004 23.0603 57.0605 23.1795C56.7814 24.0145 56.5421 24.8494 56.2231 25.6844C56.1035 26.0024 56.0636 26.3603 56.0636 26.7181C56.0636 27.1157 56.0238 27.5133 56.0238 27.9506Z" fill="white"/>
<path d="M7.21729 25.2072C7.37679 25.0482 7.53629 24.8892 7.69578 24.7301C7.81541 24.6109 7.97491 24.4916 8.09453 24.3723C9.45026 23.0205 10.806 21.6687 12.1617 20.3169C12.2814 20.1976 12.401 20.0783 12.5605 19.9193C14.1555 21.4699 15.6707 23.0603 17.2258 24.6109C17.1859 24.6506 17.1859 24.6904 17.1461 24.6904C17.0663 24.6109 16.9467 24.5711 16.8669 24.4916C15.6308 23.2988 14.3548 22.106 13.1187 20.8735C12.9592 20.7145 12.7599 20.5952 12.5605 20.3964C10.8857 22.1458 9.21102 23.8952 7.57616 25.6844C7.37679 25.5651 7.17742 25.4458 7.21729 25.2072Z" fill="white"/>
<path d="M52.5148 23.4181C52.1958 23.3783 51.9565 23.3783 51.6375 23.3386C51.6375 23.1398 51.6375 22.9807 51.5977 22.7819C51.6774 22.7422 51.7572 22.7024 51.797 22.7024C52.4749 22.7024 53.1528 22.7024 53.8306 22.7024C54.03 22.7024 54.1895 22.7819 54.1895 23.0205C54.1895 23.2591 54.1098 23.3386 53.8306 23.3783C53.7509 23.3783 53.6313 23.3783 53.5515 23.3783C53.4718 23.3783 53.392 23.4181 53.2724 23.4181C53.2724 24.8892 53.2724 26.4 53.2724 27.9109C53.0331 27.9109 52.8338 27.9506 52.5945 27.9506C52.5945 27.7518 52.5546 27.553 52.5546 27.394C52.5546 26.241 52.5546 25.1277 52.5546 23.9747C52.5546 23.8157 52.5148 23.6566 52.5148 23.4181Z" fill="white"/>
<path d="M88.0031 27.9506C87.7639 27.9506 87.6044 27.9506 87.3651 27.9506C87.3651 26.4398 87.3651 24.9687 87.3651 23.4181C87.1259 23.4181 86.9265 23.3783 86.7272 23.3783C86.448 23.3386 86.3683 23.2988 86.3683 23.0205C86.3683 22.7819 86.4879 22.7024 86.7272 22.7024C87.3651 22.7024 88.0031 22.7024 88.681 22.7024C88.9203 22.7024 89 22.8217 89 23.0603C89 23.2591 88.8804 23.3783 88.681 23.3783C88.4816 23.3783 88.2823 23.3783 88.043 23.3783C88.0031 23.8952 88.0031 24.4121 88.0031 24.8892C88.0031 25.406 88.0031 25.9229 88.0031 26.4398C88.0031 26.9169 88.0031 27.4338 88.0031 27.9506Z" fill="white"/>
<path d="M19.3392 23.6169C19.2195 23.4976 19.1398 23.3783 19.0999 23.3386C20.1765 22.2253 21.2531 21.1518 22.3696 19.9988C24.164 21.8277 25.9583 23.6566 27.7926 25.4856C27.7527 25.5253 27.7527 25.5253 27.7128 25.5651C25.9185 23.8952 24.164 22.2253 22.3298 20.4759C21.3329 21.5494 20.336 22.5434 19.3392 23.6169Z" fill="white"/>
<path d="M14.1555 25.2868C13.677 25.2868 13.2782 25.2868 12.7997 25.2868C12.7997 24.8494 12.7997 24.4916 12.7997 24.0542C13.2384 24.0542 13.677 24.0542 14.1555 24.0542C14.1555 24.4518 14.1555 24.8494 14.1555 25.2868Z" fill="white"/>
<path d="M12.4807 25.2868C12.0421 25.2868 11.6434 25.2868 11.2048 25.2868C11.0453 24.9289 11.125 24.5711 11.1649 24.2133C11.1649 24.1337 11.3244 24.0145 11.4041 24.0145C11.763 23.9747 12.1219 24.0145 12.5206 24.0145C12.4807 24.4518 12.4807 24.8494 12.4807 25.2868Z" fill="white"/>
<path d="M14.1555 22.5434C14.1555 22.941 14.1555 23.2988 14.1555 23.6566C13.7168 23.7362 13.2782 23.6964 12.8396 23.6964C12.72 23.2988 12.7599 22.941 12.7997 22.5036C13.2782 22.5036 13.7168 22.4639 14.1555 22.5434Z" fill="white"/>
<path d="M12.4807 23.6964C12.0023 23.6964 11.6035 23.6964 11.1649 23.6964C11.1649 23.2988 11.1649 22.941 11.1649 22.5434C11.6035 22.5434 12.0421 22.5434 12.4807 22.5434C12.4807 22.941 12.4807 23.2988 12.4807 23.6964Z" fill="white"/>
<path d="M21.5721 23.8157C21.8513 23.8157 22.0905 23.8157 22.3298 23.8157C22.3298 24.094 22.3298 24.3325 22.3298 24.6506C22.0905 24.6506 21.8513 24.6506 21.5721 24.6506C21.5721 24.3723 21.5721 24.1337 21.5721 23.8157Z" fill="white"/>
<path d="M22.569 24.6506C22.569 24.3723 22.569 24.1338 22.569 23.8554C22.8082 23.8554 23.0475 23.8554 23.3266 23.8554C23.3266 24.1338 23.3266 24.3723 23.3266 24.6506C23.0874 24.6506 22.8481 24.6506 22.569 24.6506Z" fill="white"/>
<path d="M22.3298 23.6964C22.0506 23.6964 21.8114 23.6964 21.5721 23.6964C21.5721 23.4579 21.5721 23.2193 21.5721 22.9807C21.8114 22.9807 22.0506 22.9807 22.3298 22.9807C22.3298 23.2193 22.3298 23.4181 22.3298 23.6964Z" fill="white"/>
<path d="M23.3266 22.941C23.3266 23.1795 23.3266 23.4181 23.3266 23.6566C23.0874 23.6566 22.8481 23.6964 22.569 23.6964C22.569 23.4181 22.5291 23.1795 22.5291 22.9012C22.8082 22.941 23.0475 22.941 23.3266 22.941Z" fill="white"/>
</g>
<defs>
<clipPath id="clip0_12_265">
<rect width="89" height="33" fill="white"/>
</clipPath>
</defs>
</svg>
