<svg width="24" height="24" viewBox="0 0 24 24" fill="none" xmlns="http://www.w3.org/2000/svg">
<g clip-path="url(#clip0_15_1110)">
<path d="M0.454559 15.8141C0.454559 15.2226 0.454559 14.631 0.454559 14.0395C0.774787 13.617 1.09501 13.1945 1.40635 12.7675C1.44193 12.7186 1.42859 12.6118 1.40635 12.5451C1.33963 12.345 1.25068 12.1493 1.15728 11.9091C1.41969 11.9091 1.61094 11.9136 1.80218 11.9091C1.90893 11.9047 1.97119 11.9224 2.01122 12.0425C2.07349 12.2382 2.2425 12.3049 2.43819 12.2605C2.62054 12.2204 2.71394 12.0826 2.7095 11.9047C2.70505 11.7179 2.60275 11.5933 2.40706 11.5489C2.02012 11.4599 1.9623 11.3798 1.9623 10.9885C1.9623 8.73796 1.9623 6.49192 1.9623 4.24143C1.9623 4.15693 1.9623 4.06798 1.9623 3.96123C1.61538 3.96123 1.29071 3.95234 0.970482 3.96568C0.739206 3.97458 0.565749 3.89897 0.454559 3.69882C0.454559 3.10729 0.454559 2.51576 0.454559 1.92423C0.592435 1.70185 0.810368 1.67072 1.05054 1.67072C5.79613 1.67516 10.5373 1.67072 15.2829 1.67072C15.3807 1.67072 15.483 1.67072 15.5987 1.67072C15.5987 1.45278 15.6076 1.27043 15.5987 1.08808C15.5853 0.852356 15.6565 0.670004 15.8611 0.545471C17.2087 0.545471 18.5519 0.545471 19.8995 0.545471C20.1041 0.670004 20.1797 0.852356 20.1664 1.08808C20.153 1.27488 20.1619 1.46613 20.1619 1.67072C20.2598 1.67072 20.3265 1.67072 20.3887 1.67072C21.1493 1.67072 21.9143 1.66627 22.6748 1.67072C23.0484 1.67072 23.1818 1.80859 23.1818 2.17774C23.1818 2.60471 23.1818 3.03613 23.1818 3.4631C23.1818 3.82336 23.0484 3.95679 22.6881 3.95679C21.9276 3.95679 21.1626 3.95679 20.4021 3.95679C20.3265 3.95679 20.2464 3.95679 20.1619 3.95679C20.1619 4.05019 20.1619 4.11245 20.1619 4.17027C20.1575 4.58835 20.0374 4.71288 19.6193 4.71288C19.4236 4.71288 19.2279 4.71288 19.0322 4.71288C19.0322 10.6638 19.0322 16.5746 19.0322 22.4944C19.2457 22.4944 19.4458 22.4944 19.6549 22.4944C19.2146 21.8673 19.3124 21.0311 20.2019 20.6487C20.0907 19.7324 20.4777 19.1365 21.2071 19.1009C21.5496 19.0831 21.852 19.1898 22.0922 19.4345C22.4391 19.7814 22.4925 20.2039 22.3635 20.6709C22.7638 20.8043 23.0217 21.0578 23.1374 21.4448C23.253 21.8273 23.1462 22.1786 22.915 22.5078C23.0262 22.5166 23.0973 22.5211 23.1729 22.5255C23.1729 22.7746 23.1729 23.0148 23.1729 23.2727C15.5942 23.2727 8.02439 23.2727 0.459007 23.2727C0.459007 23.0192 0.459007 22.7702 0.459007 22.5166C0.610226 22.5389 0.721416 22.4722 0.828158 22.3654C1.33519 21.8495 1.85111 21.338 2.36258 20.8266C2.64278 20.5464 2.81624 20.5464 3.09644 20.8221C3.56788 21.2936 4.05712 21.7428 4.50188 22.2409C4.75984 22.53 5.03559 22.5522 5.3914 22.49C5.3914 16.8193 5.3914 11.1486 5.3914 5.48231C5.65381 5.48231 5.88509 5.48231 6.14305 5.48231C6.14305 5.98489 6.14305 6.47413 6.14305 6.99005C7.79756 6.99005 9.42538 6.99005 11.0488 6.99005C11.0488 7.25691 11.0488 7.49263 11.0488 7.75059C9.40759 7.75059 7.77977 7.75059 6.15194 7.75059C6.15194 8.12864 6.15194 8.4889 6.15194 8.85805C6.90359 8.85805 7.65079 8.85805 8.39798 8.85805C8.40688 8.72907 8.41133 8.61343 8.42022 8.51114C8.68263 8.51114 8.9228 8.51114 9.16297 8.51114C9.17187 8.63567 9.18076 8.74241 9.18966 8.85805C9.94575 8.85805 10.6796 8.85805 11.4357 8.85805C11.4357 8.60898 11.4357 8.37326 11.4357 8.12864C11.7026 8.12864 11.9516 8.12864 12.2185 8.12864C12.2185 8.37771 12.2185 8.61343 12.2185 8.85805C12.9746 8.85805 13.7084 8.85805 14.4779 8.85805C14.4779 8.35102 14.4779 7.86178 14.4779 7.3681C14.7492 7.3681 14.9893 7.3681 15.2473 7.3681C15.2473 12.4206 15.2473 17.4553 15.2473 22.4989C15.7543 22.4989 16.248 22.4989 16.7372 22.4989C16.7372 16.5658 16.7372 10.6549 16.7372 4.71733C16.4971 4.71733 16.2702 4.72177 16.0434 4.71733C15.7677 4.71288 15.6209 4.57056 15.6031 4.2948C15.5987 4.18806 15.6031 4.08132 15.6031 3.97902C11.2978 3.97902 7.02367 3.97902 2.74508 3.97902C2.74063 4.0235 2.73173 4.05019 2.73173 4.08132C2.73173 6.28733 2.73173 8.4889 2.72729 10.6949C2.72729 10.8283 2.8029 10.8684 2.89185 10.9173C3.24766 11.113 3.44335 11.4154 3.47893 11.8246C3.50562 12.1448 3.39443 12.4161 3.20763 12.6652C3.50562 13.0655 3.80805 13.448 4.08825 13.8483C4.17721 13.9728 4.23947 14.1418 4.24837 14.293C4.27061 14.7289 4.27061 15.1648 4.24837 15.6006C4.23947 15.7563 4.15497 15.9253 4.05712 16.0454C3.87477 16.2678 3.66573 16.4724 3.4478 16.6592C3.3455 16.7481 3.19428 16.8237 3.06086 16.8282C2.58941 16.8504 2.11352 16.8415 1.64207 16.8326C1.53978 16.8282 1.41079 16.7926 1.33963 16.7259C1.0283 16.4323 0.743654 16.121 0.454559 15.8141ZM14.4556 14.1818C14.3489 14.1818 14.2688 14.1818 14.1888 14.1818C13.4505 14.1818 12.7077 14.1774 11.9694 14.1863C11.7559 14.1907 11.5914 14.124 11.4401 13.9683C11.0577 13.577 10.6663 13.1945 10.2704 12.8164C10.1993 12.7497 10.0836 12.7008 9.98578 12.6963C9.64776 12.683 9.3053 12.6919 8.96728 12.6919C8.54031 12.6919 8.41133 12.5585 8.41133 12.1404C8.41133 11.7757 8.41133 11.4065 8.41133 11.0418C7.63744 11.0418 6.89469 11.0418 6.16084 11.0418C6.16084 14.8712 6.16084 18.6828 6.16084 22.4989C8.93615 22.4989 11.6981 22.4989 14.4645 22.4989C14.4556 19.728 14.4556 16.9705 14.4556 14.1818ZM12.2229 9.64972C12.2229 10.9173 12.2229 12.1582 12.2229 13.4035C12.9746 13.4035 13.7084 13.4035 14.4467 13.4035C14.4467 12.1448 14.4467 10.8995 14.4467 9.64972C13.6995 9.64972 12.9701 9.64972 12.2229 9.64972ZM11.3601 12.852C11.3779 12.8387 11.3957 12.8253 11.4135 12.812C11.4135 11.7623 11.4135 10.7127 11.4135 9.65862C10.6618 9.65862 9.92796 9.65862 9.18521 9.65862C9.18521 10.4147 9.18521 11.153 9.18521 11.918C9.52323 11.918 9.8479 11.9224 10.1681 11.918C10.3683 11.9136 10.5284 11.9758 10.6618 12.1226C10.8931 12.3628 11.1288 12.6029 11.3601 12.852ZM1.21065 14.5732C1.21065 14.8356 1.21955 15.0758 1.2062 15.3204C1.19731 15.4761 1.26402 15.5739 1.35298 15.6896C1.60204 16.0098 1.90893 16.1521 2.30921 16.081C2.3359 16.0765 2.36703 16.0765 2.39816 16.081C2.794 16.1521 3.10089 16.0098 3.32771 15.6896C3.37219 15.6229 3.46114 15.565 3.46559 15.4983C3.47893 15.1914 3.47004 14.8846 3.47004 14.5777C2.7095 14.5732 1.98009 14.5732 1.21065 14.5732ZM18.6453 1.31491C18.6453 1.92423 18.6497 2.50687 18.6453 3.0895C18.6453 3.43197 18.5029 3.57429 18.1649 3.58319C17.8758 3.58763 17.5867 3.58319 17.3021 3.58319C16.9997 3.58319 16.7017 3.58319 16.3903 3.58319C16.3903 3.71662 16.3903 3.82336 16.3903 3.94344C17.391 3.94344 18.3784 3.94344 19.3702 3.94344C19.3702 3.06282 19.3702 2.19553 19.3702 1.31491C19.1256 1.31491 18.9032 1.31491 18.6453 1.31491ZM16.3903 1.31491C16.3903 1.81749 16.3903 2.30672 16.3903 2.79596C16.8885 2.79596 17.3733 2.79596 17.8536 2.79596C17.8536 2.29783 17.8536 1.81304 17.8536 1.31491C17.3688 1.31491 16.8929 1.31491 16.3903 1.31491ZM8.39354 9.65862C7.62855 9.65862 6.8858 9.65862 6.1475 9.65862C6.1475 9.86766 6.1475 10.0545 6.1475 10.2501C6.89914 10.2501 7.64189 10.2501 8.39354 10.2501C8.39354 10.05 8.39354 9.86321 8.39354 9.65862ZM3.62126 22.5033C3.31882 22.2009 3.01638 21.8984 2.74063 21.6227C2.45598 21.9073 2.1491 22.2142 1.86 22.5033C2.4293 22.5033 3.03417 22.5033 3.62126 22.5033ZM9.70113 3.17845C10.3772 3.17845 10.9909 3.17845 11.6625 3.17845C11.3245 2.95163 11.0399 2.75593 10.7508 2.57358C10.7152 2.55134 10.6351 2.56468 10.5951 2.59137C10.3105 2.76927 10.0303 2.96052 9.70113 3.17845ZM7.12152 3.1829C6.78795 2.96052 6.50775 2.76927 6.22755 2.58692C6.18752 2.56024 6.10747 2.54689 6.07189 2.56913C5.77834 2.75593 5.48925 2.95163 5.14678 3.17845C5.82727 3.1829 6.44104 3.1829 7.12152 3.1829ZM18.1738 17.9712C17.9603 17.651 17.7469 17.3352 17.5067 16.9794C17.5067 17.6643 17.5067 18.287 17.5067 18.9675C17.7513 18.6072 17.9603 18.2914 18.1738 17.9712ZM17.5111 14.4176C17.738 14.0751 17.9381 13.7771 18.1338 13.4791C18.1516 13.4524 18.1516 13.3902 18.1293 13.3635C17.9337 13.0655 17.738 12.7719 17.5111 12.4295C17.5111 13.1144 17.5111 13.7371 17.5111 14.4176ZM17.5111 9.8721C17.738 9.52964 17.9381 9.23165 18.1338 8.93366C18.1516 8.90697 18.1516 8.84471 18.1338 8.81802C17.9425 8.52003 17.7424 8.22649 17.5111 7.87957C17.5111 8.56895 17.5111 9.19162 17.5111 9.8721ZM18.2361 21.2224C18.2361 20.5553 18.2361 19.9326 18.2361 19.261C18.0004 19.6168 17.7913 19.9326 17.5823 20.2439C17.8002 20.573 18.0093 20.8799 18.2361 21.2224ZM18.245 16.6858C18.245 16.0054 18.245 15.3871 18.245 14.7111C18.0226 15.0447 17.8225 15.3382 17.6357 15.6318C17.6134 15.6629 17.6134 15.734 17.6357 15.7652C17.8225 16.0587 18.0182 16.3478 18.245 16.6858ZM18.2361 12.1315C18.2361 11.4555 18.2361 10.8372 18.2361 10.1656C18.0182 10.4948 17.8225 10.7794 17.6357 11.073C17.6134 11.1085 17.6134 11.1886 17.6357 11.2242C17.8225 11.5177 18.0182 11.8068 18.2361 12.1315ZM18.245 5.62019C18.1071 5.82478 17.9959 5.98934 17.8892 6.14946C17.5867 6.60311 17.5867 6.60311 17.8847 7.05677C17.9959 7.22133 18.1027 7.38589 18.2405 7.59493C18.245 6.91 18.245 6.29178 18.245 5.62019ZM1.61538 13.7815C2.12241 13.7815 2.57607 13.7815 3.07865 13.7815C2.8963 13.5369 2.75842 13.2923 2.55828 13.1189C2.47377 13.0432 2.20692 13.0566 2.11352 13.1322C1.92672 13.2968 1.80218 13.5325 1.61538 13.7815ZM13.9219 2.47128C13.2592 2.47128 12.6454 2.47128 11.9917 2.47128C12.3386 2.70256 12.6454 2.90715 12.9568 3.11619C13.2681 2.90715 13.575 2.70256 13.9219 2.47128ZM8.41133 3.11619C8.73155 2.9027 9.03844 2.69811 9.38535 2.46239C8.71376 2.46239 8.10444 2.46239 7.43285 2.46239C7.78866 2.70256 8.09999 2.90715 8.41133 3.11619ZM2.88295 2.45794C3.21652 2.68032 3.49227 2.86712 3.76803 3.04503C3.80805 3.07171 3.88811 3.0895 3.91924 3.07171C4.21723 2.88491 4.50188 2.68922 4.84435 2.45794C4.16831 2.45794 3.55899 2.45794 2.88295 2.45794ZM1.224 2.40012C1.224 2.70701 1.224 2.93828 1.224 3.17845C1.66431 3.17845 2.09128 3.17845 2.57162 3.17845C2.2336 2.95163 1.94896 2.75148 1.65097 2.56468C1.53533 2.49352 1.393 2.46239 1.224 2.40012ZM14.3089 3.1829C14.7314 3.1829 15.1539 3.1829 15.5853 3.1829C15.5853 2.93384 15.5853 2.70256 15.5853 2.43126C15.0427 2.50242 14.7269 2.92939 14.3089 3.1829ZM20.8958 21.765C20.9002 21.5604 20.7445 21.3959 20.54 21.3959C20.3309 21.3914 20.1664 21.5471 20.1619 21.7517C20.1575 21.9518 20.3176 22.1208 20.5222 22.1253C20.7268 22.1253 20.8913 21.974 20.8958 21.765ZM21.2783 20.6086C21.4739 20.6131 21.6474 20.453 21.6563 20.2573C21.6652 20.0616 21.5051 19.8881 21.3094 19.8748C21.1048 19.8614 20.9224 20.0349 20.918 20.2395C20.918 20.4352 21.0826 20.6042 21.2783 20.6086ZM22.4168 21.7561C22.4168 21.5604 22.2478 21.3959 22.0477 21.3959C21.8431 21.3959 21.6785 21.5515 21.6741 21.7517C21.6696 21.9563 21.8475 22.1297 22.0566 22.1253C22.2523 22.1208 22.4213 21.9474 22.4168 21.7561ZM21.4428 3.17845C21.8031 3.17845 22.11 3.17845 22.4035 3.17845C22.4035 2.96052 22.4035 2.76038 22.4035 2.538C22.0833 2.75148 21.7853 2.94718 21.4428 3.17845ZM17.5111 21.5204C17.5111 21.8895 17.5111 22.192 17.5111 22.5033C17.7246 22.5033 17.9248 22.5033 18.1649 22.5033C17.947 22.1786 17.7469 21.8717 17.5111 21.5204ZM21.127 2.46239C20.7668 2.46239 20.4732 2.46239 20.1797 2.46239C20.1797 2.67143 20.1797 2.87157 20.1797 3.0984C20.4999 2.88491 20.789 2.68922 21.127 2.46239ZM17.52 4.72622C17.52 4.92636 17.52 5.09982 17.52 5.3222C17.6668 5.09982 17.7824 4.92192 17.907 4.72622C17.7557 4.72622 17.6401 4.72622 17.52 4.72622Z" fill="black"/>
</g>
<defs>
<clipPath id="clip0_15_1110">
<rect width="22.7273" height="22.7273" fill="white" transform="translate(0.454559 0.545471)"/>
</clipPath>
</defs>
</svg>
