<svg width="390" height="456" viewBox="0 0 390 456" fill="none" xmlns="http://www.w3.org/2000/svg">
<g opacity="0.34" clip-path="url(#clip0_62_8715)">
<path d="M-103 456C-103 431.836 -103.099 407.673 -102.901 383.405C-102.802 366.708 -102.207 350.011 -102.008 333.315C-102.008 330.307 -102.405 327.196 -102.603 324.085C-102.405 321.492 -102.008 318.796 -102.008 316.099C-101.909 303.862 -102.008 291.624 -102.008 279.076C-100.124 277.831 -98.14 276.587 -96.1563 275.135C-96.1563 273.372 -96.1563 271.713 -96.1563 269.742C-81.6754 259.89 -67.2936 250.141 -52.7135 240.289C-52.7135 228.882 -52.7135 217.577 -52.7135 206.17C-45.5722 200.362 -38.6293 194.658 -31.6864 189.058C-24.8427 183.562 -17.8998 178.065 -11.0561 172.569C-4.50994 167.383 2.03624 162.302 8.48322 157.013C16.7155 150.272 24.9478 143.427 33.1801 136.686C40.5198 130.671 48.0578 124.863 55.4966 118.952C62.2411 113.559 68.9857 108.063 75.631 102.566C81.6813 97.6921 87.8307 92.8178 93.9801 87.8399C99.832 83.0694 105.485 78.2988 111.337 73.5283C116.892 69.0689 122.545 64.6095 128.1 60.1501C134.844 54.7573 141.589 49.3646 148.432 43.9718C156.367 37.6457 164.401 31.4232 172.237 25.0971C178.188 20.3266 184.039 15.2449 190.189 10.1633C192.272 9.33364 194.057 10.7855 195.842 11.9263C199.81 14.3116 203.678 16.8005 207.645 19.2895C214.687 23.6452 221.829 27.8972 228.871 32.2529C233.136 34.8456 237.301 37.542 241.765 40.2383C252.278 34.327 261.998 26.9638 272.016 20.3266C281.934 13.6893 291.853 6.94837 302.168 0C312.682 7.57062 323.393 15.2449 334.205 22.9193C339.858 26.9638 345.71 30.801 351.363 34.8456C361.183 41.8977 371.002 49.1572 380.821 56.1055C391.533 63.6761 402.344 71.0393 413.056 78.61C432.1 91.9882 451.044 105.47 469.988 118.952C472.17 120.508 474.055 122.478 476.336 123.723C478.815 125.071 480.105 126.937 479.906 130.256C486.353 134.819 492.8 139.382 499.545 144.153C499.247 147.99 498.751 151.827 498.751 155.768C498.751 159.709 498.156 163.65 499.148 167.591C501.132 167.28 502.818 166.968 504.603 166.657C504.603 166.968 504.603 167.383 504.603 167.694C502.719 168.524 500.933 169.354 499.049 170.08C499.148 170.391 499.148 170.598 499.247 170.909C501.033 170.494 502.818 170.183 504.603 169.768C504.603 170.494 504.603 171.117 504.603 171.843C502.62 172.361 500.735 172.776 498.652 173.295C499.049 177.443 501.727 178.376 504.603 179.102C504.603 179.828 504.603 180.45 504.603 181.176C503.81 180.969 503.016 180.865 502.322 180.45C498.652 178.272 494.982 175.991 491.313 173.709C480.601 167.072 469.889 160.539 459.177 153.901C448.167 147.057 437.158 140.212 426.248 133.471C420.197 129.738 414.147 126.004 408.097 122.167C399.071 116.567 390.145 110.863 381.119 105.263C371.101 99.0403 361.183 92.8178 351.165 86.5954C347.991 84.625 344.718 82.7582 341.048 80.5804C341.048 84.4176 340.949 87.4251 341.048 90.5363C341.147 93.7512 340.453 96.9661 341.643 100.596C345.412 98.9365 348.884 97.2772 352.157 95.8253C353.942 96.9661 355.132 97.6921 356.422 98.5217C365.944 104.226 375.465 109.93 384.987 115.53C392.525 119.989 400.063 124.448 407.7 129.012C412.957 132.123 418.214 135.234 423.471 138.449C429.124 141.871 434.778 145.294 440.53 148.716C445.787 151.931 451.044 154.938 456.301 158.153C463.64 162.613 470.98 167.176 478.419 171.635C484.469 175.369 490.519 179.102 496.768 182.628C499.347 184.08 501.33 186.673 504.703 186.362C504.703 187.088 504.703 187.71 504.703 188.436C502.917 187.814 501.132 187.191 498.553 186.258C500.636 188.747 502.917 189.369 504.703 190.51C504.703 191.236 504.703 191.858 504.703 192.584C500.041 189.991 495.379 187.502 490.817 184.702C482.584 179.828 474.451 174.746 466.219 169.872C457.689 164.791 449.06 159.916 440.431 154.835C431.604 149.649 422.875 144.257 414.048 138.967C405.121 133.678 396.096 128.389 387.169 123.1C377.151 117.189 367.233 111.174 357.315 105.263C356.124 104.537 354.835 104.122 353.149 103.396C353.149 108.478 353.149 112.937 353.149 117.396C367.431 125.486 381.714 133.471 395.996 141.56C401.452 144.671 407.006 147.679 412.461 150.686C421.288 155.664 430.017 160.746 438.844 165.62C444.002 168.524 449.358 171.22 454.515 174.124C463.243 179.102 471.872 184.287 480.7 189.369C487.742 193.414 494.784 197.458 501.925 201.399C502.719 201.814 503.81 201.814 504.802 201.918C504.802 202.644 504.802 203.266 504.802 203.992C499.347 201.295 493.991 198.703 488.238 195.903C488.238 220.274 488.238 244.541 488.238 269.327C493.792 271.401 499.247 273.476 504.802 275.55C504.802 276.276 504.802 276.898 504.802 277.624C499.446 275.55 494.09 273.579 488.734 271.505C481.196 268.601 473.757 265.698 466.318 262.69C456.201 258.749 446.184 254.705 436.067 250.764C428.628 247.86 421.09 244.852 413.651 241.949C407.998 239.771 402.344 237.489 396.691 235.311C387.566 231.682 378.342 228.052 369.217 224.526C364.059 222.555 358.901 220.585 353.347 218.511C353.05 224.63 353.05 230.022 353.347 235.208C356.025 236.348 358.009 237.489 360.191 238.215C366.043 240.186 371.994 241.949 377.846 244.023C386.772 247.238 395.699 250.66 404.625 253.875C414.742 257.505 425.057 260.927 435.174 264.66C448.465 269.431 461.656 274.305 474.848 279.179C484.866 282.809 494.883 286.543 504.901 290.172C504.901 290.898 504.901 291.521 504.901 292.247C502.62 291.417 500.338 290.484 498.057 289.654C487.147 285.609 476.237 281.565 465.227 277.624C457.094 274.72 448.862 271.92 440.629 268.912C428.628 264.557 416.627 260.097 404.526 255.742C397.087 253.045 389.748 250.453 382.309 247.756C372.291 244.126 362.274 240.497 352.653 237.074C344.222 239.46 336.387 241.534 328.551 243.815C315.855 247.549 303.16 251.49 290.563 255.327C283.224 257.608 275.884 259.786 268.445 261.964C258.527 264.868 248.609 267.564 238.789 270.468C230.755 272.75 222.821 275.239 214.787 277.624C205.364 280.424 195.942 283.224 186.519 286.024C178.386 288.409 170.154 290.795 162.12 293.284C158.252 294.424 154.483 295.98 150.714 297.328C144.762 297.743 139.407 300.336 133.654 301.684C127.207 303.239 120.859 305.625 114.511 307.595C109.056 309.255 103.502 310.81 98.0467 312.366C93.4842 313.61 88.9217 314.751 84.3592 316.099C79.7967 317.447 75.3335 319.107 70.8702 320.662C78.9041 323.774 87.4339 323.048 95.3687 325.433C112.924 320.766 130.381 315.995 147.936 311.329C147.936 307.18 147.936 303.447 147.936 299.921C149.027 298.884 149.92 298.158 150.813 297.432C153.788 297.743 157.161 296.499 159.64 299.299C159.739 302.099 159.839 304.795 160.037 308.01C170.749 305.314 180.965 302.825 191.181 300.128C201.298 297.536 211.414 294.736 221.432 292.039C231.648 289.343 241.963 286.75 252.179 283.639C262.296 280.631 272.611 278.557 282.728 275.239C282.728 269.742 282.728 264.764 282.728 259.89C287.786 256.779 293.341 257.194 297.308 260.72C298.101 264.142 296.812 267.875 298.101 271.298C321.509 265.075 344.718 258.853 367.729 252.734C378.342 256.26 388.756 259.683 399.17 263.105C404.923 265.075 410.577 267.253 416.329 269.12C424.264 271.713 432.298 273.994 440.233 276.69C450.151 280.009 460.07 283.431 469.988 286.854C473.36 287.995 476.832 289.032 480.303 290.172C488.535 292.869 496.768 295.669 505 298.469C505 299.195 505 299.817 505 300.543C501.727 299.402 498.553 298.158 495.28 297.017C489.726 295.15 484.171 293.387 478.617 291.521C477.824 298.469 478.022 360.59 478.815 364.634C487.048 365.982 495.28 367.434 503.215 368.782C504.008 367.538 504.504 366.708 505 365.879C505 367.642 505 369.301 505 371.064C502.719 370.753 500.438 370.442 498.256 370.027C492.999 369.093 487.742 368.056 482.386 367.123C478.22 366.397 474.055 365.671 469.889 364.945C464.235 364.012 458.681 363.078 453.027 362.145C448.564 361.419 444.002 360.486 439.538 359.76C434.083 358.93 428.529 358.308 423.074 357.271C415.04 355.819 407.105 354.056 399.17 352.5C398.972 352.5 398.873 352.5 398.674 352.5C393.219 351.774 387.665 351.256 382.21 350.219C373.382 348.663 364.654 346.9 355.827 345.241C353.149 344.722 350.471 344.619 347.396 344.204C347.495 348.248 346.9 351.774 347.694 354.989C350.074 355.508 352.157 356.026 354.24 356.338C356.62 356.752 359.1 357.167 361.48 357.478C365.051 357.893 368.622 358.101 372.192 358.723C379.433 359.967 386.574 361.523 393.814 362.664C399.964 363.597 406.113 364.012 412.263 364.945C420.495 366.19 428.628 367.642 436.86 368.99C439.638 369.405 442.316 369.716 445.093 370.027C447.969 370.442 450.945 370.649 453.821 371.375C461.657 373.242 469.591 373.968 477.427 375.212C480.502 375.731 483.576 376.042 486.651 376.56C492.8 377.494 498.851 378.427 505 379.36C505 380.086 505 380.709 505 381.435C502.719 381.123 500.537 380.812 498.256 380.398C492.8 379.464 487.345 378.012 481.791 378.116C481.692 378.116 481.493 377.909 481.295 377.909C476.038 376.975 470.682 375.834 465.326 375.316C459.673 374.694 454.119 373.034 448.366 372.827C443.605 372.723 438.844 370.856 433.984 370.131C426.446 368.886 418.809 367.953 411.172 366.916C409.287 366.604 407.303 366.19 405.419 365.879C401.848 365.464 398.178 365.464 394.707 364.634C386.574 362.664 378.342 361.938 370.109 360.693C367.233 360.278 364.357 359.76 361.381 359.345C357.711 358.723 353.942 358.204 350.272 357.582C348.685 357.375 347.099 356.96 346.008 356.752C341.048 357.375 336.486 358.101 332.023 358.619C328.254 359.034 324.584 359.345 320.815 359.656C320.319 359.656 319.823 359.656 319.327 359.76C313.376 360.693 307.425 361.938 301.474 362.664C294.63 363.597 287.786 364.116 281.042 364.841C277.67 365.153 274.198 365.567 270.826 365.982C263.685 366.916 256.642 367.953 249.501 368.99C247.22 369.301 245.038 369.716 242.757 370.027C238.69 370.442 234.524 370.234 230.557 371.271C223.217 373.242 215.58 372.723 208.24 374.175C204.67 374.901 201.099 374.901 197.529 375.42C193.363 375.938 189.197 376.768 184.932 377.39C182.353 377.805 179.775 378.116 177.196 378.427C173.129 378.842 169.063 379.153 164.996 379.568C162.219 379.879 159.442 380.19 156.764 380.605C152.4 381.227 148.036 381.953 143.671 382.575C141.291 382.887 138.811 383.301 136.431 383.612C132.364 384.027 128.298 384.235 124.231 384.857C117.288 385.79 110.346 386.827 103.403 387.864C100.328 388.279 97.2532 388.59 94.1785 388.902C90.3103 389.316 86.3429 389.627 82.4747 390.146C81.2845 390.25 80.1935 390.976 79.1025 391.494C83.2682 392.013 87.4339 392.116 91.5005 392.013C98.245 391.805 104.99 391.702 111.635 390.872C117.983 390.042 124.231 388.798 130.678 388.902C131.174 388.902 131.67 388.902 132.166 388.798C137.125 387.968 142.184 387.242 147.44 386.413C150.416 382.679 150.614 382.575 157.061 382.783C158.351 383.405 159.739 384.131 161.128 384.753C167.178 384.338 173.228 384.027 179.279 383.612C179.477 383.612 179.576 383.612 179.775 383.509C185.23 382.368 190.685 381.538 196.338 381.538C197.033 381.538 197.628 381.538 198.322 381.435C205.463 380.398 212.505 378.946 219.647 378.531C226.391 378.116 232.937 377.286 239.583 376.353C244.641 375.627 249.7 375.523 254.758 375.212C255.452 375.212 256.047 375.005 256.742 374.901C260.61 374.279 264.478 373.553 268.346 373.138C273.008 372.62 277.769 372.308 282.728 371.997C282.926 370.234 283.125 368.782 283.323 367.434C289.472 364.427 294.63 365.256 298.697 369.923C300.383 369.923 302.267 370.234 304.053 369.819C309.508 368.679 314.963 367.849 320.616 367.953C321.807 367.953 322.898 367.953 324.088 367.745C327.758 367.123 331.427 366.293 335.196 365.879C340.255 365.36 345.313 365.153 350.372 364.738C350.868 364.738 351.363 364.738 351.859 364.634C357.81 363.39 363.762 362.56 369.911 362.767C370.704 362.767 371.597 362.767 372.391 362.871C380.424 364.219 388.458 365.567 396.492 366.916C398.575 367.227 400.658 367.642 402.741 367.953C409.089 368.679 415.437 369.301 421.685 370.131C430.116 371.375 438.447 372.827 446.779 374.175C453.523 375.212 460.268 376.249 467.112 377.286C469.69 377.701 472.269 378.012 474.848 378.427C480.799 379.153 486.849 379.879 492.8 380.709C496.966 381.227 501.132 381.953 505.397 382.575C505.397 383.924 505.397 385.375 505.397 386.724C504.603 385.687 503.711 384.753 503.116 383.924C499.247 383.509 495.677 383.198 491.511 382.783C491.511 407.258 491.511 431.733 491.511 456.104C490.817 456.104 490.222 456.104 489.527 456.104C489.527 454.03 489.527 451.955 489.527 449.881C489.527 429.036 489.527 408.087 489.527 387.242C489.527 385.479 490.222 383.405 487.841 381.435C486.849 381.435 485.163 381.538 483.576 381.435C482.088 381.331 480.502 381.02 478.617 380.709C478.617 406.117 478.617 431.11 478.617 456.104C477.923 456.104 477.328 456.104 476.633 456.104C476.633 431.11 476.633 406.013 476.633 380.812C471.972 379.568 467.707 378.22 462.748 378.531C462.748 404.665 462.748 430.384 462.748 456.104C462.053 456.104 461.458 456.104 460.764 456.104C460.764 430.384 460.764 404.769 460.764 378.531C455.904 377.286 451.242 375.627 445.886 376.56C445.886 403.317 445.886 429.762 445.886 456.104C445.589 456.104 445.192 456.104 444.894 456.104C444.894 430.488 444.894 404.976 444.894 379.36C444.894 378.323 444.795 377.286 444.795 376.249C444.795 376.146 444.696 375.938 444.597 375.834C444.498 375.731 444.398 375.627 444.398 375.627C439.34 374.797 434.48 373.968 429.124 373.138C429.124 401.243 429.124 428.621 429.124 456.104C428.43 456.104 427.835 456.104 427.14 456.104C427.14 428.621 427.14 401.243 427.14 373.138C421.09 372.516 415.635 370.338 409.287 371.271C409.287 399.791 409.287 427.895 409.287 456C408.593 456 407.998 456 407.303 456C407.303 427.688 407.204 399.272 407.204 370.96C407.204 370.857 407.105 370.649 407.006 370.545C406.907 370.442 406.808 370.338 406.51 370.027C401.055 370.027 395.699 366.605 389.549 368.368C389.549 397.613 389.549 426.755 389.549 456C388.855 456 388.26 456 387.566 456C387.566 427.792 387.566 399.687 387.566 371.479C387.566 370.234 387.467 369.093 387.467 367.849C387.467 367.745 387.367 367.538 387.268 367.434C387.169 367.33 387.07 367.227 386.772 366.916C381.317 366.916 375.862 364.634 369.812 364.841C369.812 395.539 369.812 425.718 369.812 455.896C369.117 455.896 368.522 455.896 367.828 455.896C367.828 426.962 367.828 397.924 367.828 368.99C367.828 367.953 367.729 366.916 367.729 365.879C367.729 365.671 367.63 365.567 367.531 365.464C367.431 365.36 367.332 365.256 366.737 364.634C357.215 365.775 347.198 366.086 337.081 368.368C337.081 397.717 337.081 426.858 337.081 456C336.387 456 335.792 456 335.097 456C335.097 427.066 334.998 398.028 334.998 369.093C334.998 368.886 334.899 368.782 334.8 368.679C334.7 368.575 334.601 368.471 334.105 367.953C325.08 369.093 315.855 370.234 306.334 371.479C306.334 399.894 306.334 427.999 306.334 456.104C305.64 456.104 305.044 456.104 304.35 456.104C304.35 428.103 304.251 400.206 304.251 372.205C304.251 372.101 304.152 371.894 304.053 371.79C303.953 371.686 303.854 371.479 303.656 371.271C301.97 371.686 300.284 372.101 298.399 372.62C298.399 400.517 298.399 428.31 298.399 456.104C297.705 456.104 297.11 456.104 296.415 456.104C296.415 426.858 296.415 397.613 296.316 368.16C292.349 368.056 288.977 367.538 285.505 368.575C285.505 397.924 285.505 426.962 285.505 456.104C284.811 456.104 284.216 456.104 283.521 456.104C283.521 428.932 283.521 401.761 283.422 374.59C281.141 374.59 279.455 374.59 277.57 374.59C277.57 402.072 277.57 429.036 277.57 456.104C276.876 456.104 276.281 456.104 275.587 456.104C275.587 430.488 275.587 404.976 275.587 379.36C275.587 378.323 275.487 377.286 275.487 376.249C275.487 376.146 275.388 375.938 275.289 375.834C275.19 375.731 275.091 375.627 274.694 375.212C266.958 374.901 259.122 376.146 250.89 377.597C250.89 403.939 250.89 430.073 250.89 456.104C250.195 456.104 249.6 456.104 248.906 456.104C248.906 430.177 248.807 404.25 248.807 378.323C248.807 378.22 248.708 378.012 248.608 377.909C248.509 377.805 248.41 377.701 248.212 377.39C241.17 379.049 233.632 377.805 226.193 380.398C226.193 405.702 226.193 430.903 226.193 456.104C225.895 456.104 225.499 456.104 225.201 456.104C225.201 432.251 225.201 408.398 225.201 384.546C225.201 383.509 225.102 382.472 225.102 381.435C225.102 381.331 225.003 381.123 224.903 381.02C224.804 380.916 224.705 380.812 224.11 380.294C217.663 381.227 210.621 380.916 203.48 382.783C203.48 407.465 203.48 431.733 203.48 456.104C202.785 456.104 202.19 456.104 201.496 456.104C201.496 433.288 201.496 410.473 201.496 387.657C201.496 386.309 201.397 384.857 201.397 383.509C201.397 383.405 201.298 383.198 201.198 383.094C201.099 382.99 201 382.783 200.901 382.783C198.223 382.99 195.644 383.509 193.065 383.509C189.594 383.509 186.222 383.924 182.651 385.272C182.651 408.813 182.651 432.458 182.651 456.104C181.957 456.104 181.362 456.104 180.667 456.104C180.667 434.014 180.667 411.924 180.667 389.731C180.667 388.383 180.568 386.931 180.568 385.583C180.568 385.479 180.469 385.272 180.37 385.168C180.27 385.064 180.171 384.961 180.171 384.857C174.518 385.583 168.864 386.205 162.913 386.931C162.913 410.161 162.913 433.081 162.913 456C161.921 456 160.93 456 159.938 456C159.938 454.652 159.938 453.2 159.938 451.852C159.938 431.318 159.938 410.784 159.938 390.353C159.938 388.487 160.533 386.516 158.747 384.857C156.367 384.338 153.887 384.235 151.11 385.064C151.11 408.813 151.11 432.459 151.11 456C150.416 456 149.821 456 149.127 456C149.127 433.703 149.127 411.302 149.127 388.59C147.143 388.694 145.854 388.798 144.167 388.902C144.167 411.51 144.167 433.703 144.167 456C143.87 456 143.473 456 143.176 456C143.176 434.74 143.176 413.48 143.176 392.22C143.176 391.391 143.076 390.457 143.076 389.627C143.076 389.524 142.977 389.316 142.878 389.213C142.779 389.109 142.68 389.005 142.283 388.59C137.522 389.316 132.563 390.042 127.405 390.872C127.405 412.858 127.405 434.429 127.405 456C126.711 456 126.116 456 125.422 456C125.422 450.607 125.422 445.318 125.422 439.925C125.422 434.429 125.422 428.829 125.422 423.332C125.422 417.94 125.422 412.65 125.422 407.258C125.422 401.761 125.521 396.368 125.322 389.731C120.462 393.154 115.404 390.25 110.544 392.739C110.544 413.791 110.544 434.844 110.544 455.896C109.85 455.896 109.255 455.896 108.56 455.896C108.56 448.844 108.56 441.792 108.56 434.636C108.56 427.688 108.56 420.843 108.56 413.895C108.56 406.843 108.759 399.894 108.362 392.324C104.791 392.946 101.816 393.465 98.6418 394.087C98.6418 414.828 98.6418 435.362 98.6418 455.896C97.9475 455.896 97.3524 455.896 96.6581 455.896C96.5589 435.259 96.7573 414.621 96.5589 393.568C86.1445 394.294 76.2261 391.391 65.9109 393.05C65.9109 414.206 65.9109 435.051 65.9109 455.896C65.6134 455.896 65.2167 455.896 64.9191 455.896C64.8199 434.947 65.0183 413.895 64.8199 392.428C61.5468 393.05 58.968 393.568 55.9925 394.191C55.9925 414.932 55.9925 435.466 55.9925 455.896C55.695 455.896 55.2982 455.896 55.0007 455.896C54.9015 435.259 55.0998 414.621 54.9015 393.465C50.9341 394.087 47.661 394.605 44.0904 395.124C44.0904 415.554 44.0904 435.673 44.0904 455.896C43.3961 455.896 42.801 455.896 42.1067 455.896C42.1067 437.748 42.1067 419.599 42.1067 401.45C42.1067 399.894 42.0075 398.339 42.0075 396.783C42.0075 396.68 41.9083 396.472 41.8091 396.368C41.71 396.265 41.6108 396.161 41.214 395.642C38.3377 396.057 34.9654 394.605 32.2874 397.717C32.2874 417.11 32.2874 436.503 32.2874 455.793C31.5932 455.793 30.998 455.793 30.3038 455.793C30.3038 437.54 30.3038 419.184 30.3038 400.932C30.3038 399.894 30.2046 398.857 30.2046 397.82C30.2046 397.717 30.1054 397.509 30.0062 397.406C29.907 397.302 29.8078 397.198 29.4111 396.68C26.6339 397.094 23.6584 397.613 20.3853 398.131C20.3853 417.421 20.3853 436.607 20.3853 455.689C19.691 455.689 19.0959 455.689 18.4017 455.689C18.4017 437.125 18.3025 418.458 18.3025 399.894C18.3025 399.687 18.2033 399.583 18.1041 399.376C18.0049 399.272 17.9057 399.169 17.4098 398.65C15.2278 398.754 12.7481 398.857 10.5661 398.961C10.0702 399.791 9.77261 400.102 9.77261 400.413C9.67342 418.873 9.57424 437.229 9.57424 455.689C9.27669 455.689 8.87995 455.689 8.5824 455.689C8.5824 438.266 8.5824 420.843 8.5824 403.421C8.5824 402.591 8.48322 401.658 8.48322 400.828C8.48322 400.724 8.38403 400.517 8.28484 400.413C8.18566 400.309 8.08648 400.206 7.39219 399.583C5.21014 399.998 2.53216 400.413 -0.344191 400.932C-0.344191 419.495 -0.344191 437.644 -0.344191 455.689C-1.03848 455.689 -1.63359 455.689 -2.32788 455.689C-2.32788 439.096 -2.32788 422.606 -2.32788 406.013C-2.32788 404.665 -2.42706 403.213 -2.42706 401.865C-2.42706 401.761 -2.52625 401.554 -2.62543 401.45C-2.72462 401.346 -2.8238 401.243 -3.4189 400.62C-5.40259 401.035 -7.68383 401.554 -10.1634 402.176C-10.1634 420.221 -10.1634 438.059 -10.1634 455.793C-10.8577 455.793 -11.4528 455.793 -12.1471 455.793C-12.1471 439.407 -12.1471 423.021 -12.1471 406.635C-12.1471 405.391 -12.1471 404.25 -12.2463 403.006C-12.2463 402.902 -12.3455 402.695 -12.4447 402.591C-12.5439 402.487 -12.643 402.28 -12.7422 402.176C-14.9243 402.591 -17.1063 403.109 -19.8835 403.628C-20.0819 421.154 -19.8835 438.474 -19.9827 455.793C-20.2802 455.793 -20.677 455.793 -20.9745 455.793C-20.9745 438.681 -20.9745 421.466 -21.0737 403.835C-23.9501 404.25 -26.4297 403.317 -28.9093 404.665C-28.9093 421.777 -28.9093 438.785 -28.9093 455.793C-29.6036 455.793 -30.1987 455.793 -30.893 455.793C-30.893 450.089 -30.893 444.385 -30.893 438.785C-30.893 433.288 -30.7938 427.792 -30.893 422.295C-30.9922 416.695 -30.5954 410.991 -31.0913 405.495C-33.1742 405.495 -34.8603 405.495 -36.7448 405.495C-36.7448 422.503 -36.7448 439.199 -36.7448 455.896C-37.4391 455.896 -38.0342 455.896 -38.7285 455.896C-38.7285 439.407 -38.7285 423.021 -38.8277 406.324C-41.8032 406.117 -44.1837 405.806 -46.6633 406.739C-46.6633 423.229 -46.6633 439.511 -46.6633 455.896C-47.3576 455.896 -47.9527 455.896 -48.647 455.896C-48.647 447.807 -48.647 439.718 -48.647 431.629C-48.647 423.643 -48.5478 415.554 -48.7461 407.154C-50.6307 407.258 -51.92 407.361 -53.6062 407.465C-53.6062 423.851 -53.6062 439.822 -53.6062 455.793C-54.3005 455.793 -54.8956 455.793 -55.5899 455.793C-55.5899 447.911 -55.5899 439.925 -55.5899 432.044C-55.5899 424.162 -55.4907 416.28 -55.6891 408.087C-57.5736 408.191 -58.9621 408.295 -60.5491 408.398C-60.5491 424.473 -60.5491 440.133 -60.5491 455.793C-61.2434 455.793 -61.8385 455.793 -62.5328 455.793C-62.5328 440.34 -62.632 424.992 -62.632 409.539C-64.9132 409.539 -66.5993 409.539 -68.4838 409.539C-68.4838 425.199 -68.4838 440.548 -68.4838 455.793C-68.7814 455.793 -69.1781 455.793 -69.4757 455.793C-69.5749 440.34 -69.3765 424.888 -69.5749 408.917C-71.8561 409.643 -73.5422 410.058 -75.4267 410.68C-75.4267 425.821 -75.4267 440.859 -75.4267 455.793C-76.121 455.793 -76.7161 455.793 -77.4104 455.793C-77.4104 440.755 -77.4104 425.718 -77.5096 410.369C-79.0966 410.991 -80.1876 411.302 -81.3778 411.821C-81.3778 426.547 -81.3778 441.17 -81.3778 455.793C-82.0721 455.793 -82.6672 455.793 -83.3615 455.793C-83.3615 441.066 -83.3615 426.34 -83.4607 411.199C-85.5435 411.406 -87.1305 411.51 -89.1142 411.717C-89.5109 426.755 -89.2134 441.274 -89.3125 455.896C-90.0068 455.896 -90.6019 455.896 -91.2962 455.896C-91.3954 441.585 -91.4946 427.377 -91.5938 413.065C-91.5938 412.962 -91.7922 412.858 -92.3873 412.339C-93.3791 412.547 -94.6685 412.858 -96.3546 413.169C-96.3546 427.688 -96.3546 441.792 -96.3546 455.896C-96.6522 455.896 -97.0489 455.896 -97.3465 455.896C-97.3465 442.933 -97.3465 429.97 -97.4457 417.006C-97.4457 415.865 -96.7514 414.206 -99.231 413.273C-99.3302 427.792 -99.231 441.792 -99.3302 455.896C-101.611 456 -102.306 456 -103 456ZM243.153 50.5053C246.327 50.0905 248.311 47.7053 250.592 45.7348C247.617 46.4608 245.038 47.9127 243.153 50.5053C240.773 50.8165 238.888 51.9572 237.599 53.9277C237.797 54.2388 237.996 54.5499 238.194 54.861C239.88 53.4091 241.566 51.9572 243.153 50.5053ZM490.122 181.176C491.511 183.873 494.189 184.08 496.47 185.013C494.883 182.732 492.602 181.798 490.122 181.176C486.056 177.339 481.394 174.643 476.237 172.88C475.741 172.257 475.344 171.428 474.65 171.013C470.286 168.317 466.021 165.62 461.557 163.235C459.574 162.198 458.086 159.916 455.408 160.435C455.011 159.916 454.714 159.19 454.218 158.879C449.655 156.079 445.192 153.383 440.629 150.686C432.496 145.916 424.264 141.145 416.23 136.375C406.708 130.671 397.286 124.76 387.863 118.952C377.052 112.418 366.34 105.885 355.529 99.4551C354.934 99.144 354.24 99.0403 352.653 98.5217C353.645 100.181 353.942 101.011 354.537 101.426C362.175 105.989 369.911 110.552 377.647 115.115C383.797 118.745 389.946 122.271 396.096 125.9C404.13 130.775 412.163 135.649 420.297 140.523C429.521 146.02 438.745 151.62 448.068 157.013C450.449 158.464 453.127 159.398 455.705 160.539C456.201 161.161 456.598 161.99 457.292 162.405C462.152 165.413 467.112 168.317 472.071 171.117C473.459 171.946 475.046 172.361 476.534 172.983C480.402 176.613 484.965 179.413 490.122 181.176ZM489.131 139.693C491.412 142.494 494.387 144.257 497.561 145.397C495.181 142.805 492.701 140.316 489.131 139.693C487.94 138.553 486.849 137.308 485.56 136.375C475.542 129.323 465.525 122.374 455.408 115.53C454.218 114.7 452.73 114.389 451.441 113.767C450.845 112.937 450.349 112.004 449.556 111.485C446.184 109.1 442.613 107.026 439.142 104.64C421.487 92.5067 403.931 80.2693 386.276 68.1355C376.755 61.4983 367.233 54.861 357.612 48.3275C348.19 41.7939 338.767 35.3641 329.345 28.8306C321.608 23.4378 313.872 17.9413 306.135 12.5486C305.441 12.1337 304.648 11.9263 303.457 11.5115C304.747 15.3486 307.822 15.7635 310.103 17.3191C323.393 26.6527 336.883 35.7789 350.272 45.0089C362.175 53.2017 373.977 61.4983 385.88 69.6912C396.294 76.8469 406.609 84.0027 417.024 91.1585C426.148 97.4847 435.273 103.914 444.498 110.137C446.68 111.589 449.06 112.626 451.441 113.87C452.631 116.878 455.705 117.396 457.987 119.056C466.814 125.382 475.84 131.604 484.766 137.723C486.155 138.553 487.742 138.967 489.131 139.693ZM136.133 113.767C137.125 112.418 138.117 111.07 139.01 109.722C139.01 98.6254 139.01 87.5288 139.01 76.5358C139.01 76.4321 138.911 76.2247 138.811 76.121C138.712 76.0173 138.613 76.0173 138.316 75.9136C135.638 77.884 132.86 79.9582 130.381 81.8249C129.686 99.0403 129.984 112.418 131.075 115.633C132.662 115.011 134.348 114.389 136.133 113.767C135.737 114.389 135.439 115.011 134.943 115.426C125.818 121.752 116.793 128.182 107.568 134.404C96.2614 141.975 84.8551 149.442 73.5481 157.013C62.2411 164.583 51.0333 172.257 39.7263 179.932C29.5103 186.776 19.2943 193.621 9.1775 200.466C-9.27078 213.014 -27.6199 225.563 -45.969 238.111C-52.7135 242.675 -59.4581 247.238 -66.2026 251.801C-75.03 257.712 -83.7582 263.727 -92.5856 269.742C-93.7758 270.572 -94.4701 271.609 -93.5775 273.372C-90.9987 271.816 -88.4199 270.364 -85.9403 268.705C-76.8153 262.69 -67.6904 256.571 -58.6646 250.453C-46.6633 242.467 -34.662 234.378 -22.6607 226.393C-10.6594 218.303 1.24276 210.111 13.2441 202.125C28.7168 191.754 44.1896 181.487 59.5631 171.117C67.002 166.139 74.3416 160.953 81.7804 155.975C95.9638 146.538 110.246 137.101 124.529 127.663C132.662 122.271 140.696 116.567 148.73 111.07C153.689 107.752 158.747 104.537 163.707 101.218C172.633 95.2031 181.461 88.9807 190.486 83.0694C198.52 77.6766 206.654 72.595 214.687 67.3059C224.11 61.0835 233.433 54.7573 242.856 48.4312C249.303 44.0755 255.849 39.8235 262.296 35.4678C268.346 31.4232 274.297 27.1713 280.347 23.1267C287.489 18.2524 294.63 13.4819 301.573 8.91881C301.573 6.94837 301.573 5.39277 301.573 3.42233C295.919 7.05208 290.464 10.3707 285.208 14.0005C266.958 26.3416 248.708 38.8902 230.458 51.2313C219.647 58.5945 208.637 65.7503 197.826 73.1135C184.238 82.3434 170.749 91.6771 157.161 100.907C151.408 104.848 145.655 108.789 139.803 112.626C138.613 113.041 137.324 113.248 136.133 113.767ZM353.546 216.229C374.374 224.422 395.401 232.615 416.627 241.015C416.627 212.392 416.627 184.184 416.627 155.146C410.081 150.79 402.642 147.575 395.798 143.323C389.054 139.175 382.21 135.13 375.168 131.501C368.026 127.871 361.381 123.1 353.546 119.885C353.546 152.138 353.546 183.873 353.546 216.229ZM275.587 52.2684C253.667 66.0614 232.144 79.647 210.423 93.2327C210.423 95.0994 210.423 96.7587 210.423 98.5217C210.423 120.922 210.522 143.427 210.621 165.828C210.621 165.931 210.819 166.139 210.918 166.242C211.018 166.346 211.216 166.45 211.712 166.657C232.937 156.183 254.46 145.605 275.587 135.13C275.587 107.337 275.587 80.0619 275.587 52.2684ZM301.077 15.1412C297.705 17.4228 294.332 19.4969 291.059 21.6748C282.53 27.3787 274 33.1863 265.371 38.8902C250.195 48.9497 234.921 59.0093 219.647 69.0689C207.05 77.3655 194.454 85.662 181.857 93.9586C173.526 99.4551 165.294 105.055 156.962 110.552C144.167 118.952 131.373 127.249 118.578 135.649C109.85 141.353 101.221 147.368 92.4924 153.072C83.4666 158.983 74.4408 164.894 65.415 170.806C54.7031 177.754 43.9912 184.702 33.2793 191.754C24.1543 197.769 15.1286 204.096 6.00361 210.111C-5.30341 217.681 -16.7096 225.148 -28.1158 232.615C-39.9187 240.393 -51.7217 248.067 -63.5246 255.845C-70.9634 260.72 -78.5015 265.698 -85.9403 270.675C-90.6019 273.787 -95.2636 277.105 -99.9253 280.32C-99.9253 281.98 -99.9253 283.639 -99.9253 286.024C34.2711 201.814 167.972 117.811 301.672 33.7048C301.672 27.8972 301.672 22.4007 301.672 16.8005C301.672 16.3857 301.275 15.9709 301.077 15.1412ZM-100.62 327.611C-98.3383 326.47 -96.4538 325.433 -94.5693 324.603C-83.4607 319.521 -72.352 314.44 -61.2434 309.255C-53.507 305.625 -45.7706 301.995 -37.9351 298.365C-30.893 295.047 -23.8509 291.935 -16.8088 288.617C-9.07241 284.987 -1.33603 281.254 6.40035 277.624C17.0131 272.646 27.725 267.772 38.3377 262.897C41.8091 261.342 45.2806 259.994 48.7521 258.334C55.2982 255.223 61.7452 251.801 68.2914 248.793C78.6065 243.919 89.0209 239.356 99.3361 234.585C107.37 230.852 115.404 226.911 123.438 223.074C131.769 219.133 140.2 215.296 148.631 211.355C155.177 208.244 161.822 205.133 168.368 202.125C176.105 198.495 183.94 195.073 191.677 191.443C197.033 188.954 202.488 186.569 207.844 184.08C217.762 179.413 227.581 174.746 237.5 170.183C242.261 167.902 247.022 165.724 251.782 163.546C258.924 160.227 266.164 156.805 273.305 153.486C281.042 149.857 288.877 146.331 296.614 142.701C303.557 139.486 310.4 136.271 317.244 133.056C325.476 129.219 333.709 125.486 341.941 121.648C345.016 120.197 348.09 118.641 351.264 117.189C351.066 112.522 351.661 108.063 350.868 103.707C350.272 103.603 349.876 103.396 349.677 103.5C333.213 111.589 316.847 119.678 300.383 127.767C299.688 127.249 298.994 126.626 298.201 126.004C286.596 131.708 275.19 137.204 263.784 142.908C254.262 147.575 244.939 152.553 235.417 157.22C222.92 163.339 210.423 169.25 197.925 175.265C189.296 179.517 180.766 183.976 172.137 188.228C165.095 191.754 157.954 195.28 150.912 198.703C141.589 203.266 132.166 207.829 122.744 212.392C114.61 216.437 106.477 220.585 98.3442 224.63C84.3592 231.474 70.3742 238.215 56.4884 245.06C52.8186 246.823 49.1488 248.793 45.479 250.66C35.6597 255.431 25.7413 259.994 15.922 264.868C8.28485 268.601 0.746839 272.75 -6.89036 276.587C-19.2884 282.705 -31.8848 288.617 -44.382 294.736C-53.2094 298.988 -61.8385 303.551 -70.6659 307.906C-76.6169 310.81 -82.568 313.403 -88.5191 316.307C-92.784 318.381 -96.9497 320.766 -101.215 322.944C-100.917 324.396 -100.818 325.744 -100.62 327.611ZM351.066 218.511C345.71 220.066 340.751 221.415 335.99 222.866C325.377 226.289 314.764 229.711 304.251 233.237C287.092 238.837 270.032 244.541 252.873 250.141C245.732 252.527 238.492 254.601 231.35 256.882C223.416 259.371 215.382 261.964 207.546 264.557C201.198 266.631 194.95 269.12 188.503 271.194C179.179 274.202 169.757 276.898 160.434 279.905C149.821 283.328 139.208 286.75 128.695 290.276C111.734 295.876 94.7736 301.476 77.8131 306.973C70.4734 309.358 63.1338 311.64 55.7941 313.921C47.8594 316.514 39.9247 319.003 31.9899 321.596C25.6421 323.67 19.3935 326.159 12.9465 328.233C3.62318 331.24 -5.79933 333.937 -15.1227 336.944C-25.7354 340.367 -36.2489 343.789 -46.8616 347.315C-63.3262 352.708 -79.89 358.204 -96.3546 363.597C-97.4457 363.908 -98.5367 364.323 -99.5285 364.945C-100.818 365.775 -101.314 366.916 -100.223 368.679C-99.231 368.575 -98.0408 368.575 -97.0489 368.264C-88.8166 365.671 -80.4851 363.182 -72.2528 360.693C-58.6646 356.545 -44.878 352.915 -31.2897 348.871C-14.6267 343.996 1.83787 338.811 18.5008 333.833C33.3785 329.374 48.3553 325.225 63.233 320.766C77.5155 316.514 91.6989 312.158 105.981 307.803C110.941 306.247 115.999 304.899 121.057 303.447C126.215 301.995 131.472 300.543 136.629 298.987C144.167 296.706 151.606 294.321 159.144 292.143C169.063 289.239 178.981 286.543 188.8 283.639C196.438 281.357 204.075 278.868 211.811 276.587C221.73 273.683 231.648 270.883 241.467 268.083C248.212 266.112 254.857 264.038 261.602 261.964C272.115 258.853 282.629 255.845 293.043 252.63C299.589 250.66 306.135 248.482 312.682 246.512C325.377 242.778 338.073 239.252 350.967 235.519C351.066 230.022 351.066 224.63 351.066 218.511ZM351.165 216.229C351.165 183.458 351.165 151.516 351.165 119.263C335.196 126.73 319.426 133.99 303.953 141.145C303.953 171.532 303.953 201.399 303.953 231.578C319.823 226.496 335.395 221.415 351.165 216.229ZM366.935 255.327C366.439 255.223 366.043 255.016 365.844 255.016C351.661 258.749 337.378 262.483 323.294 266.423C321.112 267.046 318.236 266.631 316.748 269.327C315.955 297.847 316.351 341.922 317.542 346.174C319.228 345.759 321.013 345.137 322.699 345.033C329.345 344.515 335.99 343.374 342.536 342.026C344.718 341.611 347.198 341.611 349.479 342.026C353.843 342.752 358.009 343.996 362.373 344.826C363.861 345.137 365.547 344.826 367.035 344.826C366.935 314.647 366.935 284.987 366.935 255.327ZM190.486 13.2745C189.296 13.8967 188.503 14.2079 187.809 14.6227C181.857 19.3932 175.906 24.2675 169.955 29.038C163.112 34.5345 156.169 40.0309 149.325 45.6311C141.39 52.061 133.555 58.4908 125.719 64.9206C120.462 69.1726 115.106 73.4246 109.75 77.6766C103.998 82.2397 98.245 86.8028 92.5915 91.3659C85.4503 97.0698 78.4082 102.981 71.2669 108.685C65.3158 113.456 59.2656 118.226 53.3145 123.1C42.5034 131.915 31.6924 140.834 20.7821 149.649C12.3514 156.494 3.92074 163.235 -4.50993 169.976C-13.2382 176.924 -21.8672 183.976 -30.5954 190.925C-37.0424 196.11 -43.6877 201.192 -50.3331 206.377C-50.3331 209.696 -50.7298 212.911 -49.9364 216.54C-48.151 215.4 -46.6633 214.466 -45.1755 213.429C-36.0506 206.377 -27.0248 199.325 -17.8998 192.377C-11.1553 187.191 -4.31156 182.317 2.43297 177.132C15.5253 167.176 28.5184 157.013 41.6108 146.953C53.017 138.242 64.4232 129.738 75.8294 121.13C89.0209 111.07 102.212 100.907 115.404 90.7437C122.148 85.5583 128.893 80.4767 135.538 75.2913C144.862 68.0318 154.185 60.7723 163.608 53.6166C172.534 46.7719 181.56 39.9272 190.486 33.1863C190.486 26.6527 190.486 20.3266 190.486 13.2745ZM208.34 262.69C209.133 236.348 208.736 190.717 207.745 186.258C206.852 186.569 205.86 186.776 205.067 187.088C201.298 188.851 197.628 190.614 193.859 192.377C182.948 197.458 171.939 202.333 161.029 207.518C159.442 208.244 158.152 209.592 157.061 210.422C156.466 237.385 156.665 274.72 157.557 279.076C174.419 273.683 191.379 268.186 208.34 262.69ZM231.846 174.954C231.053 180.347 231.152 250.867 232.144 255.119C246.724 250.349 261.304 245.578 275.785 240.912C275.785 212.081 275.785 183.458 275.785 154.42C261.007 161.264 246.526 168.005 231.846 174.954ZM369.316 255.119C369.316 285.402 369.316 315.373 369.316 345.759C381.714 347.834 393.914 350.011 406.212 352.086C407.006 348.145 407.204 274.616 406.411 267.357C394.31 263.312 381.912 259.268 369.316 255.119ZM345.214 344.411C344.321 344.204 343.825 343.996 343.33 344.1C338.668 344.722 334.006 345.448 329.345 346.174C326.071 346.589 322.798 346.796 319.624 347.315C311.095 348.663 302.565 350.011 294.035 351.36C290.464 351.878 286.894 352.189 283.323 352.708C274.992 353.952 266.561 355.3 258.229 356.545C254.46 357.063 250.592 356.856 247.022 357.789C238.888 360.071 230.557 360.071 222.424 361.627C218.754 362.353 214.985 362.353 211.216 362.871C202.984 364.116 194.851 365.567 186.618 366.812C183.048 367.33 179.477 367.434 175.906 367.953C167.377 369.197 158.847 370.649 150.317 371.997C146.746 372.516 143.176 372.827 139.605 373.345C135.935 373.864 132.265 374.59 128.496 375.109C125.422 375.523 122.347 375.834 119.272 376.249C112.825 377.183 106.378 378.323 99.9312 379.257C96.2614 379.775 92.4923 380.086 88.7233 380.709C85.1527 381.227 81.6813 381.849 78.1106 382.472C73.9449 383.094 69.7791 383.82 65.6134 384.442C60.4558 385.168 55.2982 385.894 50.1406 386.62C43.9912 387.45 37.8418 388.072 31.6923 388.902C31.494 388.902 31.3948 389.109 31.1964 389.109C26.0388 390.042 20.9804 391.079 15.8229 391.805C9.47506 392.635 3.12726 393.05 -3.12136 393.983C-11.0561 395.124 -18.8917 396.68 -26.7272 397.924C-29.5044 398.339 -32.1824 398.754 -34.9595 399.065C-38.5302 399.48 -42.1008 399.791 -45.6714 400.309C-52.1184 401.243 -58.5654 402.28 -65.0124 403.213C-68.583 403.732 -72.2528 403.524 -75.7243 404.458C-82.4688 406.117 -89.2134 406.843 -96.0571 407.465C-98.14 407.673 -100.223 408.191 -100.917 411.095C-100.024 411.199 -99.3302 411.613 -98.8342 411.406C-91.5938 409.124 -83.9566 409.747 -76.5178 408.398C-72.8479 407.776 -69.0789 407.673 -65.3099 407.154C-60.9458 406.635 -56.5817 405.806 -52.2176 405.287C-48.3494 404.769 -44.382 404.769 -40.5138 404.043C-35.5546 403.109 -30.5954 402.072 -25.4378 402.072C-24.6444 402.072 -23.8509 401.969 -22.9582 401.761C-17.3047 400.828 -11.7504 399.376 -6.09689 399.065C2.53215 398.546 11.062 396.887 19.691 395.85C28.4193 394.813 37.1475 393.672 45.9749 392.739C49.8431 392.324 53.8105 392.013 57.6786 391.598C62.3403 390.976 67.002 390.25 71.7628 389.627C75.631 389.109 79.5984 388.902 83.4666 388.487C88.029 387.968 92.4923 387.139 97.0548 386.516C100.625 385.998 104.295 385.998 107.767 385.272C112.627 384.235 117.388 383.405 122.347 383.405C123.537 383.405 124.727 383.405 125.818 383.198C129.984 382.161 134.15 381.435 138.415 381.331C141.985 381.227 145.655 381.02 149.127 380.19C156.466 378.427 164.004 378.427 171.443 377.286C174.815 376.768 178.287 376.664 181.659 376.146C187.61 375.212 193.561 373.553 199.512 373.345C206.455 373.138 213.101 371.271 219.944 371.064C223.515 370.96 227.185 370.649 230.656 369.923C235.814 368.886 240.971 367.953 246.228 367.953C247.319 367.953 248.509 367.538 249.6 367.434C255.551 366.604 261.502 365.671 267.553 364.945C271.421 364.427 275.388 364.219 279.256 363.701C283.918 363.078 288.58 362.353 293.241 361.73C295.622 361.419 298.101 361.004 300.482 360.693C304.548 360.278 308.714 360.382 312.682 359.449C320.021 357.789 327.559 357.686 334.998 356.545C338.47 355.923 342.04 355.508 345.512 354.989C345.214 351.256 345.214 348.041 345.214 344.411ZM303.854 15.3486C303.854 21.9859 303.854 28.2083 303.854 34.327C310.698 38.7864 317.343 43.0384 323.989 47.3941C333.312 53.5129 342.437 59.7353 351.76 65.7503C367.729 76.121 383.896 86.388 399.865 96.7587C411.965 104.64 423.867 112.73 435.968 120.715C451.639 130.982 467.31 141.249 483.08 151.412C487.544 154.316 492.106 157.116 496.867 160.02C496.867 155.768 496.867 151.931 496.867 147.886C432.695 103.914 368.423 59.7353 303.854 15.3486ZM444.498 358.619C444.498 332.174 444.498 306.247 444.498 280.424C432.695 275.55 413.354 269.224 408.99 268.912C408.99 296.499 408.99 323.981 408.99 351.671C409.585 352.086 410.18 352.604 410.775 352.708C421.784 354.678 432.794 356.649 444.498 358.619ZM268.743 353.123C268.743 328.855 268.743 305.21 268.743 281.15C256.345 284.365 244.145 287.58 232.045 290.795C231.747 291.313 231.45 291.624 231.45 291.935C231.35 292.558 231.251 293.284 231.251 294.01C231.251 315.27 231.35 336.426 231.35 357.686C231.35 357.789 231.549 357.997 231.648 358.101C231.747 358.204 231.846 358.308 232.045 358.515C244.145 356.649 256.246 354.886 268.743 353.123ZM471.277 262.586C471.277 236.556 471.277 211.251 471.277 185.843C460.466 179.724 449.854 173.709 438.844 167.487C438.844 195.177 438.844 222.348 438.844 249.727C449.556 253.979 459.97 258.127 471.277 262.586ZM100.526 221.415C107.568 217.992 114.115 214.985 120.562 211.459C126.909 208.036 133.951 205.859 139.803 201.71C140.498 192.377 140.299 141.768 139.407 137.827C132.761 142.079 126.116 146.123 119.669 150.375C113.123 154.524 106.18 157.946 100.625 162.924C100.526 182.628 100.526 201.814 100.526 221.415ZM476.038 363.908C476.038 338.811 476.038 314.751 476.038 290.38C466.021 287.061 456.201 283.846 446.382 280.528C445.985 281.15 445.688 281.461 445.688 281.772C445.589 282.602 445.589 283.535 445.589 284.365C445.688 308.84 445.787 333.315 445.787 357.893C445.787 357.997 445.886 358.204 445.985 358.308C446.085 358.412 446.184 358.515 446.58 359.034C456.102 360.59 465.822 362.249 476.038 363.908ZM157.061 193.517C168.071 188.021 178.783 182.732 189.296 177.547C189.296 153.798 189.296 130.36 189.296 106.611C179.179 112.833 169.459 118.848 159.739 124.863C158.648 125.589 157.656 126.523 157.061 127.041C157.061 149.546 157.061 171.324 157.061 193.517ZM228.672 358.93C229.664 353.019 229.466 295.98 228.474 291.935C217.465 294.839 206.356 297.121 195.743 300.958C195.049 318.173 195.347 359.034 196.239 363.701C201.694 362.871 207.05 361.938 212.505 361.108C217.961 360.278 223.416 359.656 228.672 358.93ZM301.375 232.511C302.168 224.318 301.87 146.746 300.978 142.805C292.944 146.642 284.712 149.96 277.273 154.316C276.479 166.139 276.777 236.245 277.669 240.289C285.604 237.593 293.44 235 301.375 232.511ZM276.975 51.7498C276.975 55.4833 276.975 58.6982 276.975 62.0168C276.975 83.5879 276.975 105.159 276.975 126.73C276.975 129.115 276.678 131.604 278.86 133.471C285.307 130.36 291.853 127.145 298.201 124.137C299.49 122.685 300.482 121.441 301.474 120.3C301.474 92.2993 301.474 64.4021 301.474 36.1938C292.944 41.2754 284.811 46.2534 276.975 51.7498ZM98.1459 298.573C98.1459 278.039 98.1459 257.919 98.1459 237.178C86.8388 242.363 75.9286 247.445 65.2167 252.423C64.324 259.164 64.5224 305.106 65.6134 309.151C76.2261 305.625 86.938 302.202 98.1459 298.573ZM194.156 363.597C195.049 354.678 194.751 305.314 193.76 301.269C184.139 303.965 174.22 305.521 164.996 309.151C164.302 331.033 164.599 363.39 165.591 368.056C175.113 366.501 184.734 365.36 194.156 363.597ZM17.2114 214.777C17.2114 230.645 17.2114 245.889 17.2114 261.031C17.2114 261.134 17.3106 261.342 17.4098 261.446C17.509 261.549 17.6082 261.653 17.9057 261.964C29.5103 256.26 41.1149 250.556 52.4219 245.06C52.4219 227.326 52.4219 210.214 52.4219 192.584C40.4206 200.155 28.816 207.414 17.2114 214.777ZM113.42 230.022C112.726 253.979 113.023 288.617 113.916 292.869C118.875 292.247 135.638 286.543 139.902 284.157C139.902 262.171 139.902 240.186 139.902 217.681C130.877 221.933 122.148 225.978 113.42 230.022ZM94.972 378.116C95.8646 370.131 95.5671 330.203 94.6744 326.781C91.6989 326.366 88.8225 325.951 85.9462 325.64C80.0943 324.811 74.3416 324.085 68.4897 323.359C67.3987 323.255 66.3077 323.359 65.2167 323.359C64.4232 329.063 64.5224 378.116 65.3158 382.575C75.1351 381.02 84.9543 379.568 94.972 378.116ZM436.364 248.69C436.364 220.689 436.364 193.517 436.364 166.139C430.612 162.924 424.958 159.709 418.908 156.287C418.908 185.221 418.908 213.429 418.908 241.949C424.661 244.126 430.215 246.304 436.364 248.69ZM-6.49362 331.24C-4.50993 331.655 -2.92299 331.344 -1.13767 330.722C4.91258 328.544 10.9628 326.677 17.0131 324.811C19.2943 324.085 21.5756 323.462 23.7576 322.736C24.4519 306.558 24.1543 275.965 23.2617 271.713C18.3025 274.098 13.4424 276.483 8.48322 278.868C3.42482 281.254 -1.63359 283.535 -6.59281 285.92C-6.49362 301.165 -6.49362 316.099 -6.49362 331.24ZM229.069 176.095C222.523 179.102 216.473 182.006 210.621 184.702C209.827 210.318 210.224 257.608 211.216 261.86C217.068 259.89 222.92 257.919 229.069 255.949C229.069 229.4 229.069 203.058 229.069 176.095ZM314.269 346.589C315.161 336.633 314.764 273.268 313.773 269.224C308.417 269.535 303.557 272.127 298.597 272.957C298.201 273.683 297.903 273.89 297.903 274.202C297.804 275.031 297.705 275.861 297.705 276.794C297.705 300.543 297.804 324.396 297.804 348.145C297.804 348.248 298.002 348.456 298.101 348.559C298.201 348.663 298.3 348.767 298.201 348.663C303.656 347.937 308.813 347.315 314.269 346.589ZM326.369 52.2684C323.691 49.1572 309.111 39.4087 304.152 37.4383C304.053 37.9568 303.755 38.3716 303.755 38.8902C303.755 65.3355 303.854 91.6771 303.854 118.122C303.854 118.226 304.053 118.433 304.152 118.537C304.251 118.641 304.35 118.745 304.548 118.848C308.119 118.019 308.119 118.019 310.896 114.7C310.896 108.27 310.896 101.426 310.896 94.7883C316.351 91.5733 321.509 88.5658 326.468 85.662C326.369 74.2543 326.369 63.365 326.369 52.2684ZM208.141 168.317C208.935 159.087 208.637 98.9365 207.745 94.892C202.389 98.3143 197.132 101.737 191.875 105.055C190.982 115.841 191.379 172.05 192.371 175.991C197.727 173.398 202.984 170.806 208.141 168.317ZM64.9191 238.941C72.5563 234.793 79.9951 232.2 86.1445 227.948C86.8388 216.955 86.6405 175.991 85.7478 171.531C78.7057 175.991 71.7628 180.45 64.9191 184.806C64.9191 202.644 64.9191 220.17 64.9191 238.941ZM134.844 316.825C127.306 318.899 120.462 320.766 113.619 322.529C112.924 328.855 113.023 370.856 113.916 375.212C117.388 374.797 120.859 374.486 124.43 373.968C127.901 373.449 131.373 372.931 134.844 372.412C134.844 353.952 134.844 335.804 134.844 316.825ZM486.948 268.394C486.948 243.4 486.948 219.133 486.948 194.658C482.584 192.169 478.319 189.68 473.955 187.191C473.063 191.34 472.864 256.468 473.559 263.416C477.923 265.075 482.188 266.631 486.948 268.394ZM-39.2244 250.764C-39.9187 262.586 -39.6212 286.024 -38.7285 290.069C-38.1334 289.758 -37.5383 289.55 -36.9432 289.239C-31.1905 286.439 -25.3386 283.639 -19.586 280.735C-17.7015 279.802 -15.6186 279.076 -14.6267 276.483C-14.6267 264.66 -14.6267 252.63 -14.6267 240.497C-14.6267 238.837 -14.4284 236.971 -17.0072 236.141C-24.3468 241.119 -32.3807 245.267 -39.2244 250.764ZM284.91 260.72C284.116 287.476 284.513 345.759 285.604 350.426C288.877 349.908 292.15 349.389 295.424 348.871C295.424 319.003 295.424 289.758 295.424 260.512C289.671 258.334 289.274 258.334 284.91 260.72ZM52.3227 313.403C53.1162 306.143 52.8186 262.794 51.9259 258.749C48.5537 260.201 45.2806 261.653 42.1067 263.209C39.7263 264.349 37.3459 265.49 35.1638 266.631C34.2711 278.661 34.6679 315.373 35.6597 319.003C41.3132 317.033 46.8676 315.27 52.3227 313.403ZM-56.8793 309.462C-57.5736 317.551 -57.3752 345.033 -56.6809 348.663C-49.5396 346.382 -42.2 344.722 -35.5546 341.3C-35.5546 327.611 -35.5546 314.336 -35.5546 300.958C-35.5546 300.647 -35.753 300.336 -36.0506 299.506C-42.9935 302.825 -49.9364 306.143 -56.8793 309.462ZM154.582 280.113C155.375 268.705 155.078 215.296 154.185 211.148C150.218 212.911 146.349 214.57 142.58 216.229C141.787 220.792 141.787 279.283 142.68 283.95C146.746 282.705 150.614 281.461 154.582 280.113ZM282.133 277.624C278.562 278.454 274.992 279.283 271.421 280.113C270.627 285.713 270.826 347.937 271.619 351.878C275.388 352.708 278.959 351.878 282.53 350.53C283.224 343.685 283.025 281.565 282.133 277.624ZM142.184 136.167C142.184 157.635 142.184 178.895 142.184 200.673C146.548 198.599 150.614 196.629 154.681 194.658C154.681 172.465 154.681 150.583 154.681 128.286C150.317 131.086 146.349 133.575 142.184 136.167ZM369.911 79.647C363.266 74.9802 356.124 70.4171 348.983 66.0614C341.941 61.7057 335.593 56.2092 327.857 52.5795C327.162 59.6316 327.262 80.6841 328.055 84.5213C332.717 83.4842 335.891 78.9211 341.445 78.2988C350.57 83.899 360.092 89.8103 369.911 95.929C369.911 90.4326 369.911 85.3509 369.911 79.647ZM192.768 12.4448C192.768 19.6006 192.768 26.4453 192.768 33.3937C204.075 39.305 214.787 46.1496 225.796 51.6461C230.854 48.1201 235.417 44.9052 240.376 41.4828C224.308 31.6307 208.637 22.0896 192.768 12.4448ZM-64.5165 312.884C-71.4594 316.099 -78.0055 319.107 -84.4525 322.01C-85.3452 326.574 -85.246 353.123 -84.3533 357.271C-80.7827 357.478 -77.8072 355.508 -74.6333 354.574C-71.3602 353.537 -68.0871 352.5 -64.9132 351.567C-64.1197 347.419 -63.8222 325.018 -64.5165 312.884ZM392.128 109.411C396.889 113.248 402.84 116.152 408.394 119.678C413.949 123.308 419.602 126.834 425.256 130.256C430.81 133.678 436.067 137.619 442.415 140.316C442.415 135.545 442.415 131.086 442.415 126.626C425.752 115.841 409.188 105.055 392.227 93.9586C392.128 99.3514 392.128 104.018 392.128 109.411ZM-64.4173 266.009C-71.6577 270.572 -78.2039 274.616 -84.8493 278.765C-84.8493 290.069 -84.8493 301.269 -84.8493 312.573C-77.9063 308.943 -70.8643 306.143 -64.4173 302.306C-64.4173 290.276 -64.4173 278.557 -64.4173 266.009ZM110.841 375.731C111.536 369.197 111.337 327.3 110.544 323.151C106.18 324.396 101.915 325.64 97.6499 326.885C96.8565 336.011 97.154 374.383 98.0467 377.909C102.212 377.183 106.378 376.457 110.841 375.731ZM477.427 128.286C477.625 127.975 477.824 127.663 478.022 127.352C476.732 126.315 475.641 125.071 474.253 124.137C469.69 120.819 465.029 117.604 460.466 114.389C450.052 106.922 439.638 99.4551 429.223 92.0919C421.189 86.388 413.155 80.8915 405.221 75.1876C395.203 68.0318 385.285 60.7723 375.267 53.7203C362.77 44.9052 350.272 36.1938 337.775 27.3787C334.7 25.2008 331.725 22.7118 328.551 20.534C323.989 17.2154 319.327 14.0005 314.665 10.7855C311.293 8.40027 307.921 6.11872 303.953 3.52604C303.953 5.70389 303.953 7.3632 303.953 9.02252C307.822 11.6152 311.69 14.2079 315.558 16.9043C328.353 25.8231 341.147 34.7419 354.041 43.557C366.34 52.061 378.738 60.3575 391.037 68.8615C413.75 84.5213 436.364 100.285 458.978 115.945C465.128 120.093 471.277 124.137 477.427 128.286ZM100.725 235.83C99.9312 247.549 100.229 293.284 101.121 297.328C104.394 296.291 107.568 295.358 111.04 294.217C111.04 273.164 111.04 252.319 111.04 231.059C107.469 232.822 104.097 234.378 100.725 235.83ZM6.79708 267.461C7.49137 257.09 7.29301 225.77 6.40035 221.311C1.83787 224.318 -2.92298 226.807 -6.69199 230.333C-6.69199 244.749 -6.69199 258.542 -6.69199 272.231C-6.69199 272.542 -6.39443 272.853 -5.89851 273.579C-1.63359 271.609 2.63134 269.535 6.79708 267.461ZM158.847 368.056C158.847 366.812 158.847 365.464 158.847 364.116C158.747 343.063 158.648 322.01 158.549 300.958C158.549 300.854 158.45 300.647 158.351 300.543C158.252 300.439 158.152 300.336 157.656 299.817C155.474 299.195 152.995 298.78 150.614 300.128C149.722 304.484 149.722 365.049 150.515 369.405C154.284 369.923 154.284 369.923 158.847 368.056ZM147.54 370.545C148.333 362.975 148.135 317.758 147.242 314.025C143.473 313.299 140.398 315.477 137.224 316.514C136.53 333.729 136.828 367.123 137.72 371.79C140.894 371.479 144.068 371.064 147.54 370.545ZM190.387 75.395C190.387 61.8094 190.387 49.1572 190.387 35.9864C185.329 39.8235 180.568 43.4533 176.006 46.8756C176.006 59.839 176.006 72.4912 176.006 85.5583C181.064 82.0323 185.726 78.7137 190.387 75.395ZM98.245 163.753C94.7736 165.931 91.6989 168.005 88.525 170.08C88.525 189.058 88.525 207.829 88.525 227.326C92.294 225.355 95.3687 223.8 98.245 222.244C98.245 202.644 98.245 183.354 98.245 163.753ZM-15.0235 335.078C-15.0235 319.833 -15.0235 305.106 -15.0235 289.861C-19.3876 291.935 -23.4541 293.698 -27.2231 295.461C-28.0166 303.862 -27.7191 334.766 -26.8264 338.915C-22.859 338.189 -19.1892 336.529 -15.0235 335.078ZM52.5211 326.574C48.6529 326.159 45.9749 328.129 43.0985 328.959C43.0985 347.834 43.0985 366.397 43.0985 384.857C46.57 386.309 49.3472 384.338 52.5211 383.924C52.5211 364.945 52.5211 345.967 52.5211 326.574ZM311.789 115.53C321.013 111.07 329.94 106.715 339.164 102.255C339.164 95.2031 339.164 88.2547 339.164 80.8915C330.039 86.388 320.418 90.5363 311.789 96.3439C311.789 102.877 311.789 108.996 311.789 115.53ZM40.5197 386.205C41.3132 377.805 41.0157 333.418 40.2222 329.788C37.2467 330.618 34.2711 331.344 31.3948 332.174C30.7005 338.189 30.7997 383.509 31.5932 387.138C34.3703 386.827 37.3458 386.516 40.5197 386.205ZM28.4193 388.176C29.3119 381.746 29.1136 337.463 28.2209 333.626C25.047 334.144 21.8731 334.248 19.2943 336.322C19.2943 353.849 19.2943 370.96 19.2943 388.176C22.4682 388.176 25.3445 388.176 28.4193 388.176ZM63.6297 383.301C63.5305 363.078 63.7289 343.27 63.5305 322.944C60.4558 323.67 57.9762 324.292 55.7941 324.811C55.3974 325.433 55.0999 325.744 55.0007 326.055C54.9015 326.677 54.8023 327.403 54.8023 328.129C54.8023 346.278 54.9015 364.427 55.0007 382.472C55.0007 382.575 55.199 382.783 55.2982 382.887C55.3974 382.99 55.4966 383.094 55.695 383.301C57.9762 383.301 60.4558 383.301 63.6297 383.301ZM63.1338 310.084C63.9273 304.069 63.8281 257.608 62.8362 253.46C60.1582 254.705 57.4803 255.949 54.9015 257.297C54.9015 275.861 54.9015 294.01 54.9015 312.469C57.6786 311.64 60.3566 310.914 63.1338 310.084ZM63.233 239.667C64.0264 232.304 63.7289 190.199 62.8362 186.154C60.0591 187.814 57.4803 189.473 54.9015 190.925C54.9015 208.348 54.9015 225.459 54.9015 242.571C54.9015 242.675 55.0998 242.882 55.199 242.986C55.2982 243.089 55.4966 243.089 55.7941 243.193C58.2738 242.052 60.7534 240.912 63.233 239.667ZM16.6163 389.316C17.4098 382.161 17.2114 340.678 16.3188 336.633C13.5416 337.567 10.8636 338.5 8.28484 339.33C7.59055 355.819 7.88811 385.894 8.78077 390.665C11.2604 390.25 13.8392 389.835 16.6163 389.316ZM-1.63359 392.116C1.63949 391.494 4.31747 390.976 6.79708 390.457C7.68974 376.768 7.293 343.478 6.10279 339.744C3.524 340.989 0.250912 340.367 -1.63359 342.648C-1.63359 359.034 -1.63359 375.108 -1.63359 392.116ZM163.012 56.9352C163.012 69.38 163.012 81.4101 163.012 94.2697C166.881 91.7808 170.253 89.6029 173.526 87.4251C173.526 74.4617 173.526 61.7057 173.526 48.6386C169.856 51.5424 166.385 54.3425 163.012 56.9352ZM33.5768 318.899C34.3703 308.01 34.0728 271.298 33.1801 267.357C30.8989 268.29 28.7168 269.327 26.0388 270.468C26.138 287.269 25.9396 304.069 26.138 320.766C29.2127 321.699 31.3948 320.766 33.5768 318.899ZM127.901 83.4842C123.835 86.5954 120.165 89.3955 116.495 92.1956C116.495 103.396 116.495 114.596 116.495 125.9C120.462 123.204 124.132 120.715 127.901 118.226C127.901 106.922 127.901 95.5142 127.901 83.4842ZM-11.7504 394.087C-9.7667 393.465 -8.77486 393.154 -7.68383 392.842C-6.49362 392.531 -5.20422 392.428 -4.01401 392.324C-3.22053 375.938 -3.51809 346.693 -4.7083 342.959C-5.79933 343.27 -6.79117 343.685 -7.8822 343.996C-8.97323 344.308 -10.0643 344.515 -11.552 344.826C-11.8496 361.004 -11.6512 377.183 -11.7504 394.087ZM193.264 35.8826C192.272 41.1717 192.371 69.5874 193.561 73.5283C197.231 70.0023 202.289 68.7578 205.562 64.2984C205.562 60.9798 205.562 57.5574 205.562 54.0314C205.562 50.6091 205.562 47.1867 205.562 43.9718C204.967 43.2459 204.769 42.7273 204.372 42.5199C200.802 40.3421 197.231 38.2679 193.264 35.8826ZM-47.7543 294.217C-46.9608 283.639 -47.2584 259.786 -48.2502 255.845C-51.3249 257.816 -54.3997 259.786 -57.276 261.653C-57.276 273.787 -57.276 285.506 -57.276 297.224C-57.276 297.536 -56.9784 297.847 -56.5817 298.469C-53.4078 297.639 -50.6307 295.876 -47.7543 294.217ZM-20.7762 347.626C-21.8672 351.671 -21.8672 390.146 -20.7762 394.917C-18.4949 394.398 -16.2137 393.879 -13.9324 393.361C-13.139 384.027 -13.4365 350.011 -14.3292 346.071C-16.6104 346.589 -18.7925 347.108 -20.7762 347.626ZM-30.2979 396.057C-27.5207 395.746 -25.3386 395.539 -22.859 395.331C-22.859 379.36 -22.859 364.012 -22.859 348.145C-25.6362 349.078 -28.0166 349.908 -30.2979 350.737C-30.2979 365.775 -30.2979 380.605 -30.2979 396.057ZM103.403 134.508C105.684 133.056 107.568 131.915 109.354 130.671C111.04 129.426 112.726 127.975 114.015 126.937C114.015 115.737 114.015 105.055 114.015 94.0623C110.246 97.1735 106.676 99.8699 103.403 102.566C103.403 113.352 103.403 123.515 103.403 134.508ZM-40.7122 397.509C-40.7122 382.679 -40.7122 368.368 -40.7122 353.641C-43.3902 354.367 -45.7706 355.093 -48.151 355.715C-48.9445 365.153 -48.647 395.02 -47.6551 399.065C-45.4731 398.546 -43.291 398.131 -40.7122 397.509ZM459.574 151.723C468.004 156.909 476.336 162.094 484.965 167.383C484.965 162.82 484.965 158.776 484.965 154.835C473.261 146.227 462.748 139.797 459.574 139.279C459.574 143.219 459.574 147.16 459.574 151.723ZM160.632 95.929C161.326 84.2101 161.128 62.8465 160.136 58.9056C157.359 61.1872 154.681 63.365 152.201 65.4392C151.507 79.3359 151.805 97.3809 152.796 101.322C155.375 99.5588 157.954 97.7958 160.632 95.929ZM9.37588 266.32C11.7563 265.075 13.74 264.142 15.8229 263.001C15.8229 247.238 15.8229 231.578 15.8229 215.711C13.5416 217.163 11.3596 218.407 9.37588 219.652C9.37588 235.311 9.37588 250.556 9.37588 266.32ZM149.722 103.5C149.722 90.8474 149.722 79.2322 149.722 67.2022C146.647 69.5875 143.87 71.6616 141.39 73.632C141.39 85.4546 141.39 96.8624 141.39 108.892C144.465 106.818 147.242 105.055 149.722 103.5ZM390.64 93.129C384.293 89.4992 379.036 84.7287 372.291 81.5138C372.291 87.2176 372.291 92.403 372.291 97.5884C378.242 101.218 384.194 104.952 390.64 108.892C390.64 103.292 390.64 98.418 390.64 93.129ZM101.022 136.582C101.716 126.626 101.518 108.478 100.526 104.537C97.7491 106.818 95.0711 108.892 92.5915 110.863C92.5915 121.337 92.5915 131.293 92.5915 141.768C95.6662 139.901 98.3442 138.242 101.022 136.582ZM-8.27894 332.9C-7.48546 326.781 -7.58465 290.795 -8.37812 287.165C-11.0561 287.683 -11.0561 287.683 -13.4365 289.55C-14.1308 299.402 -13.8333 330.411 -13.0398 334.455C-11.4528 334.04 -9.96507 333.522 -8.27894 332.9ZM-38.1334 352.708C-38.9269 359.967 -38.7285 392.946 -37.7367 396.783C-36.844 396.783 -35.8522 396.783 -34.8603 396.783C-34.2652 396.783 -33.5709 396.576 -32.7775 396.472C-32.7775 381.331 -32.7775 366.501 -32.7775 351.36C-34.7612 351.878 -36.4473 352.293 -38.1334 352.708ZM-13.2382 234.171C-14.1308 241.637 -13.8333 272.957 -12.8414 276.483C-12.3455 276.483 -11.8496 276.69 -11.4528 276.483C-10.2626 275.861 -9.1716 275.239 -8.17975 274.616C-7.38628 268.29 -7.58464 234.793 -8.4773 230.956C-10.1634 232.096 -11.7504 233.134 -13.2382 234.171ZM83.7641 147.783C86.7397 146.02 89.616 144.879 91.203 142.286C91.203 131.915 91.203 122.063 91.203 111.796C88.4258 113.767 86.0454 115.53 83.7641 117.085C83.7641 127.56 83.7641 137.516 83.7641 147.783ZM-69.674 362.353C-70.4675 368.679 -70.2692 398.131 -69.4757 402.176C-67.7895 401.657 -66.2026 401.139 -64.6156 400.62C-63.9214 391.702 -64.1197 364.53 -65.0124 360.693C-66.5001 361.212 -67.9879 361.73 -69.674 362.353ZM-76.6169 364.427C-77.4104 370.131 -77.3112 399.065 -76.4186 403.213C-74.7324 402.695 -73.1455 402.176 -71.5585 401.761C-70.8643 394.191 -71.0626 366.708 -71.8561 362.871C-73.4431 363.286 -74.9308 363.804 -76.6169 364.427ZM-90.8003 368.264C-90.8003 380.709 -90.8003 392.739 -90.8003 404.976C-88.9158 404.561 -87.428 404.25 -85.8411 403.835C-85.7419 403.835 -85.6427 403.628 -85.5435 403.421C-84.7501 395.746 -85.0476 370.545 -85.9403 367.019C-87.428 367.434 -89.015 367.849 -90.8003 368.264ZM-33.1742 298.262C-33.8685 308.425 -33.6701 336.737 -32.7775 341.093C-31.2897 340.47 -29.9011 339.848 -28.9093 339.433C-28.9093 324.707 -28.9093 310.706 -28.9093 296.187C-30.5954 297.017 -31.8848 297.639 -33.1742 298.262ZM81.4829 149.131C81.4829 143.842 81.5821 138.864 81.4829 133.886C81.3837 129.115 81.8796 124.241 81.0862 119.056C78.6065 121.234 76.4245 122.997 74.54 124.552C74.54 129.841 74.4408 134.715 74.54 139.486C74.6392 144.153 74.1432 148.923 74.8375 153.694C76.1269 152.864 77.1188 152.346 78.0114 151.62C79.2016 151.101 80.1935 150.168 81.4829 149.131ZM-54.9948 357.893C-55.8874 366.19 -55.5899 398.754 -54.598 399.894C-53.3086 399.376 -52.0192 398.961 -50.7298 398.443C-50.7298 384.442 -50.7298 370.753 -50.7298 356.96C-52.2176 357.271 -53.6062 357.582 -54.9948 357.893ZM72.5563 155.457C72.5563 150.272 72.6555 145.501 72.5563 140.73C72.4571 136.064 72.953 131.293 72.1596 126.212C69.7791 127.871 67.7954 129.219 65.9109 130.464C65.9109 140.523 65.9109 150.168 65.9109 160.124C68.2914 158.568 70.2751 157.116 72.5563 155.457ZM-57.4744 399.583C-57.4744 385.79 -57.4744 372.723 -57.4744 359.656C-57.4744 359.552 -57.5736 359.345 -57.6727 359.241C-57.7719 359.138 -57.8711 358.93 -58.0695 358.723C-59.3589 359.241 -60.7475 359.656 -61.9377 360.175C-62.7311 369.405 -62.4336 397.302 -61.4417 401.346C-60.1523 400.62 -58.8629 400.102 -57.4744 399.583ZM-92.2881 360.175C-91.4946 349.182 -91.7922 329.996 -92.8832 326.055C-94.4701 326.781 -96.0571 327.611 -97.4457 328.233C-98.3383 334.87 -98.0408 357.997 -97.1481 361.627C-95.6603 361.212 -94.1726 360.693 -92.2881 360.175ZM-45.2747 253.771C-45.2747 267.046 -45.2747 279.802 -45.2747 292.972C-43.4894 292.039 -41.9024 291.209 -40.613 290.484C-40.613 277.624 -40.613 265.179 -40.613 252.734C-40.613 252.423 -40.9106 252.216 -41.3073 251.697C-42.4975 252.423 -43.7869 253.045 -45.2747 253.771ZM443.803 141.768C448.267 144.671 452.432 147.368 457.193 150.375C457.193 145.501 457.193 141.249 457.193 136.686C453.027 133.782 448.862 130.775 443.803 127.975C443.803 132.849 443.803 137.101 443.803 141.768ZM-97.7432 287.061C-97.7432 297.536 -97.7432 307.595 -97.7432 317.758C-94.8669 317.551 -94.8669 317.551 -92.3873 315.581C-91.4946 306.247 -91.7922 287.269 -92.9824 283.95C-94.5693 284.883 -96.0571 285.92 -97.7432 287.061ZM-97.4457 370.649C-98.2391 376.457 -98.14 402.28 -97.2473 406.532C-95.7595 405.909 -94.3709 405.287 -93.3791 404.872C-93.3791 392.635 -93.3791 381.02 -93.3791 369.405C-94.8669 369.716 -96.0571 370.131 -97.4457 370.649ZM160.136 368.99C162.913 368.16 162.814 366.501 162.814 364.738C162.814 359.241 162.814 353.745 162.814 348.145C162.814 336.115 162.814 323.981 162.814 311.951C162.814 311.329 162.616 310.706 162.417 309.773C161.525 309.98 160.731 310.188 160.136 310.292C160.136 329.892 160.136 349.078 160.136 368.99ZM57.7778 136.79C57.7778 146.227 57.7778 155.353 57.7778 164.479C57.7778 164.687 58.1746 164.894 58.3729 165.102C60.1582 163.961 61.9436 162.82 63.6297 161.679C63.6297 152.242 63.6297 143.012 63.6297 133.056C61.3485 134.508 59.6623 135.545 57.7778 136.79ZM55.695 166.968C55.695 161.99 55.7941 157.324 55.695 152.657C55.5958 148.197 56.0917 143.634 55.3974 138.967C53.3145 140.523 51.7276 141.871 50.1406 143.116C49.4463 151.101 49.6447 166.761 50.5374 170.494C52.1243 169.354 53.8105 168.317 55.695 166.968ZM41.9083 149.338C41.9083 157.842 41.9083 166.139 41.9083 174.332C41.9083 174.746 42.2059 175.265 42.4043 175.68C42.7018 175.68 42.9002 175.783 42.9994 175.783C44.5863 174.539 46.0741 173.398 47.5618 172.154C47.5618 163.131 47.5618 154.212 47.5618 144.879C45.479 146.538 43.6937 147.99 41.9083 149.338ZM207.745 63.7799C213.001 60.1501 218.06 56.7278 223.515 52.8906C217.961 49.7794 213.1 47.083 207.745 44.0755C207.745 50.8165 207.745 57.1426 207.745 63.7799ZM33.9736 155.457C33.9736 163.753 33.9736 171.635 33.9736 179.621C33.9736 180.035 34.2711 180.554 34.6679 181.28C36.5524 179.932 38.2385 178.791 39.9247 177.547C39.9247 169.146 39.9247 161.057 39.9247 152.968C39.9247 152.449 39.7263 152.035 39.4287 150.998C37.445 152.657 35.6597 154.109 33.9736 155.457ZM-58.7638 349.078C-57.7719 340.47 -58.0695 311.847 -59.4581 310.706C-60.2515 311.121 -61.2434 311.536 -62.0369 311.951C-62.8303 321.907 -62.5328 348.871 -61.6401 349.908C-61.2434 349.908 -60.7475 350.115 -60.2515 350.011C-59.6564 349.804 -59.1605 349.389 -58.7638 349.078ZM32.585 182.213C32.585 173.606 32.585 165.205 32.585 156.287C30.4029 158.05 28.6176 159.398 27.2291 160.642C27.2291 169.457 27.2291 177.65 27.2291 186.154C29.2127 184.806 30.8989 183.458 32.585 182.213ZM20.0878 165.931C20.0878 173.813 20.0878 181.384 20.0878 188.954C20.0878 189.369 20.3853 189.888 20.6829 190.614C22.369 189.473 23.956 188.332 25.6421 187.191C25.6421 178.687 25.6421 170.391 25.6421 161.576C23.6584 163.131 21.8731 164.583 20.0878 165.931ZM-79.2949 365.049C-80.6835 365.464 -81.7745 365.879 -82.8656 366.293C-82.8656 378.946 -82.8656 391.287 -82.8656 403.939C-82.0721 403.939 -81.3778 404.146 -80.7827 403.939C-80.1876 403.732 -79.7908 403.109 -79.2949 402.695C-79.2949 390.146 -79.2949 377.805 -79.2949 365.049ZM-58.4662 262.171C-60.0532 263.416 -61.1442 264.142 -62.0369 264.868C-62.0369 277.105 -62.0369 289.032 -62.0369 301.476C-60.5491 300.543 -59.5572 299.817 -58.4662 299.091C-58.4662 286.75 -58.4662 274.72 -58.4662 262.171ZM300.879 124.345C301.077 124.656 301.275 124.863 301.474 125.174C318.038 116.982 334.701 108.789 351.264 100.596C351.165 99.7662 351.165 99.2477 350.967 98.2106C334.205 106.611 317.74 114.804 301.375 123.1C301.077 123.204 301.077 123.93 300.879 124.345ZM18.9968 191.858C18.9968 183.665 18.9968 175.68 18.9968 167.798C18.9968 167.694 18.8976 167.487 18.7984 167.383C18.6992 167.28 18.6 167.28 18.4017 167.28C17.1123 168.213 15.7237 169.146 14.5335 170.08C13.6408 179.102 13.9384 191.547 15.2277 194.762C16.3188 193.725 17.509 192.895 18.9968 191.858ZM487.345 156.287C487.345 160.642 487.345 164.376 487.345 168.317C489.924 171.22 493.396 172.569 496.966 174.643C496.966 170.287 496.966 166.657 496.966 162.405C493.891 160.539 490.817 158.568 487.345 156.287ZM1.34194 180.45C1.34194 188.643 1.34194 196.006 1.34194 203.784C3.02807 202.54 4.51584 201.607 6.10279 200.466C6.10279 193.103 6.10279 185.843 6.10279 178.687C6.10279 178.272 5.80524 177.754 5.4085 176.717C3.92074 178.065 2.53215 179.31 1.34194 180.45ZM-89.8085 359.449C-87.1305 358.93 -87.1305 357.375 -87.1305 355.715C-87.1305 345.759 -87.1305 335.804 -87.2297 325.744C-87.2297 325.329 -87.5272 324.811 -87.8248 324.292C-88.5191 324.396 -89.1142 324.499 -89.9077 324.499C-89.8085 336.218 -89.8085 347.73 -89.8085 359.449ZM-89.6101 314.751C-86.7338 314.232 -87.1305 312.158 -87.0313 310.292C-87.0313 301.373 -87.0313 292.454 -87.0313 283.431C-87.0313 282.498 -87.428 281.668 -87.6264 280.631C-90.3044 281.565 -90.0068 283.639 -90.0068 285.402C-90.0068 294.01 -90.0068 302.617 -90.0068 311.225C-90.0068 312.469 -89.8085 313.61 -89.6101 314.751ZM12.0539 196.525C12.0539 188.436 12.0539 180.658 12.0539 172.983C12.0539 172.88 11.9547 172.672 11.8555 172.569C11.7563 172.465 11.6571 172.465 11.2604 172.361C10.2685 173.502 9.07832 174.746 8.48322 175.472C8.48322 183.458 8.48322 190.821 8.48322 198.184C8.48322 198.288 8.68159 198.392 8.97914 198.495C9.77261 197.873 10.7645 197.251 12.0539 196.525ZM-4.7083 184.495C-4.7083 191.754 -4.7083 198.599 -4.7083 205.444C-4.7083 205.859 -4.41075 206.377 -4.1132 207.103C-2.92299 206.377 -1.83195 205.755 -1.03848 205.34C-1.03848 197.562 -1.03848 190.199 -1.03848 182.836C-1.03848 182.732 -1.23685 182.628 -1.43522 182.524C-2.42706 183.147 -3.41891 183.769 -4.7083 184.495ZM-10.3618 189.058C-10.3618 196.732 -10.3618 203.888 -10.3618 211.874C-8.77486 210.525 -7.68383 209.592 -6.89036 208.97C-6.89036 201.295 -6.89036 194.14 -6.89036 186.673C-8.27894 187.502 -9.36996 188.228 -10.3618 189.058ZM-15.6186 192.688C-15.6186 200.155 -15.6186 207.207 -15.6186 214.259C-15.6186 214.466 -15.2218 214.57 -14.9243 214.881C-13.8333 213.844 -12.7422 212.807 -12.0479 212.288C-12.0479 204.614 -12.0479 197.769 -12.0479 190.614C-13.2382 191.443 -14.23 191.962 -15.6186 192.688ZM-17.7015 216.955C-17.7015 209.592 -17.7015 202.644 -17.7015 195.799C-17.7015 195.592 -18.0982 195.384 -18.2966 195.177C-19.3876 196.006 -20.3794 196.732 -21.2721 197.458C-21.2721 204.51 -21.2721 211.355 -21.2721 218.615C-19.9827 217.992 -18.9908 217.577 -17.7015 216.955ZM-37.6375 229.504C-37.6375 222.97 -37.6375 217.059 -37.6375 211.251C-37.6375 210.94 -37.9351 210.733 -38.431 210.111C-39.522 211.044 -40.613 211.977 -41.2081 212.6C-41.2081 219.652 -41.2081 226.081 -41.2081 233.445C-39.6212 231.682 -38.6293 230.645 -37.6375 229.504ZM-99.8261 371.168C-100.223 371.375 -100.719 371.582 -100.719 371.79C-100.818 382.783 -100.917 393.879 -100.917 404.872C-100.917 405.287 -100.421 405.598 -100.223 406.013C-99.8261 405.806 -99.3302 405.598 -99.3302 405.391C-99.231 394.398 -99.1318 383.301 -99.1318 372.308C-99.1318 371.894 -99.6277 371.582 -99.8261 371.168ZM301.573 10.7855C289.869 18.4599 278.661 25.8231 267.553 33.0826C267.156 33.3937 266.759 33.7048 266.362 34.0159C266.164 34.2233 265.867 34.5345 265.668 34.7419C265.569 34.8456 265.47 35.053 265.47 35.1567C265.47 35.2604 265.569 35.3641 265.867 35.9864C275.388 29.7639 284.811 23.5415 294.332 17.3191C296.713 15.7635 298.994 14.1042 301.275 12.5486C301.375 12.5486 301.375 12.03 301.573 10.7855ZM-23.8509 199.325C-25.1403 200.258 -26.0329 200.673 -26.0329 200.984C-26.3305 208.036 -26.5289 214.985 -26.8264 222.866C-25.0411 221.518 -24.1484 220.792 -23.8509 220.585C-23.8509 213.014 -23.8509 206.688 -23.8509 199.325ZM-28.8101 224.318C-28.8101 216.955 -28.8101 210.318 -28.8101 203.681C-28.8101 203.577 -29.0085 203.577 -29.4052 203.37C-30.0995 204.199 -30.7938 205.029 -31.1905 205.547C-31.1905 212.496 -31.1905 218.926 -31.1905 225.563C-30.1987 225.044 -29.5044 224.63 -28.8101 224.318ZM-33.5709 207.414C-33.9677 207.31 -34.3644 207.31 -34.7612 207.207C-35.2571 208.244 -35.9514 209.177 -36.2489 210.214C-36.7448 212.081 -36.2489 226.289 -35.6538 228.674C-33.6701 228.467 -33.3726 227.015 -33.3726 225.355C-33.3726 221.415 -33.3726 217.474 -33.3726 213.429C-33.5709 211.459 -33.5709 209.488 -33.5709 207.414ZM-50.3331 219.859C-50.3331 226.081 -50.3331 231.682 -50.3331 237.178C-50.3331 237.489 -49.9364 237.697 -49.738 238.008C-47.3576 237.8 -47.4568 235.934 -47.4568 234.171C-47.4568 228.985 -47.4568 223.8 -47.5559 218.615C-47.5559 218.407 -47.9527 218.2 -48.4486 217.681C-49.0437 218.407 -49.738 219.133 -50.3331 219.859ZM-43.8861 214.051C-44.6796 215.296 -45.2747 215.814 -45.3739 216.437C-45.8698 219.029 -45.3739 232.2 -44.7788 234.585C-43.1918 231.785 -42.8943 225.77 -43.8861 214.051ZM-99.8261 361.938C-98.6359 353.123 -98.8342 333.626 -99.8261 329.685C-99.8261 340.781 -99.8261 351.36 -99.8261 361.938ZM-99.8261 318.484C-98.6359 309.358 -98.8342 292.143 -99.8261 288.409C-99.8261 298.676 -99.8261 308.529 -99.8261 318.484Z" fill="#F48034"/>
</g>
<defs>
<clipPath id="clip0_62_8715">
<rect width="608" height="456" fill="white" transform="translate(-103)"/>
</clipPath>
</defs>
</svg>
