<svg width="87" height="40" viewBox="0 0 87 40" fill="none" xmlns="http://www.w3.org/2000/svg">
<g clip-path="url(#clip0_13_409)">
<path d="M0 34.8316C0.12061 34.4495 0.221118 34.0272 0.381932 33.6652C0.984981 32.358 1.99006 31.634 3.43738 31.4731C4.42237 31.3525 5.38725 31.5335 6.33202 31.7144C6.41243 31.7346 6.55314 31.8552 6.55314 31.9357C6.55314 32.539 6.51294 33.1222 6.49284 33.7054C6.49284 33.7657 6.43253 33.8261 6.37223 33.9668C6.31192 33.8261 6.25162 33.7456 6.25162 33.6853C6.0908 32.6596 5.62847 32.177 4.60328 32.0362C2.81423 31.7748 1.66844 32.6596 1.44732 34.4696C1.30661 35.6159 1.36691 36.722 1.94986 37.7476C2.65342 38.9543 3.73891 39.4771 5.10582 39.2559C5.76918 39.1554 6.17121 38.7129 6.33202 38.0694C6.35213 37.9689 6.39233 37.8683 6.51294 37.7677C6.53304 37.8683 6.59335 37.989 6.57324 38.0895C6.51294 38.5118 6.47274 38.9342 6.37223 39.3565C6.33202 39.5174 6.15111 39.7185 6.0104 39.7587C4.42237 40.1609 2.87454 40.1207 1.50762 39.0749C0.703558 38.4716 0.281423 37.6069 0.100508 36.6415C0.0804067 36.5611 0.060305 36.4807 0.0201017 36.4203C0 35.8773 0 35.3545 0 34.8316Z" fill="white"/>
<path d="M71.1197 1.52588e-05C72.1248 0.281564 73.0695 0.543002 74.0344 0.82455C74.3359 0.904993 74.7782 0.925103 74.9189 1.12621C75.0797 1.34743 74.9993 1.76975 74.9993 2.09152C74.9993 4.96734 74.9993 7.84315 74.9993 10.7391C74.9993 10.8799 74.9993 11.0206 74.9993 11.1413C75.0395 11.1614 75.0596 11.1614 75.0998 11.1815C76.4868 9.51233 77.8939 7.82304 79.3011 6.11364C79.4016 6.21419 79.5021 6.31475 79.5825 6.4153C81.0097 8.14481 82.457 9.87432 83.8842 11.6239C83.9847 11.7647 84.0652 11.9658 84.0853 12.1267C84.0853 17.1544 84.0853 22.182 84.0853 27.1896C84.0853 27.2901 84.0853 27.3706 84.0652 27.5113C83.9244 27.5113 83.8038 27.5314 83.6832 27.5314C82.3967 27.5314 81.1102 27.5314 79.8237 27.5314C79.3212 27.5314 79.3212 27.5314 79.3212 27.0287C79.3212 24.0724 79.3212 21.1162 79.3212 18.18C79.3212 17.7979 79.2408 17.5164 78.9794 17.2147C77.5522 15.5254 76.1451 13.816 74.738 12.1066C74.6978 12.0664 74.6777 12.006 74.6576 11.9457C74.6174 11.9658 74.5772 11.9859 74.537 12.006C74.537 12.1267 74.537 12.2474 74.537 12.368C74.537 16.6918 74.537 21.0357 74.537 25.3595C74.537 25.641 74.537 25.9025 74.939 25.8623C74.9993 25.8623 75.0596 25.8824 75.0998 25.9226C75.6828 26.5058 76.2456 27.089 76.8889 27.7124C76.728 27.7325 76.6476 27.7325 76.5471 27.7325C72.3057 27.7325 68.0441 27.7325 63.8027 27.7325C63.6218 27.7325 63.4006 27.632 63.28 27.5113C60.7874 25.0176 58.335 22.5038 55.8424 19.99C53.1488 17.2951 50.4954 14.6003 47.842 11.9055C47.7817 11.8452 47.7213 11.8049 47.6208 11.7245C44.686 14.5601 41.7713 17.3957 38.8163 20.2313C38.1329 19.5073 37.4494 18.7833 36.8061 18.0795C40.3641 14.5199 43.9824 10.9 47.6409 7.25994C53.6312 13.2931 59.6215 19.3263 65.6922 25.4399C65.7123 25.2187 65.7324 25.0981 65.7324 24.9774C65.7324 21.2569 65.7324 17.5164 65.7324 13.7959C65.7324 13.3333 65.7123 13.2931 65.2299 13.273C64.9686 13.273 64.7073 13.2529 64.4459 13.273C64.1444 13.2931 64.0439 13.1524 64.064 12.8708C64.0841 12.549 64.064 12.2273 64.064 11.9055C64.064 9.43189 64.064 6.95829 64.064 4.48468C64.064 4.00203 64.064 3.98192 64.5464 3.98192C64.8078 3.98192 64.9485 3.94169 64.9686 3.61992C65.0691 2.4334 65.2098 1.22676 65.3505 0.0402365C65.4108 0.723997 65.4912 1.40776 65.5515 2.09152C65.6118 2.65462 65.652 3.1976 65.6922 3.7607C65.7123 3.96181 65.8128 4.02214 65.9938 4.02214C66.1948 4.02214 66.3958 4.02214 66.6571 4.02214C66.6571 4.20313 66.6571 4.36402 66.6571 4.50479C66.6571 7.25994 66.6571 9.99499 66.6571 12.7501C66.6571 13.2328 66.6571 13.2529 67.1396 13.2328C67.4813 13.2127 67.5215 13.3736 67.5215 13.6551C67.5215 17.5164 67.5215 21.3977 67.5215 25.2589C67.5215 25.8019 67.5215 25.8019 68.0642 25.8019C68.9286 25.8019 69.7729 25.7818 70.6372 25.8019C70.9991 25.822 71.0996 25.6813 71.0996 25.3394C71.0996 20.352 71.0996 15.3645 71.0996 10.3771C71.0996 7.07895 71.0996 3.78081 71.0996 0.48267C71.0996 0.362006 71.0996 0.201121 71.1197 1.52588e-05ZM79.281 16.0483C79.3614 15.9879 79.4016 15.9678 79.4217 15.9276C80.5072 14.6204 81.5926 13.3132 82.6781 12.006C82.839 11.8251 82.7384 11.7245 82.6178 11.5837C81.854 10.6586 81.0901 9.73355 80.3262 8.80846C80.0046 8.40625 79.6629 8.00404 79.3212 7.60183C79.2408 7.68227 79.1805 7.72249 79.1402 7.76271C78.0749 9.04979 77.0095 10.3168 75.9441 11.6038C75.8034 11.7848 75.8436 11.9055 75.9642 12.0664C76.6677 12.911 77.3713 13.7557 78.0548 14.5802C78.4769 15.083 78.8789 15.5656 79.281 16.0483Z" fill="white"/>
<path d="M2.95494 28.2353C3.55799 27.632 4.10074 27.089 4.64348 26.5661C4.74399 26.4656 4.96511 26.4254 5.12592 26.4254C8.14117 26.4254 11.1564 26.4254 14.1717 26.4254C14.4531 26.4254 14.634 26.3449 14.835 26.1438C15.5185 25.4399 16.222 24.7763 16.8854 24.0523C17.0261 23.8914 17.1467 23.6501 17.1467 23.4289C17.1668 21.1363 17.1467 18.8437 17.1668 16.5309C17.1668 16.0684 17.0663 16.0081 17.6694 15.9477C18.5337 15.8472 19.378 15.6863 20.2424 15.5656C20.363 15.5455 20.4836 15.5656 20.6444 15.5656C20.6444 17.1141 20.6444 18.6426 20.6444 20.2313C23.2777 17.5968 25.8507 15.0226 28.4439 12.4284C28.6047 12.5691 28.6851 12.6496 28.7655 12.73C32.8059 16.7522 36.8463 20.7743 40.8868 24.8165C41.3089 25.2388 41.7713 25.6612 42.1733 26.1036C42.3944 26.3248 42.6155 26.4254 42.9171 26.4254C48.6661 26.4254 54.3951 26.4254 60.1442 26.4052C60.4859 26.4052 60.7472 26.5058 60.9884 26.7672C61.4307 27.2499 61.9131 27.7124 62.4559 28.2353C62.2347 28.2353 62.1141 28.2353 62.0136 28.2353C54.7569 28.2353 47.4801 28.2353 40.2234 28.2353C39.9621 28.2353 39.7812 28.175 39.6003 27.994C36.2031 24.5953 32.7858 21.1966 29.3886 17.7979C29.1273 17.5365 28.9062 17.2147 28.6449 16.913C28.2428 17.2951 27.9413 17.5767 27.6599 17.8582C24.2828 21.2368 20.9057 24.5953 17.5287 27.9739C17.3276 28.175 17.1467 28.2353 16.8653 28.2353C12.3826 28.2353 7.87985 28.2353 3.39718 28.2353C3.25647 28.2353 3.15596 28.2353 2.95494 28.2353Z" fill="white"/>
<path d="M30.8963 31.5938C32.3838 31.5938 33.8713 31.5938 35.4392 31.5938C35.399 32.0965 35.3387 32.6395 35.2985 33.1825C35.2583 33.1825 35.198 33.1825 35.1578 33.1825C35.1377 33.0619 35.1176 32.9412 35.0975 32.8205C35.0774 32.5189 34.8965 32.3178 34.6151 32.2977C34.1125 32.2373 33.6301 32.2373 33.1074 32.1971C33.1074 33.2026 33.1074 34.1478 33.1074 35.1534C33.8311 35.0327 34.5749 35.3746 35.2985 34.8115C35.2583 35.455 35.2181 36.0583 35.1779 36.6415C35.1377 36.6415 35.0975 36.6617 35.0573 36.6617C35.0171 36.541 34.9568 36.4404 34.9568 36.3198C34.9367 36.0382 34.796 35.8371 34.5146 35.7969C34.0522 35.7567 33.5899 35.7567 33.0873 35.7366C33.0873 35.9377 33.0672 36.0986 33.0672 36.2594C33.0672 37.0035 33.0672 37.7677 33.0672 38.5118C33.0672 39.0347 33.2079 39.1956 33.7306 39.2358C34.012 39.2559 34.2934 39.276 34.5749 39.2358C35.1377 39.1755 35.3186 38.9945 35.4191 38.4515C35.4392 38.3509 35.4794 38.2705 35.4995 38.1699C35.5397 38.1699 35.5799 38.1699 35.6201 38.1901C35.6201 38.4515 35.6604 38.7129 35.6201 38.9744C35.4794 39.9598 35.6403 39.8995 34.6151 39.8995C33.1074 39.8995 31.5998 39.8592 30.0922 39.8793C29.4087 39.8793 28.8861 39.638 28.5042 39.095C28.0418 38.4113 27.5996 37.7275 27.1573 37.0236C26.8156 36.4807 26.5744 36.3801 25.8105 36.541C25.8507 37.446 25.8708 38.3711 25.9311 39.276C25.9311 39.3967 26.1523 39.5174 26.293 39.5777C26.4538 39.638 26.6347 39.638 26.7955 39.6581C26.7955 39.6984 26.8156 39.7185 26.8156 39.7587C26.7553 39.7989 26.6749 39.8592 26.6146 39.8592C25.7502 39.8592 24.906 39.8592 24.0416 39.8592C23.9813 39.8592 23.921 39.819 23.8004 39.7587C23.921 39.6984 23.9813 39.6581 24.0617 39.638C24.5441 39.5375 24.6044 39.4972 24.6245 38.9945C24.6647 38.2906 24.6848 37.5666 24.6848 36.8628C24.6848 35.5153 24.6647 34.1478 24.6647 32.8004C24.6647 32.6798 24.6446 32.539 24.6245 32.4183C24.5843 32.0161 24.4637 31.9156 24.0617 31.8954C23.9411 31.8954 23.8406 31.8552 23.72 31.7346C23.7803 31.7144 23.8406 31.6742 23.9009 31.6742C24.9261 31.6742 25.9714 31.6541 26.9965 31.6742C28.7655 31.7346 29.2479 33.263 28.8258 34.3892C28.6047 34.9925 28.1825 35.5355 27.7805 36.2192C28.464 37.1242 29.2278 38.1699 30.0319 39.1755C30.3133 39.5375 30.7354 39.6782 31.2179 39.6581C31.4792 39.638 31.6802 39.5576 31.7003 39.2559C31.7204 38.9744 31.7606 38.6928 31.7606 38.4113C31.7606 36.4605 31.7606 34.5098 31.7606 32.5591C31.7606 32.0563 31.64 31.9558 31.1174 31.8954C31.0169 31.8954 30.9164 31.8351 30.836 31.815C30.8762 31.6943 30.8762 31.634 30.8963 31.5938ZM25.8507 32.2172C25.8507 33.3434 25.8507 34.4696 25.8507 35.5757C25.8507 35.6561 25.911 35.7567 25.9713 35.7969C26.5543 36.1187 27.3383 35.8572 27.5996 35.2539C27.9212 34.4897 27.9212 33.7054 27.5795 32.9412C27.278 32.2574 26.6146 31.996 25.8507 32.2172Z" fill="white"/>
<path d="M14.2923 31.6742C15.418 31.6742 16.5839 31.5536 17.6895 31.7144C18.8554 31.8753 19.3177 33.1624 18.6946 34.2685C18.5337 34.5701 18.2925 34.8316 18.0714 35.1332C18.1719 35.1936 18.2724 35.2539 18.3729 35.3142C19.4383 35.9176 19.9208 37.0236 19.6192 38.1498C19.3177 39.2358 18.4131 39.8794 17.1668 39.8592C16.3427 39.8592 15.5386 39.8391 14.7144 39.8391C14.6139 39.8391 14.5134 39.7989 14.3928 39.6984C14.4531 39.6782 14.5335 39.638 14.5938 39.6179C15.0561 39.5375 15.1366 39.4771 15.1366 38.9945C15.1768 37.5063 15.1969 35.998 15.1969 34.5098C15.1969 33.8864 15.1969 33.2428 15.1768 32.6194C15.1567 31.996 15.0763 31.9357 14.4732 31.8552C14.3928 31.8351 14.3325 31.7949 14.2521 31.7748C14.2722 31.7144 14.2722 31.6943 14.2923 31.6742ZM16.3628 37.1644H16.3829C16.3829 37.6672 16.3628 38.1901 16.403 38.6928C16.4231 38.8537 16.5236 39.0749 16.6442 39.1755C17.3276 39.638 18.2724 39.2358 18.4332 38.4515C18.6141 37.627 18.4131 36.8829 17.9307 36.1991C17.6493 35.7969 17.2472 35.5958 16.7447 35.5757C16.4633 35.5556 16.3226 35.6159 16.3427 35.9377C16.3829 36.3198 16.3628 36.7421 16.3628 37.1644ZM16.3628 33.5445C16.3628 33.9668 16.3628 34.369 16.3628 34.7914C16.3628 34.8718 16.4231 35.0126 16.4834 35.0327C16.9859 35.2338 17.589 34.9925 17.7699 34.4696C18.0111 33.7858 17.9307 33.1021 17.5287 32.4988C17.3276 32.1971 17.0261 32.0563 16.6442 32.0563C16.4432 32.0563 16.3427 32.1368 16.3427 32.358C16.3628 32.7602 16.3628 33.1423 16.3628 33.5445Z" fill="white"/>
<path d="M73.552 39.6984C73.8736 39.5576 73.8334 39.3766 73.753 39.1554C73.5319 38.5319 73.3309 37.8884 73.1298 37.265C73.0695 37.084 72.9891 37.0035 72.768 37.0035C72.2052 37.0237 71.6423 37.0035 71.0996 37.0237C70.9991 37.0237 70.8182 37.1041 70.7981 37.1845C70.597 37.7677 70.3759 38.3711 70.2151 38.9744C70.0744 39.4771 70.1347 39.5174 70.6573 39.6179C70.7177 39.6179 70.7579 39.6581 70.8182 39.6984C70.6372 39.8794 68.5869 39.9196 68.3055 39.6984C68.4261 39.6581 68.5065 39.6179 68.5869 39.6179C69.0492 39.5978 69.2904 39.3163 69.4311 38.9342C69.7528 38.0493 70.0543 37.1644 70.3558 36.2796C70.8785 34.8115 71.381 33.3233 71.9037 31.8351C71.964 31.6541 72.0645 31.4932 72.1449 31.3324C72.1851 31.3324 72.2253 31.3324 72.2655 31.3324C72.3459 31.5133 72.4464 31.6742 72.5067 31.8552C73.2505 33.9668 73.9741 36.0583 74.7179 38.17C74.7983 38.3912 74.8787 38.6124 74.9792 38.8336C75.1802 39.2962 75.4616 39.6581 76.0245 39.638C76.0647 39.638 76.0848 39.6581 76.125 39.6783C76.125 39.6783 76.125 39.6984 76.1451 39.6984C75.9441 39.8592 74.0746 39.8995 73.552 39.6984ZM72.0042 33.7054C71.9841 33.7054 71.9439 33.7255 71.9238 33.7255C71.6423 34.6104 71.3609 35.4952 71.0594 36.3801C71.6825 36.3801 72.2454 36.3801 72.8283 36.3801C72.5469 35.455 72.2856 34.5903 72.0042 33.7054Z" fill="white"/>
<path d="M35.6603 39.6783C35.6804 39.6581 35.7207 39.6179 35.7408 39.6179C36.4242 39.638 36.6453 39.1755 36.8463 38.6526C37.6303 36.36 38.4344 34.0875 39.2384 31.7949C39.2987 31.634 39.3792 31.4932 39.4596 31.3324C39.4998 31.3324 39.54 31.3324 39.5802 31.3324C39.6606 31.5133 39.7611 31.6742 39.8214 31.8552C40.5652 33.9668 41.3089 36.0785 42.0527 38.1901C42.1331 38.4113 42.2336 38.6325 42.314 38.8537C42.4949 39.2962 42.7763 39.638 43.3191 39.6179C43.3593 39.6179 43.4196 39.6581 43.4799 39.6783C43.2588 39.8794 41.3692 39.9196 40.927 39.7185C41.2084 39.5576 41.1481 39.3364 41.0677 39.095C40.8667 38.5118 40.6657 37.9085 40.4847 37.3052C40.4244 37.084 40.3038 37.0035 40.0827 37.0035C39.54 37.0237 39.0173 37.0237 38.4746 37.0035C38.2535 37.0035 38.153 37.0639 38.0926 37.2851C37.9318 37.8683 37.7107 38.4314 37.5499 39.0146C37.4293 39.4973 37.4896 39.5375 37.972 39.6179C38.0323 39.6179 38.0926 39.6581 38.1731 39.6984C37.9117 39.8995 35.8011 39.8794 35.6603 39.6783ZM40.1229 36.4002C39.8415 35.4952 39.5601 34.6104 39.2786 33.7255C39.2585 33.7255 39.2384 33.7255 39.1982 33.7255C38.9168 34.6104 38.6153 35.4952 38.3339 36.4002C38.9369 36.4002 39.5199 36.4002 40.1229 36.4002Z" fill="white"/>
<path d="M84.4471 35.7567C84.4471 36.7421 84.4471 37.7275 84.4471 38.7129C84.4471 38.9744 84.628 39.1755 84.8893 39.1755C85.3115 39.1956 85.7135 39.2157 86.1356 39.1755C86.5377 39.1353 86.6985 38.8336 86.7789 38.4716C86.799 38.3509 86.8392 38.2504 86.9196 38.1498C87.0402 38.6727 86.9799 39.1956 86.8392 39.6984C86.8191 39.7788 86.6181 39.8391 86.4975 39.8391C85.6733 39.8391 84.829 39.819 84.0049 39.7989C83.5827 39.7989 83.1606 39.819 82.7183 39.819C82.5977 39.819 82.4771 39.7788 82.3163 39.7386C82.3766 39.6581 82.3967 39.6179 82.4168 39.6179C83.1003 39.4168 83.1405 39.3766 83.1405 38.6526C83.1405 36.6013 83.1405 34.5299 83.1405 32.4786C83.1405 31.996 82.9998 31.8552 82.5173 31.815C82.4168 31.815 82.3163 31.7547 82.2158 31.7346C82.2158 31.6943 82.2359 31.634 82.2359 31.5938C83.7435 31.5938 85.2512 31.5938 86.7789 31.5938C86.7387 32.0764 86.6784 32.6194 86.6382 33.1624C86.598 33.1624 86.5377 33.1624 86.4975 33.1624C86.4774 33.0619 86.4573 32.9814 86.4372 32.8809C86.397 32.4585 86.2562 32.2976 85.8542 32.2574C85.3919 32.2172 84.9295 32.1971 84.4471 32.177C84.4471 33.1825 84.4471 34.1277 84.4471 35.1332C85.1708 35.0327 85.9145 35.3545 86.6382 34.7914C86.598 35.4349 86.5578 36.0382 86.5176 36.6214C86.4774 36.6214 86.4372 36.6415 86.3969 36.6415C86.3567 36.5209 86.3165 36.4002 86.2964 36.2594C86.2763 35.9578 86.1155 35.7768 85.8341 35.7567C85.3919 35.7366 84.9496 35.7567 84.4471 35.7567Z" fill="white"/>
<path d="M52.003 31.5938C53.4905 31.5938 54.9781 31.5938 56.5259 31.5938C56.4857 32.0764 56.4254 32.6194 56.3852 33.1624C56.345 33.1624 56.3048 33.1624 56.2646 33.1624C56.2445 33.1423 56.2244 33.1021 56.2043 33.082C56.0434 32.3178 56.0233 32.2775 55.2394 32.2373C54.8775 32.2172 54.5358 32.2373 54.1539 32.2373C54.1539 33.1825 54.1539 34.1277 54.1539 35.1534C54.8574 35.0528 55.6213 35.3947 56.3651 34.8115C56.3249 35.4751 56.2847 36.0583 56.2445 36.6617C56.2042 36.6617 56.164 36.6617 56.1238 36.6818C56.0836 36.541 56.0836 36.3801 56.0032 36.2393C55.9027 36.0784 55.7821 35.8371 55.6414 35.817C55.159 35.7366 54.6564 35.7567 54.1338 35.7165C54.1338 36.7421 54.1137 37.7074 54.1338 38.6727C54.1338 38.9945 54.3348 39.1956 54.6765 39.2157C54.9982 39.2358 55.3399 39.2559 55.6615 39.2157C56.2042 39.1554 56.3651 38.9945 56.4656 38.4917C56.4857 38.3912 56.5259 38.2705 56.5862 38.1096C56.6666 38.2102 56.7269 38.2705 56.7068 38.2906C56.6666 38.7532 56.6264 39.2157 56.546 39.6581C56.5259 39.7386 56.3048 39.8592 56.1841 39.8592C55.36 39.8592 54.5358 39.8391 53.7317 39.819C53.3096 39.819 52.8875 39.8391 52.4452 39.8391C52.3246 39.8391 52.1839 39.7989 52.0633 39.7989C52.0633 39.7788 52.0633 39.7386 52.0633 39.7185C52.1236 39.6782 52.1839 39.638 52.2643 39.638C52.7468 39.5576 52.8071 39.4972 52.8272 38.9945C52.8473 38.3912 52.8674 37.808 52.8674 37.2046C52.8674 35.7969 52.8674 34.3892 52.8674 32.9814C52.8674 32.8004 52.8473 32.5993 52.8272 32.4183C52.787 31.996 52.6664 31.8954 52.2442 31.8552C52.1236 31.8552 52.0231 31.7949 51.9025 31.7748C51.9829 31.6943 51.9829 31.634 52.003 31.5938Z" fill="white"/>
<path d="M67.8632 39.7788C66.8581 39.7788 65.8329 39.7788 64.8279 39.7788C64.8279 39.7587 64.8078 39.7185 64.8078 39.6984C64.8681 39.6581 64.9284 39.6179 65.0088 39.5978C65.5113 39.4972 65.5716 39.4369 65.5917 38.9342C65.6118 38.5118 65.6319 38.1096 65.6319 37.6873C65.6319 35.9578 65.6319 34.2283 65.6319 32.5189C65.6319 32.4585 65.6319 32.3781 65.6118 32.2172C64.9485 32.2574 64.2851 32.2775 63.6218 32.358C63.481 32.3781 63.3604 32.5993 63.2398 32.7401C63.1594 32.8406 63.1393 32.9613 63.0388 33.0619C62.9383 32.4988 63.079 31.9558 63.1996 31.4128C64.0841 31.6139 68.0441 31.6742 69.2904 31.4932C69.2904 32.0563 69.2904 32.5993 69.2904 33.1624C69.2502 33.1624 69.21 33.1825 69.1899 33.1825C69.1497 33.1021 69.0894 33.0216 69.0894 32.9211C69.0894 32.539 68.8281 32.358 68.5065 32.3178C67.9637 32.2574 67.421 32.2373 66.8581 32.1971C66.838 32.358 66.838 32.4585 66.838 32.5591C66.838 34.5701 66.838 36.5812 66.8581 38.5923C66.8581 38.6928 66.8581 38.8135 66.8581 38.914C66.8983 39.4168 66.9988 39.4972 67.4813 39.5576C67.6019 39.5777 67.7225 39.5978 67.8431 39.6179C67.8632 39.6782 67.8632 39.7386 67.8632 39.7788Z" fill="white"/>
<path d="M13.4279 31.5938C13.4279 32.0965 13.4279 32.6395 13.4279 33.2026C13.3877 33.2026 13.3676 33.2026 13.3274 33.2227C13.3073 33.1825 13.2671 33.1423 13.247 33.082C13.0862 32.4786 12.9455 32.3379 12.3424 32.2977C11.9002 32.2574 11.4579 32.2977 10.9755 32.2977C10.9755 32.4183 10.9755 32.539 10.9755 32.6798C10.9755 34.6506 10.9755 36.6013 10.9956 38.5722C10.9956 38.6526 10.9956 38.733 10.9956 38.8135C11.0358 39.4771 11.0961 39.5576 11.7595 39.638C11.8399 39.6581 11.9203 39.6782 12.0208 39.7587C11.9404 39.7989 11.86 39.8592 11.7796 39.8592C10.8951 39.8592 10.0307 39.8592 9.14626 39.8592C9.08595 39.8592 9.00555 39.7989 8.88494 39.7587C9.00555 39.6984 9.06585 39.6581 9.12616 39.638C9.6287 39.5375 9.689 39.4771 9.7091 38.9744C9.72921 38.3711 9.74931 37.7677 9.74931 37.1644C9.74931 35.6963 9.74931 34.2082 9.74931 32.7401C9.74931 32.6194 9.74931 32.4786 9.74931 32.2574C9.06585 32.2976 8.4025 32.3379 7.75924 32.3982C7.61853 32.4183 7.49792 32.6194 7.39741 32.7602C7.31701 32.8607 7.2768 33.0015 7.15619 33.1222C7.07579 32.5591 7.2165 32.0362 7.31701 31.4731C8.36229 31.7748 9.38748 31.634 10.4127 31.6541C11.4378 31.634 12.4429 31.5938 13.4279 31.5938Z" fill="white"/>
<path d="M81.3313 33.2026C81.2911 33.1222 81.2509 33.0619 81.2509 32.9814C81.2509 32.5792 81.0097 32.3781 80.668 32.3379C80.1252 32.2775 79.5624 32.2574 78.9593 32.2172C78.9593 32.3982 78.9593 32.539 78.9593 32.6596C78.9593 34.5299 78.9593 36.4203 78.9794 38.2906C78.9794 38.6325 78.9995 38.9945 79.1001 39.3163C79.2408 39.7386 79.7232 39.4771 80.0649 39.6984C79.9443 39.7587 79.8639 39.819 79.7835 39.819C78.899 39.819 78.0347 39.819 77.1502 39.819C77.0899 39.819 77.0095 39.7788 76.8889 39.7185C76.9894 39.6581 77.0296 39.6179 77.0698 39.5978C77.6125 39.4771 77.6125 39.4972 77.6929 38.9342C77.713 38.733 77.7331 38.5319 77.7331 38.3308C77.7331 36.4002 77.7331 34.4696 77.7331 32.5591C77.7331 32.4585 77.713 32.3781 77.713 32.2172C77.0698 32.2574 76.4667 32.2574 75.8637 32.3379C75.6828 32.358 75.522 32.5993 75.3812 32.7401C75.3008 32.8406 75.2606 32.9613 75.2204 33.082C75.1601 33.0619 75.1199 33.0619 75.0596 33.0417C75.14 32.4988 75.2204 31.9558 75.3008 31.4932C77.3914 31.6943 79.4016 31.5938 81.472 31.5536C81.472 32.0563 81.472 32.5993 81.472 33.1423C81.4117 33.1825 81.3715 33.1825 81.3313 33.2026Z" fill="white"/>
<path d="M61.7724 33.4037C61.7322 33.2429 61.7121 33.0619 61.6518 32.901C61.491 32.3379 61.0488 31.996 60.4859 31.996C59.9432 31.996 59.5411 32.2574 59.4004 32.7401C59.2798 33.1825 59.3602 33.6049 59.6818 33.9467C60.0839 34.3691 60.5261 34.7713 60.9683 35.1735C61.7322 35.8773 62.2147 36.7019 62.1744 37.808C62.1141 39.0146 61.2096 39.9799 59.9834 39.9799C59.4808 39.9799 58.9783 39.8592 58.4958 39.7587C58.3752 39.7386 58.2144 39.5174 58.2144 39.3766C58.1943 38.8537 58.2345 38.3308 58.2747 37.808C58.2747 37.7476 58.3551 37.6873 58.4757 37.627C58.4958 37.7879 58.536 37.9487 58.5561 38.0895C58.6567 38.8336 59.119 39.3565 59.7422 39.4168C60.8075 39.5174 61.4709 38.6526 61.089 37.627C60.9281 37.2248 60.6266 36.8829 60.3452 36.5611C59.903 36.0583 59.3803 35.6159 58.9582 35.093C58.5159 34.55 58.3752 33.9065 58.4757 33.2026C58.6567 31.9558 59.6617 31.3726 60.8879 31.4329C61.2498 31.453 61.7121 31.453 61.9332 31.6742C62.1141 31.8552 62.0136 32.3178 62.0136 32.6597C62.0136 32.901 61.9935 33.1423 61.9734 33.4037C61.8528 33.4037 61.8126 33.4037 61.7724 33.4037Z" fill="white"/>
<path d="M48.4249 38.1297C48.4651 38.6526 48.4249 39.1755 48.2641 39.6782C48.2239 39.7788 48.0028 39.8391 47.8822 39.8391C47.0178 39.8391 46.1534 39.819 45.2689 39.7989C44.8267 39.7989 44.3845 39.819 43.9422 39.819C43.8216 39.819 43.701 39.7788 43.5603 39.7587C43.5603 39.7386 43.5603 39.6984 43.5603 39.6782C43.6005 39.6581 43.6608 39.5978 43.701 39.5978C44.1432 39.6179 44.3242 39.3766 44.3242 38.9543C44.3443 38.3711 44.3644 37.7878 44.3644 37.2046C44.3644 35.6762 44.3644 34.1277 44.3443 32.5993C44.3443 31.9759 44.284 31.9156 43.6608 31.7949C43.6206 31.7949 43.5603 31.7748 43.5402 31.7547C43.5201 31.7346 43.5201 31.6943 43.4799 31.6139C44.5051 31.6139 45.4901 31.6139 46.475 31.6139C46.475 31.6541 46.4951 31.6742 46.4951 31.7144C46.3745 31.7346 46.2539 31.7949 46.1534 31.7949C45.8117 31.7949 45.6509 31.9558 45.6308 32.2977C45.6107 33.3032 45.5906 34.3288 45.5906 35.3344C45.5906 36.36 45.6107 37.4057 45.6308 38.4314C45.6509 38.9342 45.8519 39.1353 46.3544 39.1554C46.656 39.1755 46.9776 39.1755 47.2791 39.1554C47.8219 39.1353 48.0631 38.9342 48.2038 38.3912C48.2239 38.2906 48.2641 38.17 48.2842 38.0694C48.3445 38.1297 48.3847 38.1297 48.4249 38.1297Z" fill="white"/>
</g>
<defs>
<clipPath id="clip0_13_409">
<rect width="87" height="40" fill="white"/>
</clipPath>
</defs>
</svg>
