<svg width="27" height="28" viewBox="0 0 27 28" fill="none" xmlns="http://www.w3.org/2000/svg">
<g clip-path="url(#clip0_15_1134)">
<path d="M10.1588 0.32373C10.6788 0.553898 10.8521 0.955353 10.8251 1.50668C10.7926 2.17578 10.8196 2.17042 11.4372 2.40594C11.7622 2.52906 12.0818 2.67893 12.396 2.83416C12.5531 2.9091 12.656 2.90375 12.7698 2.77528C12.9377 2.58794 13.1219 2.41665 13.306 2.24536C13.7611 1.82785 14.4436 1.91885 14.7795 2.43271C14.9041 2.62005 14.8716 2.79134 14.7199 2.94122C14.5682 3.09109 14.384 3.10715 14.2053 2.98939C14.124 2.93586 14.0536 2.86628 13.9452 2.77528C13.7502 2.96798 13.5498 3.15533 13.3548 3.34267C12.8998 3.7923 12.5747 3.82442 12.0005 3.54608C11.6051 3.35873 11.1988 3.1928 10.7817 3.05363C10.2292 2.86628 10.0017 2.57188 9.99625 1.98843C9.99625 1.76362 10.0125 1.54415 9.98542 1.31934C9.98 1.24975 9.86624 1.13735 9.80124 1.13735C9.32454 1.12129 8.84785 1.13199 8.37115 1.12664C8.20864 1.12664 8.17072 1.21228 8.17072 1.3461C8.17072 1.58698 8.17614 1.82785 8.17072 2.06872C8.15989 2.58258 7.92696 2.86628 7.44485 3.04292C6.9844 3.21421 6.52395 3.3962 6.07976 3.5996C5.61931 3.80836 5.25638 3.76554 4.89344 3.42296C4.68759 3.22491 4.48174 3.02686 4.2759 2.82346C4.26506 2.81275 4.2434 2.8074 4.24881 2.8074C3.83712 3.22491 3.42543 3.63172 2.99207 4.07064C3.14916 4.23123 3.34417 4.42393 3.53377 4.61662C3.98338 5.06625 4.0213 5.38742 3.7342 5.96016C3.5446 6.3402 3.38209 6.73631 3.24125 7.13776C3.04082 7.71586 2.77539 7.92461 2.15243 7.92997C1.94659 7.92997 1.73532 7.93532 1.52948 7.92997C1.36697 7.92461 1.2803 7.97279 1.28571 8.15478C1.29655 8.60976 1.29113 9.06475 1.28571 9.51438C1.28571 9.68031 1.35072 9.73384 1.51323 9.72849C1.77324 9.72313 2.03326 9.72313 2.29869 9.72849C2.71038 9.73919 3.02999 9.97471 3.18708 10.3548C3.39293 10.8633 3.60961 11.3718 3.82629 11.8749C3.99421 12.2603 3.94546 12.6297 3.64211 12.9294C3.4146 13.1542 3.16541 13.3576 2.89998 13.5932C3.34959 14.0374 3.7342 14.4228 4.13506 14.7922C4.17298 14.8296 4.31923 14.8029 4.3734 14.7601C4.56842 14.5888 4.74176 14.3961 4.93136 14.2194C5.26179 13.909 5.63015 13.8661 6.04726 14.0481C6.52937 14.2569 7.02232 14.455 7.50985 14.6476C7.91612 14.8082 8.15989 15.0866 8.17072 15.5309C8.17614 15.7878 8.17614 16.0447 8.17614 16.307C8.17072 16.4622 8.23031 16.5318 8.39824 16.5265C8.8641 16.5211 9.33538 16.5211 9.80124 16.5265C9.95292 16.5265 10.0071 16.4676 10.0017 16.3177C9.99625 16.0501 9.99084 15.7824 10.0017 15.5148C10.0233 15.1133 10.2238 14.8296 10.6084 14.6744C10.8521 14.5781 11.0688 14.6476 11.1663 14.8403C11.2747 15.0545 11.1988 15.2472 10.9767 15.4024C10.9009 15.4559 10.8359 15.563 10.8305 15.6486C10.8088 15.8895 10.8251 16.1304 10.8196 16.3712C10.8088 16.9547 10.4567 17.324 9.86624 17.3401C9.34621 17.3561 8.82076 17.3561 8.30073 17.3401C7.71569 17.3187 7.35817 16.9333 7.35276 16.3552C7.35276 16.125 7.34192 15.8895 7.35276 15.6593C7.35817 15.5094 7.30942 15.4399 7.16858 15.3863C6.68646 15.199 6.20977 14.9902 5.72224 14.8029C5.6464 14.7761 5.51098 14.7975 5.45139 14.8511C5.25096 15.017 5.07761 15.215 4.89344 15.3917C4.49258 15.7717 3.96171 15.7771 3.56627 15.4024C3.18166 15.0384 2.80789 14.6637 2.43953 14.289C2.05493 13.8929 2.05493 13.3791 2.44495 12.9776C2.6183 12.7956 2.79706 12.619 2.98124 12.4477C3.08958 12.346 3.10041 12.255 3.03541 12.1212C2.82956 11.6662 2.63455 11.2112 2.45579 10.7455C2.3962 10.5956 2.3312 10.526 2.16869 10.5314C1.89783 10.5367 1.62698 10.5421 1.35613 10.526C0.846937 10.5046 0.489414 10.1299 0.483997 9.62143C0.47858 9.08616 0.47858 8.55088 0.483997 8.02096C0.489414 7.51245 0.868605 7.12706 1.38322 7.10565C1.64324 7.09494 1.90867 7.09494 2.16869 7.10565C2.32578 7.111 2.3962 7.05747 2.45579 6.90224C2.63455 6.43655 2.82956 5.98157 3.03541 5.52659C3.09499 5.39277 3.09499 5.30177 2.98124 5.20007C2.79706 5.02878 2.6183 4.85214 2.44495 4.67015C2.05493 4.28475 2.04951 3.76554 2.43412 3.37479C2.80247 3.0001 3.18166 2.62541 3.56085 2.26142C3.96171 1.87602 4.48174 1.88138 4.88802 2.26142C5.0722 2.43271 5.25096 2.60935 5.4243 2.79134C5.52723 2.8984 5.6139 2.9091 5.75474 2.85022C6.2206 2.64682 6.69188 2.44877 7.16858 2.26677C7.304 2.2186 7.35817 2.15972 7.35276 2.02055C7.34734 1.8332 7.36359 1.64586 7.34734 1.45851C7.304 0.907179 7.53152 0.527134 8.05155 0.32373C8.75034 0.32373 9.45455 0.32373 10.1588 0.32373Z" fill="black"/>
<path d="M21.6156 9.14502C22.3035 9.45013 22.5961 9.91047 22.4173 10.5046C22.3415 10.7401 22.1519 10.9596 21.9677 11.1362C21.8648 11.2379 21.7943 11.3182 21.7998 11.4628C21.8106 11.6662 21.8052 11.8749 21.7998 12.0783C21.7727 12.635 21.4477 13.0472 20.9114 13.181C20.7705 13.2185 20.7218 13.2666 20.7001 13.4004C20.5322 14.5406 19.9742 15.4559 19.0533 16.1464C18.8637 16.2856 18.7879 16.4301 18.8096 16.6549C18.8258 16.8476 18.815 17.0457 18.815 17.2437C18.815 17.2598 18.8258 17.2758 18.8367 17.3186C19.3675 17.4204 19.9146 17.5221 20.4563 17.6345C21.621 17.8807 22.7965 18.1109 23.9503 18.3945C24.5462 18.5391 25.077 18.8602 25.5483 19.2563C26.388 19.9629 26.778 20.8836 26.7834 21.9595C26.7888 23.2923 26.7942 24.6305 26.7834 25.9687C26.7726 27.0125 26.0738 27.6708 25.0175 27.6708C19.1075 27.6708 13.1976 27.6708 7.28761 27.6708C6.21505 27.6708 5.51626 26.9857 5.51626 25.9151C5.51626 24.6947 5.54334 23.4743 5.51084 22.2539C5.45125 20.0593 6.708 18.9084 8.35476 18.3945C9.40024 18.068 10.5053 17.9074 11.5833 17.6826C12.1467 17.5649 12.71 17.4578 13.2788 17.3615C13.4413 17.3347 13.4847 17.2598 13.5009 17.0992C13.5497 16.6014 13.4251 16.2428 12.9863 15.9055C12.2063 15.3114 11.7946 14.4549 11.6266 13.4914C11.5941 13.3148 11.5562 13.2078 11.3395 13.1489C10.8358 13.0204 10.5324 12.5975 10.4999 12.0623C10.4945 11.9659 10.4945 11.8642 10.4999 11.7679C10.5107 11.4628 10.4836 11.2326 10.1911 10.9971C9.59526 10.526 9.77402 9.55718 10.4782 9.24673C10.657 9.16644 10.7166 9.08614 10.7112 8.8988C10.6516 6.46866 12.4121 4.22586 14.9202 3.77088C17.8616 3.23561 20.2559 4.5042 21.2689 6.97717C21.5127 7.57667 21.6264 8.20294 21.6264 8.85062C21.6156 8.96303 21.6156 9.05938 21.6156 9.14502ZM23.4086 26.8733C24.0207 26.8733 24.6004 26.8893 25.1746 26.8679C25.6133 26.8519 25.9438 26.5039 25.9492 26.0864C25.9546 24.6091 25.9654 23.1317 25.9383 21.6544C25.9221 20.6748 25.1475 19.706 24.1995 19.4062C23.9016 20.3162 23.674 21.2476 23.5657 22.2003C23.5007 22.741 23.4736 23.2816 23.414 23.8169C23.3869 24.0631 23.219 24.1648 22.9807 24.1487C22.7423 24.1327 22.6286 23.9882 22.6069 23.7687C22.5961 23.6991 22.6069 23.6242 22.6123 23.5546C22.6936 22.1415 22.9265 20.7498 23.349 19.3955C23.4574 19.0476 23.4519 19.0369 23.0836 18.9673C22.271 18.8121 21.4639 18.6568 20.6514 18.4963C20.4943 18.4641 20.3913 18.4909 20.2938 18.6354C19.2321 20.161 18.1541 21.6704 17.1086 23.2013C16.8974 23.5118 16.7024 23.8811 16.6644 24.2397C16.5724 25.1015 16.5778 25.974 16.5453 26.8572C18.5929 26.8572 20.5864 26.8572 22.5744 26.8572C22.5852 26.8251 22.5961 26.809 22.5961 26.793C22.5961 26.3487 22.5961 25.9044 22.6015 25.4602C22.6015 25.1336 22.7586 24.9516 23.024 24.957C23.2786 24.9624 23.414 25.1336 23.4194 25.4548C23.414 25.9151 23.4086 26.3755 23.4086 26.8733ZM15.7327 26.8679C15.7327 26.2042 15.7219 25.5619 15.7327 24.9249C15.7436 24.2719 15.5485 23.683 15.1748 23.1478C14.1239 21.649 13.073 20.1502 12.0275 18.6515C11.9246 18.5016 11.8162 18.4641 11.6483 18.5016C11.112 18.614 10.5757 18.7104 10.034 18.8121C9.64943 18.887 9.26482 18.9726 8.83688 19.0583C9.77402 21.6115 9.75235 24.2344 9.7036 26.8626C11.735 26.8679 13.7122 26.8679 15.7327 26.8679ZM11.3341 11.3396C11.3341 11.5216 11.3341 11.6822 11.3341 11.8375C11.3341 12.3353 11.3829 12.3834 11.8812 12.3995C12.2117 12.4048 12.3579 12.5494 12.3742 12.8705C12.4771 15.1294 14.4597 16.3605 16.1986 16.3337C17.9266 16.307 19.7521 15.1133 19.9255 12.9883C19.9688 12.4477 20.0176 12.4263 20.5701 12.3995C20.7759 12.3888 20.9547 12.3353 20.9655 12.0944C20.9764 11.8482 20.971 11.6019 20.971 11.3396C17.7587 11.3396 14.5626 11.3396 11.3341 11.3396ZM20.7759 9.12897C20.9114 7.20198 19.6438 5.55869 18.5279 5.10371C18.5279 5.22682 18.5333 5.33923 18.5279 5.45699C18.5171 5.7728 18.3708 5.93874 18.1054 5.93338C17.8399 5.93338 17.6991 5.7728 17.6883 5.45164C17.6828 5.25359 17.6991 5.06089 17.6828 4.86284C17.6774 4.79325 17.6233 4.67549 17.5691 4.66479C17.2495 4.58985 16.9245 4.53632 16.5669 4.46673C16.5669 4.61661 16.5669 4.70761 16.5669 4.80396C16.5669 5.34458 16.5724 5.89056 16.5615 6.43119C16.5561 6.70953 16.3936 6.86476 16.1552 6.87011C15.9061 6.87011 15.7436 6.69883 15.7327 6.41513C15.7273 6.24384 15.7327 6.07791 15.7327 5.90662C15.7327 5.43558 15.7327 4.96989 15.7327 4.46138C15.386 4.52562 15.0718 4.57379 14.7739 4.65408C14.7035 4.67014 14.6222 4.7879 14.6114 4.86819C14.5897 5.08765 14.6114 5.31247 14.6006 5.53728C14.5897 5.79421 14.4326 5.93874 14.1943 5.93338C13.9614 5.92803 13.7988 5.77815 13.788 5.52658C13.7826 5.38205 13.788 5.23753 13.788 5.07159C12.3254 5.80492 11.3829 7.55526 11.54 9.12897C14.6114 9.12897 17.6883 9.12897 20.7759 9.12897ZM8.08391 19.3955C7.06552 19.8451 6.39923 20.6481 6.37756 21.5741C6.33964 23.0782 6.35589 24.5823 6.35589 26.0864C6.35589 26.4772 6.60507 26.8037 6.98968 26.8358C7.61263 26.884 8.24101 26.8465 8.86396 26.8465C8.92355 24.3307 8.96147 21.8203 8.08391 19.3955ZM14.346 16.8208C14.2105 17.5649 14.3297 18.234 15.0068 18.705C15.1314 18.7907 15.2452 18.8924 15.3752 18.9726C16.3069 19.54 15.9982 19.5454 16.9353 18.9673C17.7424 18.4695 18.2191 17.8057 17.9537 16.8155C16.3394 17.2758 15.9331 17.2812 14.346 16.8208ZM16.1552 10.526C17.8237 10.526 19.4867 10.526 21.1551 10.526C21.2526 10.526 21.3718 10.5421 21.4422 10.4993C21.5289 10.4457 21.6156 10.3333 21.6156 10.2423C21.6156 10.1513 21.5235 10.0443 21.4422 9.9854C21.3827 9.94258 21.2689 9.95329 21.1822 9.95329C17.8237 9.95329 14.4651 9.95329 11.1066 9.95329C11.0416 9.95329 10.9603 9.93188 10.9224 9.96399C10.8249 10.0496 10.6787 10.1567 10.6841 10.253C10.6895 10.3494 10.8412 10.4511 10.9441 10.526C10.9983 10.5635 11.1012 10.5367 11.1824 10.5367C12.84 10.526 14.4976 10.526 16.1552 10.526ZM17.5257 21.1566C17.1032 20.9157 16.7078 20.6909 16.3178 20.45C16.1877 20.3697 16.1011 20.3804 15.9819 20.45C15.5865 20.6909 15.1856 20.9157 14.7793 21.1512C15.2289 21.7935 15.6894 22.4519 16.1498 23.1157C16.6157 22.4573 17.0707 21.8042 17.5257 21.1566ZM19.53 18.2928C19.3025 18.2447 19.1129 18.1911 18.9179 18.1751C18.8421 18.1697 18.7283 18.234 18.6742 18.2982C18.4196 18.6033 18.2029 18.9459 17.9212 19.2296C17.6612 19.4919 17.3307 19.6899 17.022 19.9254C17.1791 20.0164 17.3307 20.1128 17.4824 20.2038C17.802 20.3911 18.0837 20.3483 18.3058 20.0432C18.7175 19.4704 19.1075 18.8977 19.53 18.2928ZM12.775 18.2982C13.2138 18.9191 13.6201 19.524 14.0589 20.1074C14.243 20.3537 14.541 20.3697 14.8064 20.2091C14.9635 20.1128 15.126 20.0111 15.2939 19.9094C15.2019 19.8505 15.1152 19.797 15.0339 19.7434C14.5518 19.4223 14.1022 19.069 13.7826 18.5819C13.4955 18.1376 13.4955 18.1376 12.9592 18.2661C12.9105 18.2714 12.8617 18.2768 12.775 18.2982Z" fill="black"/>
<path d="M6.07962 8.8292C6.09046 10.4671 7.42846 11.7946 9.09148 11.8053C9.15648 11.8053 9.21607 11.8 9.28107 11.8053C9.53567 11.816 9.69276 11.9659 9.69818 12.2014C9.7036 12.4423 9.53567 12.6029 9.26482 12.6136C8.30059 12.6511 7.42304 12.3888 6.68633 11.7732C5.46208 10.7508 4.99081 9.43406 5.38625 7.90318C5.7871 6.34018 6.87592 5.43021 8.45769 5.10369C9.08606 4.97523 9.71443 5.05552 10.3211 5.25357C10.6462 5.36063 10.7653 5.54262 10.6841 5.8049C10.6082 6.05113 10.3861 6.13677 10.0665 6.03507C8.25726 5.46233 6.49673 6.49005 6.12838 8.33139C6.09587 8.49198 6.09587 8.66326 6.07962 8.8292Z" fill="black"/>
</g>
<defs>
<clipPath id="clip0_15_1134">
<rect width="26.3158" height="27.3525" fill="white" transform="translate(0.478439 0.32373)"/>
</clipPath>
</defs>
</svg>
