<svg width="10" height="10" viewBox="0 0 10 10" fill="none" xmlns="http://www.w3.org/2000/svg">
<g clip-path="url(#clip0_59_7959)">
<path d="M7.68842 0.291224C5.99044 0.291224 4.30086 0.291224 2.60287 0.291224C2.502 0.308036 2.40113 0.324847 2.30026 0.350065C1.12344 0.610647 0.29126 1.64457 0.29126 2.85501C0.29126 4.38488 0.29126 5.91475 0.29126 7.44462C0.29126 7.60433 0.299666 7.77245 0.333289 7.93216C0.577059 9.1426 1.62779 10 2.86345 10C4.38492 10 5.91478 10 7.43625 10C7.58755 10 7.73045 9.99159 7.88176 9.96638C8.90727 9.75623 9.57974 9.15101 9.90757 8.15071C9.95801 7.9994 9.97482 7.8481 10.0084 7.68839C10.0084 5.9904 10.0084 4.30082 10.0084 2.60284C10 2.544 9.98322 2.47675 9.97482 2.41791C9.76467 1.37558 9.14264 0.694706 8.13393 0.383689C7.98263 0.341659 7.83132 0.316442 7.68842 0.291224ZM8.29364 5.14141C8.29364 5.61214 8.29364 6.07446 8.29364 6.54519C8.29364 6.65447 8.28524 6.76374 8.26843 6.86461C8.10872 7.72201 7.41943 8.29361 6.54522 8.29361C5.61217 8.29361 4.67912 8.29361 3.74607 8.29361C3.63679 8.29361 3.52752 8.2852 3.42665 8.26839C2.56925 8.10868 1.99765 7.4194 1.99765 6.54519C1.99765 5.61214 1.99765 4.67909 1.99765 3.74604C1.99765 3.63676 2.00606 3.52748 2.02287 3.42661C2.18258 2.56921 2.87186 1.99762 3.74607 1.99762C4.67912 1.99762 5.61217 1.99762 6.54522 1.99762C6.68812 1.99762 6.83943 2.01443 6.97392 2.04805C7.75567 2.23298 8.28524 2.90545 8.29364 3.71241C8.29364 4.18314 8.29364 4.66227 8.29364 5.14141Z" fill="#DA5A06"/>
<path d="M2.56921 5.1498C2.56921 5.62894 2.56921 6.10807 2.56921 6.58721C2.56921 7.20924 3.08197 7.71359 3.6956 7.71359C4.66227 7.71359 5.63735 7.71359 6.60403 7.71359C7.21766 7.71359 7.72201 7.20083 7.72201 6.58721C7.72201 5.62053 7.72201 4.64545 7.72201 3.67878C7.72201 3.06515 7.20925 2.55239 6.60403 2.55239C5.62895 2.55239 4.65387 2.55239 3.68719 2.55239C3.08197 2.55239 2.56921 3.06515 2.56921 3.67037C2.56921 4.17472 2.56921 4.66226 2.56921 5.1498ZM3.72082 5.1498C3.71241 4.36806 4.35966 3.72081 5.14141 3.72081C5.92315 3.72081 6.57041 4.35965 6.57041 5.1414C6.57041 5.91474 5.93156 6.56199 5.15822 6.57039C4.37648 6.57039 3.72922 5.93155 3.72082 5.1498ZM6.78055 6.49474C6.93186 6.49474 7.06635 6.62924 7.06635 6.78054C7.06635 6.93185 6.93186 7.06634 6.78055 7.06634C6.62925 7.06634 6.49475 6.93185 6.49475 6.78054C6.49475 6.62083 6.62925 6.49474 6.78055 6.49474Z" fill="#DA5A06"/>
<path d="M5.14147 4.29242C4.67074 4.29242 4.29248 4.67068 4.29248 5.14982C4.29248 5.62055 4.67074 5.99881 5.14988 5.99881C5.62061 5.99881 5.99887 5.62055 5.99887 5.14141C5.99887 4.67068 5.62061 4.29242 5.14147 4.29242Z" fill="#DA5A06"/>
</g>
<defs>
<clipPath id="clip0_59_7959">
<rect width="9.70878" height="9.70878" fill="white" transform="matrix(1 0 0 -1 0.29126 10)"/>
</clipPath>
</defs>
</svg>
