<svg width="93" height="42" viewBox="0 0 93 42" fill="none" xmlns="http://www.w3.org/2000/svg">
<g clip-path="url(#clip0_13_337)">
<path d="M42.6525 9.10911C42.4326 9.65456 42.1578 10.2 41.938 10.7455C39.4645 16.4182 36.9911 22.0909 34.5177 27.7637C34.4628 27.9273 34.3528 27.9818 34.1879 27.9818C33.8032 27.9818 33.4734 27.9818 33.0887 27.9818C32.9787 27.9818 32.9238 27.9273 32.8688 27.8182C31.1099 23.6727 29.3511 19.5818 27.5372 15.4364C27.4823 15.3818 27.4823 15.2727 27.4273 15.1637C27.3723 15.2727 27.3723 15.3273 27.3174 15.3818C25.5585 19.4727 23.8546 23.6182 22.0957 27.7091C22.0408 27.8727 21.9309 27.9273 21.711 27.9273C21.3262 27.9273 20.9965 27.9273 20.6117 27.9273C20.5018 27.9273 20.3918 27.8727 20.3918 27.7637C19.1277 24.8727 17.9184 22.0364 16.6543 19.1455C15.555 16.5818 14.4557 14.0182 13.3014 11.5091C13.3014 11.4546 13.2465 11.4 13.2465 11.3455C12.9716 11.6182 12.6968 11.9455 12.477 12.2182C11.5426 13.2546 10.6082 14.2909 9.67376 15.3273C9.56383 15.4364 9.56383 15.4909 9.6188 15.6546C11.3227 19.6364 13.0266 23.6727 14.7305 27.7091C14.7855 27.7637 14.7855 27.8727 14.8404 27.9818C14.7305 27.9818 14.6755 27.9818 14.6206 27.9818C13.4114 27.9818 12.2571 27.9818 11.0479 27.9818C10.883 27.9818 10.828 27.9273 10.7731 27.8182C9.50887 24.8182 8.24468 21.8182 6.92554 18.8182C6.87057 18.7637 6.87057 18.6546 6.81561 18.6C6.76064 18.6546 6.70568 18.6546 6.70568 18.7091C5.82624 19.5818 4.94681 20.4 4.06738 21.2727C3.95745 21.3818 3.90248 21.4909 3.90248 21.6C3.90248 23.6182 3.90248 25.6909 3.90248 27.7091C3.90248 27.7637 3.90248 27.8727 3.90248 27.9273C2.58334 27.9273 1.26419 27.9273 -0.0549622 27.9273C-0.0549622 27.8727 -0.0549622 27.7637 -0.0549622 27.7091C2.38419e-06 18.6 2.38419e-06 9.43638 2.38419e-06 0.218197C2.38419e-06 0.0545607 0.0549669 1.52588e-05 0.219861 1.52588e-05C1.37412 1.52588e-05 2.52837 1.52588e-05 3.68263 1.52588e-05C3.95745 1.52588e-05 3.95745 1.52588e-05 3.95745 0.272743C3.95745 5.45456 3.95745 10.5818 3.95745 15.7637C3.95745 15.8182 3.95745 15.9273 3.95745 16.0364C4.06738 15.9818 4.06738 15.9273 4.12234 15.8727C6.32092 13.6909 8.57447 11.4546 10.7731 9.27274C10.883 9.16365 10.9929 9.10911 11.1578 9.10911C12.7518 9.10911 14.3457 9.10911 15.9947 9.10911C16.1596 9.10911 16.2145 9.16365 16.3245 9.32729C17.9184 12.9818 19.5124 16.6909 21.1064 20.3455C21.1064 20.4 21.1614 20.4546 21.2163 20.5637C21.2713 20.4546 21.3262 20.3455 21.3262 20.2909C22.8653 16.6364 24.4043 12.9818 25.9433 9.32729C25.9982 9.16365 26.0532 9.10911 26.2181 9.10911C26.9876 9.10911 27.7571 9.10911 28.5266 9.10911C28.7465 9.10911 28.8014 9.16365 28.9114 9.32729C30.4504 12.9818 31.9894 16.5818 33.4734 20.2364C33.5284 20.2909 33.5284 20.4 33.5833 20.5091C33.6933 20.2909 33.7482 20.0727 33.8582 19.9091C35.3972 16.3637 36.9362 12.8182 38.4752 9.27274C38.5301 9.10911 38.5851 9.05456 38.75 9.05456C39.9592 9.05456 41.1684 9.05456 42.3227 9.05456C42.4876 9.10911 42.5426 9.10911 42.6525 9.10911Z" fill="white"/>
<path d="M37.4858 41.8364C37.3209 41.8364 37.156 41.8364 36.9911 41.8364C36.7713 41.8364 36.6064 41.8364 36.3865 41.8364C36.2216 41.8364 36.1667 41.7818 36.1117 41.6728C35.617 40.4728 35.1223 39.2728 34.6277 38.0728C34.4628 37.6909 34.5727 37.7455 34.133 37.7455C33.8032 37.7455 33.4184 37.7455 33.0887 37.7455C32.9238 37.7455 32.8688 37.8 32.8688 37.9637C32.8688 39.1637 32.8688 40.4182 32.8688 41.6182C32.8688 41.8909 32.8688 41.8909 32.594 41.8909C32.3192 41.8909 31.9894 41.8909 31.7145 41.8909C31.5496 41.8909 31.4947 41.8364 31.4947 41.7273C31.4947 38.7818 31.4947 35.8364 31.4947 32.8909C31.4947 32.7273 31.5496 32.7273 31.6596 32.7273C32.4291 32.7273 33.1436 32.7273 33.9131 32.7273C34.7376 32.7818 35.5071 32.9455 36.1117 33.4909C36.6064 33.9273 36.8262 34.4728 36.8262 35.0728C36.8262 35.4546 36.8262 35.8364 36.7713 36.2182C36.6614 36.7091 36.3316 37.0909 35.9468 37.4182C35.7819 37.5818 35.7819 37.6909 35.8369 37.9091C36.3316 39.1637 36.8262 40.4182 37.3759 41.6728C37.4309 41.6728 37.4309 41.7273 37.4858 41.8364ZM32.8688 33.7637C32.8688 33.8182 32.8688 33.8182 32.8688 33.7637C32.8138 34.7455 32.8138 35.6727 32.8138 36.6C32.8138 36.6546 32.8688 36.7091 32.9238 36.7091C33.5284 36.7091 34.078 36.7637 34.6826 36.5455C35.2872 36.3273 35.5621 35.8364 35.5621 35.0728C35.5621 34.4728 35.1773 34.0364 34.5727 33.8727C34.0231 33.7091 33.4734 33.7637 32.8688 33.7637Z" fill="white"/>
<path d="M6.10107 41.8364C5.66135 41.8364 5.2766 41.8364 4.89185 41.8364C4.83688 41.8364 4.78192 41.7273 4.72696 41.6727C4.28724 40.6364 3.84752 39.5455 3.40781 38.5091C3.24291 38.1273 3.07802 37.6909 2.91313 37.3091C2.91313 37.2546 2.85816 37.2 2.8032 37.1455C2.8032 37.0909 2.74823 37.1455 2.69327 37.2C2.25355 37.6364 1.8688 38.1273 1.42908 38.5636C1.37412 38.6727 1.31915 38.7818 1.31915 38.8909C1.31915 39.8182 1.31915 40.6909 1.31915 41.6182C1.31915 41.7818 1.26419 41.8364 1.0993 41.8364C0.824473 41.8364 0.549651 41.8364 0.274828 41.8364C0.109934 41.8364 0.0549698 41.7818 0.0549698 41.6182C0.0549698 39.1637 0.0549698 36.6546 0.0549698 34.2C0.0549698 33.7637 0.0549698 33.3818 0.0549698 32.9455C0.0549698 32.6727 0.0549698 32.6727 0.329792 32.6727C0.604615 32.6727 0.824473 32.6727 1.0993 32.6727C1.37412 32.6727 1.37412 32.6727 1.37412 32.9455C1.37412 34.1455 1.37412 35.4 1.37412 36.6C1.37412 36.6546 1.37412 36.7636 1.37412 36.8727C1.48405 36.7636 1.53901 36.7637 1.59398 36.7091C2.8032 35.4 3.95745 34.1455 5.16667 32.8364C5.2766 32.7273 5.44149 32.6182 5.60639 32.6727C6.0461 32.6727 6.48582 32.6727 6.92554 32.6727C6.81561 32.7818 6.76064 32.8364 6.70568 32.8909C5.77128 33.8727 4.89185 34.8546 3.95745 35.8364C3.79256 36 3.79256 36.1091 3.84752 36.2727C4.56206 38.0727 5.33156 39.8727 6.0461 41.6182C6.0461 41.6727 6.10107 41.7273 6.10107 41.8364Z" fill="white"/>
<path d="M25.2837 37.2546C25.2837 35.7818 25.2837 34.3636 25.2837 32.8909C25.2837 32.6727 25.3387 32.6182 25.5585 32.6182C27.1525 32.6182 28.7465 32.6182 30.2855 32.6182C30.5053 32.6182 30.5603 32.6727 30.5053 32.8909C30.5053 33.1091 30.5053 33.3273 30.5053 33.5455C30.5053 33.8182 30.5053 33.8182 30.2305 33.8182C29.0762 33.8182 27.922 33.8182 26.8227 33.8182C26.5479 33.8182 26.5479 33.8182 26.5479 34.0909C26.5479 34.8546 26.5479 35.6182 26.5479 36.3818C26.5479 36.7091 26.5479 36.7091 26.8777 36.7091C27.922 36.7091 29.0213 36.7091 30.0656 36.7091C30.3404 36.7091 30.3404 36.7091 30.3404 36.9818C30.3404 37.1455 30.3404 37.3637 30.3404 37.5273C30.3404 37.8546 30.3404 37.8546 30.0656 37.8546C28.9663 37.8546 27.867 37.8546 26.7677 37.8546C26.5479 37.8546 26.4929 37.9091 26.4929 38.0727C26.4929 38.8909 26.4929 39.7091 26.4929 40.4727C26.4929 40.6364 26.5479 40.6909 26.7128 40.6909C27.922 40.6909 29.1312 40.6909 30.3404 40.6909C30.5053 40.6909 30.5603 40.7455 30.5603 40.9091C30.5603 41.1818 30.5603 41.4 30.5603 41.6727C30.5603 41.7818 30.5053 41.8364 30.3954 41.8364C28.7465 41.8364 27.0426 41.8364 25.3936 41.8364C25.2287 41.8364 25.2287 41.7273 25.2287 41.6182C25.2837 40.2 25.2837 38.7273 25.2837 37.2546Z" fill="white"/>
<path d="M7.69504 37.2546C7.69504 35.7818 7.69504 34.3636 7.69504 32.8909C7.69504 32.7273 7.75 32.6182 7.9149 32.6182C9.50887 32.6182 11.1028 32.6182 12.6968 32.6182C12.8617 32.6182 12.9167 32.6727 12.9167 32.8364C12.9167 33.0546 12.9167 33.3273 12.9167 33.5455C12.9167 33.7091 12.8617 33.7637 12.6968 33.7637C11.5426 33.7637 10.3883 33.7637 9.23404 33.7637C8.95922 33.7637 8.95922 33.7637 8.95922 34.0364C8.95922 34.8 8.95922 35.5636 8.95922 36.3273C8.95922 36.6 8.95922 36.6 9.23404 36.6C10.3333 36.6 11.4326 36.6 12.5319 36.6C12.6968 36.6 12.8067 36.6546 12.8067 36.8182C12.8067 37.0364 12.8067 37.2546 12.8067 37.4727C12.8067 37.6364 12.7518 37.6909 12.5869 37.6909C11.4876 37.6909 10.4433 37.6909 9.34397 37.6909C9.28901 37.6909 9.23405 37.6909 9.17908 37.6909C9.06915 37.6909 9.01419 37.7455 9.01419 37.8546C9.01419 38.7273 9.01419 39.6 9.01419 40.4727C9.01419 40.6364 9.12412 40.6364 9.23404 40.6364C10.3883 40.6364 11.5975 40.6364 12.7518 40.6364C13.0266 40.6364 13.0266 40.6364 13.0266 40.9636C13.0266 41.1818 13.0266 41.4 13.0266 41.6182C13.0266 41.7273 12.9716 41.7818 12.8617 41.7818C11.2128 41.7818 9.50887 41.7818 7.85993 41.7818C7.69504 41.7818 7.69504 41.6727 7.69504 41.5636C7.69504 40.2 7.69504 38.7273 7.69504 37.2546Z" fill="white"/>
<path d="M43.6968 33.7637C43.6418 33.8182 43.6418 33.9273 43.5869 33.9818C42.7624 36.5455 41.9929 39.1091 41.1684 41.6727C41.1135 41.7818 41.0585 41.8909 40.9486 41.8909C40.8936 41.8909 40.7837 41.7818 40.7837 41.7273C40.4539 40.9091 40.1241 40.0364 39.7943 39.2182C38.9699 37.0909 38.1454 34.9637 37.3209 32.8364C37.3209 32.7818 37.266 32.7273 37.266 32.6182C37.4858 32.6182 37.7057 32.6182 37.8706 32.6182C37.9255 32.6182 37.9805 32.7273 38.0355 32.7818C38.4752 33.8727 38.9149 34.9637 39.3546 36.0546C39.8493 37.3637 40.344 38.6182 40.8936 39.9273C40.8936 39.9818 40.9486 40.0364 41.0035 40.1455C41.0585 39.9818 41.1135 39.9273 41.1135 39.8182C41.883 37.4727 42.6525 35.0727 43.422 32.7273C43.477 32.5637 43.5869 32.5091 43.7518 32.5091C43.9167 32.5091 44.0266 32.5091 44.0816 32.7273C44.8511 35.1273 45.6206 37.5273 46.445 39.8727C46.445 39.9273 46.5 40.0364 46.555 40.1455C46.6099 40.0364 46.6649 39.9818 46.6649 39.9273C47.5993 37.5818 48.4787 35.1818 49.4131 32.8364C49.4681 32.6727 49.578 32.5637 49.7979 32.5637C49.9628 32.5637 50.0727 32.5637 50.2926 32.5637C50.1826 32.8909 50.0727 33.1091 49.9628 33.3818C48.9184 36.1091 47.8741 38.8364 46.8298 41.6182C46.7748 41.7273 46.7748 41.8364 46.6099 41.8364C46.5 41.8364 46.445 41.7818 46.3901 41.6727C46.0053 40.5273 45.6755 39.3273 45.2908 38.1818C44.8511 36.7637 44.4113 35.3455 43.9167 33.9273C43.8067 33.9273 43.8067 33.8182 43.6968 33.7637C43.7518 33.7637 43.7518 33.7637 43.6968 33.7637Z" fill="white"/>
<path d="M80.1933 36.9273C80.3582 36.7636 80.4681 36.6 80.633 36.4364C81.6223 35.2364 82.6667 33.9818 83.656 32.7818C83.711 32.7273 83.8209 32.6727 83.9309 32.6727C84.4805 32.6727 84.4805 32.6727 84.4805 33.1636C84.4805 35.9455 84.4805 38.7818 84.4805 41.5636C84.4805 41.8364 84.4805 41.8364 84.2057 41.8364C83.711 41.8364 83.766 41.8909 83.766 41.4C83.766 38.8909 83.766 36.4364 83.766 33.9273C83.766 33.8727 83.766 33.7636 83.766 33.7091H83.711C82.5567 35.1273 81.4025 36.5455 80.1933 38.0182C79.039 36.6 77.8298 35.1818 76.6755 33.7091H76.6206C76.6206 33.7636 76.6206 33.8727 76.6206 33.9273C76.6206 36.4909 76.6206 39.0546 76.6206 41.5636C76.6206 41.8364 76.6206 41.8364 76.3457 41.8364C75.906 41.8364 75.906 41.8364 75.906 41.4C75.906 38.5636 75.906 35.7273 75.906 32.8909C75.906 32.6182 75.906 32.6727 76.1809 32.6182C76.5106 32.5636 76.7305 32.7273 76.9504 33C77.9947 34.2546 79.039 35.5091 80.0284 36.7636C80.0833 36.8182 80.1383 36.8727 80.1933 36.9273Z" fill="white"/>
<path d="M13.961 37.2546C13.961 35.7818 13.961 34.3637 13.961 32.8909C13.961 32.7273 14.016 32.6182 14.1809 32.6727C14.4557 32.6727 14.7305 32.6727 15.0053 32.6727C15.1702 32.6727 15.2252 32.7273 15.2252 32.8909C15.2252 34.3091 15.2252 35.6727 15.2252 37.0909C15.2252 38.2364 15.2252 39.3273 15.2252 40.4727C15.2252 40.7455 15.2252 40.7455 15.5 40.7455C16.4894 40.7455 17.4787 40.7455 18.4681 40.7455C18.633 40.7455 18.688 40.8 18.688 40.9637C18.688 41.2364 18.688 41.4546 18.688 41.7273C18.688 41.8364 18.633 41.8909 18.5231 41.8909C17.039 41.8909 15.555 41.8909 14.1259 41.8909C13.961 41.8909 13.961 41.7818 13.961 41.6727C13.961 40.2 13.961 38.7273 13.961 37.2546Z" fill="white"/>
<path d="M19.6223 37.2546C19.6223 35.7818 19.6223 34.3637 19.6223 32.8909C19.6223 32.7273 19.6773 32.6182 19.8422 32.6727C20.117 32.6727 20.3918 32.6727 20.6117 32.6727C20.8865 32.6727 20.8865 32.6727 20.8865 32.9455C20.8865 34.2 20.8865 35.4 20.8865 36.6546C20.8865 37.9091 20.8865 39.1637 20.8865 40.4182C20.8865 40.7455 20.8865 40.7455 21.2163 40.7455C22.2057 40.7455 23.1401 40.7455 24.1294 40.7455C24.2943 40.7455 24.3493 40.8 24.3493 40.9637C24.3493 41.2364 24.3493 41.4546 24.3493 41.7273C24.3493 41.8364 24.2943 41.8909 24.1844 41.8909C22.7004 41.8909 21.2163 41.8909 19.7872 41.8909C19.6223 41.8909 19.6223 41.7818 19.6223 41.6727C19.6223 40.2 19.6223 38.7273 19.6223 37.2546Z" fill="white"/>
<path d="M74.8617 41.8364C74.6418 41.8364 74.477 41.8364 74.3121 41.8364C74.2571 41.8364 74.2021 41.7273 74.1472 41.6727C73.7624 40.7455 73.3777 39.8182 72.9929 38.8909C72.9379 38.7273 72.883 38.6727 72.7181 38.6727C71.5089 38.6727 70.2447 38.6727 69.0355 38.6727C68.8706 38.6727 68.8156 38.7273 68.7606 38.8909C68.3759 39.8182 67.9911 40.7455 67.6064 41.6727C67.5514 41.8364 67.4415 41.9455 67.2766 41.8909C67.1667 41.8909 67.0567 41.8909 66.8918 41.8909C67.0567 41.5091 67.1667 41.1818 67.3316 40.8546C68.4309 38.1818 69.5301 35.5636 70.6294 32.8909C70.6844 32.7818 70.7394 32.6727 70.7943 32.6727C70.9043 32.6182 71.0691 32.6727 71.1241 32.8364C72.2784 35.6727 73.4876 38.5091 74.6418 41.3455C74.6968 41.4 74.7518 41.6182 74.8617 41.8364ZM72.7181 38.0727C72.1135 36.6 71.5089 35.1818 70.9043 33.7091H70.8493C70.2447 35.1273 69.695 36.6 69.0904 38.0727C70.2996 38.0727 71.4539 38.0727 72.7181 38.0727Z" fill="white"/>
<path d="M90.4167 34.0364C89.977 33.5455 89.4823 33.3273 88.9326 33.2182C88.1082 33.1091 87.3387 33.2182 86.789 33.8727C86.1844 34.5818 86.2394 35.7818 87.2287 36.2728C87.6135 36.4909 88.0532 36.6546 88.4929 36.8182C89.0426 37.0364 89.5372 37.2 90.0319 37.5818C90.5266 37.9637 90.8014 38.5091 90.8564 39.1091C91.0213 40.8 89.5922 41.9455 88.2181 41.8909C87.3936 41.8909 86.6791 41.6727 86.0195 41.2364C85.9096 41.1818 85.8546 41.0727 85.8546 40.9637C85.8546 40.8 85.8546 40.5818 85.8546 40.4727C86.2394 40.6909 86.5692 40.9637 86.9539 41.1273C87.7234 41.4546 88.5479 41.5091 89.3174 41.0182C90.3617 40.3637 90.5266 38.7273 89.3174 37.9637C88.8777 37.6909 88.438 37.5273 87.9433 37.3637C87.4486 37.1455 86.899 36.9818 86.4592 36.6C85.9646 36.2182 85.7447 35.7273 85.6897 35.1273C85.5798 33.5455 87.0089 32.5637 88.2181 32.5637C88.8777 32.5637 89.4823 32.7273 90.0319 33.0546C90.3068 33.2182 90.4716 33.3818 90.4167 33.7091C90.3617 33.7637 90.4167 33.8728 90.4167 34.0364Z" fill="white"/>
<path d="M53.4255 37.2546C53.4255 35.8364 53.4255 34.3637 53.4255 32.9455C53.4255 32.6727 53.4255 32.6727 53.7004 32.6727C54.1401 32.6727 54.0851 32.6182 54.0851 33.0546C54.0851 35.7273 54.0851 38.3455 54.0851 41.0182C54.0851 41.2909 54.0851 41.2909 54.3599 41.2909C55.4592 41.2909 56.5585 41.2909 57.6578 41.2909C57.9326 41.2909 57.9326 41.2909 57.9326 41.5637C57.9326 41.6182 57.9326 41.6727 57.9326 41.6727C57.8777 41.7273 57.8777 41.7818 57.8227 41.7818H57.7677C56.3936 41.7818 55.0195 41.7818 53.6454 41.7818C53.4805 41.7818 53.4255 41.7273 53.4255 41.5637C53.4255 40.6909 53.4255 39.8182 53.4255 38.8909C53.4255 38.4 53.4255 37.8 53.4255 37.2546Z" fill="white"/>
<path d="M59.3067 37.2C59.3067 35.7818 59.3067 34.3091 59.3067 32.8909C59.3067 32.6727 59.3617 32.6182 59.5816 32.6727C60.0762 32.6727 59.9663 32.6182 59.9663 33.0546C59.9663 35.6727 59.9663 38.3455 59.9663 40.9637C59.9663 41.3455 59.9663 41.2909 60.2961 41.2909C61.3954 41.2909 62.4947 41.2909 63.594 41.2909C63.8138 41.2909 63.8138 41.2909 63.8138 41.5637C63.8138 41.8364 63.8138 41.8364 63.594 41.8364C62.2199 41.8364 60.9007 41.8364 59.5266 41.8364C59.3617 41.8364 59.3067 41.7818 59.3067 41.6182C59.3067 40.1455 59.3067 38.6727 59.3067 37.2Z" fill="white"/>
<path d="M51.9965 37.2546C51.9965 38.6727 51.9965 40.1455 51.9965 41.5636C51.9965 41.7818 51.9415 41.8364 51.7216 41.7818C51.2819 41.7818 51.2819 41.7818 51.2819 41.3455C51.2819 38.5091 51.2819 35.6727 51.2819 32.8909C51.2819 32.6182 51.2819 32.6182 51.5567 32.6182C52.0514 32.6182 51.9965 32.5637 51.9965 33.0546C51.9965 34.4727 51.9965 35.8364 51.9965 37.2546Z" fill="white"/>
<path d="M65.078 37.2546C65.078 35.7818 65.078 34.3637 65.078 32.8909C65.078 32.7273 65.133 32.6727 65.2979 32.6727C65.7376 32.6727 65.7376 32.6727 65.7376 33.1091C65.7376 35.9455 65.7376 38.7818 65.7376 41.5637C65.7376 41.8364 65.7376 41.8364 65.4628 41.8364C65.0231 41.8364 65.0231 41.8364 65.0231 41.4C65.078 39.9818 65.078 38.6182 65.078 37.2546Z" fill="white"/>
<path d="M93 41.1273C93 41.6182 92.6153 42 92.1206 42C91.6259 42 91.2411 41.6182 91.2411 41.1273C91.2411 40.6364 91.6259 40.2546 92.1206 40.2546C92.6702 40.2 93 40.6364 93 41.1273ZM92.1206 40.3091C91.6809 40.3091 91.2961 40.6364 91.2961 41.1273C91.2961 41.5637 91.6809 41.9455 92.1206 41.9455C92.5603 41.9455 92.9451 41.5637 92.9451 41.1273C93 40.6364 92.6153 40.3091 92.1206 40.3091Z" fill="white"/>
<path d="M91.8458 41.5637C91.8458 41.2909 91.8458 40.9637 91.8458 40.6909C91.8458 40.6364 92.0107 40.6364 92.0656 40.6364C92.2305 40.6364 92.3404 40.6909 92.3404 40.8546C92.3404 40.9091 92.3404 40.9637 92.3404 40.9637C92.1755 41.1273 92.2855 41.2909 92.3404 41.5091V41.5637C92.3404 41.5637 92.3404 41.5637 92.2855 41.6182C92.2305 41.5091 92.1756 41.4 92.1206 41.2909C92.0656 41.2364 92.0107 41.1818 91.9557 41.1273C91.9007 41.1818 91.9007 41.2364 91.8458 41.3455C91.8458 41.4 91.8458 41.5091 91.8458 41.5637C91.9007 41.5637 91.9007 41.5637 91.8458 41.5637ZM91.9007 40.9637C91.9557 41.0182 92.0107 41.0727 92.0656 41.0727C92.1206 41.0182 92.2305 40.9637 92.2855 40.9091C92.2855 40.8 92.2305 40.7455 92.0656 40.7455C91.9557 40.6909 91.9557 40.8 91.9007 40.9637Z" fill="white"/>
</g>
<defs>
<clipPath id="clip0_13_337">
<rect width="93" height="42" fill="white"/>
</clipPath>
</defs>
</svg>
