<svg width="134" height="30" viewBox="0 0 134 30" fill="none" xmlns="http://www.w3.org/2000/svg">
<g clip-path="url(#clip0_7_156)">
<path d="M17.1031 18.4019L15.2256 17.6046C14.5246 17.3056 13.8274 16.9947 13.1224 16.7116C13.0086 16.6791 12.9103 16.6064 12.8456 16.5068C12.7808 16.4072 12.754 16.2874 12.7699 16.1694C12.7699 14.6745 12.7699 13.1795 12.7699 11.6886C12.7833 11.5804 12.7616 11.4707 12.7081 11.3759C12.6546 11.281 12.572 11.2062 12.4728 11.1623C11.4905 10.6441 10.5201 10.1019 9.54177 9.56772C9.41637 9.51843 9.3101 9.42975 9.23874 9.31484C9.16739 9.19993 9.13476 9.06493 9.14569 8.92988C9.14569 7.80168 9.14569 6.6695 9.14569 5.54131C9.1352 5.43556 9.15831 5.32919 9.21169 5.2375C9.26507 5.14581 9.34597 5.07352 9.44275 5.03103C11.9434 3.68623 14.4387 2.33878 16.9288 0.98867C16.9724 0.964751 17.0199 0.948804 17.0873 0.920898L17.1031 18.4019Z" fill="#FD5D00"/>
<path d="M17.7646 18.3381V5.35394C17.8522 5.3667 17.9385 5.38807 18.022 5.41773C20.1213 6.56187 22.2205 7.71398 24.3277 8.85015C24.4435 8.89684 24.5405 8.98091 24.6036 9.08915C24.6667 9.19739 24.6923 9.32367 24.6763 9.44813C24.6525 9.99827 24.6763 10.5484 24.6763 11.0986C24.6881 11.2045 24.6655 11.3114 24.6119 11.4033C24.5584 11.4953 24.4768 11.5674 24.3792 11.6088C23.4445 12.1032 22.5176 12.6095 21.5828 13.0998C21.4931 13.135 21.4168 13.198 21.3648 13.2797C21.3128 13.3613 21.288 13.4575 21.2937 13.5543C21.2937 14.4951 21.2937 15.4359 21.2937 16.3768C21.2937 16.5123 21.2264 16.7276 21.1273 16.7754C20.0341 17.3136 18.9291 17.8119 17.7646 18.3381Z" fill="white"/>
<path d="M19.0122 25.1153C18.4419 25.1153 17.8715 25.1153 17.3011 25.1153C17.1986 25.1024 17.1035 25.0546 17.0318 24.9797C14.6975 22.7659 12.3712 20.552 10.0527 18.3381C9.8111 18.1069 9.67643 18.1149 9.43878 18.3381C7.26425 20.443 5.08181 22.528 2.8954 24.6369C2.75334 24.8044 2.57349 24.9352 2.3709 25.0185C2.1683 25.1017 1.94885 25.1349 1.7309 25.1153C1.33481 25.0754 0.910999 25.1153 0.356476 25.1153C3.52518 22.0536 6.63447 19.0717 9.76753 16.0538L19.0756 24.9797L19.0122 25.1153Z" fill="white"/>
<path d="M4.75305 19.4743V19.0756C4.75305 16.5203 4.75305 13.9649 4.75305 11.4135C4.7401 11.2766 4.77174 11.1392 4.84319 11.022C4.91463 10.9047 5.02202 10.8141 5.14914 10.7637C6.07598 10.2853 6.98699 9.779 7.92175 9.28865C8.04384 9.22899 8.16951 9.17706 8.29804 9.13318C8.29804 9.3046 8.32576 9.43217 8.32576 9.55974C8.32576 11.6288 8.32576 13.6978 8.32576 15.7708C8.31817 15.9855 8.23214 16.1899 8.08415 16.3448C7.04244 17.3694 5.98488 18.37 4.91544 19.3786C4.86528 19.4169 4.81077 19.449 4.75305 19.4743V19.4743Z" fill="white"/>
<path d="M33.3269 25.1152C32.7208 25.1152 32.1109 25.1152 31.5009 25.1152C31.3781 25.1152 31.2474 24.9877 31.1444 24.888C28.9633 22.807 26.7861 20.7221 24.6129 18.6331C24.3674 18.3939 24.2168 18.4099 24.0029 18.6331C22.4899 20.0762 20.965 21.5034 19.44 22.9386C19.3251 23.0462 19.2024 23.1499 19.0637 23.2774L18.0497 22.3247C18.1448 22.221 18.224 22.1213 18.3151 22.0336C20.2124 20.2158 22.1136 18.4059 24.0029 16.58C24.2446 16.3488 24.3713 16.3568 24.6129 16.58C27.4304 19.3148 30.2545 22.0403 33.0853 24.7565C33.1885 24.8396 33.3 24.9118 33.418 24.9717L33.3269 25.1152Z" fill="white"/>
<path d="M25.3496 11.9597C25.4922 12.0155 25.6269 12.0633 25.7457 12.1271C26.5379 12.5257 27.2984 12.9244 28.0628 13.3231C28.1339 13.3608 28.1962 13.4134 28.2454 13.4773C28.2946 13.5413 28.3296 13.6151 28.348 13.6938C28.348 15.5356 28.348 17.3774 28.348 19.275C28.2213 19.1833 28.1341 19.1315 28.0628 19.0677C27.2033 18.2704 26.3438 17.4531 25.4962 16.6279C25.3762 16.5078 25.3043 16.3475 25.2942 16.1774C25.2942 14.818 25.2942 13.4586 25.2942 12.0992C25.3079 12.0509 25.3264 12.0041 25.3496 11.9597V11.9597Z" fill="#9B9B9B"/>
<path d="M11.4866 16.6757C13.3482 17.4731 15.1147 18.2265 16.8734 18.9999C17.0072 19.0704 17.156 19.1073 17.3071 19.1073C17.4582 19.1073 17.607 19.0704 17.7408 18.9999C19.4281 18.2026 21.1274 17.4053 22.8187 16.608C22.9273 16.5513 23.049 16.5252 23.1712 16.5322L21.2699 18.2704L17.6497 21.639C17.4952 21.7825 17.3685 21.8543 17.1744 21.6828C15.3128 20.0324 13.4393 18.39 11.4866 16.6757Z" fill="#9B9B9B"/>
<path d="M9.74772 19.6856L6.3374 22.6157V22.5798L9.79525 18.9361L12.7897 22.1253L12.7382 22.1851L9.74772 19.6856Z" fill="#676767"/>
<path d="M24.3357 18.9122L27.5717 22.3606L27.5321 22.4044L24.3158 19.6138L21.1036 22.4642L21.0442 22.4044C22.1334 21.2324 23.2266 20.0803 24.3357 18.9122Z" fill="white"/>
<path d="M24.4268 22.0337V22.9904H23.4603V22.0337H24.4268Z" fill="white"/>
<path d="M9.97351 22.7233V21.7985H10.932V22.7233H9.97351Z" fill="white"/>
<path d="M25.7141 23.3173V24.29H24.7397V23.3173H25.7141Z" fill="white"/>
<path d="M24.4228 24.3179H23.4524V23.3173H24.4228V24.3179Z" fill="white"/>
<path d="M9.56948 22.7552H8.62283V21.7985H9.56948V22.7552Z" fill="white"/>
<path d="M10.94 23.0861V24.0389H9.99332V23.0861H10.94Z" fill="white"/>
<path d="M8.61887 23.0821H9.57344V24.0349H8.61887V23.0821Z" fill="white"/>
<path d="M24.7436 22.0177H25.6982V22.9904H24.7436V22.0177Z" fill="white"/>
</g>
<path d="M41.7593 24.3331C40.637 24.3331 39.6314 24.1536 38.7424 23.7945C37.8533 23.4353 37.1392 22.9038 36.6 22.2C36.0753 21.4961 35.7984 20.6486 35.7692 19.6574H39.748C39.8063 20.2176 40.0031 20.6486 40.3383 20.9502C40.6735 21.2375 41.1107 21.3812 41.6499 21.3812C42.2038 21.3812 42.641 21.2591 42.9616 21.0149C43.2823 20.7563 43.4426 20.4044 43.4426 19.9591C43.4426 19.5856 43.3114 19.2768 43.0491 19.0326C42.8013 18.7884 42.488 18.5872 42.109 18.4292C41.7447 18.2712 41.22 18.0917 40.535 17.8906C39.544 17.5889 38.7351 17.2872 38.1084 16.9856C37.4817 16.6839 36.9425 16.2386 36.4907 15.6497C36.0389 15.0607 35.8129 14.2922 35.8129 13.3441C35.8129 11.9364 36.3303 10.8375 37.3651 10.0474C38.3999 9.243 39.748 8.84079 41.4095 8.84079C43.1001 8.84079 44.4628 9.243 45.4976 10.0474C46.5323 10.8375 47.0861 11.9436 47.159 13.3657H43.1147C43.0855 12.8773 42.9033 12.4966 42.5681 12.2237C42.2329 11.9364 41.803 11.7927 41.2783 11.7927C40.8265 11.7927 40.4621 11.9148 40.1852 12.159C39.9083 12.3889 39.7699 12.7264 39.7699 13.1717C39.7699 13.6601 40.0031 14.0408 40.4694 14.3137C40.9358 14.5867 41.6645 14.8812 42.6556 15.1972C43.6466 15.5276 44.4482 15.8436 45.0603 16.1452C45.687 16.4469 46.2263 16.885 46.6781 17.4596C47.1299 18.0342 47.3558 18.774 47.3558 19.679C47.3558 20.5408 47.1299 21.3237 46.6781 22.0276C46.2408 22.7315 45.5996 23.2917 44.7543 23.7083C43.909 24.1248 42.9106 24.3331 41.7593 24.3331Z" fill="white"/>
<path d="M48.9131 18.1491C48.9131 16.9138 49.1462 15.8292 49.6126 14.8955C50.0936 13.9618 50.7421 13.2436 51.5583 12.7408C52.3744 12.238 53.2853 11.9867 54.291 11.9867C55.1508 11.9867 55.9014 12.159 56.5427 12.5038C57.1985 12.8485 57.7013 13.301 58.0511 13.8613V12.159H61.7894V24.1823H58.0511V22.4801C57.6868 23.0403 57.1767 23.4928 56.5208 23.8376C55.8796 24.1823 55.129 24.3547 54.2691 24.3547C53.278 24.3547 52.3744 24.1033 51.5583 23.6005C50.7421 23.0834 50.0936 22.358 49.6126 21.4243C49.1462 20.4762 48.9131 19.3845 48.9131 18.1491ZM58.0511 18.1707C58.0511 17.2513 57.7888 16.5259 57.2641 15.9944C56.754 15.4629 56.1273 15.1972 55.384 15.1972C54.6407 15.1972 54.0068 15.4629 53.4821 15.9944C52.972 16.5115 52.7169 17.2298 52.7169 18.1491C52.7169 19.0685 52.972 19.8011 53.4821 20.3469C54.0068 20.8784 54.6407 21.1442 55.384 21.1442C56.1273 21.1442 56.754 20.8784 57.2641 20.3469C57.7888 19.8154 58.0511 19.09 58.0511 18.1707Z" fill="white"/>
<path d="M68.2322 13.8613C68.582 13.301 69.0848 12.8485 69.7407 12.5038C70.3965 12.159 71.1471 11.9867 71.9924 11.9867C72.998 11.9867 73.9089 12.238 74.725 12.7408C75.5412 13.2436 76.1825 13.9618 76.6489 14.8955C77.1298 15.8292 77.3703 16.9138 77.3703 18.1491C77.3703 19.3845 77.1298 20.4762 76.6489 21.4243C76.1825 22.358 75.5412 23.0834 74.725 23.6005C73.9089 24.1033 72.998 24.3547 71.9924 24.3547C71.1325 24.3547 70.3819 24.1895 69.7407 23.8591C69.0994 23.5143 68.5966 23.0619 68.2322 22.5016V24.1823H64.4939V8.23747H68.2322V13.8613ZM73.5664 18.1491C73.5664 17.2298 73.3041 16.5115 72.7794 15.9944C72.2693 15.4629 71.6353 15.1972 70.8774 15.1972C70.1342 15.1972 69.5002 15.4629 68.9755 15.9944C68.4654 16.5259 68.2104 17.2513 68.2104 18.1707C68.2104 19.09 68.4654 19.8154 68.9755 20.3469C69.5002 20.8784 70.1342 21.1442 70.8774 21.1442C71.6207 21.1442 72.2547 20.8784 72.7794 20.3469C73.3041 19.8011 73.5664 19.0685 73.5664 18.1491Z" fill="white"/>
<path d="M81.2116 10.9093C80.5557 10.9093 80.0165 10.7226 79.5938 10.3491C79.1857 9.96123 78.9817 9.4872 78.9817 8.92697C78.9817 8.35239 79.1857 7.87835 79.5938 7.50487C80.0165 7.11702 80.5557 6.9231 81.2116 6.9231C81.8528 6.9231 82.3775 7.11702 82.7856 7.50487C83.2082 7.87835 83.4196 8.35239 83.4196 8.92697C83.4196 9.4872 83.2082 9.96123 82.7856 10.3491C82.3775 10.7226 81.8528 10.9093 81.2116 10.9093ZM83.0698 12.159V24.1823H79.3315V12.159H83.0698Z" fill="white"/>
<path d="M93.9245 10.7585V15.7789H99.4773V17.395H93.9245V22.5663H100.133V24.1823H91.9351V9.14245H100.133V10.7585H93.9245Z" fill="white"/>
<path d="M108.98 12.159C110.438 12.159 111.618 12.5972 112.522 13.4734C113.425 14.3353 113.877 15.585 113.877 17.2226V24.1823H111.91V17.5027C111.91 16.3248 111.611 15.427 111.013 14.8093C110.416 14.1773 109.6 13.8613 108.565 13.8613C107.516 13.8613 106.678 14.1845 106.051 14.8309C105.439 15.4773 105.133 16.4182 105.133 17.6535V24.1823H103.143V12.3745H105.133V14.0552C105.526 13.4519 106.058 12.985 106.729 12.6546C107.414 12.3242 108.164 12.159 108.98 12.159Z" fill="white"/>
<path d="M122.068 12.1806C123.102 12.1806 124.006 12.4032 124.778 12.8485C125.565 13.2938 126.148 13.8541 126.527 14.5292V12.3745H128.539V24.4409C128.539 25.5182 128.305 26.4735 127.839 27.3066C127.373 28.1541 126.702 28.8149 125.828 29.289C124.968 29.763 123.962 30 122.811 30C121.237 30 119.925 29.6337 118.876 28.9011C117.827 28.1685 117.207 27.1702 117.018 25.9061H118.985C119.204 26.6243 119.656 27.1989 120.341 27.6298C121.026 28.0751 121.849 28.2978 122.811 28.2978C123.904 28.2978 124.793 27.9602 125.478 27.2851C126.178 26.6099 126.527 25.6619 126.527 24.4409V21.963C126.134 22.6525 125.551 23.2271 124.778 23.6867C124.006 24.1464 123.102 24.3762 122.068 24.3762C121.004 24.3762 120.035 24.1177 119.16 23.6005C118.3 23.0834 117.622 22.358 117.127 21.4243C116.631 20.4906 116.384 19.4276 116.384 18.2353C116.384 17.0287 116.631 15.9729 117.127 15.0679C117.622 14.1485 118.3 13.4375 119.16 12.9347C120.035 12.432 121.004 12.1806 122.068 12.1806ZM126.527 18.2569C126.527 17.3662 126.345 16.5906 125.981 15.9298C125.616 15.269 125.121 14.7662 124.494 14.4215C123.882 14.0624 123.204 13.8828 122.461 13.8828C121.718 13.8828 121.04 14.0552 120.428 14.3999C119.816 14.7447 119.328 15.2475 118.963 15.9082C118.599 16.569 118.417 17.3447 118.417 18.2353C118.417 19.1403 118.599 19.9303 118.963 20.6055C119.328 21.2663 119.816 21.7762 120.428 22.1353C121.04 22.4801 121.718 22.6525 122.461 22.6525C123.204 22.6525 123.882 22.4801 124.494 22.1353C125.121 21.7762 125.616 21.2663 125.981 20.6055C126.345 19.9303 126.527 19.1475 126.527 18.2569Z" fill="white"/>
<path d="M132.534 24.3116C132.156 24.3116 131.835 24.1823 131.573 23.9237C131.31 23.6652 131.179 23.3492 131.179 22.9757C131.179 22.6022 131.31 22.2862 131.573 22.0276C131.835 21.769 132.156 21.6397 132.534 21.6397C132.899 21.6397 133.205 21.769 133.453 22.0276C133.715 22.2862 133.846 22.6022 133.846 22.9757C133.846 23.3492 133.715 23.6652 133.453 23.9237C133.205 24.1823 132.899 24.3116 132.534 24.3116Z" fill="white"/>
<defs>
<clipPath id="clip0_7_156">
<rect width="33.4615" height="26.5385" fill="white"/>
</clipPath>
</defs>
</svg>
