<svg width="73" height="68" viewBox="0 0 73 68" fill="none" xmlns="http://www.w3.org/2000/svg">
<g clip-path="url(#clip0_13_425)">
<path d="M36.2647 43.4211C35.4019 43.5526 34.6175 43.7105 33.807 43.8158C33.3886 43.8684 32.9703 43.8684 32.5519 43.9211C31.7937 44.0526 31.0093 43.9211 30.2511 44.1053C30.1726 44.1316 30.0942 44.1053 30.0158 44.1053C28.7869 44.1053 27.558 44.1053 26.303 44.1053C25.8324 44.1053 25.3618 44.0526 24.8911 44C24.7081 44 24.6035 43.8948 24.6035 43.7105C24.6035 43.6053 24.6035 43.5 24.6035 43.3684C24.6035 34.079 24.6035 24.7895 24.6035 15.5C24.6035 15.3158 24.6035 15.1579 24.6035 14.9474C25.5709 15.579 26.4599 16.1842 27.4534 16.8158C27.4534 16.5526 27.4796 16.3948 27.4796 16.2105C27.4796 12.9474 27.4796 9.71054 27.4796 6.44738C27.4796 6.02633 27.6103 5.76317 27.9764 5.57896C28.2378 5.44738 28.4731 5.23686 28.7085 5.07896C30.0158 4.21054 31.3492 3.34212 32.6565 2.4737C33.7808 1.73685 34.8789 1.00001 36.0032 0.263171C36.0817 0.210539 36.1601 0.184223 36.2647 0.131592C36.2647 14.6053 36.2647 29 36.2647 43.4211Z" fill="#B3B2B2"/>
<path d="M36.683 1.52588e-05C36.9184 0.15791 37.0752 0.236857 37.206 0.342121C38.5133 1.21054 39.8467 2.10528 41.154 2.9737C42.4875 3.86844 43.8471 4.76317 45.2067 5.60528C45.5466 5.8158 45.625 6.05265 45.625 6.42107C45.625 9.71054 45.625 13.0263 45.625 16.3158C45.625 16.5 45.625 16.6579 45.625 16.8948C46.5924 16.2632 47.4814 15.6842 48.3965 15.1053C48.4749 15.4737 48.5011 43 48.4227 43.5526C48.3181 43.5526 48.2135 43.5263 48.1089 43.5263C47.5075 43.4474 46.9062 43.3684 46.3048 43.2895C45.7558 43.2105 45.2067 43.1579 44.6838 43.1053C44.6576 43.1053 44.6315 43.1053 44.5792 43.1053C43.1934 43.079 41.8077 42.9474 40.4219 43C40.2389 43 40.0559 43.079 39.8729 43.079C38.9578 43.1842 38.0688 43.2895 37.1537 43.3948C37.0491 43.3948 36.9706 43.4474 36.8399 43.4737C36.8138 43.3684 36.7353 43.2895 36.7353 43.1842C36.7092 43.0527 36.7353 42.9211 36.7353 42.7895C36.7353 28.7369 36.7353 14.6842 36.7353 0.631594C36.683 0.447384 36.683 0.289489 36.683 1.52588e-05Z" fill="white"/>
<path d="M57.7568 45.8948C54.8023 44.9474 51.8739 44.2105 48.8933 43.7369C48.8671 43.7105 48.8671 43.7105 48.841 43.6842L48.8148 43.6579C48.8148 34.1842 48.7887 24.7369 48.7887 15.2632C48.7887 15.1842 48.7887 15.1053 48.8148 15C51.7955 16.9737 54.75 18.9211 57.7307 20.8684C57.7307 23.6316 57.7307 26.4211 57.7307 29.1842C57.7307 31.9737 57.7307 34.7632 57.7307 37.5526C57.7568 40.2895 57.7568 43.0526 57.7568 45.8948Z" fill="#B3B2B2"/>
<path d="M24.2113 43.8684C21.1784 43.5263 18.25 43 15.3478 42.2369C15.3478 35.1053 15.3478 28.0263 15.3478 20.9211C18.2761 18.9474 21.2307 17.0263 24.2113 15.0526C24.2113 24.6579 24.2113 34.2105 24.2113 43.8684Z" fill="white"/>
<path d="M65.1039 50.2369C64.5809 50.1316 64.058 50 63.5612 49.8948C62.7507 49.7369 61.914 49.6053 61.1035 49.4737C60.293 49.3421 59.4563 49.2105 58.6196 49.1053C58.2013 49.0526 57.8091 49.0263 57.3907 48.9737C56.9201 48.9211 56.4495 48.8684 55.9789 48.8158C55.6128 48.7632 55.2468 48.7369 54.9069 48.7105C54.2532 48.6579 53.5734 48.6316 52.9198 48.6053C52.0308 48.5526 51.1157 48.579 50.2267 48.5C48.4488 48.3421 46.6447 48.4474 44.8668 48.4474C44.0824 48.4474 43.298 48.5 42.5136 48.5263C41.5985 48.579 40.6572 48.6316 39.7421 48.7105C38.827 48.7895 37.8857 48.8947 36.9706 49C36.3431 49.079 35.7418 49.1842 35.1142 49.2632C34.5652 49.3158 34.0161 49.3158 33.467 49.3684C32.0551 49.5263 30.6694 49.4474 29.2575 49.4474C28.7084 49.4474 28.1332 49.3421 27.5842 49.2895C27.2443 49.2632 26.9044 49.2369 26.5645 49.1842C25.8847 49.079 25.2049 49.0263 24.5251 48.8947C23.5054 48.6842 22.4595 48.5 21.4398 48.2369C20.0802 47.8947 18.7468 47.4474 17.4395 46.9737C15.74 46.3421 14.0928 45.5526 12.4978 44.7105C11.1644 44.0263 9.90938 43.1842 8.68051 42.3421C8.62822 42.3158 8.60207 42.2632 8.47134 42.1316C8.70666 42.1842 8.86354 42.2105 8.99427 42.2632C10.5369 42.8684 12.1318 43.3947 13.7267 43.8158C14.4065 44 15.0863 44.2105 15.7661 44.3684C16.9165 44.6316 18.0931 44.8947 19.2435 45.1053C20.1325 45.2895 21.0215 45.4211 21.9366 45.579C22.3288 45.6316 22.721 45.6579 23.1132 45.6842C23.5315 45.7369 23.9498 45.7895 24.3682 45.8684C24.3943 45.8684 24.4205 45.8684 24.4728 45.8684C25.0741 45.8947 25.6755 45.9474 26.2507 45.9737C27.558 46 28.8653 46 30.1988 45.9737C30.957 45.9474 31.7414 45.8684 32.4996 45.7895C32.918 45.7632 33.3102 45.7369 33.7285 45.6842C34.2514 45.6053 34.7743 45.5263 35.3234 45.4474C36.0294 45.3421 36.7615 45.2105 37.4674 45.1053C38.2518 45 39.0362 44.9737 39.8205 44.8947C41.0756 44.7632 42.3044 44.8421 43.5594 44.8421C44.2392 44.8421 44.9452 44.9474 45.625 45C46.0433 45.0263 46.4617 45.0526 46.9062 45.1053C47.5859 45.1842 48.2396 45.2632 48.9194 45.3684C49.7299 45.5 50.5405 45.6053 51.3248 45.7632C52.6844 46.0526 54.0179 46.3684 55.3775 46.7105C56.5279 47 57.6784 47.3421 58.8288 47.7105C59.6916 47.9737 60.5283 48.2895 61.365 48.6053C62.5415 49.0526 63.692 49.5263 64.8424 49.9737C64.9731 50.0263 65.1039 50.1053 65.2084 50.1579C65.13 50.1842 65.1039 50.2105 65.1039 50.2369Z" fill="white"/>
<path d="M15.74 51.3947C16.2106 51.4737 16.6812 51.5526 17.1519 51.6316C17.2826 51.6579 17.4395 51.6842 17.5702 51.6842C18.0408 51.7369 18.5115 51.7895 18.9559 51.8684C19.0082 51.8684 19.0605 51.8684 19.0867 51.8947C19.6357 51.9211 20.1848 51.9211 20.7339 52C21.466 52.1053 22.2242 52.0263 22.9563 52.1053C23.4792 52.1579 24.0021 52.2369 24.4989 52.1842C25.5186 52.079 26.5122 52.1316 27.5319 52.079C27.9241 52.0526 28.3424 51.9474 28.7346 51.9211C29.2837 51.8947 29.8066 51.7895 30.3295 51.7105C31.0093 51.6053 31.6891 51.4737 32.3689 51.3684C33.7285 51.1579 35.0097 50.6842 36.3431 50.3421C37.4413 50.0526 38.5394 49.7895 39.6375 49.5526C40.1605 49.4474 40.6834 49.3947 41.2324 49.3158C42.1737 49.1842 43.1411 49.1842 44.1085 49.1053C45.5988 48.9737 47.0892 49 48.5534 49.0526C49.5469 49.079 50.5405 49.079 51.5079 49.2895C51.8478 49.3684 52.24 49.3421 52.5799 49.3947C53.4165 49.5 54.2271 49.6842 55.0376 49.7632C55.822 49.8421 56.5802 50.079 57.3646 50.1842C57.5215 50.2105 57.6784 50.2632 57.8614 50.3947C56.2926 50.3947 54.8023 50.3947 53.312 50.3947C52.6583 50.3947 52.0308 50.4474 51.3771 50.4737C50.5405 50.5263 49.6776 50.579 48.841 50.6842C47.9259 50.7895 47.0369 50.9211 46.1218 51.0263C45.7034 51.079 45.3112 51.1053 44.8929 51.1579C44.5269 51.2105 44.187 51.2632 43.8209 51.3421C43.115 51.4737 42.3829 51.579 41.6769 51.7369C40.4742 51.9737 39.2715 52.2369 38.0949 52.5C37.0491 52.7369 36.0294 53.0526 34.9835 53.2895C34.3037 53.4474 33.5978 53.5526 32.8918 53.6579C32.3166 53.7632 31.7153 53.8421 31.1139 53.9211C31.0877 53.9211 31.0616 53.9211 31.0093 53.9211C30.0419 53.9474 29.0483 53.9737 28.0809 54.0263C27.9764 54.0263 27.8718 54 27.7672 53.9737C27.6887 53.9737 27.6103 53.9211 27.5319 53.9474C26.9567 54.1579 26.4076 53.9474 25.8585 53.9211C25.1003 53.8684 24.3682 53.8421 23.61 53.6842C22.9824 53.5526 22.3549 53.4737 21.7013 53.3684C21.0738 53.2632 20.4463 53.0526 19.8188 52.9474C19.2436 52.8421 18.6945 52.6316 18.1454 52.4737C17.4133 52.2632 16.7074 51.9474 16.0014 51.6579C15.8968 51.6053 15.7661 51.5526 15.6615 51.5263C15.74 51.4211 15.74 51.3947 15.74 51.3947Z" fill="#B3B2B2"/>
<path d="M59.7439 56.1316C59.8485 56.0526 59.9008 56 59.9531 56C60.1884 55.9474 61.6264 56 61.914 56.079C61.7572 56.1316 61.6526 56.1579 61.5741 56.1842C61.3911 56.2105 61.2865 56.3158 61.2865 56.5C61.2865 56.5526 61.2865 56.6053 61.2865 56.6316C61.2604 58.1316 61.2342 59.6316 61.2081 61.1053C61.2081 61.3684 61.2081 61.6053 61.1819 61.9474C60.4499 61.4737 59.9008 60.9211 59.2994 60.4211C58.6981 59.9211 58.1228 59.3684 57.5215 58.8421C56.9463 58.3158 56.3711 57.7632 55.7435 57.2105C55.6651 57.4211 55.6651 57.6053 55.6913 57.7632C55.822 58.6579 55.7435 59.5526 55.7697 60.4211C55.7958 60.7105 55.822 61 55.8481 61.2632C55.8743 61.4737 55.9789 61.6053 56.2142 61.6316C56.3449 61.6316 56.4756 61.7105 56.6325 61.7369C56.3449 61.8421 55.2206 61.8684 54.5147 61.7632C54.5931 61.7105 54.6454 61.6842 54.6977 61.6579C55.1683 61.5 55.1683 61.5 55.1683 61C55.1683 59.4737 55.1683 57.9474 55.1683 56.4211C55.1683 56.2632 55.116 56.079 55.2991 55.8947C55.9527 56.3421 56.4756 56.9211 57.0509 57.4211C57.6522 57.9474 58.2536 58.5 58.8549 59.0263C59.4302 59.5526 60.0315 60.079 60.6852 60.6579C60.6329 59.7632 60.7375 58.9474 60.6067 58.1053C60.5544 57.7632 60.5806 57.3947 60.5806 57.0526C60.5806 56.9211 60.5806 56.7895 60.5806 56.6579C60.5544 56.2369 60.476 56.1579 60.0838 56.1316C60.0054 56.1579 59.9008 56.1579 59.7439 56.1316Z" fill="white"/>
<path d="M14.668 55.9737C15.2432 55.9737 15.8184 55.9474 16.3675 56C16.3675 56.0527 16.3675 56.079 16.3675 56.1316C16.3152 56.1579 16.2367 56.1579 16.1845 56.1842C15.923 56.2895 15.6092 56.3158 15.4001 56.5C14.5634 57.1579 13.7529 57.8158 12.9423 58.5C12.9162 58.5263 12.89 58.579 12.8377 58.6316C13.6221 59.2895 14.3804 59.9474 15.1386 60.6053C15.3478 60.7895 15.5831 60.9737 15.7923 61.1316C16.1583 61.3948 16.5244 61.6316 16.995 61.6579C17.0996 61.6579 17.2042 61.7369 17.3872 61.7895C16.289 61.8948 15.3478 61.8685 14.5372 61.079C13.8836 60.4211 13.1515 59.8158 12.4717 59.1842C12.3933 59.1053 12.2887 59.0527 12.1057 58.9474C12.1841 59.8684 12.0011 60.7369 12.2625 61.579C12.4978 61.6316 12.707 61.6842 12.9423 61.7632C12.6024 61.8684 11.1905 61.8684 10.7199 61.7895C10.9029 61.6842 11.1121 61.6579 11.1905 61.5C11.2951 61.3684 11.269 61.1316 11.2951 60.9474C11.3213 60.8158 11.3213 60.6579 11.3213 60.5263C11.3213 59.3421 11.3213 58.1579 11.3213 57C11.3213 56.9211 11.3213 56.8421 11.3213 56.7632C11.2428 56.2895 11.1644 56.2106 10.7722 56.1842C10.7199 56.1842 10.6938 56.1579 10.6415 56.1579C10.6153 56.1579 10.6153 56.1316 10.6153 56.1316C10.7461 56 10.7461 56 11.6612 56C12.0011 56 12.3671 55.8948 12.7332 56.079C12.707 56.1316 12.6809 56.1579 12.6809 56.1579C12.1579 56.2369 12.1318 56.2632 12.1318 56.7895C12.1318 57.3948 12.1318 58 12.1318 58.6579C12.6286 58.2369 13.0731 57.8684 13.4914 57.5C13.8052 57.2369 14.1189 56.9474 14.4065 56.6842C14.7464 56.3948 14.7464 56.3948 14.668 55.9737Z" fill="white"/>
<path d="M72.3725 59.4737C72.1372 58.9737 72.1111 58.9474 71.5881 58.9474C71.2221 58.9474 70.8299 58.9474 70.4116 58.9474C70.4116 59.6053 70.4116 60.2632 70.4116 60.8948C70.4116 60.9737 70.4638 61.079 70.49 61.1579C70.5161 61.3158 70.5946 61.3948 70.7776 61.4474C71.3005 61.579 71.7973 61.5526 72.3202 61.4211C72.4771 61.3684 72.6078 61.2895 72.6601 61.1316C72.7124 61.0263 72.7386 60.9211 72.8431 60.8158C72.9739 61.1579 72.8954 61.4737 72.7386 61.7895C72.6863 61.8684 72.5294 61.9211 72.3987 61.9211C72.0065 61.9211 71.6143 61.8948 71.2221 61.8684C70.9083 61.8684 70.5946 61.8421 70.2808 61.8421C69.8625 61.8421 69.4703 61.8421 69.052 61.8421C69.0781 61.7895 69.0781 61.7369 69.0781 61.7369C69.4442 61.6579 69.5487 61.4737 69.601 61.079C69.6795 60.2895 69.6272 59.5263 69.6533 58.7369C69.6795 58.1842 69.6533 57.6579 69.6533 57.1053C69.6533 57 69.6795 56.9211 69.6533 56.8158C69.5226 56.2632 69.601 56.2105 69.052 56.1579C69.0258 56.1579 68.9735 56.1053 68.8951 56.0526C69.3657 55.8948 69.784 56 70.1762 55.9737C70.5946 55.9737 70.9868 55.9737 71.4051 55.9737C71.8234 55.9737 72.2418 55.9737 72.7124 55.9737C72.6601 56.3421 72.6863 56.6579 72.5032 57.0263C72.2941 56.4737 72.1895 56.3684 71.6404 56.3684C71.2744 56.3684 70.8822 56.3684 70.5161 56.3684C70.4377 56.7369 70.4116 58.0263 70.49 58.5526C71.1698 58.5 71.8496 58.6842 72.5817 58.3684C72.451 58.7369 72.5294 59.1053 72.3725 59.4737Z" fill="white"/>
<path d="M21.8059 56.079C22.1719 55.9737 23.1916 55.9474 23.7145 56.0263C23.6623 56.1579 23.5838 56.2632 23.5838 56.3684C23.5838 56.5 23.6884 56.6316 23.7668 56.7369C24.2636 57.4474 24.7342 58.1579 25.2572 58.9211C25.3095 58.8421 25.3356 58.7895 25.3879 58.7369C25.8324 58.079 26.2507 57.4211 26.7213 56.7632C26.9044 56.5 26.9567 56.2632 26.7213 56.0263C27.1135 55.9211 28.0809 55.9474 28.3947 56.0263C28.3947 56.0527 28.3686 56.1053 28.3686 56.1053C27.8195 56.1316 27.4796 56.5263 27.192 56.8948C26.7213 57.5263 26.2769 58.1842 25.8324 58.8421C25.6755 59.079 25.5709 59.3421 25.5971 59.6579C25.6232 60.1316 25.5971 60.579 25.5971 61.0527C25.5971 61.5263 25.6232 61.5263 26.0938 61.6316C26.1984 61.6579 26.303 61.7105 26.4076 61.7895C26.0416 61.7895 25.6755 61.7895 25.3095 61.7895C24.9434 61.7895 24.5512 61.7895 24.159 61.7895C24.159 61.7369 24.159 61.7105 24.1852 61.6842C24.7342 61.5 24.7342 61.5 24.7604 60.9211C24.7604 60.5263 24.7604 60.1579 24.7604 59.7632C24.7865 59.4211 24.682 59.1316 24.4989 58.8684C24.0022 58.1579 23.4792 57.4474 22.9563 56.7632C22.6164 56.4474 22.3549 56.2895 21.8059 56.079Z" fill="white"/>
<path d="M3.39901 56C3.39901 56.3947 3.47745 56.7369 3.29443 57.1316C3.21599 57 3.1637 56.9211 3.1637 56.8421C3.08526 56.5263 2.90224 56.3684 2.61463 56.3158C2.24858 56.2632 1.88254 56.2105 1.54264 56.2895C0.888983 56.4211 0.653668 57.1842 1.1243 57.6579C1.30732 57.8684 1.56878 58.0263 1.8041 58.1842C2.27473 58.5263 2.79765 58.8158 3.18984 59.2632C3.55589 59.6842 3.71277 60.1579 3.55589 60.7105C3.42516 61.1316 3.13755 61.4211 2.7715 61.6316C2.45775 61.8158 2.144 61.8947 1.77795 61.8947C1.33347 61.8947 0.888983 61.9474 0.470645 61.7895C0.0784532 61.6579 0.0523071 61.6316 0.0523071 61.2105C0.0523071 61.0263 0.0523071 60.8684 0.0784533 60.6842C0.0784533 60.6053 0.156892 60.5263 0.23533 60.3947C0.287622 60.5526 0.339915 60.6316 0.366061 60.7105C0.366061 61.079 0.601376 61.2632 0.888983 61.3947C1.38576 61.6316 1.90868 61.6316 2.40546 61.4211C3.00682 61.1579 3.1637 60.3947 2.74536 59.8947C2.53619 59.6579 2.27473 59.4737 2.01327 59.2895C1.54264 58.9474 1.04586 58.6316 0.653668 58.1842C0.261476 57.7105 0.130746 57.079 0.57523 56.5263C0.732107 56.3421 0.941276 56.1842 1.17659 56.079C1.72566 55.8421 2.30087 55.7632 2.87609 55.8947C2.98067 55.9737 3.1637 55.9737 3.39901 56Z" fill="white"/>
<path d="M73 63.4211C48.6841 63.4211 24.3682 63.4211 0.0261536 63.4211C0.0522997 63.3948 0.0522997 63.3684 0.0522997 63.3684L0.0784458 63.3421C24.2898 63.3421 48.5011 63.3421 72.7386 63.3421C72.817 63.3421 72.8954 63.3421 72.9739 63.3421C73 63.3684 73 63.3948 73 63.4211Z" fill="white"/>
<path d="M34.539 61.8158C35.1143 61.6579 35.1404 61.2368 35.1404 60.7895C35.1404 59.4737 35.1404 58.1842 35.1404 56.8684C35.1404 56.7895 35.1404 56.7105 35.1404 56.6316C35.0881 56.3158 35.0097 56.2368 34.6959 56.1842C34.6175 56.1842 34.5129 56.1579 34.356 56.1316C34.6436 55.9211 34.9051 56.0263 35.1143 56C35.3757 55.9737 35.6633 56 35.9248 56C36.1601 56 36.4216 55.9737 36.7092 56.0263C36.5784 56.2368 36.4216 56.1579 36.2908 56.1842C36.134 56.2368 36.0032 56.3158 36.0294 56.5263C36.0294 56.6053 36.0294 56.6842 36.0294 56.7632C36.0294 58.079 36.0294 59.3947 36.0294 60.7369C36.0294 60.8158 36.0294 60.8947 36.0294 60.9737C36.0555 61.2368 36.1601 61.4211 36.4477 61.4737C36.9445 61.579 37.4413 61.5526 37.938 61.4737C38.1995 61.4211 38.3564 61.2895 38.4871 61.0526C38.5394 60.9474 38.5917 60.8684 38.6963 60.7105C38.7224 60.8684 38.7747 60.9211 38.7747 60.9737C38.7747 61.079 38.7224 61.1579 38.7224 61.2632C38.644 61.8684 38.5133 61.8421 38.0426 61.9211C37.8335 61.9474 37.5981 61.8947 37.389 61.8947C37.2582 61.8947 37.1014 61.8684 36.9706 61.8684C36.2908 61.8684 35.611 61.8684 34.9312 61.8684C34.7744 61.8158 34.6436 61.8158 34.539 61.8158Z" fill="white"/>
<path d="M45.3636 56.079C45.625 56 47.0892 55.9474 47.2984 56C47.3507 56 47.403 56.0526 47.4552 56.1053C46.8277 56.2632 46.8277 56.2632 46.8277 56.9474C46.8277 58.2105 46.8277 59.5 46.8277 60.7632C46.8277 61.0263 46.9062 61.2895 46.9323 61.5526C47.1938 61.6316 47.403 61.6842 47.6383 61.7368C47.3245 61.8421 46.2525 61.8684 45.442 61.7895C45.442 61.7632 45.442 61.7105 45.4681 61.7105C45.8603 61.6316 45.9649 61.3684 45.9649 61C45.9388 59.6579 45.9649 58.2895 45.9649 56.9474C45.9649 56.1842 46.0695 56.3421 45.3636 56.079Z" fill="white"/>
<path d="M12.6547 68C12.6547 66.9737 12.6547 66.1053 12.6547 65.1842C13.0731 65.1053 13.4653 65.1053 13.8836 65.1579C14.1973 65.1842 14.4327 65.4737 14.4588 65.7632C14.485 66.1579 14.4065 66.2895 13.9359 66.5263C14.3019 66.8948 14.4327 67.3948 14.5895 67.8948C14.4065 67.9737 14.3281 67.8948 14.2496 67.7895C14.1712 67.6053 14.1189 67.4474 14.0405 67.2632C13.8574 66.7369 13.8052 66.7105 13.2561 66.7105C13.1515 66.7105 13.0731 66.7105 12.9685 66.7369C12.8639 66.9211 12.9162 67.1053 12.9162 67.2895C12.9162 67.4737 12.9162 67.6316 12.89 67.8158C12.89 67.8421 12.7855 67.8948 12.6547 68ZM12.9423 66.3948C13.1776 66.3948 13.3868 66.4211 13.5698 66.3948C13.7267 66.3684 13.8836 66.3158 14.0143 66.2369C14.1973 66.1316 14.1973 65.9474 14.1712 65.7632C14.1451 65.579 14.0143 65.4474 13.8052 65.4474C13.5175 65.4474 13.2561 65.4474 12.9685 65.4474C12.9423 65.7895 12.9423 66.0526 12.9423 66.3948Z" fill="white"/>
<path d="M17.0211 65.1579C17.5964 65.1579 18.0931 65.1579 18.5899 65.1579C18.6683 65.3158 18.6422 65.3948 18.4853 65.4211C18.3023 65.4474 18.1454 65.4211 17.9624 65.4211C17.7794 65.4211 17.6225 65.4211 17.4133 65.4211C17.4133 65.7106 17.4133 65.9737 17.4133 66.2632C17.8055 66.2895 18.1716 66.3421 18.5376 66.3685C18.5638 66.3685 18.5899 66.4474 18.6161 66.5C18.2239 66.6842 17.8317 66.5 17.4133 66.6053C17.361 66.8948 17.4133 67.2106 17.3872 67.5263C17.8317 67.6842 18.2762 67.5 18.7468 67.6579C18.6945 67.7632 18.6422 67.8685 18.6161 67.8685C18.1454 67.8948 17.7009 67.8948 17.2303 67.8685C17.1519 67.8685 17.0996 67.7632 17.0211 67.6842C16.995 67.6579 17.0211 67.6316 17.0211 67.579C17.0211 66.8421 17.0211 66.0263 17.0211 65.1579Z" fill="white"/>
<path d="M33.0749 67.9211C32.9441 67.579 32.918 65.7895 33.0226 65.1579C33.5193 65.1316 34.0423 65.1579 34.539 65.1579C34.6175 65.3684 34.539 65.4211 34.4083 65.4474C34.2514 65.4474 34.0946 65.4474 33.9377 65.4474C33.7547 65.4474 33.5978 65.4474 33.4148 65.4474C33.284 65.7105 33.3625 66 33.3625 66.2632C33.7547 66.4474 34.2253 66.1579 34.6698 66.5263C34.173 66.6842 33.7808 66.5526 33.3886 66.6579C33.3886 66.9737 33.3886 67.2895 33.3886 67.6579C33.7547 67.6579 34.1207 67.6579 34.4606 67.6842C34.6175 67.6842 34.7221 67.7105 34.6436 67.9474C34.1207 67.9474 33.5978 67.9211 33.0749 67.9211Z" fill="white"/>
<path d="M23.4792 67.9474C22.9563 67.8684 23.0347 67.4211 22.7994 67.1579C22.4595 67.1579 22.0673 67.1579 21.7013 67.1579C21.5444 67.1579 21.4398 67.2369 21.3875 67.3948C21.3352 67.5527 21.2829 67.6842 21.2045 67.8158C21.1784 67.8684 21.0738 67.8948 20.9169 67.9474C21.0476 67.3948 21.2568 66.9737 21.4398 66.5263C21.6228 66.079 21.8059 65.6316 21.9889 65.1842C22.2242 65.079 22.3549 65.1579 22.4334 65.3421C22.7733 66.1842 23.1132 67.0263 23.4792 67.9474ZM21.5967 66.8684C21.9889 66.8421 22.3288 66.9211 22.6948 66.8158C22.5118 66.3421 22.3549 65.8684 22.1719 65.3684C21.9627 65.8948 21.8059 66.3684 21.5967 66.8684Z" fill="white"/>
<path d="M47.4291 67.9474C46.88 67.8684 46.9846 67.3947 46.7231 67.1579C46.3832 67.1579 46.0172 67.1579 45.6773 67.1579C45.4943 67.1579 45.3897 67.2105 45.3374 67.3947C45.2851 67.5526 45.2328 67.6842 45.1282 67.8158C45.1021 67.8684 44.9975 67.8684 44.8145 67.9474C45.1544 66.9474 45.5727 66.079 45.9126 65.1842C46.0956 65.079 46.2525 65.1053 46.3571 65.2895C46.697 66.1579 47.0369 67.0263 47.4291 67.9474ZM45.5465 66.8684C45.9126 66.8421 46.2786 66.9211 46.6447 66.8158C46.4617 66.3421 46.3048 65.8684 46.1218 65.3684C45.9126 65.8947 45.7296 66.3684 45.5465 66.8684Z" fill="white"/>
<path d="M53.8088 66.6316C53.8088 66.9474 53.8088 67.2632 53.8088 67.579C54.2532 67.7105 54.6977 67.579 55.1422 67.6579C55.2207 67.7895 55.2207 67.8947 55.0638 67.9211C54.567 67.9474 54.0702 67.9211 53.5734 67.9211C53.495 67.5263 53.4689 65.6842 53.5473 65.1842C54.0441 65.1842 54.567 65.1842 55.0638 65.1842C55.1161 65.3684 55.0115 65.4211 54.9069 65.4211C54.7239 65.4474 54.567 65.4211 54.384 65.4211C54.201 65.4211 54.0179 65.4211 53.8088 65.4211C53.8088 65.7369 53.8088 66 53.8088 66.2632C54.2271 66.3158 54.5931 66.3421 54.9853 66.3947C54.9853 66.3947 54.9853 66.4474 55.0115 66.5263C54.6454 66.7105 54.2271 66.5263 53.8088 66.6316Z" fill="white"/>
<path d="M59.221 65.5C58.9595 65.4474 58.7242 65.3948 58.4889 65.3684C58.3581 65.3684 58.2013 65.4211 58.0967 65.4737C57.7829 65.6579 57.7568 65.9474 58.0705 66.1579C58.2274 66.2632 58.4104 66.3158 58.5935 66.3948C58.7765 66.4737 58.9334 66.5527 59.0902 66.6579C59.3517 66.8158 59.4301 67.0527 59.3779 67.3684C59.3256 67.6316 59.1687 67.7632 58.9334 67.8684C58.6719 67.9737 58.3843 68 58.0967 67.9474C57.8614 67.9211 57.6522 67.8158 57.5476 67.5C57.6522 67.5263 57.7306 67.5263 57.7829 67.5527C58.0705 67.7369 58.3582 67.7106 58.6458 67.6579C58.8288 67.6316 58.9857 67.5527 59.038 67.3684C59.0902 67.1579 59.0118 67 58.8288 66.8948C58.6719 66.8158 58.4889 66.7369 58.332 66.6579C58.1751 66.579 57.9921 66.5 57.8352 66.3948C57.4169 66.079 57.443 65.6053 57.8614 65.3158C58.2274 65.0527 58.7242 65.0263 59.1425 65.3158C59.1948 65.2895 59.1948 65.3948 59.221 65.5Z" fill="white"/>
<path d="M37.0752 67.5C37.389 67.5526 37.6766 67.6053 37.9642 67.6316C38.0165 67.6316 38.0949 67.6316 38.1472 67.6053C38.3041 67.5526 38.4871 67.5 38.5394 67.2895C38.5655 67.079 38.4871 66.9211 38.3041 66.8158C38.1472 66.7368 37.9642 66.6579 37.8073 66.579C37.6504 66.5 37.4674 66.4211 37.3105 66.3158C36.9183 66.0263 36.9183 65.5526 37.3628 65.2368C37.755 64.9474 38.1995 64.9737 38.6178 65.2105C38.6701 65.2368 38.6963 65.3421 38.7747 65.5C38.5917 65.4474 38.5133 65.4211 38.4348 65.3947C38.1472 65.2895 37.8857 65.2632 37.6243 65.4211C37.2844 65.6053 37.2582 65.9211 37.572 66.1316C37.7027 66.2368 37.8857 66.2895 38.0426 66.3684C38.2256 66.4474 38.4087 66.5263 38.5917 66.6316C38.8532 66.7895 38.9316 67.0526 38.8793 67.3421C38.827 67.6053 38.6701 67.7632 38.4087 67.8421C38.0165 67.9737 37.6243 68 37.2582 67.7895C37.1537 67.7368 37.0491 67.6579 37.0752 67.5Z" fill="white"/>
<path d="M43.1411 65.2369C42.932 65.6053 42.5921 65.3421 42.3045 65.5C42.3045 65.6053 42.2783 65.7106 42.2783 65.8421C42.2783 66.3948 42.2783 66.9474 42.2783 67.5263C42.2783 67.6842 42.3045 67.8421 42.1214 67.9474C41.9123 67.9211 41.9123 67.7369 41.9123 67.579C41.9123 67.0263 41.9123 66.4737 41.9123 65.8948C41.9123 65.7632 41.9123 65.6579 41.8861 65.5263C41.6508 65.2895 41.2325 65.6316 41.0494 65.2369C41.4155 65.1053 42.7489 65.1053 43.1411 65.2369Z" fill="white"/>
<path d="M51.2203 65.2369C51.0111 65.6053 50.6451 65.3421 50.3836 65.5C50.3836 65.6053 50.3575 65.7106 50.3575 65.8421C50.3575 66.3948 50.3575 66.9474 50.3575 67.5263C50.3575 67.6842 50.3836 67.8421 50.2006 67.9474C49.9914 67.9211 49.9914 67.7369 49.9914 67.579C49.9914 67.0263 49.9914 66.4737 49.9914 65.8948C49.9914 65.7632 49.9914 65.6579 49.9653 65.5263C49.73 65.2895 49.3116 65.6316 49.1286 65.2369C49.4946 65.1053 50.8281 65.1053 51.2203 65.2369Z" fill="white"/>
<path d="M26.0416 67.6316C26.4599 67.6316 26.7998 67.6316 27.1397 67.6316C27.2966 67.6316 27.4012 67.6579 27.3227 67.8685C27.0874 67.9737 26.7998 67.8948 26.5383 67.9211C26.2769 67.9211 26.0416 67.9211 25.8063 67.9211C25.7801 67.8421 25.754 67.7895 25.7278 67.7632C25.7278 66.9737 25.7278 66.2106 25.7278 65.4211C25.7278 65.2632 25.7278 65.1316 26.0154 65.1842C26.0677 65.579 26.0154 66 26.0416 66.3948C26.0416 66.7895 26.0416 67.1842 26.0416 67.6316Z" fill="white"/>
<path d="M30.6171 66.7105C30.5648 66.8421 30.5387 66.9474 30.4864 66.9474C30.1988 66.9474 29.9112 66.9474 29.5974 66.9474C29.5713 66.9474 29.5451 66.8421 29.519 66.7369C29.9112 66.6579 30.2249 66.6842 30.6171 66.7105Z" fill="white"/>
</g>
<defs>
<clipPath id="clip0_13_425">
<rect width="73" height="68" fill="white"/>
</clipPath>
</defs>
</svg>
